<svg width="460" height="12" viewBox="0 0 460 12" fill="none" xmlns="http://www.w3.org/2000/svg">
<path d="M-7.29231e-07 1.04907e-06L12 0L12 12L3.19842e-07 12L-7.29231e-07 1.04907e-06Z" fill="#0924D7"/>
<path d="M12 1.04907e-06L24 0L24 12L12 12L12 1.04907e-06Z" fill="#2F17E5"/>
<path d="M24 1.04907e-06L36 0L36 12L24 12L24 1.04907e-06Z" fill="#550AF4"/>
<path d="M36 1.04907e-06L48 0L48 12L36 12L36 1.04907e-06Z" fill="#7805F5"/>
<path d="M48 1.04907e-06L60 0L60 12L48 12L48 1.04907e-06Z" fill="#9A25B7"/>
<path d="M60 1.04907e-06L72 0L72 12L60 12L60 1.04907e-06Z" fill="#BE4677"/>
<path d="M72 1.04907e-06L84 0L84 12L72 12L72 1.04907e-06Z" fill="#DF653A"/>
<path d="M84 1.04907e-06L96 0L96 12L84 12L84 1.04907e-06Z" fill="#FF880E"/>
<path d="M96 1.04907e-06L108 0L108 12L96 12L96 1.04907e-06Z" fill="#FF993F"/>
<path d="M108 1.04907e-06L120 0L120 12L108 12L108 1.04907e-06Z" fill="#FFAC74"/>
<path d="M120 1.04907e-06L132 0L132 12L120 12L120 1.04907e-06Z" fill="#FFC1AF"/>
<path d="M132 1.04907e-06L144 0L144 12L132 12L132 1.04907e-06Z" fill="#FFD4E6"/>
<path d="M144 1.04907e-06L156 0L156 12L144 12L144 1.04907e-06Z" fill="#E0E1F1"/>
<path d="M156 1.04907e-06L168 0L168 12L156 12L156 1.04907e-06Z" fill="#A4E8D6"/>
<path d="M168 1.04907e-06L180 0L180 12L168 12L168 1.04907e-06Z" fill="#67F0BB"/>
<path d="M180 2.44784e-05L460 0L460 12L180 12L180 2.44784e-05Z" fill="#2AF8A0"/>
</svg>
