<svg width="1809" height="1078" viewBox="0 0 1809 1078" fill="none" xmlns="http://www.w3.org/2000/svg">
<path d="M463.861 433.487L357.178 612.665C355.707 615.109 351.946 613.663 352.489 610.864L381.34 455.96C381.626 454.486 380.653 453.062 379.177 452.792L353.254 448.053C351.783 447.783 350.374 448.762 350.113 450.235L323.523 603.776C323.024 606.587 318.99 606.58 318.499 603.768L279.13 380.235C278.874 378.764 277.472 377.781 276.002 378.042L250.035 382.649C248.562 382.91 247.583 384.32 247.852 385.792L289.91 611.124C290.422 613.92 286.669 615.332 285.212 612.892L178.443 433.428C177.675 432.137 176.001 431.723 174.719 432.505L152.292 446.21C151.022 446.986 150.62 448.643 151.393 449.915L299.286 693.082C300.363 694.872 302.299 695.966 304.387 695.966H338.09C340.169 695.966 342.097 694.882 343.177 693.105L491.033 449.97C491.808 448.695 491.402 447.034 490.127 446.261L467.571 432.572C466.295 431.797 464.632 432.208 463.861 433.487Z" fill="white"/>
<path d="M1578.24 606.913L1541.2 539.41H1573.59L1594.53 582.085C1597.25 587.71 1602.48 587.71 1605 582.085L1626.14 539.41H1655.23L1581.93 675.192H1551.48L1577.85 631.16C1582.9 622.625 1582.9 615.254 1578.24 606.913Z" fill="white"/>
<path d="M1476.09 560.774H1462.13V539.438H1476.09C1481.72 539.438 1484.24 536.334 1484.24 531.096V518.488L1513.33 498.703V531.096C1513.33 536.334 1515.85 539.438 1521.48 539.438H1539.51V560.774H1521.48C1515.85 560.774 1513.33 563.684 1513.33 569.116V603.449C1513.33 611.208 1516.82 614.7 1524.58 614.7H1547.85V636.425H1523.99C1499.95 636.425 1484.24 626.338 1484.24 604.031V569.116C1484.24 563.684 1481.72 560.774 1476.09 560.774Z" fill="white"/>
<path d="M1359.45 587.728C1359.45 558.244 1380.39 537.488 1411.43 537.488C1440.51 537.488 1461.07 557.468 1461.07 585.012C1461.07 587.728 1460.88 590.443 1460.49 593.547H1392.03C1389.12 593.547 1387.57 595.099 1387.57 598.59C1387.57 607.125 1396.1 618.569 1411.43 618.569C1420.93 618.569 1429.07 614.302 1433.14 606.737H1461.46C1456.61 625.747 1437.41 638.743 1412.2 638.743C1379.23 638.743 1359.45 616.436 1359.45 587.728ZM1392.03 575.896H1428.88C1431.79 575.896 1432.95 574.344 1432.95 572.404C1432.95 566.973 1425.78 557.662 1410.65 557.662C1395.71 557.662 1387.96 567.166 1387.96 572.404C1387.96 574.537 1389.32 575.896 1392.03 575.896Z" fill="white"/>
<path d="M1332.15 527.59C1322.26 527.59 1314.89 520.219 1314.89 511.296C1314.89 502.18 1322.26 494.809 1332.15 494.809C1342.04 494.809 1349.41 502.18 1349.41 511.296C1349.41 520.219 1342.04 527.59 1332.15 527.59ZM1346.89 636.41H1317.41V539.423H1346.89V636.41Z" fill="white"/>
<path d="M1251.39 638.743C1217.84 638.743 1194.96 615.854 1194.96 588.116C1194.96 560.377 1217.84 537.488 1251.39 537.488C1280.87 537.488 1302.21 554.946 1305.89 577.641H1275.44C1272.92 567.361 1263.61 560.377 1251.39 560.377C1235.1 560.377 1224.63 572.792 1224.63 588.116C1224.63 603.44 1235.1 615.854 1251.39 615.854C1263.61 615.854 1272.92 608.871 1275.44 598.59H1305.89C1302.21 621.285 1280.87 638.743 1251.39 638.743Z" fill="white"/>
<path d="M1133.07 638.743C1099.52 638.743 1077.02 615.854 1077.02 588.116C1077.02 560.377 1099.52 537.488 1133.07 537.488C1166.62 537.488 1189.11 560.377 1189.11 588.116C1189.11 615.854 1166.62 638.743 1133.07 638.743ZM1133.07 615.854C1149.16 615.854 1159.25 603.827 1159.25 588.116C1159.25 572.404 1149.16 560.377 1133.07 560.377C1116.97 560.377 1106.69 572.404 1106.69 588.116C1106.69 603.827 1116.97 615.854 1133.07 615.854Z" fill="white"/>
<path d="M966.293 597.63H998.099C999.262 608.492 1006.43 614.893 1018.85 614.893C1031.06 614.893 1038.04 608.686 1038.04 599.569C1038.04 592.586 1033.97 586.185 1021.37 582.5L1003.53 577.069C983.162 571.055 968.425 558.059 968.425 538.662C968.425 516.355 988.79 498.703 1018.46 498.703C1046.19 498.703 1068.3 513.639 1070.24 539.438H1038.43C1037.08 527.993 1029.32 522.562 1018.26 522.562C1006.43 522.562 999.262 528.963 999.262 537.498C999.262 544.675 1004.11 549.524 1015.36 552.822L1033.78 558.447C1057.44 565.43 1069.27 579.978 1069.27 598.018C1069.27 621.876 1049.1 638.752 1018.85 638.752C990.144 638.752 968.62 623.816 966.293 597.63Z" fill="white"/>
<path d="M824.824 636.411H795.93V500.629H833.943L882.618 574.145C887.272 581.128 895.997 579.77 895.997 570.266V500.629H924.896V636.411H890.958L838.597 557.269C833.748 550.286 824.824 551.644 824.824 560.761V636.411Z" fill="white"/>
<path d="M708.461 638.752C664.441 638.752 632.637 607.91 632.637 568.727C632.637 529.545 664.441 498.703 708.461 498.703C752.487 498.703 784.293 529.739 784.293 568.727C784.293 607.717 752.487 638.752 708.461 638.752ZM708.461 612.372C734.255 612.372 751.324 593.168 751.324 568.727C751.324 544.287 734.255 525.084 708.461 525.084C682.673 525.084 665.604 544.287 665.604 568.727C665.604 593.168 682.673 612.372 708.461 612.372Z" fill="white"/>
<path d="M552.15 524.507H518.988V500.648H638.644V524.507H605.481C598.694 524.507 594.427 528.581 594.427 535.176V636.43H563.204V535.176C563.204 528.581 558.938 524.507 552.15 524.507Z" fill="white"/>
</svg>
