<svg width="2174" height="1296" viewBox="0 0 2174 1296" fill="none" xmlns="http://www.w3.org/2000/svg">
<path d="M564.326 645.191C568.906 646.534 572.19 647.135 575.243 648.385C599.621 658.43 600.5 690.831 586.623 705.689C578.435 714.438 568.12 718.141 556.879 719.992C552.577 720.687 548.183 720.964 543.834 721.011C525.609 721.103 507.384 721.011 489.112 721.103C485.226 721.103 483.746 720.039 483.746 715.919C483.885 670.974 483.839 625.982 483.746 581.036C483.746 577.148 485.226 575.945 488.881 575.945C507.985 576.037 527.089 575.667 546.194 576.13C558.498 576.408 570.016 579.74 579.591 588.35C594.671 601.912 594.81 630.379 572.745 641.072C570.294 642.275 567.842 643.432 564.326 645.145V645.191ZM514.091 676.389C514.091 681.481 514.091 686.573 514.091 691.711C514.091 694.071 514.97 695.228 517.421 695.182C527.043 695.09 536.665 695.46 546.24 694.951C555.26 694.488 562.384 688.193 563.54 680.833C565.344 669.215 555.815 657.411 544.066 657.041C535.462 656.763 526.904 657.087 518.3 656.995C515.016 656.995 513.952 658.43 514.045 661.485C514.183 666.437 514.045 671.39 514.045 676.343L514.091 676.389ZM514.091 618.437H514.045C514.045 622.973 514.137 627.463 514.045 631.999C513.952 635.193 515.294 636.443 518.439 636.35C525.146 636.212 531.854 636.628 538.561 636.165C542.262 635.934 546.101 634.962 549.478 633.434C556 630.518 560.025 622.649 559.146 615.799C558.174 607.976 553.641 602.375 545.546 601.403C536.618 600.338 527.552 600.616 518.578 600.385C514.97 600.292 513.906 602.283 514.091 605.708C514.322 609.92 514.137 614.179 514.137 618.391L514.091 618.437Z" fill="white"/>
<path d="M1827.6 631.248C1833.29 617.871 1842.68 610.604 1857.34 610.604C1872.14 610.604 1881.9 617.408 1887.59 631.618C1888.98 630.045 1889.91 629.211 1890.6 628.193C1901.7 612.455 1922.89 607.641 1938.99 617.871C1949.49 624.536 1955.45 634.535 1955.59 647.079C1955.87 670.176 1955.68 693.227 1955.73 716.325C1955.73 719.426 1954.62 720.861 1951.38 720.815C1943.66 720.722 1935.89 720.769 1928.16 720.815C1925.43 720.815 1924.55 719.889 1924.6 716.88C1924.88 696.005 1925.11 675.129 1924.83 654.253C1924.74 647.079 1921.55 640.506 1914.47 637.728C1908.27 635.321 1901.75 635.738 1896.38 640.506C1891.39 644.903 1890.09 650.874 1890.09 657.169C1890.05 676.147 1890.09 695.172 1890.09 714.15C1890.09 720.769 1890.09 720.815 1883.57 720.815C1878.16 720.815 1872.75 720.815 1867.38 720.815C1861.18 720.815 1861.13 720.769 1861.13 714.335C1861.13 694.616 1861.23 674.897 1861.04 655.179C1861.04 651.754 1860.39 648.097 1858.91 645.042C1855.4 637.682 1848.92 635.044 1840.5 636.849C1833.75 638.284 1827.09 646.755 1827.04 654.485C1826.95 674.064 1827.04 693.644 1827.04 713.224C1827.04 718.285 1824.45 720.815 1819.27 720.815C1813.72 720.815 1808.17 720.63 1802.62 720.861C1798.36 721.046 1797.07 719.38 1797.11 715.26C1797.25 686.608 1797.21 658.002 1797.21 629.35C1797.21 625.092 1797.3 620.88 1797.21 616.621C1797.11 613.566 1798.18 611.992 1801.46 612.039C1808.31 612.131 1815.2 612.131 1822.05 612.039C1825.05 612.039 1826.26 613.335 1826.21 616.251C1826.12 620.972 1826.21 625.694 1826.21 630.415C1826.72 630.693 1827.23 630.97 1827.74 631.248H1827.6Z" fill="white"/>
<path d="M1142.31 632.408C1143.61 630.464 1144.25 629.723 1144.67 628.844C1152.12 613.8 1165.07 609.866 1180.47 611.162C1194.35 612.319 1206.79 622.271 1210.54 635.648C1212.02 640.925 1212.94 646.526 1212.99 651.988C1213.27 673.002 1213.13 694.017 1213.08 715.078C1213.08 721.049 1213.08 721.049 1206.93 721.095C1200.96 721.095 1194.95 721.095 1188.98 721.095C1183.43 721.095 1182.92 720.633 1182.92 715.124C1182.92 695.545 1182.97 676.011 1182.92 656.431C1182.92 653.423 1182.74 650.183 1181.63 647.452C1178.07 638.518 1168.86 634.167 1158.45 636.25C1150.96 637.731 1142.54 643.795 1142.73 654.997C1143 674.993 1142.96 694.989 1143 714.985C1143 721.095 1143 721.095 1136.99 721.095C1130.56 721.095 1124.13 720.957 1117.75 721.142C1113.91 721.281 1112.66 719.753 1112.71 716.004C1112.84 697.304 1112.8 678.603 1112.75 659.949C1112.75 633.241 1112.71 606.487 1112.57 579.779C1112.57 577.14 1113.45 575.983 1116.04 575.983C1123.48 575.983 1130.93 575.983 1138.38 575.983C1142.08 575.983 1142.08 578.437 1142.08 581.075C1142.03 595.841 1141.99 610.56 1141.99 625.326C1141.99 627.27 1142.17 629.214 1142.31 632.454V632.408Z" fill="white"/>
<path d="M992.499 613.159C988.29 617.927 984.08 622.695 979.871 627.509C971.914 636.674 964.097 645.885 956.094 654.957C953.689 657.688 953.458 660.095 955.586 663.15C967.104 679.675 978.529 696.246 989.955 712.817C991.481 715.039 992.962 717.353 994.951 720.408C992.823 720.686 991.481 721.01 990.14 721.01C981.814 721.056 973.487 720.917 965.207 721.102C961.877 721.149 959.795 719.853 957.991 717.168C950.081 705.272 942.032 693.422 934.03 681.573C933.012 680.045 931.809 678.657 930.607 677.129C925.056 681.665 921.494 686.294 922.142 693.746C922.835 701.291 922.141 708.929 922.327 716.52C922.419 719.899 921.17 721.241 917.747 721.149C910.901 720.964 904.055 721.01 897.162 721.149C893.924 721.195 892.814 719.806 892.768 716.659C892.583 671.25 892.352 625.888 892.074 580.48C892.074 577.379 893.184 575.898 896.422 575.99C903.269 576.129 910.161 576.222 917.007 575.99C921.355 575.851 922.373 577.795 922.327 581.776C922.188 603.948 922.28 626.166 922.28 648.338C922.28 649.912 922.28 651.439 922.28 653.013C922.697 653.198 923.067 653.383 923.483 653.569C926.721 649.958 930.098 646.44 933.197 642.737C941.246 633.109 949.202 623.435 957.251 613.807C957.945 612.974 959.147 612.048 960.119 612.048C970.712 611.91 981.305 611.956 991.898 611.956C992.083 612.372 992.221 612.743 992.406 613.159H992.499Z" fill="white"/>
<path d="M1325.24 681.909C1325.24 693.296 1325.11 704.683 1325.29 716.069C1325.34 719.911 1324.04 721.254 1320.25 721.115C1313.82 720.883 1307.44 720.93 1301.01 721.115C1297.81 721.161 1296.61 720.004 1296.57 716.764C1296.57 714.264 1295.78 711.811 1295.32 709.311C1293.14 710.793 1290.74 711.996 1288.89 713.801C1280.1 722.272 1269.37 723.568 1257.94 722.411C1251.14 721.717 1245.03 719.402 1239.34 715.468C1223.76 704.729 1222.41 670.893 1246.47 662.514C1254.75 659.645 1263.68 658.441 1272.37 656.682C1276.77 655.803 1281.35 655.571 1285.79 654.738C1289.9 653.998 1293.97 652.748 1294.62 647.656C1295.27 642.935 1291.62 635.992 1287.27 634.742C1277.88 632.057 1265.39 631.409 1259.84 643.027C1259.33 644.046 1257.34 644.971 1256.09 644.925C1249.85 644.74 1243.6 644.184 1237.36 643.768C1232.08 643.444 1231.3 642.194 1233.19 637.102C1237.08 626.641 1244.43 619.328 1254.61 615.255C1270.57 608.913 1286.8 608.821 1302.81 615.162C1317.52 621.041 1324.69 632.566 1325.2 648.165C1325.57 659.413 1325.29 670.661 1325.29 681.863L1325.24 681.909ZM1294.21 670.43C1284.4 672.651 1274.92 674.688 1265.48 677.049C1263.35 677.604 1261.22 679.039 1259.56 680.567C1253.78 685.89 1254.79 695.888 1261.96 699.036C1266.27 700.933 1271.63 702.183 1276.17 701.535C1290.51 699.498 1298.32 685.751 1294.21 670.43Z" fill="white"/>
<path d="M1729.56 611.132C1744.45 610.068 1757.55 615.622 1768.09 627.241C1774.75 634.6 1777.94 643.626 1779.89 653.208C1782.76 667.557 1781.09 681.443 1775.4 694.728C1767.91 712.271 1753.1 720.094 1735.25 722.269C1722.99 723.751 1710.92 722.084 1699.77 715.558C1684.97 706.855 1677.75 693.617 1675.39 677.139C1673.77 665.983 1675.07 655.152 1678.31 644.367C1684.13 625.111 1705.18 609.651 1724.7 611.086C1726 611.179 1727.34 611.086 1729.51 611.086L1729.56 611.132ZM1750.84 663.391C1751.07 658.624 1749.4 650.755 1744.59 643.765C1736.54 632.147 1722.2 630.851 1713.51 640.757C1702.41 653.393 1702.41 677.602 1712.4 691.257C1719.2 700.514 1732.94 701.718 1741.31 693.849C1749.13 686.535 1750.61 677.046 1750.84 663.438V663.391Z" fill="white"/>
<path d="M1423.65 631.217C1424.3 630.106 1424.99 629.041 1425.64 627.931C1432.9 615.711 1443.68 610.249 1457.79 610.943C1471.3 611.591 1481.98 616.914 1488.64 629.088C1492.53 636.17 1494.01 643.9 1494.06 651.861C1494.15 673.154 1494.06 694.492 1494.19 715.785C1494.19 719.812 1492.81 721.2 1488.78 721.062C1482.35 720.784 1475.92 720.784 1469.54 721.062C1465.24 721.247 1463.99 719.488 1464.03 715.414C1464.17 695.557 1464.22 675.7 1464.13 655.842C1464.13 645.52 1459.09 638.577 1450.48 636.309C1436.65 632.652 1424.11 641.956 1424.07 656.212C1424.02 676.209 1424.25 696.205 1424.53 716.201C1424.53 719.627 1423.47 721.015 1420.04 720.969C1413.2 720.876 1406.31 720.738 1399.46 721.015C1395.16 721.2 1393.95 719.441 1393.95 715.368C1394.05 688.521 1393.95 661.628 1393.95 634.781C1393.95 628.671 1394.09 622.515 1393.95 616.405C1393.91 613.165 1394.93 611.545 1398.44 611.637C1405.15 611.822 1411.86 611.776 1418.56 611.637C1421.57 611.591 1422.68 612.656 1422.54 615.757C1422.31 620.802 1422.5 625.848 1422.5 630.893C1422.87 630.986 1423.24 631.032 1423.65 631.124V631.217Z" fill="white"/>
<path d="M657.31 667.315C656.894 656.761 658.605 646.67 663.555 637.228C671.234 622.554 683.538 614.13 699.636 611.769C716.566 609.316 732.617 611.584 746.032 623.387C755.561 631.766 760.649 642.643 762.453 654.956C765.506 675.6 762.314 694.532 746.402 709.668C738.353 717.305 728.546 721.101 717.676 722.258C701.162 723.971 685.943 720.777 673.315 709.298C662.953 699.855 658.513 687.542 657.356 673.841C657.171 671.666 657.356 669.444 657.356 667.268L657.31 667.315ZM687.562 666.991C687.562 668.333 687.47 670.37 687.562 672.406C688.071 680.831 690.43 688.468 696.675 694.532C704.493 702.123 719.434 701.521 725.355 692.403C728.87 686.987 730.952 680.229 731.97 673.795C733.635 663.658 733.126 653.428 727.621 644.078C720.729 632.414 705.325 630.377 695.842 640.005C688.626 647.365 687.239 656.576 687.516 667.037L687.562 666.991Z" fill="white"/>
<path d="M1614.8 611.142C1628.02 610.725 1639.68 613.548 1649.26 621.927C1657.03 628.731 1661.79 637.572 1663.09 648.033C1663.46 651.134 1662.63 652.893 1658.83 652.801C1652.87 652.615 1646.9 652.939 1640.93 653.263C1637.32 653.449 1635.47 652.152 1634.22 648.635C1630.57 638.359 1623.91 634.054 1613.08 634.933C1607.81 635.35 1603.32 637.572 1600.18 642.154C1589.68 657.429 1589.58 677.194 1599.99 690.849C1604.62 696.959 1610.96 699.644 1618.4 698.625C1625.62 697.607 1631.49 693.858 1633.62 686.498C1634.96 681.823 1637.32 680.851 1641.81 681.175C1647.78 681.591 1653.79 681.453 1659.76 681.175C1663.41 680.99 1663.83 682.332 1663.41 685.526C1660.64 705.846 1643.01 721.723 1621.83 722.51C1611.74 722.88 1601.8 722.464 1592.22 718.298C1578.48 712.327 1569.46 702.421 1565.16 688.118C1559.93 670.853 1560.35 653.773 1568.31 637.433C1576.68 620.306 1591.62 612.9 1609.89 611.188C1611.79 611.003 1613.69 611.188 1614.89 611.188L1614.8 611.142Z" fill="white"/>
<path d="M1083.05 652.498C1079.53 652.498 1076.01 652.822 1072.55 652.359C1070.97 652.127 1068.8 650.554 1068.38 649.165C1065.93 641.018 1059.96 635.047 1052.47 634.26C1043.26 633.288 1035.4 636.158 1031.01 644.582C1023.6 658.654 1023.56 673.327 1030.31 687.584C1034.57 696.61 1042.62 700.081 1052.52 698.739C1060.84 697.582 1065.56 692.166 1068.2 684.714C1069.12 682.029 1070.6 681.011 1073.33 681.057C1079.76 681.15 1086.19 681.242 1092.57 681.057C1096.46 680.965 1097.34 682.353 1096.51 686.056C1091.23 708.83 1076.29 721.42 1052.52 722.577C1033.97 723.503 1017.73 718.273 1006.21 702.905C989.421 680.502 991.502 639.63 1015.69 621.114C1035.54 605.886 1076.01 606.626 1090.49 631.714C1093.5 636.899 1094.84 643.101 1096.83 648.841C1097.66 651.248 1096.41 652.451 1094.01 652.498C1090.35 652.498 1086.7 652.498 1083.05 652.498Z" fill="white"/>
<path d="M862.017 652.535C860.722 652.535 859.38 652.442 858.085 652.535C852.349 653.044 848.047 652.766 845.827 645.406C843.745 638.417 837.362 634.39 829.59 634.112C821.403 633.835 814.51 636.751 810.44 644.11C802.992 657.673 802.807 671.929 808.636 685.955C815.204 701.785 835.326 703.22 844.3 690.954C845.318 689.565 846.659 688.038 846.844 686.464C847.492 681.65 850.221 680.77 854.477 681.002C860.166 681.326 865.856 681.094 871.546 681.141C876.542 681.187 876.865 681.789 875.801 686.51C869.094 715.579 846.382 724.744 821.727 722.244C795.961 719.652 780.835 704.84 776.071 677.947C772.324 656.793 777.273 637.908 793.325 622.818C800.864 615.736 810.301 612.45 820.293 611.431C836.39 609.719 851.424 612.403 863.913 623.929C871.268 630.733 874.09 639.759 876.542 648.971C877.143 651.331 875.801 652.535 873.396 652.535C869.603 652.535 865.81 652.535 862.017 652.535C862.017 652.535 862.017 652.581 862.017 652.627V652.535Z" fill="white"/>
<path d="M377.584 604.032C357.37 613.984 337.664 623.751 317.866 633.332C316.293 634.073 313.749 634.073 312.176 633.332C293.442 624.167 274.847 614.817 256.159 605.559C253.291 604.125 253.429 602.736 255.557 600.607C268.833 587.507 282.387 574.686 295.2 561.123C306.44 549.274 321.613 548.163 333.917 559.827C348.303 573.482 362.088 587.739 376.104 601.81C376.659 602.366 376.983 603.199 377.538 604.078L377.584 604.032Z" fill="white"/>
<path d="M303.057 744.366C300.605 742.329 299.217 741.357 298.015 740.154C283.582 725.712 269.104 711.27 254.764 696.736C245.235 687.108 235.799 677.341 226.408 667.575C215.815 656.604 215.445 641.561 225.9 630.637C237.186 618.834 233.717 620.592 246.438 626.795C263.969 635.405 281.408 644.292 298.94 652.948C302.039 654.475 303.612 656.512 303.519 660.076C303.242 670.444 302.918 680.767 302.964 691.135C303.057 706.595 303.427 722.055 303.658 737.515C303.658 739.321 303.381 741.126 303.103 744.32L303.057 744.366Z" fill="white"/>
<path d="M326.511 742.257C326.419 740.961 326.28 739.712 326.28 738.415C326.28 712.726 326.373 687.036 326.188 661.346C326.188 657.088 327.668 654.912 331.553 653.015C351.629 643.248 371.473 633.064 391.503 623.205C392.983 622.465 395.712 622.002 396.638 622.835C404.177 629.408 410.931 636.582 411.579 647.506C412.134 657.042 407.323 663.892 401.078 670.141C378.597 692.637 356.162 715.179 333.681 737.675C331.785 739.573 329.749 741.285 327.76 743.044C327.344 742.767 326.974 742.535 326.558 742.257H326.511Z" fill="white"/>
<path d="M609.952 648.503C609.952 626.331 609.952 604.113 609.952 581.941C609.952 576.294 610.184 576.108 615.92 576.016C621.887 575.97 627.9 575.923 633.868 575.97C640.297 575.97 640.251 576.016 640.251 582.681C640.251 604.992 640.159 627.349 640.251 649.66C640.39 671.554 640.621 693.402 641.037 715.296C641.13 719.693 639.742 721.313 635.302 721.082C628.918 720.758 622.488 721.036 616.058 720.989C609.952 720.989 609.906 720.989 609.906 714.972C609.906 692.8 609.906 670.582 609.906 648.41L609.952 648.503Z" fill="white"/>
<path d="M1374.33 666.489C1374.33 682.828 1374.23 699.168 1374.42 715.507C1374.46 719.673 1373.22 721.247 1368.96 721.062C1362.58 720.784 1356.15 720.877 1349.72 721.062C1346.48 721.154 1344.91 720.09 1344.91 716.572C1344.77 689.864 1344.44 663.202 1344.3 636.494C1344.3 629.505 1344.77 622.515 1344.86 615.526C1344.86 612.98 1345.6 611.73 1348.28 611.73C1355.73 611.823 1363.18 611.823 1370.58 611.73C1374.28 611.684 1374.37 613.906 1374.37 616.637C1374.37 633.254 1374.37 649.918 1374.37 666.535L1374.33 666.489Z" fill="white"/>
<path d="M1531.92 689.147C1541.86 689.147 1548.85 696.461 1548.94 706.876C1548.98 715.161 1540.7 722.567 1531.55 722.428C1522.48 722.289 1514.15 714.837 1514.38 706.505C1514.61 698.174 1520.77 688.685 1531.92 689.147Z" fill="white"/>
<path d="M1375.88 581.94C1375.88 590.781 1368.11 598.418 1359.37 598.326C1350.86 598.187 1343.36 590.457 1343.36 581.847C1343.36 572.96 1350.86 565.554 1359.92 565.508C1368.3 565.508 1375.97 573.33 1375.93 581.94H1375.88Z" fill="white"/>
</svg>
