<svg width="2173" height="1314" viewBox="0 0 2173 1314" fill="none" xmlns="http://www.w3.org/2000/svg">
<path d="M1046.95 467.588C1051.22 467.609 1055.49 467.588 1059.77 467.563C1086.14 467.53 1110.85 470.807 1136.07 478.802C1138 479.382 1139.92 479.962 1141.9 480.559C1153.58 484.176 1162.91 488.365 1174.13 493.975C1174.13 513.675 1174.13 533.374 1174.13 553.671C1170.19 553.671 1166.25 553.671 1162.19 553.671C1161.35 551.844 1160.5 550.018 1159.63 548.136C1148.68 524.981 1137.71 509.988 1114.43 497.955C1112.93 497.175 1111.43 496.395 1109.88 495.592C1071.56 477.176 1021.35 482.935 982.28 496.299C939.339 513.095 908.777 543.745 889.428 585.168C879.321 608.931 877.257 633.843 877.144 659.382C877.103 661.665 877.062 663.948 877.02 666.3C876.823 710.102 893.894 752.486 923.906 784.246C941.49 800.922 962.275 812.415 985.094 820.312C988.403 821.485 988.403 821.485 991.779 822.683C1029.78 834.186 1075.7 832.288 1112.69 818.073C1127.97 812.352 1127.97 812.352 1132.34 812.352C1132.18 796.179 1131.99 780.006 1131.77 763.833C1131.67 756.323 1131.58 748.812 1131.5 741.302C1131.43 734.051 1131.34 726.8 1131.23 719.549C1131.2 716.786 1131.17 714.023 1131.14 711.26C1131.11 707.382 1131.05 703.505 1130.99 699.629C1130.95 696.321 1130.95 696.321 1130.91 692.947C1130.18 685.152 1128.61 679.281 1123.02 673.684C1111.73 667.278 1099.27 666.196 1086.58 665.103C1086.58 661.82 1086.58 658.536 1086.58 655.154C1120.72 655.154 1154.87 655.154 1190.05 655.154C1190.05 658.437 1190.05 661.72 1190.05 665.103C1188.87 665.275 1187.69 665.447 1186.48 665.624C1175.44 667.587 1169.46 669.947 1162.19 679.032C1159.41 684.604 1159.88 689.286 1159.79 695.519C1159.77 696.801 1159.75 698.082 1159.73 699.403C1159.67 703.645 1159.62 707.887 1159.57 712.129C1159.53 715.068 1159.49 718.006 1159.45 720.945C1159.34 728.685 1159.24 736.425 1159.14 744.165C1159.04 752.061 1158.93 759.957 1158.82 767.853C1158.61 783.349 1158.41 798.846 1158.21 814.342C1124.02 831.934 1124.02 831.934 1107.72 836.977C1106.32 837.441 1104.92 837.905 1103.48 838.384C1083.27 844.899 1064.39 846.815 1043.17 846.677C1040.82 846.693 1038.47 846.708 1036.05 846.724C986.114 846.615 940.676 832.228 903.51 798.423C902.107 797.205 900.704 795.987 899.258 794.731C866.232 764.301 849.531 715.155 847.211 671.329C845.264 615.915 861.94 567.32 899.82 526.624C927.18 498.275 961.33 482.073 999.023 472.087C1000.44 471.706 1001.85 471.325 1003.3 470.933C1017.76 467.524 1032.18 467.501 1046.95 467.588Z" fill="white"/>
<path fill-rule="evenodd" clip-rule="evenodd" d="M1540.28 471.775C1523.03 471.839 1505.78 471.945 1488.53 472.084V482.034C1497.29 483.36 1504.67 485.633 1512.41 489.993C1521.52 503.278 1521.49 515.584 1521.37 531.387C1521.35 534.303 1521.34 537.22 1521.34 540.136C1521.37 548.105 1521.37 556.073 1521.33 564.042C1521.29 572.511 1521.28 580.979 1521.28 589.447C1521.28 603.638 1521.26 617.828 1521.21 632.019C1521.15 648.529 1521.1 665.039 1521.11 681.55C1521.11 699.283 1521.09 717.015 1521.06 734.748C1521.05 739.828 1521.04 744.907 1521.03 749.987C1521.03 758.111 1521.02 766.235 1520.99 774.359C1520.97 777.354 1520.96 780.349 1520.95 783.343C1520.95 786.176 1520.95 789.009 1520.95 791.842L1520.9 799.627C1520.88 808.213 1520.23 814.56 1516.39 822.3C1512.11 826.437 1509.03 828.099 1503.3 829.723L1497.98 830.632L1492.6 831.588L1488.53 832.249V842.198H1580.06V832.249C1571.03 831.165 1562.53 830.048 1554.2 826.279L1553 822.61L1552.21 818.32C1547.8 802.665 1547.56 787.384 1547.44 771.248C1547.41 768.024 1547.38 764.801 1547.35 761.578C1547.24 753.102 1547.15 744.625 1547.08 736.148C1547 727.376 1546.91 718.603 1546.81 709.831C1546.59 690.941 1546.41 672.052 1546.24 653.162C1549.66 653.314 1553.08 653.471 1556.49 653.653L1560.71 653.88C1561.48 653.913 1562.24 653.94 1563 653.967C1570.43 654.233 1577.27 654.477 1583.3 659.574L1588.02 665.225C1590.49 668.045 1592.96 670.869 1595.32 673.776C1606.02 686.95 1617.72 698.978 1629.81 710.868C1630.69 711.732 1631.57 712.595 1632.45 713.459C1638.88 719.769 1645.32 726.076 1651.31 732.81C1660.28 743.243 1669.75 752.96 1679.56 762.604L1680.09 763.127C1688.35 771.251 1696.59 779.344 1704.19 788.099C1711.78 796.886 1719.39 805.628 1727.33 814.099C1729.28 816.162 1731.23 818.232 1733.16 820.31C1738.65 826.573 1744.12 832.748 1750.47 838.164C1762.65 845.507 1775.31 843.92 1789 842.198C1789 840.294 1789 839.301 1788.68 838.422C1788.34 837.462 1787.62 836.638 1786.12 834.914L1782.09 830.99L1777.66 826.621C1776.01 825.017 1774.35 823.417 1772.69 821.818C1765.55 814.932 1758.4 808.033 1751.83 800.611C1748.4 796.582 1746.07 793.848 1743.66 791.18C1738.59 785.546 1733.19 780.208 1716.37 763.599C1714.47 761.721 1712.56 759.849 1710.65 757.976C1702.83 750.317 1695.01 742.646 1687.72 734.501C1677.07 722.013 1677.07 722.013 1652.69 697.933C1649.39 694.667 1646.08 691.399 1642.78 688.126L1639.57 684.937C1632.61 678.024 1625.91 671.029 1619.55 663.546C1617.78 661.372 1617.02 660.443 1616.21 659.556C1615.61 658.894 1614.99 658.256 1613.89 657.141H1609.91V653.162L1614.23 653.371C1649.49 654.329 1684.22 642.859 1710.28 618.837C1728.97 599.628 1734.1 581.445 1734.32 555.36C1733.81 532.161 1722.72 516.73 1706.67 500.813C1695.54 491.211 1687.97 484.675 1679.31 480.255C1660.86 470.832 1637.49 471.026 1564.32 471.634C1556.3 471.703 1548.29 471.744 1540.28 471.775ZM1583.92 487.504L1546.24 488.001V637.241L1583.3 637.365L1585 637.373C1589.89 637.396 1594.79 637.42 1599.68 637.429L1604.14 637.435C1612.42 637.489 1620.38 637.447 1628.58 636.301L1633.79 635.251C1652.65 631.579 1670.04 625.702 1685.72 614.311C1698.33 602.949 1706.82 587.801 1708.57 570.868C1709.79 549.552 1706.2 532.21 1691.84 515.642C1666.03 491.095 1629.57 486.916 1595.58 487.284L1583.92 487.504Z" fill="white"/>
<path d="M1442.76 491.983C1444.75 493.972 1444.75 493.972 1444.98 499.678C1444.96 503.414 1444.96 503.414 1444.95 507.225C1444.95 508.547 1444.94 509.87 1444.94 511.232C1444.93 515.47 1444.9 519.707 1444.88 523.945C1444.87 526.812 1444.86 529.679 1444.85 532.545C1444.83 539.586 1444.79 546.627 1444.75 553.668C1440.81 553.668 1436.87 553.668 1432.81 553.668C1432.4 552.486 1431.99 551.303 1431.56 550.085C1423.03 527.118 1411.4 507.422 1389.41 495.589C1386.65 494.341 1383.88 493.139 1381.08 491.983C1379.72 491.385 1378.37 490.787 1376.97 490.172C1356.79 482.638 1328.06 482.332 1307.83 489.931C1288.24 499.151 1272.38 510.851 1262.68 530.785C1256.75 547.741 1256.75 569.545 1262.68 586.501C1279.03 619.871 1316.48 633.053 1348.37 647.316C1428.08 683.054 1428.08 683.054 1444.81 721.539C1452.54 743.304 1450.27 764.931 1441.87 786.093C1437.35 795.397 1431.82 802.771 1424.86 810.36C1423.44 812.153 1423.44 812.153 1421.99 813.982C1407.46 830.897 1379.05 843.566 1357.2 846.177C1334.61 847.478 1311.62 847.599 1289.55 842.198C1287.42 841.734 1285.3 841.269 1283.12 840.791C1263.22 835.868 1245.28 827.053 1227.86 816.33C1226.41 815.557 1224.97 814.784 1223.48 813.988C1219.01 809.454 1219 806.2 1219 799.975C1219.04 798.613 1219.08 797.251 1219.12 795.848C1219.13 794.443 1219.15 793.038 1219.16 791.591C1219.2 787.109 1219.3 782.63 1219.4 778.149C1219.44 775.109 1219.48 772.068 1219.51 769.028C1219.6 761.579 1219.74 754.132 1219.9 746.685C1223.84 746.685 1227.78 746.685 1231.84 746.685C1232.42 748.177 1233 749.67 1233.6 751.208C1247.32 785.481 1264.19 808.651 1298.22 824.483C1318.41 831.969 1346.86 831.225 1367.15 824.289C1369.55 823.523 1369.55 823.523 1372 822.742C1394.11 814.889 1408.73 801.261 1418.95 780.279C1425.26 764.318 1425.49 746.125 1419.63 730.019C1404.67 697.979 1367.1 685.063 1336.67 671.35C1255.28 634.634 1255.28 634.634 1237.81 593.465C1230.29 573.545 1230.69 546.42 1239.04 526.976C1252.98 500.903 1272.14 484.757 1299.49 474.074C1301.55 473.253 1303.6 472.432 1305.71 471.587C1352.36 459.418 1400.88 470.752 1442.76 491.983Z" fill="white"/>
<path d="M517.481 659.133C518.466 667.013 518.466 667.013 519.471 675.052C503.593 677.397 487.713 679.733 471.832 682.057C464.457 683.137 457.083 684.219 449.71 685.309C442.589 686.362 435.467 687.406 428.344 688.445C425.632 688.842 422.921 689.241 420.209 689.644C416.401 690.21 412.59 690.764 408.78 691.317C406.615 691.635 404.449 691.953 402.219 692.281C396.143 692.956 390.267 693.082 384.16 692.961C384.16 687.708 384.16 682.454 384.16 677.042C399.208 674.811 414.256 672.58 429.304 670.35C434.42 669.592 439.537 668.833 444.653 668.075C452.018 666.983 459.382 665.891 466.747 664.8C470.165 664.293 470.165 664.293 473.652 663.776C477.842 663.155 482.032 662.536 486.223 661.918C489.486 661.437 492.748 660.951 496.009 660.458C503.244 659.378 510.159 658.955 517.481 659.133Z" fill="white"/>
<path d="M573.195 458.156C578.449 458.156 583.702 458.156 589.114 458.156C589.114 502.809 589.114 547.461 589.114 593.467C583.861 593.467 578.608 593.467 573.195 593.467C573.195 548.814 573.195 504.162 573.195 458.156Z" fill="white"/>
<path d="M680.649 486.008C690.1 489.739 690.1 489.739 694.578 491.977C691.216 501.642 686.002 509.937 680.649 518.592C679.182 520.976 679.182 520.976 677.686 523.408C670.115 535.642 662.235 547.638 654.19 559.563C647.554 569.417 641.099 579.389 634.633 589.356C633.477 591.138 632.32 592.921 631.129 594.757C628.398 598.967 625.67 603.178 622.943 607.389C618.346 604.763 613.75 602.136 609.014 599.43C616.97 585.282 625.411 571.658 634.49 558.217C642.32 546.583 649.874 534.782 657.392 522.945C658.559 521.107 659.727 519.269 660.929 517.376C667.544 506.946 674.115 496.489 680.649 486.008Z" fill="white"/>
<path d="M609.015 718.828C609.474 720.447 609.933 722.066 610.406 723.733C614.157 736.914 617.953 750.081 621.824 763.227C622.24 764.642 622.656 766.056 623.084 767.513C625.201 774.702 627.332 781.887 629.488 789.064C635.148 807.982 640.207 826.982 644.832 846.179C639.049 848.68 635.289 850.159 628.913 850.159C628.504 848.721 628.095 847.284 627.673 845.802C620.312 819.959 612.933 794.122 605.408 768.326C604.856 766.434 604.305 764.543 603.736 762.594C602.944 759.883 602.944 759.883 602.136 757.118C601.631 755.388 601.127 753.659 600.607 751.877C599.548 748.31 598.458 744.751 597.345 741.201C596.797 739.446 596.249 737.691 595.684 735.882C595.187 734.323 594.69 732.764 594.179 731.157C593.096 726.788 593.096 726.788 593.096 718.828C599.251 716.85 602.852 717.081 609.015 718.828Z" fill="white"/>
<path d="M555.288 716.836C559.885 718.149 564.481 719.463 569.217 720.816C567.834 732.9 564.883 744.305 561.631 756.011C561.094 757.963 560.557 759.915 560.003 761.926C556.732 773.694 553.194 785.31 549.186 796.85C546.234 805.669 543.774 814.622 541.258 823.573C538.745 832.467 536.089 841.315 533.4 850.156C521.709 848.415 521.709 848.415 519.471 846.177C520.349 830.511 525.347 815.732 529.793 800.783C530.606 798.017 531.419 795.252 532.23 792.486C537.577 774.329 543.12 756.238 548.938 738.227C551.194 731.125 553.28 724.01 555.288 716.836Z" fill="white"/>
<path d="M481.663 486.008C484.623 490.301 487.328 494.594 489.996 499.066C491.784 501.997 493.578 504.924 495.375 507.85C496.358 509.451 497.342 511.052 498.356 512.702C504.212 522.097 510.295 531.345 516.362 540.605C518.911 544.501 521.461 548.398 524.01 552.295C525.868 555.134 525.868 555.134 527.764 558.031C533.274 566.467 538.75 574.924 544.22 583.387C545.612 585.541 545.612 585.541 547.033 587.739C549.122 590.972 551.21 594.206 553.298 597.44C550.015 600.723 546.732 604.006 543.349 607.389C534.671 604.497 532.309 597.78 527.928 590.227C519.061 575.32 509.835 560.702 500.318 546.201C498.414 543.293 498.414 543.293 496.472 540.326C491.843 533.259 487.207 526.196 482.568 519.135C479.978 515.187 477.399 511.232 474.823 507.274C472.734 504.085 472.734 504.085 470.603 500.831C467.734 495.957 467.734 495.957 467.734 491.977C476.459 486.008 476.459 486.008 481.663 486.008Z" fill="white"/>
<path d="M760.244 567.594C761.558 572.19 762.871 576.787 764.224 581.523C742.852 592.383 721.299 602.767 699.512 612.767C694.654 615 689.803 617.248 684.952 619.497C681.801 620.948 678.649 622.397 675.497 623.846C674.078 624.505 672.66 625.165 671.199 625.844C661.291 630.367 651.243 633.978 640.853 637.239C639.539 632.642 638.226 628.046 636.873 623.31C658.405 612.357 680.138 602.008 702.165 592.094C704.999 590.813 707.832 589.532 710.665 588.25C716.088 585.797 721.514 583.349 726.942 580.906C731.68 578.769 736.402 576.605 741.118 574.421C743.087 573.51 745.056 572.598 747.085 571.659C748.779 570.867 750.474 570.075 752.22 569.259C756.265 567.594 756.265 567.594 760.244 567.594Z" fill="white"/>
<path d="M402.068 567.594C411.79 570.603 420.818 574.514 430.019 578.802C431.551 579.51 433.084 580.217 434.662 580.946C439.553 583.205 444.44 585.473 449.327 587.741C454.108 589.956 458.891 592.17 463.674 594.38C466.852 595.849 470.029 597.321 473.204 598.796C481.405 602.592 489.635 606.289 497.942 609.845C499.598 610.559 501.254 611.274 502.961 612.009C506.128 613.369 509.304 614.711 512.487 616.033C516.213 617.638 519.843 619.461 523.449 621.32C525.852 628.53 524.53 630.556 521.459 637.239C509.146 633.399 497.485 628.797 485.805 623.341C484.174 622.587 482.543 621.834 480.862 621.057C477.431 619.47 474.001 617.878 470.573 616.281C465.422 613.882 460.265 611.498 455.106 609.117C435.931 600.24 416.914 591.119 398.088 581.523C399.401 576.926 400.715 572.33 402.068 567.594Z" fill="white"/>
<path d="M632.893 694.945C641.768 697.769 647.476 702.638 654.035 708.999C661.696 716.233 669.435 723.172 677.665 729.768C686.638 736.987 695.115 744.585 703.519 752.445C712.104 760.418 721.134 767.648 730.427 774.788C731.73 776.02 733.033 777.251 734.376 778.519C734.376 785.518 732.735 787.217 728.406 792.448C720.144 789.05 713.905 783.207 707.264 777.4C706.027 776.33 704.79 775.259 703.515 774.156C694.731 766.533 686.101 758.748 677.494 750.926C672.481 746.497 667.332 742.292 662.119 738.1C649.165 727.633 637.064 716.293 624.934 704.895C627.56 701.611 630.187 698.328 632.893 694.945Z" fill="white"/>
<path d="M527.43 692.961C532.355 697.886 532.355 697.886 537.379 702.91C529.626 712.463 521.48 720.694 512.009 728.53C509.538 730.608 507.069 732.689 504.601 734.771C503.403 735.78 502.205 736.789 500.97 737.829C496.309 741.803 491.781 745.914 487.26 750.045C478.805 757.723 470.035 764.937 461.158 772.12C453.198 778.673 445.525 785.532 437.886 792.454C430.964 789.685 428.971 787.216 425.947 780.515C427.871 778.855 429.795 777.196 431.777 775.486C449.143 760.491 449.143 760.491 466.242 745.195C472.837 739.21 479.587 733.506 486.514 727.908C496.259 720.031 505.49 711.759 514.675 703.237C518.789 699.543 522.946 696.186 527.43 692.961Z" fill="white"/>
<path d="M644.832 659.133C661.673 660.331 678.286 662.314 694.982 664.799C697.378 665.15 699.773 665.5 702.241 665.861C709.803 666.97 717.363 668.088 724.924 669.206C730.087 669.965 735.251 670.723 740.415 671.48C752.995 673.326 765.574 675.181 778.152 677.042C778.152 682.295 778.152 687.548 778.152 692.96C764.142 692.254 750.575 690.826 736.793 688.227C716.523 684.529 696.141 681.829 675.719 679.125C670.977 678.494 666.237 677.854 661.497 677.213C660.046 677.024 658.596 676.835 657.101 676.641C647.046 675.277 647.046 675.277 644.832 673.062C644.75 668.42 644.747 663.775 644.832 659.133Z" fill="white"/>
<path d="M573.195 766.578C578.449 766.578 583.702 766.578 589.114 766.578C589.114 796.128 589.114 825.677 589.114 856.122C583.861 856.122 578.608 856.122 573.195 856.122C573.195 826.572 573.195 797.023 573.195 766.578Z" fill="white"/>
<path d="M384.16 621.32C414.267 623.877 443.919 628.207 473.704 633.259C473.047 638.513 472.39 643.766 471.714 649.178C460.843 647.802 449.974 646.422 439.104 645.037C435.408 644.567 431.712 644.098 428.016 643.63C422.696 642.957 417.377 642.279 412.057 641.6C410.411 641.392 408.765 641.185 407.069 640.971C399.363 639.984 391.756 638.908 384.16 637.239C384.16 631.986 384.16 626.733 384.16 621.32Z" fill="white"/>
<path d="M628.913 464.125C634.411 465.165 639.512 466.331 644.832 468.105C641.712 482.761 638.041 496.912 633.126 511.065C628.528 525.102 624.818 539.416 620.954 553.669C615.457 552.629 610.356 551.462 605.035 549.689C609.508 530.614 614.655 511.902 620.741 493.275C623.879 483.629 626.559 473.992 628.913 464.125Z" fill="white"/>
<path d="M433.907 521.828C442.169 525.227 448.408 531.069 455.049 536.876C456.279 537.941 457.509 539.006 458.776 540.103C467.743 547.888 476.586 555.806 485.379 563.786C490.658 568.524 496.066 573.061 501.562 577.544C498.691 586.875 498.691 586.875 494.139 589.413C488.106 589.507 485.762 586.835 481.545 582.786C480.558 581.795 479.571 580.804 478.554 579.783C476.429 577.739 474.299 575.7 472.165 573.665C471.093 572.639 470.022 571.612 468.918 570.553C464.273 566.223 459.374 562.246 454.427 558.267C444.654 550.398 435.244 542.192 425.947 533.767C428.574 529.827 431.2 525.887 433.907 521.828Z" fill="white"/>
<path d="M533.399 464.125C538.063 479.374 542.705 494.63 547.328 509.892C547.868 511.671 548.408 513.45 548.965 515.283C550.377 519.95 551.778 524.621 553.174 529.293C553.593 530.677 554.013 532.06 554.446 533.486C556.117 539.118 557.278 543.775 557.278 549.689C552.024 551.002 546.771 552.316 541.359 553.669C540.705 551.095 540.705 551.095 540.037 548.469C535.752 531.97 530.975 515.716 525.653 499.52C522.29 489.155 519.66 478.782 517.48 468.105C523.263 465.604 527.024 464.125 533.399 464.125Z" fill="white"/>
<path d="M646.798 747.06C651.828 749.083 652.984 750.989 655.668 755.65C656.959 757.837 656.959 757.837 658.276 760.068C659.175 761.642 660.074 763.216 661 764.838C662.922 768.106 664.85 771.37 666.783 774.631C667.757 776.28 668.732 777.928 669.736 779.626C674.976 788.25 680.684 796.558 686.449 804.838C690.344 810.527 693.591 815.382 694.579 822.295C685.127 828.264 685.127 828.264 680.65 828.264C678.504 825.45 678.504 825.45 676.172 821.479C675.299 820.015 674.425 818.55 673.525 817.042C672.593 815.451 671.661 813.86 670.7 812.221C662.585 798.614 654.193 785.302 645.178 772.272C640.85 765.936 637.402 759.909 634.883 752.65C641.692 746.57 641.692 746.57 646.798 747.06Z" fill="white"/>
<path d="M479.672 696.938C482.579 702.205 483.652 704.687 483.652 710.867C474.918 715.021 466.177 719.162 457.43 723.291C454.463 724.694 451.497 726.101 448.532 727.512C418.22 741.931 418.22 741.931 402.068 746.684C400.754 742.087 399.441 737.491 398.088 732.755C416.348 723.39 434.779 714.452 453.431 705.892C455.342 705.006 457.253 704.12 459.223 703.207C461.018 702.39 462.813 701.573 464.663 700.731C466.263 699.998 467.863 699.266 469.511 698.512C473.703 696.938 473.703 696.938 479.672 696.938Z" fill="white"/>
<path d="M513.501 746.688C519.395 747.907 522.218 749.182 527.43 752.657C524.781 759.815 521.586 765.972 517.458 772.385C515.686 775.151 515.686 775.151 513.878 777.973C512.646 779.879 511.413 781.785 510.143 783.749C508.949 785.608 507.755 787.468 506.525 789.384C504.116 793.136 501.704 796.885 499.289 800.633C493.38 809.824 487.521 819.048 481.663 828.272C474.394 825.785 472.151 824.947 467.734 818.322C482.934 794.408 498.141 770.499 513.501 746.688Z" fill="white"/>
<path d="M682.64 696.938C692.112 698.276 700.101 701.949 708.726 705.876C710.253 706.566 711.78 707.256 713.353 707.966C716.567 709.423 719.778 710.885 722.986 712.352C727.91 714.598 732.849 716.81 737.789 719.02C740.912 720.441 744.034 721.863 747.155 723.288C748.637 723.947 750.119 724.606 751.645 725.286C755.252 726.955 758.755 728.844 762.234 730.765C764.637 737.975 763.315 740.001 760.244 746.684C750.4 743.637 741.235 739.665 731.904 735.351C730.375 734.65 728.847 733.949 727.271 733.227C722.424 731.002 717.58 728.77 712.736 726.537C709.436 725.02 706.135 723.505 702.834 721.99C694.773 718.288 686.716 714.579 678.66 710.867C679.973 706.27 681.287 701.673 682.64 696.938Z" fill="white"/>
<path d="M724.425 521.828C729.643 523.915 731.974 525.11 734.872 530.036C735.365 531.268 735.857 532.499 736.365 533.767C724.606 544.556 712.619 554.91 700.174 564.898C696.169 568.252 692.376 571.606 688.608 575.205C687.629 576.133 686.651 577.062 685.642 578.019C682.903 580.643 680.193 583.298 677.485 585.954C672.689 589.483 672.689 589.483 668.329 589.654C663.254 586.608 662.449 583.065 660.75 577.544C673.926 565.242 687.245 553.334 701.293 542.022C709.221 535.533 716.835 528.706 724.425 521.828Z" fill="white"/>
<path d="M778.153 621.327C778.153 626.58 778.153 631.833 778.153 637.246C767.285 638.956 756.415 640.656 745.543 642.347C741.847 642.923 738.151 643.502 734.455 644.084C729.137 644.921 723.817 645.748 718.496 646.573C716.027 646.965 716.027 646.965 713.508 647.365C705.796 648.552 698.431 649.517 690.599 649.185C689.943 643.932 689.286 638.679 688.609 633.266C690.253 633.046 691.897 632.826 693.591 632.599C699.785 631.766 705.978 630.927 712.171 630.084C716.131 629.547 720.092 629.016 724.054 628.486C736.876 626.737 749.572 624.856 762.215 622.073C767.563 621.075 772.733 621.042 778.153 621.327Z" fill="white"/>
</svg>
