<svg width="2173" height="1314" viewBox="0 0 2173 1314" fill="none" xmlns="http://www.w3.org/2000/svg">
<path d="M767.101 751.656L694.419 667.632V751.647H663.619V563.891H694.419V649.538L767.37 563.891H806.006L724.411 657.912L807.351 751.665H767.092L767.101 751.656Z" fill="white"/>
<path d="M849.177 551.703V751.636H818.377V551.703H849.177Z" fill="white"/>
<path d="M889.066 583.092C883.48 583.092 878.799 581.209 875.016 577.416C871.232 573.632 869.34 568.952 869.34 563.366C869.34 557.788 871.232 553.099 875.016 549.315C878.799 545.54 883.48 543.648 889.066 543.648C894.473 543.648 899.064 545.531 902.847 549.315C906.631 553.099 908.523 557.788 908.523 563.366C908.523 568.952 906.631 573.632 902.847 577.416C901.06 579.254 898.915 580.705 896.545 581.681C894.174 582.658 891.629 583.138 889.066 583.092ZM904.201 602.818V751.687H873.393V602.818H904.201Z" fill="white"/>
<path d="M1108.63 600.384C1120.34 600.384 1130.79 602.805 1139.98 607.674C1149.34 612.543 1156.64 619.743 1161.86 629.283C1167.26 638.832 1169.96 650.363 1169.96 663.875V751.684H1139.43V668.466C1139.43 655.133 1136.11 644.956 1129.43 637.936C1122.77 630.727 1113.68 627.131 1102.15 627.131C1090.62 627.131 1081.44 630.727 1074.6 637.936C1067.93 644.956 1064.6 655.133 1064.6 668.466V751.675H1034.07V668.466C1034.07 655.133 1030.73 644.956 1024.07 637.936C1017.4 630.727 1008.31 627.131 996.777 627.131C985.255 627.131 976.064 630.727 969.223 637.936C962.561 644.956 959.225 655.133 959.225 668.466V751.675H928.426V602.814H959.225V619.832C964.4 613.61 970.976 608.703 978.414 605.513C986.246 602.074 994.715 600.327 1003.27 600.384C1015.15 600.384 1025.77 602.895 1035.14 607.943C1044.4 612.878 1051.94 620.511 1056.75 629.83C1061.26 620.828 1068.28 613.708 1077.83 608.49C1087.21 603.131 1097.83 600.335 1108.63 600.384Z" fill="white"/>
<path d="M1182.69 676.57C1182.69 661.623 1185.76 648.38 1191.88 636.849C1198.19 625.327 1206.65 616.406 1217.27 610.102C1228.09 603.62 1239.98 600.383 1252.94 600.383C1264.65 600.383 1274.83 602.714 1283.47 607.404C1292.3 611.905 1299.33 617.58 1304.55 624.422V602.813H1335.62V751.682H1304.55V729.526C1299.33 736.547 1292.21 742.402 1283.21 747.091C1274.19 751.772 1263.93 754.112 1252.41 754.112C1240.02 754.222 1227.84 750.851 1217.27 744.383C1206.65 737.721 1198.19 728.54 1191.88 716.83C1185.76 704.94 1182.69 691.517 1182.69 676.57ZM1304.55 677.108C1304.55 666.842 1302.38 657.92 1298.06 650.362C1293.92 642.794 1288.42 637.029 1281.58 633.074C1274.86 629.144 1267.21 627.091 1259.43 627.13C1251.64 627.092 1243.99 629.145 1237.27 633.074C1230.43 636.849 1224.84 642.525 1220.52 650.093C1216.38 657.481 1214.31 666.304 1214.31 676.57C1214.31 686.837 1216.38 695.848 1220.52 703.586C1224.84 711.333 1230.43 717.278 1237.27 721.42C1244.01 725.306 1251.65 727.356 1259.43 727.365C1267.35 727.365 1274.74 725.384 1281.58 721.42C1288.42 717.457 1293.92 711.692 1298.06 704.133C1302.38 696.386 1304.55 687.375 1304.55 677.108Z" fill="white"/>
<path d="M1421.2 563.891C1441.18 563.891 1458.66 567.773 1473.6 575.511C1488.74 583.079 1500.36 594.072 1508.47 608.472C1516.75 622.71 1520.89 639.37 1520.89 658.459C1520.89 677.558 1516.75 694.128 1508.47 708.178C1500.36 722.22 1488.74 733.033 1473.6 740.592C1458.66 747.98 1441.18 751.674 1421.2 751.674H1359.87V563.891H1421.2ZM1421.2 726.541C1443.16 726.541 1460.01 720.606 1471.71 708.716C1483.42 696.827 1489.28 680.077 1489.28 658.459C1489.28 636.671 1483.42 619.644 1471.71 607.396C1460.01 595.148 1443.16 589.015 1421.2 589.015H1390.66V726.541H1421.2Z" fill="white"/>
<path d="M1648.42 713.295H1569.79L1556.29 751.662H1524.13L1591.41 563.609H1627.07L1694.34 751.662H1661.92L1648.42 713.295ZM1639.77 688.171L1609.24 600.901L1578.43 688.171H1639.77Z" fill="white"/>
<path d="M1793.03 753.543C1775.56 753.543 1759.44 749.49 1744.67 741.385C1730.22 733.235 1718.19 721.393 1709.82 707.07C1701.35 692.302 1697.12 675.732 1697.12 657.36C1697.12 638.979 1701.35 622.499 1709.82 607.91C1718.15 593.628 1730.19 581.867 1744.67 573.874C1759.44 565.58 1775.56 561.438 1793.03 561.438C1810.68 561.438 1826.8 565.58 1841.4 573.874C1855.95 581.765 1868.02 593.551 1876.25 607.91C1884.72 622.499 1888.95 638.979 1888.95 657.351C1888.95 675.732 1884.72 692.302 1876.25 707.07C1867.98 721.471 1855.93 733.336 1841.4 741.385C1826.8 749.49 1810.68 753.543 1793.03 753.543ZM1793.03 726.796C1805.46 726.796 1816.54 723.999 1826.26 718.422C1835.99 712.656 1843.56 704.55 1848.96 694.105C1854.54 683.47 1857.33 671.222 1857.33 657.36C1857.33 643.489 1854.54 631.331 1848.96 620.885C1843.56 610.43 1835.99 602.414 1826.26 596.837C1816.54 591.251 1805.46 588.462 1793.03 588.462C1780.61 588.462 1769.52 591.251 1759.8 596.837C1750.08 602.423 1742.42 610.43 1736.83 620.885C1731.44 631.331 1728.73 643.48 1728.73 657.36C1728.73 671.222 1731.44 683.47 1736.83 694.105C1742.42 704.55 1750.08 712.656 1759.8 718.422C1769.52 723.999 1780.61 726.796 1793.03 726.796Z" fill="white"/>
<path d="M550.325 646.758H302.072V667.488H550.325V646.758Z" fill="white"/>
<path d="M365.101 771.814V791.002H284L367.773 666.234H401.89L426.207 702.575L450.264 666.234H484.893L566.37 791.002H486.928V771.814H531.742L467.076 674.421L426.207 736.612L384.962 674.17L320.153 771.814H365.101Z" fill="white"/>
<path d="M284 522L367.773 646.768H401.89L426.207 610.427L450.264 646.768H484.893L566.37 522H284ZM320.153 541.188H531.751L467.076 638.581L426.207 576.39L384.962 638.841L320.153 541.188Z" fill="white"/>
</svg>
