<svg width="2174" height="1296" viewBox="0 0 2174 1296" fill="none" xmlns="http://www.w3.org/2000/svg">
<path fill-rule="evenodd" clip-rule="evenodd" d="M357.33 436.33C375.227 427.278 384.175 422.752 393.569 420.971C401.889 419.394 410.43 419.394 418.75 420.971C428.144 422.752 437.092 427.278 454.989 436.33L547.568 483.155L482.928 531.013C460.542 517.98 434.265 510.475 406.159 510.475C324.383 510.475 258.091 574.01 258.091 652.384C258.091 685.126 269.66 715.277 289.096 739.289L240.858 809.431C229.392 803.39 222.278 798.951 216.648 793.162C209.675 785.992 204.373 777.364 201.126 767.898C197.453 757.194 197.453 745.082 197.453 720.858V583.908C197.453 559.684 197.453 547.572 201.126 536.868C204.373 527.402 209.675 518.774 216.648 511.603C224.534 503.495 235.331 498.034 256.925 487.113L357.33 436.33ZM347.88 782.877L262.543 820.494L357.33 868.436C375.227 877.488 384.175 882.014 393.569 883.795C401.889 885.372 410.43 885.372 418.75 883.795C428.144 882.014 437.092 877.488 454.989 868.436L555.393 817.653C576.988 806.731 587.785 801.271 595.67 793.162C602.644 785.992 607.945 777.364 611.193 767.898C614.866 757.194 614.866 745.082 614.866 720.858V583.908C614.866 559.684 614.866 547.572 611.193 536.868C607.945 527.402 602.644 518.774 595.67 511.604C589.789 505.556 582.289 500.982 569.897 494.516L537.223 586.292C548.081 606.03 554.228 628.519 554.228 652.384C554.228 730.758 487.936 794.293 406.159 794.293C385.467 794.293 365.767 790.225 347.88 782.877Z" fill="white"/>
<path fill-rule="evenodd" clip-rule="evenodd" d="M534.012 482.095L354.086 598.729C352.588 599.7 351.331 601.043 350.421 602.644L241.119 794.888C235.19 805.317 246.33 817.243 256.09 810.916L436.016 694.282C437.514 693.311 438.771 691.968 439.682 690.368L548.984 498.123C554.913 487.695 543.773 475.768 534.012 482.095ZM389.797 668.63C401.517 671.774 413.684 664.364 416.971 652.08C420.258 639.795 413.422 627.286 401.702 624.142C389.982 620.997 377.816 628.407 374.529 640.692C371.241 652.977 378.077 665.485 389.797 668.63Z" fill="white"/>
<path d="M846.841 698.101C848.026 707.241 851.881 715.194 858.4 721.96C865.039 728.608 873.871 733.772 884.895 737.452C896.039 741.131 908.845 742.971 923.309 742.971C937.176 742.971 949.211 741.606 959.407 738.876C969.717 736.146 977.605 732.169 983.054 726.946C988.628 721.723 991.413 715.55 991.413 708.428C991.413 702.493 989.871 697.626 986.793 693.827C983.825 690.029 978.727 686.942 971.495 684.568C964.384 682.076 954.545 680.117 941.979 678.693L888.277 672.638C865.275 670.146 846.485 665.694 831.905 659.284C817.441 652.874 806.774 644.446 799.898 634C793.138 623.554 789.761 610.853 789.761 595.896C789.761 578.802 794.859 564.023 805.054 551.56C815.369 539.095 829.949 529.54 848.797 522.892C867.646 516.245 889.64 512.921 914.772 512.921C939.31 512.921 961.242 516.542 980.568 523.783C1000.01 531.024 1015.36 541.173 1026.62 554.23C1037.88 567.288 1044.05 582.363 1045.12 599.457H983.945C982.88 591.623 979.382 584.797 973.451 578.98C967.525 573.164 959.407 568.653 949.091 565.448C938.896 562.243 927.043 560.641 913.529 560.641C900.722 560.641 889.578 561.946 880.096 564.558C870.614 567.169 863.319 570.968 858.222 575.953C853.124 580.82 850.575 586.696 850.575 593.581C850.575 599.042 852.001 603.552 854.844 607.113C857.807 610.675 862.611 613.642 869.25 616.016C876.005 618.39 885.135 620.29 896.631 621.714L952.29 628.48C977.07 631.329 996.689 635.662 1011.15 641.479C1025.62 647.176 1036.05 654.833 1042.45 664.448C1048.85 674.063 1052.05 686.468 1052.05 701.662C1052.05 719.468 1046.66 735.078 1035.87 748.491C1025.08 761.905 1009.85 772.291 990.17 779.651C970.609 787.011 947.964 790.691 922.24 790.691C895.923 790.691 872.57 786.833 852.175 779.117C831.785 771.401 815.721 760.539 803.989 746.533C792.368 732.525 786.205 716.381 785.492 698.101H846.841ZM1146.22 511.141V785.349H1086.65V511.141H1146.22ZM1305.37 790.691C1281.42 790.691 1259.96 786.239 1240.99 777.337C1222.03 768.315 1207.21 755.732 1196.54 739.588C1185.87 723.326 1180.53 704.63 1180.53 683.5C1180.53 662.727 1185.63 644.327 1195.83 628.302C1206.02 612.158 1220.19 599.635 1238.33 590.732C1256.46 581.829 1276.97 577.378 1299.85 577.378C1322.85 577.378 1342.88 582.542 1359.96 592.869C1377.03 603.078 1390.13 617.678 1399.26 636.671C1408.5 655.545 1413.13 677.565 1413.13 702.73H1244.2C1248.7 716.5 1257.47 727.124 1270.51 734.602C1283.55 742.081 1300.09 745.82 1320.12 745.82C1335.42 745.82 1350.77 743.624 1366.18 739.232C1381.59 734.84 1395.41 728.667 1407.62 720.714V760.599C1394.22 770.096 1378.63 777.515 1360.85 782.856C1343.18 788.079 1324.69 790.691 1305.37 790.691ZM1355.33 663.201C1351.89 649.788 1345.38 639.46 1335.77 632.22C1326.29 624.86 1314.43 621.18 1300.21 621.18C1285.15 621.18 1272.53 624.979 1262.33 632.576C1252.26 640.054 1245.62 650.263 1242.42 663.201H1355.33ZM1627.83 739.766C1617.75 755.91 1605 768.434 1589.6 777.337C1574.3 786.239 1557.29 790.691 1538.56 790.691C1519 790.691 1501.57 786.239 1486.28 777.337C1470.98 768.434 1459.07 755.91 1450.54 739.766C1442.12 723.622 1437.91 705.104 1437.91 684.212C1437.91 663.201 1442.12 644.624 1450.54 628.48C1459.07 612.217 1470.93 599.635 1486.1 590.732C1501.39 581.829 1518.88 577.378 1538.56 577.378C1557.29 577.378 1574.3 581.829 1589.6 590.732C1605 599.516 1617.81 611.98 1628.01 628.124L1633.16 582.898H1694.69L1682.95 684.034L1694.69 785.349H1633.16L1627.83 739.766ZM1498.19 684.212C1498.19 695.845 1500.62 706.232 1505.48 715.372C1510.34 724.513 1517.04 731.635 1525.58 736.739C1534.23 741.844 1544.01 744.396 1554.92 744.396C1565.94 744.396 1576.43 741.844 1586.39 736.739C1596.35 731.635 1605.07 724.572 1612.53 715.55C1620.12 706.41 1626.05 695.964 1630.31 684.212C1626.05 672.46 1620.12 662.015 1612.53 652.874C1605.07 643.734 1596.35 636.612 1586.39 631.507C1576.43 626.284 1565.94 623.673 1554.92 623.673C1544.01 623.673 1534.23 626.284 1525.58 631.507C1517.04 636.612 1510.34 643.793 1505.48 653.052C1500.62 662.193 1498.19 672.579 1498.19 684.212ZM1793.97 582.898V628.302C1804.16 612.039 1816.9 599.516 1832.2 590.732C1847.61 581.829 1864.74 577.378 1883.59 577.378C1903.27 577.378 1920.7 581.829 1935.87 590.732C1951.16 599.635 1963.02 612.217 1971.43 628.48C1979.97 644.624 1984.24 663.201 1984.24 684.212C1984.24 705.104 1979.97 723.622 1971.43 739.766C1963.02 755.91 1951.16 768.434 1935.87 777.337C1920.58 786.239 1903.15 790.691 1883.59 790.691C1864.74 790.691 1847.61 786.239 1832.2 777.337C1816.9 768.315 1804.16 755.672 1793.97 739.41V844.108H1734.39V582.898H1793.97ZM1791.83 684.212C1796.1 695.964 1801.97 706.41 1809.44 715.55C1817.02 724.572 1825.79 731.635 1835.75 736.739C1845.71 741.844 1856.2 744.396 1867.23 744.396C1878.13 744.396 1887.86 741.844 1896.39 736.739C1905.05 731.635 1911.8 724.513 1916.66 715.372C1921.52 706.232 1923.95 695.845 1923.95 684.212C1923.95 672.579 1921.52 662.193 1916.66 653.052C1911.8 643.793 1905.05 636.612 1896.39 631.507C1887.86 626.284 1878.13 623.673 1867.23 623.673C1856.2 623.673 1845.71 626.284 1835.75 631.507C1825.79 636.612 1817.02 643.734 1809.44 652.874C1801.97 662.015 1796.1 672.46 1791.83 684.212Z" fill="white"/>
</svg>
