<svg width="2172" height="1294" viewBox="0 0 2172 1294" fill="none" xmlns="http://www.w3.org/2000/svg">
<path d="M475.685 472.57H339.228C317.699 472.57 306.947 472.57 298.714 476.757C291.48 480.445 285.593 486.3 281.925 493.527C277.734 501.75 277.734 512.49 277.734 533.995V557.293H537.179V533.995C537.179 512.49 537.179 501.75 532.988 493.527C529.296 486.3 523.433 480.42 516.199 476.757C507.966 472.57 497.214 472.57 475.685 472.57Z" fill="white"/>
<path d="M450.688 627.065H537.177V735.087C537.177 756.592 537.177 767.332 532.986 775.555C529.294 782.781 523.432 788.662 516.197 792.325C507.965 796.512 497.213 796.512 475.684 796.512H450.712V627.065H450.688Z" fill="white"/>
<path d="M364.224 627.065H277.734V735.087C277.734 756.592 277.734 767.332 281.925 775.555C285.617 782.781 291.48 788.662 298.714 792.325C306.947 796.512 317.699 796.512 339.228 796.512H364.199V627.065H364.224Z" fill="white"/>
<path d="M705.74 686.621V588.516H681.691V557.293H705.74V517.847H747.301V557.293H786.791V588.516H747.301V682.833C747.301 698.606 754.86 705.808 767.907 705.808C776.139 705.808 782.326 704.786 788.163 702.369V735.286C781.627 737.679 772.721 739.747 759.999 739.747C724.275 739.747 705.74 720.535 705.74 686.571V686.621Z" fill="white"/>
<path d="M1000.06 557.318H1041.62V585.775C1050.21 568.283 1070.11 553.531 1099.65 553.531C1135.7 553.531 1161.12 574.462 1161.12 623.851V736.707H1119.56V627.639C1119.56 600.552 1108.58 588.192 1083.83 588.192C1060.48 588.192 1041.6 602.595 1041.6 631.077V736.732H1000.04V557.318H1000.06Z" fill="white"/>
<path d="M1192.48 742.887H1234.36C1237.8 760.729 1251.52 771.02 1278.67 771.02C1310.95 771.02 1328.81 754.898 1328.81 722.653V696.239C1318.85 713.383 1296.53 729.506 1270.08 729.506C1225.11 729.506 1190.43 695.89 1190.43 644.11V641.718C1190.43 591.307 1224.78 553.556 1271.13 553.556C1300.67 553.556 1318.53 566.937 1328.81 584.779V557.343H1370.37V723.351C1370.02 776.178 1334.65 802.592 1279.02 802.592C1223.38 802.592 1197.29 777.2 1192.48 742.912V742.887ZM1330.18 642.739V640.347C1330.18 606.383 1311.65 586.149 1281.76 586.149C1251.87 586.149 1232.99 608.451 1232.99 641.02V643.761C1232.99 677.027 1253.59 697.61 1280.39 697.61C1309.23 697.61 1330.18 677.027 1330.18 642.739Z" fill="white"/>
<path d="M1400.75 648.894V646.153C1400.75 590.585 1438.87 553.531 1490.04 553.531C1534.67 553.531 1574.86 579.944 1574.86 644.085V656.096H1443.34C1444.71 690.06 1461.87 709.272 1492.78 709.272C1517.85 709.272 1530.9 699.329 1533.99 681.836H1574.18C1568.34 719.563 1537.79 740.146 1491.76 740.146C1438.87 740.146 1400.75 705.509 1400.75 648.894ZM1533.64 628.311C1531.57 597.437 1515.78 583.732 1490.04 583.732C1464.29 583.732 1448.15 600.552 1444.01 628.311H1533.64Z" fill="white"/>
<path d="M1606.81 557.318H1648.37V584.754C1656.96 567.934 1676.54 553.531 1702.98 553.531C1726.33 553.531 1744.87 563.473 1753.8 585.775C1767.54 563.473 1792.27 553.531 1814.57 553.531C1847.52 553.531 1874.32 573.765 1874.32 623.153V736.682H1832.76V625.894C1832.76 599.481 1821.43 588.168 1800.82 588.168C1780.22 588.168 1761.33 601.898 1761.33 629.333V736.682H1719.77V625.894C1719.77 599.481 1708.1 588.168 1687.84 588.168C1667.58 588.168 1648.35 601.898 1648.35 629.333V736.682H1606.79V557.318H1606.81Z" fill="white"/>
<path d="M809.871 686.97C809.871 645.131 850.384 630.031 901.899 630.031H924.226V620.761C924.226 596.74 915.994 584.754 891.596 584.754C869.967 584.754 859.315 595.045 857.27 612.887H817.081C820.523 571.048 853.827 553.556 893.991 553.556C934.155 553.556 965.762 570.027 965.762 619.067V736.707H924.9V714.754C913.225 730.178 897.434 740.146 869.967 740.146C837.013 740.146 809.871 724.372 809.871 686.97ZM924.226 673.937V656.096H902.947C871.364 656.096 851.083 663.297 851.083 685.25C851.083 700.351 859.315 710.293 879.921 710.293C905.342 710.293 924.226 696.912 924.226 673.937Z" fill="white"/>
</svg>
