<svg width="2172" height="1294" viewBox="0 0 2172 1294" fill="none" xmlns="http://www.w3.org/2000/svg">
<path d="M864.458 572.589C865.488 572.877 866.519 573.165 867.581 573.461C885.5 578.786 901.074 590.283 911.056 606.107C911.534 606.854 912.013 607.602 912.506 608.371C926.226 630.75 927.406 654.67 927.406 680.501C878.846 680.501 830.286 680.501 780.254 680.501C783.738 702.273 787.362 723.565 805.862 737.372C819.366 746.839 835.181 749.862 851.378 747.536C864.146 745.037 875.617 740.403 883.056 729.347C886.763 723.199 888.655 716.801 890.618 709.931C902.219 709.931 913.819 709.931 925.771 709.931C924.098 724.986 918.993 738.746 908.603 749.989C907.912 750.745 907.221 751.502 906.508 752.282C901.664 757.36 896.751 761.304 890.618 764.704C889.864 765.131 889.109 765.558 888.332 765.997C881.747 769.512 874.914 771.801 867.728 773.697C866.755 773.96 865.783 774.223 864.78 774.495C848.351 778.138 827.579 778.103 811.32 773.697C810.418 773.453 810.418 773.453 809.498 773.204C796.574 769.565 785.299 764.011 775.349 754.894C774.229 753.887 774.229 753.887 773.085 752.86C759.026 739.587 751.428 722.095 747.554 703.391C747.353 702.427 747.353 702.427 747.149 701.443C741.157 671.082 744.469 636.547 761.768 610.265C773.536 593.07 789.571 579.634 809.685 573.407C810.219 573.237 810.753 573.068 811.304 572.893C827.383 568.05 848.338 567.955 864.458 572.589ZM796.605 615.917C789.401 624.546 785.344 634.514 782.707 645.348C782.544 646.015 782.38 646.682 782.212 647.369C781.742 650.029 781.742 650.029 781.889 655.158C817.5 655.158 853.111 655.158 889.801 655.158C889.801 640.178 886.877 627.029 877.538 615.1C876.914 614.24 876.29 613.38 875.648 612.494C866.343 602.756 853.293 598.071 840.035 597.601C822.758 597.369 808.496 603.292 796.605 615.917Z" fill="white"/>
<path d="M1551.78 591.427C1566.31 604.093 1574.27 620.473 1575.83 639.707C1576.03 643.857 1576 648.007 1575.97 652.16C1575.97 653.523 1575.97 654.887 1575.97 656.25C1575.97 659.906 1575.96 663.561 1575.94 667.217C1575.92 671.055 1575.92 674.892 1575.92 678.729C1575.91 685.976 1575.89 693.222 1575.87 700.468C1575.84 708.727 1575.83 716.985 1575.81 725.243C1575.79 742.213 1575.74 759.182 1575.69 776.152C1564.63 776.152 1553.57 776.152 1542.17 776.152C1541.9 768.868 1541.63 761.584 1541.35 754.079C1540.29 755.563 1539.23 757.047 1538.14 758.575C1528.32 771.806 1514.31 778.801 1498.28 781.6C1477.5 784.614 1456.11 781.852 1438.59 769.714C1425.65 759.86 1418.49 747.134 1415.71 731.24C1415.61 730.135 1415.52 729.027 1415.46 727.919C1415.41 727.218 1415.37 726.517 1415.33 725.795C1414.87 710.941 1419.1 697.728 1428.54 686.226C1428.96 685.706 1429.39 685.187 1429.83 684.652C1443.12 670.046 1464.6 664.628 1483.33 661.633C1485.51 661.283 1487.69 660.922 1489.87 660.558C1496.1 659.524 1502.32 658.522 1508.56 657.546C1510.26 657.278 1511.97 657.007 1513.67 656.735C1515.71 656.411 1517.75 656.097 1519.79 655.793C1527.07 654.639 1534.2 653.108 1538.9 646.985C1541.92 639.663 1541.02 631.329 1538.27 624.047C1534.72 616.244 1528.9 610.746 1520.97 607.617C1507.44 602.893 1491.94 602.899 1478.69 608.772C1468.54 613.7 1463.55 620.202 1459.6 630.635C1458.79 634.952 1457.98 639.268 1457.15 643.715C1445.55 643.715 1433.95 643.715 1422 643.715C1422 627.489 1426.86 613.529 1437.53 601.205C1438.04 600.539 1438.55 599.873 1439.08 599.187C1450.49 585.443 1469.84 578.049 1487.1 576.023C1509.7 574.149 1533.63 576.584 1551.78 591.427ZM1536.79 677.933C1533.28 679.725 1529.86 680.718 1526.03 681.576C1525.32 681.741 1524.61 681.906 1523.88 682.076C1518.84 683.217 1513.79 684.219 1508.72 685.191C1508.08 685.315 1507.43 685.438 1506.77 685.565C1503.55 686.181 1500.33 686.789 1497.11 687.381C1482.79 690.05 1467.85 693.462 1457.97 705.029C1452.94 713.173 1450.99 720.582 1452.62 730.119C1454.74 738.061 1459.4 744.501 1466.14 749.174C1478.72 756.282 1491.67 756.076 1505.38 752.444C1520.01 747.621 1529.21 739.367 1536.63 726.137C1541.98 715.356 1541.68 703.301 1541.51 691.591C1541.49 690.111 1541.48 688.63 1541.47 687.15C1541.45 683.572 1541.4 679.994 1541.35 676.416C1539.38 676.416 1538.52 676.987 1536.79 677.933Z" fill="white"/>
<path d="M578.328 512.096C589.929 512.096 601.529 512.096 613.481 512.096C613.751 562.005 614.021 611.914 614.299 663.335C618.345 659.288 622.392 655.241 626.561 651.072C628.45 649.454 630.338 647.835 632.284 646.167C633.164 645.227 634.02 644.264 634.832 643.264C638.71 638.716 642.98 634.563 647.218 630.354C648.767 628.816 650.314 627.274 651.86 625.732C655.698 621.905 659.54 618.082 663.382 614.259C666.638 611.02 669.892 607.778 673.144 604.535C674.658 603.026 676.174 601.52 677.691 600.014C681.945 595.778 686.156 591.556 690.03 586.963C690.398 586.537 690.766 586.11 691.144 585.671C691.506 585.216 691.869 584.76 692.242 584.291C694.175 582.762 695.559 582.924 698.003 582.941C698.903 582.941 699.803 582.941 700.73 582.941C701.701 582.954 702.672 582.966 703.672 582.979C704.667 582.983 705.661 582.986 706.686 582.99C709.868 583.004 713.05 583.035 716.232 583.066C718.387 583.078 720.542 583.089 722.697 583.099C727.985 583.126 733.272 583.167 738.56 583.219C735.382 587.019 732.086 590.632 728.577 594.128C728.11 594.596 727.642 595.064 727.161 595.547C726.179 596.528 725.197 597.509 724.213 598.489C722.727 599.971 721.245 601.458 719.764 602.945C711.856 610.856 711.856 610.856 708.357 613.824C702.987 618.398 698.146 623.581 693.188 628.591C681.347 640.556 681.347 640.556 676.454 644.711C672.913 647.818 669.572 651.142 666.222 654.453C665.354 655.307 664.481 656.158 663.604 657.004C662.324 658.239 661.058 659.487 659.795 660.739C659.044 661.473 658.294 662.207 657.521 662.963C655.795 664.785 655.795 664.785 656.062 666.746C657.183 668.988 658.761 670.569 660.488 672.378C663.335 675.41 666.056 678.484 668.663 681.729C671.159 684.823 673.737 687.796 676.429 690.721C679.776 694.357 682.907 698.117 686.009 701.962C687.929 704.276 689.925 706.494 691.962 708.707C695.325 712.361 698.478 716.138 701.596 720.002C703.371 722.152 705.207 724.222 707.086 726.283C709.616 729.059 712.033 731.892 714.392 734.816C717.548 738.718 720.881 742.416 724.279 746.108C726.893 749.019 729.333 752.055 731.79 755.1C733.71 757.415 735.706 759.632 737.742 761.845C748.047 773.052 748.047 773.052 750.005 776.969C743.858 777.178 737.712 777.337 731.562 777.434C728.705 777.481 725.851 777.544 722.996 777.647C719.704 777.764 716.415 777.807 713.121 777.847C712.108 777.893 711.096 777.94 710.052 777.987C705.644 777.99 702.874 777.849 699.358 775.04C697.274 772.771 695.416 770.46 693.597 767.976C692.579 766.712 691.558 765.451 690.531 764.195C690.006 763.528 689.482 762.861 688.941 762.174C686.544 759.155 684.094 756.182 681.641 753.21C680.905 752.317 680.905 752.317 680.153 751.407C679.143 750.182 678.132 748.957 677.121 747.733C674.708 744.808 672.299 741.881 669.889 738.954C668.935 737.796 667.982 736.638 667.028 735.48C661.305 728.531 661.305 728.531 659.874 726.793C658.922 725.638 657.971 724.482 657.019 723.327C654.602 720.392 652.186 717.457 649.774 714.519C644.909 708.596 640.031 702.688 635.042 696.869C633.451 695.006 632.011 693.174 630.649 691.13C623.583 694.61 617.685 698.427 614.299 705.845C611.665 716.67 612.761 728.674 613.021 739.713C613.122 744.659 613.123 749.605 613.141 754.551C613.18 762.027 613.342 769.491 613.481 776.969C601.881 776.969 590.28 776.969 578.328 776.969C578.328 689.56 578.328 602.152 578.328 512.096Z" fill="white"/>
<path d="M500.462 587.665C501.63 588.624 502.788 589.595 503.936 590.577C504.589 591.121 505.241 591.665 505.913 592.225C526.458 609.935 537.059 635.795 539.089 662.518C540.442 692.93 534.762 722.804 514.104 746.159C512.9 747.442 511.691 748.719 510.477 749.991C509.741 750.818 509.741 750.818 508.992 751.662C495.201 766.584 472.776 775.087 452.808 776.332C449.683 776.429 446.567 776.463 443.441 776.458C442.887 776.458 442.334 776.457 441.763 776.457C419.751 776.376 399.058 770.164 382.128 755.714C381.485 755.189 380.842 754.664 380.18 754.124C360.622 737.509 350.237 712.191 347.792 687.043C347.186 672.961 346.687 658.254 350.245 644.533C350.488 643.558 350.488 643.558 350.737 642.564C355.204 625.124 363.077 610.19 375.588 597.117C376.139 596.505 376.69 595.893 377.258 595.262C407.713 562.636 465.834 561.466 500.462 587.665ZM402.387 615.412C400.703 617.429 399.164 619.488 397.66 621.643C397.174 622.334 396.689 623.025 396.188 623.737C389.779 633.742 385.576 646.612 384.58 658.43C384.528 659.024 384.475 659.617 384.421 660.228C382.25 686.329 386.281 711.936 403.479 732.434C413.93 743.651 427.46 748.275 442.399 749.126C457.881 749.528 471.805 743.236 482.949 732.738C486.82 728.545 489.721 723.895 492.491 718.926C492.954 718.104 493.417 717.282 493.893 716.435C505.567 693.503 505.283 663.337 497.55 639.321C494.545 630.53 490.414 622.962 484.316 615.92C483.789 615.306 483.262 614.691 482.72 614.058C473.717 604.306 460.76 598.534 447.56 597.74C430.057 597.3 414.627 602.289 402.387 615.412Z" fill="white"/>
<path d="M1102.78 589.115C1105.77 591.646 1108.57 594.349 1111.34 597.116C1112.17 597.91 1112.17 597.91 1113 598.719C1131.63 618.106 1130.52 648.012 1130.4 672.849C1130.38 676.519 1130.38 680.19 1130.38 683.86C1130.37 690.785 1130.35 697.71 1130.32 704.635C1130.3 712.53 1130.28 720.424 1130.27 728.319C1130.24 744.535 1130.2 760.752 1130.15 776.968C1118.55 776.968 1106.95 776.968 1094.99 776.968C1094.98 773.276 1094.96 769.585 1094.94 765.782C1094.89 753.549 1094.83 741.316 1094.76 729.083C1094.72 721.67 1094.68 714.258 1094.65 706.845C1094.62 700.378 1094.59 693.911 1094.55 687.445C1094.53 684.026 1094.51 680.607 1094.5 677.189C1094.49 673.959 1094.47 670.73 1094.45 667.5C1094.44 666.326 1094.44 665.152 1094.43 663.978C1094.41 647.371 1093.68 627.93 1081.71 615.152C1073.4 607.529 1061.77 604.625 1050.59 605.058C1035.13 606.703 1021.68 611.518 1011.42 623.826C997.762 641.759 999.089 663.685 999.015 685.08C999.002 688.319 998.98 691.558 998.959 694.798C998.921 700.909 998.891 707.02 998.864 713.132C998.832 720.099 998.792 727.067 998.751 734.034C998.667 748.345 998.595 762.657 998.528 776.968C986.927 776.968 975.327 776.968 963.375 776.968C963.375 713.031 963.375 649.093 963.375 583.218C974.975 583.218 986.576 583.218 998.528 583.218C998.933 594.954 998.933 594.954 999.345 606.926C1001.23 604.498 1003.12 602.07 1005.07 599.569C1027.87 574.026 1075.13 567.114 1102.78 589.115Z" fill="white"/>
<path d="M1610.84 583.218C1649.12 579.39 1649.12 579.39 1657.5 585.096C1662.77 589.729 1665.47 596.511 1668.18 602.835C1670.41 607.872 1673.66 612.243 1676.85 616.71C1678.52 619.072 1680.13 621.474 1681.75 623.873C1690.49 636.786 1690.49 636.786 1699.65 649.404C1700.77 651.071 1700.77 651.071 1700.77 652.706C1701.31 652.706 1701.85 652.706 1702.4 652.706C1702.62 652.112 1702.84 651.517 1703.06 650.905C1704.04 648.603 1705.18 646.779 1706.63 644.739C1707.15 643.996 1707.67 643.253 1708.21 642.487C1708.77 641.695 1709.33 640.902 1709.91 640.086C1711.1 638.392 1712.29 636.697 1713.48 635.002C1714.09 634.14 1714.69 633.278 1715.32 632.39C1718.08 628.438 1720.79 624.454 1723.5 620.466C1724.52 618.974 1725.53 617.483 1726.55 615.992C1727.03 615.286 1727.51 614.581 1728 613.855C1731.07 609.344 1734.17 604.849 1737.27 600.353C1739.29 597.418 1741.31 594.482 1743.33 591.546C1743.71 590.993 1744.09 590.44 1744.48 589.87C1746 587.661 1747.51 585.449 1749 583.218C1750.78 582.923 1750.78 582.923 1753.01 582.939C1754.27 582.94 1754.27 582.94 1755.54 582.94C1756.45 582.953 1757.35 582.965 1758.28 582.978C1759.2 582.982 1760.13 582.985 1761.08 582.989C1764.04 583.003 1766.99 583.033 1769.95 583.065C1771.95 583.077 1773.95 583.088 1775.95 583.098C1780.87 583.125 1785.78 583.166 1790.69 583.218C1788.94 586.355 1787.25 589.359 1785 592.172C1784.56 592.737 1784.11 593.303 1783.65 593.885C1783.17 594.479 1782.7 595.073 1782.21 595.685C1778.15 600.834 1774.18 606.03 1770.31 611.32C1766.37 616.693 1762.41 622.041 1758.4 627.363C1754.44 632.637 1750.5 637.932 1746.6 643.254C1741.91 649.646 1737.12 655.958 1732.3 662.255C1728.53 667.194 1724.81 672.166 1721.21 677.231C1723.57 681.6 1726.26 685.44 1729.33 689.341C1733.14 694.25 1736.85 699.21 1740.47 704.26C1743.79 708.896 1747.15 713.5 1750.58 718.056C1755.62 724.732 1760.58 731.462 1765.53 738.198C1768.39 742.088 1771.26 745.975 1774.12 749.862C1776.61 753.238 1779.1 756.617 1781.58 759.998C1782.1 760.7 1782.61 761.402 1783.14 762.126C1784.13 763.468 1785.12 764.81 1786.1 766.153C1787.97 768.691 1789.83 771.193 1791.84 773.627C1793.15 775.332 1793.15 775.332 1793.15 776.967C1787.16 777.343 1781.17 777.599 1775.17 777.776C1773.14 777.849 1771.1 777.95 1769.07 778.077C1752.65 779.084 1752.65 779.084 1747.97 775.583C1744.86 772.17 1742.83 768.331 1740.94 764.152C1739.44 761.08 1737.45 758.376 1735.46 755.61C1734.72 754.536 1733.97 753.461 1733.23 752.385C1732.87 751.855 1732.5 751.326 1732.13 750.781C1730.25 748.068 1728.39 745.35 1726.52 742.632C1724.26 739.35 1722.01 736.07 1719.75 732.793C1718.99 731.696 1718.23 730.598 1717.48 729.501C1716.92 728.694 1716.92 728.694 1716.35 727.872C1713.77 724.117 1711.25 720.326 1708.74 716.523C1705.74 711.979 1702.58 707.609 1699.13 703.392C1694.72 709.735 1690.35 716.11 1686 722.501C1679.55 731.984 1673 741.399 1666.43 750.807C1664.08 754.179 1661.73 757.551 1659.38 760.924C1658.58 762.067 1658.58 762.067 1657.77 763.234C1657.26 763.962 1656.75 764.689 1656.23 765.439C1655.79 766.069 1655.35 766.698 1654.9 767.347C1653.36 769.488 1653.36 769.488 1652.42 771.482C1649.64 776.593 1649.64 776.593 1646.4 777.609C1643.85 777.82 1641.4 777.795 1638.85 777.686C1637.93 777.675 1637.01 777.665 1636.06 777.654C1633.14 777.613 1630.22 777.521 1627.29 777.427C1625.31 777.39 1623.32 777.357 1621.33 777.327C1616.47 777.246 1611.61 777.123 1606.75 776.967C1608.57 773.706 1610.38 770.599 1612.65 767.627C1613.14 766.983 1613.63 766.339 1614.13 765.676C1614.65 765.002 1615.16 764.327 1615.7 763.632C1619.78 758.243 1623.81 752.828 1627.75 747.333C1631.06 742.728 1634.4 738.162 1637.82 733.639C1641.71 728.489 1645.5 723.279 1649.27 718.041C1654.39 710.934 1659.59 703.894 1664.8 696.851C1666.91 693.991 1669.02 691.129 1671.13 688.268C1671.62 687.608 1672.11 686.947 1672.61 686.267C1673.06 685.654 1673.52 685.041 1673.98 684.41C1674.38 683.871 1674.78 683.332 1675.19 682.777C1677.26 680.29 1677.26 680.29 1677.7 677.267C1677.01 675.458 1676.18 674.133 1675.03 672.575C1674.61 671.998 1674.18 671.42 1673.75 670.826C1673.29 670.208 1672.83 669.59 1672.36 668.954C1671.38 667.622 1670.41 666.291 1669.43 664.959C1668.93 664.28 1668.43 663.601 1667.91 662.901C1666.08 660.405 1664.27 657.893 1662.47 655.379C1657.9 649.032 1653.28 642.729 1648.64 636.442C1644.97 631.471 1641.34 626.467 1637.73 621.452C1634.52 616.997 1631.27 612.569 1628.01 608.152C1624.1 602.848 1620.19 597.54 1616.31 592.21C1615.85 591.589 1615.4 590.968 1614.93 590.328C1614.51 589.752 1614.09 589.176 1613.66 588.583C1613.29 588.078 1612.92 587.573 1612.55 587.053C1611.66 585.67 1611.66 585.67 1610.84 583.218Z" fill="white"/>
<path d="M1823.4 583.218C1829.39 582.842 1835.37 582.586 1841.37 582.409C1843.4 582.336 1845.44 582.236 1847.47 582.108C1863.82 581.105 1863.82 581.105 1868.53 584.531C1871.67 587.931 1873.67 591.859 1875.61 596.03C1876.94 598.772 1878.63 601.184 1880.4 603.659C1881.3 604.98 1881.3 604.98 1882.21 606.328C1882.82 607.217 1883.42 608.105 1884.05 609.02C1884.71 609.994 1885.37 610.967 1886.03 611.941C1887.38 613.925 1888.73 615.909 1890.07 617.892C1892.02 620.748 1893.96 623.605 1895.9 626.463C1898.76 630.686 1901.63 634.906 1904.51 639.124C1905.81 641.036 1907.11 642.951 1908.41 644.866C1909.07 645.845 1909.74 646.823 1910.41 647.801C1910.95 648.593 1911.49 649.386 1912.04 650.202C1913.19 651.973 1913.19 651.973 1914.96 652.706C1915.17 652.123 1915.38 651.539 1915.59 650.938C1916.66 648.459 1917.95 646.431 1919.48 644.208C1920.05 643.366 1920.63 642.524 1921.22 641.657C1921.84 640.758 1922.46 639.86 1923.08 638.962C1923.72 638.035 1924.35 637.109 1924.99 636.182C1926.24 634.347 1927.5 632.514 1928.77 630.683C1930.21 628.586 1931.65 626.487 1933.09 624.387C1934.87 621.795 1936.65 619.205 1938.44 616.617C1939.91 614.483 1941.38 612.346 1942.85 610.21C1943.97 608.58 1945.09 606.949 1946.21 605.319C1947.77 603.044 1949.33 600.768 1950.9 598.492C1951.29 597.911 1951.69 597.329 1952.1 596.731C1952.86 595.63 1953.61 594.53 1954.37 593.429C1954.71 592.924 1955.06 592.42 1955.42 591.901C1955.72 591.466 1956.01 591.031 1956.32 590.583C1956.7 590.041 1957.08 589.499 1957.47 588.94C1957.7 588.466 1957.93 587.991 1958.17 587.501C1959.15 585.733 1960.01 584.531 1961.56 583.218C1964.73 582.414 1967.82 582.551 1971.07 582.659C1972.45 582.671 1972.45 582.671 1973.86 582.683C1976.79 582.715 1979.72 582.787 1982.66 582.86C1984.65 582.889 1986.64 582.915 1988.63 582.938C1993.5 583.001 1998.37 583.097 2003.25 583.218C1998.17 590.929 1998.17 590.929 1995.41 594.503C1994.89 595.174 1994.37 595.845 1993.84 596.536C1993.3 597.233 1992.77 597.93 1992.21 598.648C1987.9 604.266 1983.63 609.905 1979.44 615.612C1978.97 616.247 1978.51 616.881 1978.02 617.536C1976.62 619.448 1975.22 621.362 1973.82 623.276C1967.36 632.098 1960.83 640.86 1954.19 649.545C1947.22 658.659 1940.41 667.884 1933.76 677.231C1935.14 680.279 1937.02 682.913 1938.97 685.611C1939.33 686.111 1939.69 686.611 1940.06 687.127C1943.16 691.414 1946.32 695.646 1949.5 699.869C1954.18 706.069 1958.77 712.324 1963.37 718.578C1965.76 721.829 1968.15 725.077 1970.55 728.326C1971.5 729.62 1972.46 730.914 1973.41 732.209C1973.88 732.849 1974.35 733.49 1974.84 734.15C1976.27 736.092 1977.7 738.034 1979.13 739.975C1979.6 740.616 1980.08 741.258 1980.56 741.918C1981.51 743.207 1982.46 744.496 1983.41 745.785C1985.86 749.104 1988.3 752.421 1990.75 755.738C1993.14 758.977 1995.53 762.218 1997.91 765.461C1998.71 766.539 1999.5 767.617 2000.29 768.694C2001.25 769.986 2002.2 771.279 2003.15 772.573C2003.65 773.258 2004.15 773.943 2004.67 774.649C2005.7 776.15 2005.7 776.15 2005.7 776.967C1966.73 779.986 1966.73 779.986 1959.26 775.413C1954.98 771.505 1952.9 766.707 1951 761.309C1949.67 757.839 1947.62 755.091 1945.41 752.136C1944.67 751.077 1943.94 750.016 1943.22 748.952C1941.87 746.994 1940.52 745.038 1939.17 743.082C1938.49 742.098 1937.81 741.113 1937.13 740.128C1936.61 739.376 1936.61 739.376 1936.08 738.608C1933.32 734.587 1930.59 730.548 1927.86 726.505C1927.47 725.941 1927.09 725.376 1926.7 724.795C1924.76 721.927 1922.83 719.057 1920.89 716.186C1920.17 715.111 1919.44 714.037 1918.72 712.962C1918.22 712.225 1918.22 712.225 1917.72 711.472C1915.82 708.673 1913.83 706 1911.69 703.392C1908.15 708.146 1904.73 712.954 1901.47 717.902C1896.33 725.687 1890.97 733.32 1885.62 740.969C1882.78 745.046 1879.94 749.127 1877.1 753.209C1876.55 753.986 1876.01 754.763 1875.46 755.564C1872.98 759.129 1870.5 762.698 1868.05 766.282C1867.63 766.892 1867.21 767.503 1866.78 768.131C1866.02 769.252 1865.26 770.373 1864.49 771.495C1863.15 773.464 1861.87 775.278 1860.18 776.967C1858.44 777.164 1858.44 777.164 1856.25 777.153C1855.43 777.153 1854.61 777.153 1853.77 777.153C1852.44 777.14 1852.44 777.14 1851.08 777.127C1850.18 777.125 1849.27 777.122 1848.34 777.12C1845.44 777.111 1842.54 777.09 1839.64 777.07C1837.68 777.061 1835.72 777.054 1833.76 777.047C1828.94 777.029 1824.13 777.002 1819.31 776.967C1820.74 774.007 1822.49 771.398 1824.42 768.741C1824.77 768.247 1825.13 767.753 1825.49 767.244C1829.97 761.036 1834.53 754.883 1839.08 748.727C1841.49 745.472 1843.89 742.212 1846.29 738.953C1847.24 737.659 1848.19 736.364 1849.15 735.07C1849.86 734.109 1849.86 734.109 1850.58 733.128C1854.87 727.304 1854.87 727.304 1856.3 725.362C1857.25 724.068 1858.21 722.775 1859.16 721.481C1861.55 718.233 1863.95 714.986 1866.34 711.742C1871.57 704.665 1876.77 697.569 1881.9 690.423C1882.3 689.86 1882.71 689.298 1883.13 688.718C1883.52 688.172 1883.91 687.625 1884.31 687.063C1885.16 685.903 1886.05 684.765 1886.95 683.645C1887.41 683.074 1887.87 682.504 1888.34 681.916C1888.76 681.408 1889.18 680.901 1889.61 680.377C1890.59 678.913 1890.59 678.913 1890.29 677.241C1889.53 675.391 1888.61 673.994 1887.4 672.396C1886.95 671.782 1886.49 671.168 1886.01 670.535C1885.27 669.55 1885.27 669.55 1884.5 668.545C1883.45 667.139 1882.4 665.731 1881.35 664.324C1880.82 663.611 1880.28 662.898 1879.73 662.164C1877.4 659.037 1875.13 655.873 1872.86 652.706C1869.21 647.64 1865.53 642.602 1861.82 637.582C1857.66 631.96 1853.55 626.308 1849.47 620.635C1846.26 616.179 1843.01 611.752 1839.75 607.334C1837.84 604.747 1835.93 602.158 1834.02 599.568C1833.52 598.879 1833.01 598.189 1832.49 597.479C1830.98 595.436 1829.49 593.39 1827.99 591.342C1827.53 590.714 1827.07 590.086 1826.59 589.439C1826.17 588.86 1825.75 588.281 1825.32 587.685C1824.95 587.176 1824.57 586.667 1824.19 586.143C1823.4 584.853 1823.4 584.853 1823.4 583.218Z" fill="white"/>
<path d="M1391.29 576.627C1394.14 576.644 1396.99 576.66 1399.92 576.678C1399.92 588.278 1399.92 599.879 1399.92 611.831C1397.19 611.797 1394.46 611.763 1391.65 611.729C1374.97 611.672 1358.68 614.406 1346.07 626.287C1331.83 641.782 1330.37 662.373 1330.27 682.396C1330.26 683.426 1330.25 684.456 1330.24 685.518C1330.22 688.306 1330.2 691.094 1330.19 693.882C1330.17 696.809 1330.15 699.736 1330.13 702.663C1330.08 708.19 1330.05 713.717 1330.01 719.244C1329.97 725.543 1329.93 731.842 1329.88 738.141C1329.79 751.083 1329.7 764.025 1329.62 776.967C1318.02 776.967 1306.42 776.967 1294.46 776.967C1294.46 713.03 1294.46 649.093 1294.46 583.218C1306.07 583.218 1317.67 583.218 1329.62 583.218C1329.89 592.66 1330.16 602.102 1330.44 611.831C1332.05 609.133 1333.67 606.435 1335.34 603.656C1346.14 588.987 1360.86 580.367 1378.83 577.007C1382.99 576.566 1387.11 576.592 1391.29 576.627Z" fill="white"/>
<path d="M1100.72 512.096C1171.94 512.096 1243.16 512.096 1316.54 512.096C1316.54 523.966 1316.54 535.836 1316.54 548.066C1245.32 548.066 1174.1 548.066 1100.72 548.066C1100.72 536.196 1100.72 524.326 1100.72 512.096Z" fill="white"/>
<path d="M166.305 511.277C237.256 511.277 308.208 511.277 381.309 511.277C381.309 523.148 381.309 535.018 381.309 547.248C310.358 547.248 239.406 547.248 166.305 547.248C166.305 535.377 166.305 523.507 166.305 511.277Z" fill="white"/>
<path d="M1190.64 562.781C1202.24 562.781 1213.85 562.781 1225.8 562.781C1225.8 633.463 1225.8 704.145 1225.8 776.969C1214.2 776.969 1202.6 776.969 1190.64 776.969C1190.64 706.287 1190.64 635.605 1190.64 562.781Z" fill="white"/>
<path d="M256.23 562.781C267.831 562.781 279.431 562.781 291.383 562.781C291.383 633.463 291.383 704.145 291.383 776.969C279.783 776.969 268.182 776.969 256.23 776.969C256.23 706.287 256.23 635.605 256.23 562.781Z" fill="white"/>
</svg>
