<svg width="2173" height="1297" viewBox="0 0 2173 1297" fill="none" xmlns="http://www.w3.org/2000/svg">
<path d="M346.145 755.708V539.307H381.662V755.708H346.145Z" fill="white"/>
<path d="M150.803 755.709V538.551H186.32V755.709H150.803Z" fill="white"/>
<path fill-rule="evenodd" clip-rule="evenodd" d="M246.729 598.394C248.11 610.483 248.139 627.06 248.139 651.258V652.475C248.138 673.118 248.137 690.313 249.804 703.633C251.515 717.304 255.374 730.833 266.417 740.637C277.015 750.048 291.124 753.168 305.66 754.602C320.289 756.045 339.335 756.045 362.891 756.045H363.907V719.916C339.094 719.916 321.852 719.895 309.22 718.649C296.286 717.373 292.081 715.072 290.47 713.642C289.304 712.607 287.059 709.875 285.717 699.155C284.364 688.345 284.331 673.434 284.331 651.258V650.115C284.331 627.342 284.331 608.684 282.688 594.3C281.027 579.764 277.347 565.61 266.653 555.21C256.055 544.904 241.742 541.397 226.977 539.802C212.264 538.212 193.146 538.213 169.662 538.213L168.562 538.213V574.341C193.411 574.341 210.553 574.366 223.082 575.72C235.786 577.093 239.787 579.523 241.398 581.089C242.913 582.562 245.338 586.217 246.729 598.394Z" fill="white"/>
<path d="M572.551 759.746C557.116 759.746 542.812 756.974 529.642 751.428C516.471 745.88 504.945 738.176 495.068 728.316C485.394 718.249 477.883 706.437 472.532 692.878C467.182 679.32 464.506 664.528 464.506 648.504C464.506 632.48 467.182 617.689 472.532 604.131C477.883 590.572 485.394 578.862 495.068 569.001C504.945 558.935 516.471 551.129 529.642 545.582C542.812 540.035 557.116 537.262 572.551 537.262C588.192 537.262 602.598 540.035 615.769 545.582C628.94 551.129 640.361 558.935 650.034 569.001C659.705 579.068 667.217 590.88 672.569 604.439C677.92 617.792 680.594 632.48 680.594 648.504C680.594 664.323 677.92 679.011 672.569 692.57C667.217 706.129 659.705 717.941 650.034 728.008C640.361 738.073 628.94 745.88 615.769 751.428C602.598 756.974 588.192 759.746 572.551 759.746ZM572.551 721.536C582.428 721.536 591.381 719.79 599.407 716.298C607.639 712.6 614.74 707.464 620.707 700.89C626.675 694.111 631.305 686.304 634.599 677.471C638.098 668.637 639.846 658.981 639.846 648.504C639.846 638.027 638.098 628.372 634.599 619.538C631.305 610.704 626.675 603.001 620.707 596.427C614.74 589.647 607.639 584.512 599.407 581.019C591.381 577.321 582.428 575.473 572.551 575.473C562.878 575.473 553.927 577.321 545.694 581.019C537.462 584.512 530.362 589.545 524.394 596.119C518.426 602.693 513.795 610.396 510.503 619.23C507.209 628.064 505.562 637.822 505.562 648.504C505.562 658.981 507.209 668.74 510.503 677.779C513.795 686.612 518.426 694.316 524.394 700.89C530.362 707.464 537.462 712.6 545.694 716.298C553.927 719.79 562.878 721.536 572.551 721.536Z" fill="white"/>
<path d="M764.242 756.667V540.961H858.087C871.052 540.961 882.885 544.042 893.587 550.206C904.288 556.163 912.726 564.381 918.9 574.858C925.279 585.129 928.47 596.736 928.47 609.679C928.47 622.005 925.279 633.406 918.9 643.884C912.726 654.155 904.288 662.373 893.587 668.536C883.091 674.493 871.258 677.472 858.087 677.472H803.448V756.667H764.242ZM889.575 756.667L834.625 659.291L875.991 651.587L937.114 756.976L889.575 756.667ZM803.448 642.651H858.396C864.364 642.651 869.508 641.316 873.831 638.645C878.358 635.769 881.857 631.866 884.326 626.935C886.796 622.005 888.031 616.561 888.031 610.603C888.031 603.824 886.487 597.969 883.4 593.039C880.314 588.108 875.991 584.205 870.434 581.329C864.878 578.453 858.499 577.015 851.296 577.015H803.448V642.651Z" fill="white"/>
<path d="M1019.62 756.667V540.961H1106.36C1122 540.961 1136.1 543.529 1148.65 548.665C1161.41 553.801 1172.32 561.196 1181.38 570.852C1190.64 580.507 1197.63 591.909 1202.37 605.056C1207.31 618.204 1209.78 632.79 1209.78 648.814C1209.78 664.838 1207.31 679.526 1202.37 692.88C1197.63 706.027 1190.74 717.429 1181.69 727.084C1172.63 736.535 1161.72 743.828 1148.96 748.963C1136.2 754.099 1122 756.667 1106.36 756.667H1019.62ZM1059.75 725.543L1056.66 719.689H1104.82C1114.9 719.689 1123.86 718.045 1131.68 714.758C1139.7 711.472 1146.49 706.746 1152.05 700.583C1157.61 694.42 1161.83 687.025 1164.71 678.397C1167.59 669.563 1169.03 659.702 1169.03 648.814C1169.03 637.926 1167.59 628.168 1164.71 619.54C1161.83 610.706 1157.5 603.208 1151.74 597.045C1146.19 590.882 1139.5 586.156 1131.68 582.87C1123.86 579.583 1114.9 577.939 1104.82 577.939H1055.74L1059.75 572.701V725.543Z" fill="white"/>
<path d="M1294.78 756.667L1377.7 538.836H1398.9L1480.89 756.667H1463.43L1407.01 606.053C1404.51 599.621 1402.33 593.916 1400.46 588.937C1398.8 583.958 1397.14 579.187 1395.47 574.623C1393.81 570.058 1392.15 565.287 1390.48 560.308C1388.82 555.121 1386.95 549.313 1384.87 542.881H1390.17C1388.09 549.728 1386.12 555.744 1384.25 560.93C1382.59 566.117 1380.82 571.096 1378.95 575.867C1377.29 580.431 1375.52 585.307 1373.65 590.493C1371.78 595.472 1369.6 601.281 1367.1 607.919L1310.99 756.667H1294.78ZM1328.76 691.007L1334.68 675.447H1441.61L1447.53 691.007H1328.76Z" fill="white"/>
<path d="M1591.07 756.667V538.836H1669.63C1682.52 538.836 1693.95 541.74 1703.92 547.549C1714.11 553.358 1722.11 561.242 1727.93 571.2C1733.75 580.95 1736.66 592.049 1736.66 604.496C1736.66 616.944 1733.85 627.835 1728.24 637.171C1722.84 646.507 1715.25 653.872 1705.48 659.265C1695.92 664.452 1685.01 667.045 1672.75 667.045H1606.66V756.667H1591.07ZM1726.99 756.667L1672.75 663L1685.84 654.909L1745.07 756.667H1726.99ZM1606.66 651.486H1674.62C1683.56 651.486 1691.45 649.515 1698.31 645.573C1705.17 641.631 1710.47 636.134 1714.21 629.08C1718.16 622.027 1720.14 614.04 1720.14 605.119C1720.14 595.368 1717.95 586.655 1713.59 578.979C1709.22 571.303 1703.09 565.287 1695.19 560.93C1687.51 556.574 1678.67 554.395 1668.7 554.395H1606.66V651.486Z" fill="white"/>
<path d="M1864.15 689.139V668.29L1996.32 538.836H2018.15L1864.15 689.139ZM1855.11 756.667V538.836H1870.69V756.667H1855.11ZM2002.56 756.667L1911.22 635.926L1922.44 625.346L2022.2 756.667H2002.56Z" fill="white"/>
</svg>
