<svg width="2173" height="1314" viewBox="0 0 2173 1314" fill="none" xmlns="http://www.w3.org/2000/svg">
<path d="M749.325 792.403V575.596H682.371V533.969H862.766V575.596H796.853V792.403H749.325ZM895.029 792.403V533.969H991.125C1008.7 533.969 1024.2 537.206 1037.61 543.682C1051.26 549.926 1061.89 559.176 1069.53 571.433C1077.16 583.459 1080.98 598.144 1080.98 615.488C1080.98 633.295 1076.7 648.443 1068.14 660.931C1059.81 673.419 1048.48 682.669 1034.14 688.682L1093.46 792.403H1040.04L976.554 678.969L1007.08 697.008H942.21V792.403H895.029ZM942.21 655.381H991.818C1000.38 655.381 1007.78 653.762 1014.02 650.524C1020.27 647.055 1025.12 642.314 1028.59 636.302C1032.06 630.289 1033.79 623.351 1033.79 615.488C1033.79 607.394 1032.06 600.456 1028.59 594.675C1025.12 588.662 1020.27 584.037 1014.02 580.799C1007.78 577.33 1000.38 575.596 991.818 575.596H942.21V655.381ZM1127.85 792.403V533.969H1175.03V792.403H1127.85ZM1228.21 792.403V533.969H1324.31C1341.89 533.969 1357.38 537.206 1370.8 543.682C1384.44 549.926 1395.08 559.176 1402.71 571.433C1410.34 583.459 1414.16 598.144 1414.16 615.488C1414.16 633.295 1409.88 648.443 1401.32 660.931C1393 673.419 1381.67 682.669 1367.33 688.682L1426.65 792.403H1373.22L1309.74 678.969L1340.27 697.008H1275.39V792.403H1228.21ZM1275.39 655.381H1325C1333.56 655.381 1340.96 653.762 1347.21 650.524C1353.45 647.055 1358.31 642.314 1361.78 636.302C1365.25 630.289 1366.98 623.351 1366.98 615.488C1366.98 607.394 1365.25 600.456 1361.78 594.675C1358.31 588.662 1353.45 584.037 1347.21 580.799C1340.96 577.33 1333.56 575.596 1325 575.596H1275.39V655.381ZM1461.04 792.403V533.969H1632.76V575.596H1508.22V641.852H1625.82V683.479H1508.22V750.776H1632.76V792.403H1461.04ZM1670.83 792.403V533.969H1715.92L1812.71 665.441H1791.2L1885.91 533.969H1931.01V792.403H1883.48V587.737L1901.87 592.246L1803.69 723.025H1798.14L1702.39 592.246L1718.01 587.737V792.403H1670.83ZM1983.94 792.403V533.969H2155.66V575.596H2031.12V641.852H2148.73V683.479H2031.12V750.776H2155.66V792.403H1983.94Z" fill="white"/>
<path d="M289.405 362L4 856.309H574.81L289.405 362ZM289.405 617.66L165.079 832.988H44.3983L289.405 408.641L534.412 832.988H413.73L289.405 617.66Z" fill="white"/>
<path d="M289.405 362L4 856.309H289.405V617.66L165.079 832.988H44.3983L289.405 408.641V362Z" fill="#C7C7C7"/>
<path d="M532.81 739.705C535.877 724.123 537.482 708.02 537.482 691.539C537.482 584.706 469.94 493.647 375.23 458.727" stroke="white" stroke-width="3.12416" stroke-miterlimit="10" stroke-linecap="round" stroke-linejoin="round"/>
<path d="M123.742 876.172C167.665 915.604 225.733 939.591 289.405 939.591C353.077 939.591 411.146 915.604 455.069 876.172" stroke="white" stroke-width="3.12416" stroke-miterlimit="10" stroke-linecap="round" stroke-linejoin="round"/>
<path d="M203.592 458.727C108.874 493.647 41.332 584.706 41.332 691.539C41.332 708.02 42.9377 724.123 46.0044 739.705" stroke="white" stroke-width="3.12416" stroke-miterlimit="10" stroke-linecap="round" stroke-linejoin="round"/>
</svg>
