<svg width="2173" height="1314" viewBox="0 0 2173 1314" fill="none" xmlns="http://www.w3.org/2000/svg">
<path d="M779.463 551.076C779.463 542.902 783.148 538.814 791.711 538.814H831.743V511H782.723C759.844 511 747.17 524.481 747.17 546.166V597.282H685.902V625.493H747.17V797.262H779.434V625.493H878.693V797.262H910.957V597.282H779.406V551.076H779.463Z" fill="white"/>
<path d="M1105.03 628.786H1099.31C1089.1 610.394 1068.26 591.577 1026.58 591.577C974.304 591.577 932.23 630.83 932.23 694.632V699.94C932.23 764.14 974.702 802.996 1026.58 802.996C1068.26 802.996 1089.1 784.178 1100.13 764.14H1105.86V797.262H1137.3V511H1105.03V628.786ZM1105.03 699.117C1105.03 746.544 1076.03 774.358 1035.18 774.358C994.321 774.358 964.92 746.544 964.92 699.117V695.427C964.92 648 993.924 620.186 1035.18 620.186C1076.43 620.186 1105.03 648 1105.03 695.427V699.117Z" fill="white"/>
<path d="M1257.84 591.583C1199.43 591.583 1158.58 633.304 1158.58 695.036V699.946C1158.58 761.706 1199.04 803.002 1259.88 803.002C1313.41 803.002 1337.08 773.144 1349.36 747.799L1321.57 734.288C1311.76 756.37 1295.01 774.364 1260.7 774.364C1221.07 774.364 1192.49 748.593 1191.27 705.651H1353.86V690.921C1353.86 629.985 1314.65 591.555 1257.87 591.555L1257.84 591.583ZM1191.66 679.085C1196.57 641.877 1221.49 620.192 1257.84 620.192C1294.18 620.192 1318.71 641.877 1321.15 679.085H1191.64H1191.66Z" fill="white"/>
<path d="M1523.79 697.888C1523.79 747.358 1496.43 772.732 1458.44 772.732C1424.53 772.732 1403.29 755.561 1403.29 715.883V597.273H1371.03V718.323C1371.03 771.909 1405.76 800.944 1449.87 800.944C1490.73 800.944 1509.93 782.553 1518.91 763.309H1524.64V797.255H1556.08V597.273H1523.82V697.888H1523.79Z" fill="white"/>
<path d="M1804.46 593.622C1770.55 593.622 1753.01 609.147 1744.02 628.787H1738.29C1729.3 609.147 1710.51 593.622 1679.46 593.622C1648.42 593.622 1631.66 607.927 1623.89 622.26H1618.17V597.312H1586.72V797.292H1618.99V677.066C1618.99 641.077 1639.83 621.437 1669.23 621.437C1697.01 621.437 1713.35 638.21 1713.35 664.776V797.264H1745.61V677.038C1745.61 641.049 1766.44 621.408 1795.84 621.408C1823.63 621.408 1839.96 638.182 1839.96 664.748V797.236H1872.22V661.881C1872.22 619.365 1844.05 593.594 1804.41 593.594L1804.46 593.622Z" fill="white"/>
<path d="M910.997 511H878.562V556.156H910.997V511Z" fill="white"/>
<path d="M388.827 708.367H528.289C528.289 757.411 488.511 797.232 439.52 797.232H300.059C300.059 748.188 339.836 708.367 388.827 708.367Z" fill="white"/>
<path d="M388.827 597.273H621.594C621.594 646.318 581.817 686.139 532.825 686.139H300.059C300.059 637.093 339.836 597.273 388.827 597.273Z" fill="white"/>
</svg>
