<svg width="2172" height="1294" viewBox="0 0 2172 1294" fill="none" xmlns="http://www.w3.org/2000/svg">
<mask id="mask0_7322_5481" style="mask-type:luminance" maskUnits="userSpaceOnUse" x="146" y="454" width="1880" height="386">
<path d="M2025.5 454H146.5V840H2025.5V454Z" fill="white"/>
</mask>
<g mask="url(#mask0_7322_5481)">
<path d="M316.659 478.515L305.988 524.881L333.199 561.654L368.948 531.276L364.679 503.563L375.884 490.773H396.159L410.565 497.168L401.494 484.91L383.354 478.515L371.082 461.994L351.874 454L333.199 458.264L316.659 478.515Z" fill="#2D7DDB"/>
<path d="M364.144 495.568L350.805 505.161L347.07 514.221L355.073 528.61L367.345 531.808L366.812 517.951L364.678 503.562L375.882 490.771L364.144 495.568Z" fill="#1A34C0"/>
<path d="M324.125 508.359L334.263 515.82L333.196 530.209V549.928L313.987 521.149L303.316 524.347L309.186 510.49L316.655 479.047L324.125 508.359Z" fill="#56CCF2"/>
<path d="M323.097 839.74L333.566 816.095V636.797L290.734 808.388L292.397 834.741L323.097 839.74Z" fill="#2D7DDB"/>
<path d="M275.136 827.336L291.375 807.202L337.835 634.014L252 788.686L246.777 814.569L275.136 827.336Z" fill="#56CCF2"/>
<path d="M230.627 804.812L251.53 789.564L341.283 634.287L218.295 761.499L206.543 785.15L230.627 804.812Z" fill="#2D7DDB"/>
<path d="M195.302 770.116L219.444 760.791L346.373 634.008L194.613 725.09L177.133 744.898L195.302 770.116Z" fill="#56CCF2"/>
<path d="M168.101 728.8L193.837 726.034L349.293 636.385L179.103 685.13L157.086 699.744L168.101 728.8Z" fill="#2D7DDB"/>
<path d="M154.876 681.109L180.452 685.09L353.841 638.684L176.819 641.771L151.766 650.195L154.876 681.109Z" fill="#56CCF2"/>
<path d="M280.742 639.996H318.625L333.564 705.015L298.883 674.637L280.742 639.996Z" fill="#56CCF2"/>
<path d="M286.244 627.74L333.197 705.015V538.739L319.859 513.69L297.983 507.828L278.241 513.69L264.902 543.535L286.244 627.74Z" fill="#2D7DDB"/>
<path fill-rule="evenodd" clip-rule="evenodd" d="M333.197 705.015L286.244 627.74L264.902 543.535L278.241 513.69L297.983 507.828L319.859 513.69L333.197 538.737L310.257 530.211L289.448 550.996L293.717 622.41L333.197 705.011V705.015Z" fill="#56CCF2"/>
<path d="M380.148 627.74L333.195 705.015V538.739L346.534 513.69L368.41 507.828L388.152 513.69L401.49 543.535L380.148 627.74Z" fill="#1A34C0"/>
<path fill-rule="evenodd" clip-rule="evenodd" d="M333.195 705.015L380.148 627.74L401.49 543.535L388.152 513.69L368.41 507.828L346.534 513.69L333.196 538.738L356.137 530.211L376.945 550.996L372.677 622.41L333.195 705.013V705.015Z" fill="#2D7DDB"/>
<path d="M361.476 471.587L371.08 479.581L362.542 484.378L356.674 486.51L351.338 484.378L348.137 479.049L349.204 474.785L353.473 470.521L361.476 471.587Z" fill="#56CCF2"/>
<path d="M486.992 770.238V521.947H644.071V564.511H534.116V624.456H635.503V667.02H534.116V770.238H486.992Z" fill="white"/>
<path d="M677.691 770.238V521.947H724.815V770.238H677.691Z" fill="white"/>
<path d="M764.684 770.238V729.093H797.527V563.092H764.684V521.947H867.499C901.055 521.947 926.524 530.46 943.899 547.486C961.508 564.275 970.316 589.34 970.316 622.682V669.503C970.316 702.845 961.508 728.029 943.899 745.054C926.524 761.843 901.055 770.238 867.499 770.238H764.684ZM844.651 727.674H868.213C887.252 727.674 901.179 722.708 909.98 712.777C918.788 702.845 923.192 688.893 923.192 670.922V621.263C923.192 603.056 918.788 589.104 909.98 579.408C901.179 569.477 887.252 564.511 868.213 564.511H844.651V727.674Z" fill="white"/>
<path d="M1009.59 770.238V521.947H1170.24V564.511H1056.71V623.747H1160.24V666.31H1056.71V727.674H1172.38V770.238H1009.59Z" fill="white"/>
<path d="M1294.01 775.203C1274.73 775.203 1257.72 771.774 1242.96 764.916C1228.21 758.058 1216.66 748.245 1208.34 735.476C1200 722.707 1195.84 707.337 1195.84 689.365V679.433H1242.25V689.365C1242.25 704.262 1246.89 715.495 1256.17 723.061C1265.45 730.392 1278.07 734.057 1294.01 734.057C1310.2 734.057 1322.21 730.865 1330.07 724.48C1338.16 718.096 1342.21 709.937 1342.21 700.006C1342.21 693.149 1340.19 687.592 1336.14 683.335C1332.34 679.078 1326.62 675.65 1319.01 673.049C1311.63 670.211 1302.58 667.61 1291.88 665.245L1283.67 663.472C1266.52 659.688 1251.77 654.959 1239.39 649.284C1227.26 643.372 1217.85 635.687 1211.19 626.229C1204.76 616.769 1201.55 604.473 1201.55 589.339C1201.55 574.205 1205.12 561.318 1212.26 550.677C1219.64 539.799 1229.88 531.523 1242.96 525.848C1256.29 519.936 1271.88 516.98 1289.73 516.98C1307.58 516.98 1323.41 520.055 1337.21 526.203C1351.26 532.114 1362.2 541.1 1370.05 553.16C1378.15 564.983 1382.19 579.881 1382.19 597.852V608.493H1335.78V597.852C1335.78 588.393 1333.88 580.827 1330.07 575.151C1326.5 569.24 1321.27 564.983 1314.36 562.382C1307.46 559.544 1299.25 558.126 1289.73 558.126C1275.45 558.126 1264.86 560.845 1257.96 566.284C1251.29 571.486 1247.96 578.698 1247.96 587.921C1247.96 594.069 1249.51 599.271 1252.6 603.527C1255.94 607.784 1260.81 611.331 1267.24 614.169C1273.67 617.006 1281.88 619.489 1291.88 621.617L1300.09 623.391C1317.93 627.174 1333.4 632.021 1346.5 637.933C1359.82 643.845 1370.17 651.648 1377.55 661.344C1384.93 671.039 1388.62 683.453 1388.62 698.588C1388.62 713.721 1384.7 727.082 1376.83 738.668C1369.22 750.019 1358.27 759.005 1343.99 765.626C1329.95 772.011 1313.29 775.203 1294.01 775.203Z" fill="white"/>
<path d="M1423.76 770.238V521.947H1470.89V770.238H1423.76Z" fill="white"/>
<path d="M1614.29 775.204C1593.81 775.204 1576.2 771.538 1561.45 764.208C1546.93 756.641 1535.74 746 1527.89 732.285C1520.27 718.334 1516.46 701.899 1516.46 682.982V521.947H1563.59V684.4C1563.59 699.534 1567.88 711.476 1576.44 720.225C1585.24 728.974 1597.86 733.349 1614.29 733.349C1630.71 733.349 1643.2 728.974 1651.76 720.225C1660.57 711.476 1664.98 699.534 1664.98 684.4V521.947H1712.1V682.982C1712.1 701.899 1708.17 718.334 1700.32 732.285C1692.71 746 1681.52 756.641 1666.76 764.208C1652.25 771.538 1634.75 775.204 1614.29 775.204Z" fill="white"/>
<path d="M1757.75 770.238V521.947H1845.21L1888.42 738.314H1894.84L1938.03 521.947H2025.5V770.238H1979.81V556.353H1973.38L1930.54 770.238H1852.72L1809.87 556.353H1803.45V770.238H1757.75Z" fill="white"/>
</g>
</svg>
