<svg width="2173" height="1314" viewBox="0 0 2173 1314" fill="none" xmlns="http://www.w3.org/2000/svg">
<path d="M1102.7 648.573C1103.77 649.745 1105.19 650.498 1106.75 650.749C1126.46 656.805 1141.23 673.243 1145.13 693.477C1149.94 714.353 1146.81 733.861 1132.6 750.717C1126.15 758.17 1118.14 764.087 1109.1 768.022C1095.28 774.413 1080.23 777.761 1064.99 777.845C1025.3 778.152 985.603 777.845 945.909 777.845C944.792 777.845 943.704 777.706 942.67 777.622C941.33 772.765 940.996 543.44 942.28 535.486C944.373 534.788 946.579 534.592 948.756 534.927H1056.48C1075.54 534.453 1094.39 539.029 1111.11 548.212C1146.11 568.279 1144.83 608.885 1128.69 629.649C1123.39 636.599 1116.47 642.125 1108.51 645.753L1102.7 648.573ZM1003.36 727.665C1004.05 727.973 1004.81 728.168 1005.56 728.279H1054.52C1085.98 727.303 1086.54 679.83 1055.11 678.378H1008.63C1006.9 678.378 1005.03 677.904 1003.44 679.411L1003.36 727.665ZM1003.36 631.129C1004.42 631.352 1005.48 631.492 1006.54 631.576H1050.03C1052.93 631.519 1055.81 631.101 1058.6 630.376C1069.85 628.142 1077.58 617.733 1076.46 606.318C1075.91 594.876 1068.79 587.313 1056.76 585.443C1054.55 585.108 1052.32 584.967 1050.09 584.996H1007.96C1006.48 584.996 1004.81 584.522 1003.36 586.168V631.129ZM1729.19 593.257C1741.72 628.757 1754.17 664.117 1766.59 699.311C1767.3 701.263 1769.45 702.296 1771.4 701.627H1771.45C1772.52 701.263 1773.38 700.399 1773.75 699.338C1779.95 683.068 1784.74 666.517 1789.99 650.107C1796.02 631.241 1801.91 612.346 1807.92 593.285C1808.36 591.666 1809.84 590.522 1811.54 590.494H1862.83C1864.88 590.494 1866.56 592.168 1866.56 594.233V594.29C1866.56 594.792 1866.48 595.266 1866.28 595.713C1841.55 661.717 1816.82 727.721 1792.06 793.67C1788.62 803.131 1783.94 812.062 1778.09 820.267C1767.24 835.644 1750.18 845.469 1731.42 847.143C1710.33 849.488 1690.53 845.72 1672.94 833.049L1669.18 830.258L1666.56 828.277L1689.38 788.785C1690.45 786.972 1692.77 786.358 1694.58 787.418L1695.11 787.781C1695.76 788.311 1696.34 788.898 1696.97 789.344C1701.67 792.804 1707.23 794.925 1713.04 795.484C1722.13 796.6 1730.98 792.051 1735.36 784.013C1735.7 783.456 1735.94 782.841 1736.26 782.282C1739.46 776.367 1739.77 769.333 1737.12 763.166C1715.17 710.027 1693.4 656.805 1671.81 603.472C1670.4 600.011 1669.01 596.55 1667.58 593.089C1667.27 592.281 1667.03 591.164 1667.75 590.69C1668.09 590.522 1668.45 590.439 1668.82 590.466H1725.46C1727.22 590.439 1728.75 591.611 1729.19 593.285V593.257ZM1499.06 717.814L1523.43 743.099C1525.44 745.136 1525.44 748.43 1523.43 750.468C1507.83 766.737 1486.92 776.896 1464.48 779.129C1448.45 781.334 1432.15 780.301 1416.55 776.115C1381.99 767.017 1356.78 737.322 1353.43 701.739C1351.4 683.793 1351.93 666.015 1357.82 648.712C1369.76 614.245 1394.58 594.708 1430.7 589.126C1444.63 587.062 1458.84 587.648 1472.57 590.857C1496.16 595.797 1516.06 611.564 1526.28 633.39C1536.08 652.926 1538.37 673.802 1537.86 695.85C1537.81 698.668 1535.52 700.928 1532.7 700.957C1527.34 701.096 1522.12 700.957 1516.9 700.957H1434.61C1429.84 700.957 1425.09 700.789 1420.04 700.957C1417.13 701.012 1414.82 703.44 1414.87 706.343C1414.87 706.985 1415.01 707.599 1415.24 708.185C1417.44 713.935 1420.99 719.07 1425.62 723.117C1438.63 734.476 1453.54 735.172 1469.14 730.652C1476.84 728.336 1483.96 724.373 1489.99 719.013L1491.83 717.451C1493.96 715.637 1497.14 715.805 1499.06 717.814ZM1473.94 666.768C1476.87 666.768 1479.24 664.397 1479.24 661.465V660.963C1478.16 647.233 1468.19 635.817 1454.71 632.887C1432.38 628.003 1417.44 644.05 1413.34 660.322C1412.67 663.113 1414.37 665.931 1417.19 666.629C1417.61 666.713 1418.06 666.713 1418.47 666.629L1473.94 666.768ZM1305.03 717.674L1329.43 743.127C1331.3 745.108 1331.3 748.234 1329.43 750.216C1321.3 758.979 1311.51 766.012 1300.59 770.868C1283.76 778.153 1265.42 781.278 1247.13 779.967C1236.22 779.632 1225.42 777.566 1215.15 773.827C1184.69 762.384 1166.71 740.085 1160.57 708.52C1156.19 688.091 1157.53 666.852 1164.42 647.121C1177.15 612.43 1202.47 593.704 1238.76 589.126C1252.75 587.313 1266.95 588.122 1280.63 591.554C1304.95 597.555 1322.25 612.179 1333.11 634.59C1342.91 654.852 1344.86 676.453 1343.86 698.584C1343.66 699.421 1343.36 700.259 1342.94 701.012H1225.92C1223.1 701.012 1220.81 703.273 1220.78 706.092C1220.78 706.874 1220.95 707.627 1221.29 708.324C1221.7 709.19 1222.15 710.027 1222.54 710.864C1229.69 725.796 1245.38 734.698 1261.85 733.192C1275.3 732.299 1288.06 726.745 1297.88 717.506C1299.92 715.609 1303.1 715.693 1305.03 717.674ZM1217.66 666.378C1226.7 667.969 1281.44 667.495 1285.85 665.876C1285.35 654.433 1281.72 644.358 1271.9 637.743C1262.04 630.711 1249.09 629.845 1238.4 635.511C1225.78 641.763 1220.34 653.149 1217.66 666.378Z" fill="white"/>
<path d="M1675.92 528.256C1673.66 541.848 1671.51 554.937 1669.31 568.221C1668.97 570.204 1667.1 571.572 1665.11 571.264H1664.79C1661.32 570.371 1658.19 569.562 1655.07 568.668C1654.45 568.501 1653.84 568.334 1653.22 568.221C1641.56 566.436 1630.64 574.418 1628.83 586.083C1628.63 587.255 1628.55 588.456 1628.57 589.656V595.488C1628.6 597.471 1630.22 599.061 1632.2 599.09H1663.74C1665.59 599.09 1667.13 600.456 1667.37 602.271C1668.39 613.853 1668.52 625.491 1667.82 637.073C1667.68 638.943 1666.15 640.395 1664.27 640.45C1653.81 640.701 1643.2 640.45 1632.09 640.45C1630.11 640.505 1628.55 642.124 1628.52 644.107V773.91C1628.52 775.919 1626.87 777.538 1624.86 777.538H1572.77C1570.76 777.538 1569.14 775.919 1569.14 773.91V644.246C1569.14 642.348 1567.67 640.785 1565.77 640.617C1559.85 640.087 1554.15 640.617 1548.43 640.338C1546.48 640.199 1545 638.524 1545.05 636.57V602.912C1545.05 600.931 1546.65 599.312 1548.63 599.257C1554.52 598.839 1560.24 599.257 1565.85 599.09C1567.61 598.978 1569.06 597.61 1569.23 595.852C1569.14 594.457 1569.14 593.089 1569.23 591.694C1569.06 584.772 1569.31 577.879 1569.98 570.986C1574 544.472 1590.5 526.722 1616.54 520.358C1635.75 515.698 1654.4 517.819 1673.49 524.182C1675.19 524.768 1676.19 526.498 1675.92 528.256ZM572.515 419.357C604.617 419.357 635.742 425.636 665.024 438.028C679.093 443.972 692.688 451.34 705.388 459.936C717.977 468.448 729.813 478.216 740.588 488.961C751.363 499.734 761.134 511.567 769.619 524.154C778.19 536.852 785.587 550.444 791.533 564.511C803.926 593.787 810.207 624.905 810.207 656.999C810.207 689.095 803.926 720.213 791.533 749.489C785.587 763.556 778.217 777.147 769.619 789.845C761.105 802.433 751.336 814.265 740.588 825.038C729.813 835.811 717.977 845.579 705.388 854.063C692.688 862.659 679.093 870.028 665.024 875.972C635.742 888.364 604.617 894.643 572.515 894.643C540.413 894.643 509.289 888.364 480.006 875.972C465.938 870.028 452.343 862.659 439.642 854.063C427.052 845.551 415.217 835.784 404.442 825.038C393.666 814.265 383.896 802.433 375.41 789.845C366.841 777.147 359.443 763.556 353.498 749.489C341.103 720.213 334.823 689.095 334.823 656.999C334.823 624.905 341.103 593.787 353.498 564.511C359.443 550.444 366.813 536.852 375.41 524.154C383.924 511.567 393.694 499.734 404.442 488.961C415.217 478.188 427.052 468.42 439.642 459.936C452.343 451.34 465.938 443.972 480.006 438.028C509.289 425.636 540.413 419.357 572.515 419.357ZM572.515 390.973C425.545 390.973 306.434 510.06 306.434 656.999C306.434 803.94 425.545 923.027 572.515 923.027C719.485 923.027 838.597 803.94 838.597 656.999C838.597 510.06 719.458 390.973 572.515 390.973Z" fill="white"/>
<path d="M491.775 555.05V535.43C491.775 519.578 502.159 506.656 517.792 503.921C529.599 501.828 540.542 504.033 549.223 513.075C554.919 518.992 557.876 526.164 557.989 534.37C558.1 541.18 557.989 548.018 557.989 554.938H593.887C593.887 554.52 593.942 554.074 593.942 553.599V534.983C593.998 517.373 607.928 503.447 625.542 503.279C631.627 503.224 637.517 503.81 642.932 506.74C654.042 512.768 659.849 522.146 660.156 534.76C660.324 541.431 660.184 548.101 660.184 554.995H706.829C715.539 554.995 721.317 560.8 722.099 569.478C722.769 576.902 720.87 583.685 718.413 590.466C715.873 597.499 712.244 604.086 707.611 609.947C703.954 614.579 699.851 618.905 695.635 623.064C690.164 628.422 684.413 633.502 678.691 638.638C675.565 641.427 672.774 644.47 670.986 648.294C670.484 649.382 670.038 650.666 670.038 651.838C669.982 680.416 670.093 708.994 669.954 737.574C669.786 771.929 644.384 802.546 610.663 809.076C605.444 810.052 600.168 810.583 594.864 810.611C580.041 810.806 565.218 810.695 550.396 810.667C514.218 810.667 483.903 785.995 476.813 750.579C475.892 745.668 475.418 740.7 475.446 735.704C475.305 707.851 475.389 679.998 475.362 652.173C475.362 651.308 475.166 650.442 474.803 649.662C472.542 644.414 468.55 640.563 464.391 636.794C458.781 631.716 453.225 626.581 447.726 621.39C441.306 615.334 435.583 608.69 431.396 600.876C426.707 592.112 422.715 583.015 422.715 572.772C422.715 570.456 422.966 568.167 423.469 565.907C425.032 559.404 430.81 555.022 437.537 554.995H491.72L491.775 555.05ZM543.333 586.587H486.276C482.619 586.587 479.465 589.043 478.991 592.643C478.684 594.709 478.711 596.829 479.074 598.895C480.331 605.286 483.122 611.063 487.56 615.808C491.999 620.551 496.856 624.766 501.35 629.372C504.756 632.833 506.933 636.962 506.933 642.07C506.905 673.272 506.905 704.474 506.933 735.675C506.933 737.88 507.045 740.086 507.351 742.262C510.507 763.696 528.483 779.157 550.145 779.157H594.78C596.986 779.157 599.191 779.046 601.395 778.767C622.639 775.837 638.467 757.723 638.494 736.29C638.494 731.099 638.438 725.88 638.522 720.688C638.522 719.489 638.187 718.987 637.015 718.624C626.044 715.275 615.549 710.501 605.807 704.445C583.419 690.548 566.251 671.904 555.142 647.875C549.809 636.349 546.153 624.32 544.869 611.677C544.031 603.388 543.864 595.044 543.362 586.532L543.333 586.587ZM636.29 670.258C636.372 662.444 630.119 656.053 622.332 655.941C614.515 655.857 608.123 662.109 608.012 669.923C607.928 677.737 614.181 684.128 621.968 684.24H621.997C629.785 684.351 636.177 678.128 636.261 670.342V670.258H636.29Z" fill="white"/>
<path d="M548.899 670.115C548.87 677.931 542.506 684.238 534.718 684.21C526.902 684.182 520.594 677.819 520.621 670.005C520.65 662.19 527.013 655.883 534.83 655.91H534.886C542.674 655.91 548.954 662.274 548.927 670.032V670.088L548.899 670.115Z" fill="white"/>
</svg>
