<svg width="2172" height="1294" viewBox="0 0 2172 1294" fill="none" xmlns="http://www.w3.org/2000/svg">
<g clip-path="url(#clip0_9103_36)">
<path d="M1637.08 662.519L1662.23 592.091L1620.88 476.428H1524.84L1591.34 662.629C1593.16 667.2 1596.31 671.122 1600.39 673.885C1604.47 676.649 1609.28 678.126 1614.21 678.126C1619.14 678.126 1623.96 676.649 1628.04 673.885C1632.12 671.122 1635.27 667.2 1637.08 662.629V662.519Z" fill="white"/>
<path d="M1756.52 478.453C1755.19 474.411 1752.7 470.844 1749.36 468.189C1746.03 465.534 1741.99 463.905 1737.74 463.502C1733.25 463.723 1728.94 465.312 1725.39 468.054C1721.83 470.796 1719.21 474.559 1717.86 478.836L1717.09 480.972L1682.5 579.549L1651.14 667.173C1649.72 671.151 1647.62 674.855 1644.94 678.126H1725.94C1730.89 678.119 1735.73 676.627 1739.82 673.843C1743.91 671.06 1747.07 667.114 1748.89 662.518L1749.71 660.327L1784.31 561.75L1785.3 558.903L1756.52 478.453Z" fill="white"/>
<path d="M1804.96 570.021H1900.95L1868 478.618C1866.18 474.021 1863.02 470.075 1858.93 467.292C1854.84 464.509 1850 463.017 1845.04 463.01H1764.38C1767.03 466.179 1769.12 469.77 1770.58 473.634L1804.96 570.021Z" fill="white"/>
<path d="M368.076 836.999C340.4 836.999 318.05 830.738 301.026 818.215C292.533 811.914 285.406 803.964 280.074 794.844C274.742 785.724 271.315 775.623 270 765.148L309.099 759.233C313.587 758.63 318.153 759.344 322.24 761.29C326.327 763.235 329.756 766.327 332.108 770.186C334.685 774.234 338 777.763 341.882 780.591C350.731 786.695 361.336 789.752 372.085 789.299C380.225 789.79 388.318 787.763 395.259 783.494C397.874 781.707 399.991 779.288 401.413 776.462C402.834 773.636 403.513 770.497 403.386 767.338C403.512 763.698 402.389 760.124 400.201 757.207C396.071 753.441 391.072 750.751 385.649 749.375C378.107 746.82 366.411 743.442 350.559 739.244C335.698 735.755 321.289 730.573 307.616 723.8C298.171 719.247 290.157 712.201 284.442 703.428C279.47 694.696 277 684.768 277.304 674.731C277.05 661.676 280.89 648.867 288.286 638.093C295.932 627.387 306.488 619.083 318.709 614.161C333.404 608.24 349.156 605.371 365.001 605.727C380.634 605.449 396.177 608.144 410.799 613.668C423.263 618.363 434.347 626.102 443.034 636.176C451.276 646.004 456.534 657.973 458.19 670.678L419.421 677.633C415.091 678.31 410.656 677.725 406.652 675.947C402.648 674.168 399.244 671.274 396.851 667.611C395.174 665.262 393.136 663.192 390.811 661.478C383.552 656.343 374.939 653.448 366.045 653.153C357.661 652.165 349.167 653.57 341.553 657.206C338.758 658.493 336.396 660.557 334.749 663.151C333.103 665.745 332.243 668.758 332.272 671.828C332.23 673.603 332.56 675.368 333.241 677.009C333.922 678.65 334.939 680.131 336.226 681.357C341.125 685.084 346.729 687.785 352.7 689.298C361.047 692 373.769 695.523 390.866 699.868C404.86 703.164 418.37 708.244 431.063 714.983C440.116 719.791 447.703 726.942 453.028 735.684C457.859 744.622 460.246 754.67 459.947 764.819C460.342 774.883 458.343 784.898 454.115 794.044C449.887 803.191 443.55 811.211 435.621 817.448C419.329 830.482 396.815 836.999 368.076 836.999Z" fill="white"/>
<path d="M527.162 830.867L461.266 613.504H505.197C508.097 613.532 510.912 614.481 513.233 616.215C515.554 617.948 517.26 620.376 518.102 623.143L554.345 742.531L594.542 611.752H630.51C633.403 611.775 636.214 612.717 638.534 614.44C640.854 616.163 642.564 618.579 643.415 621.336L680.976 742.421L720.844 611.752H775.209L710.795 821.283C709.938 824.058 708.211 826.486 705.869 828.211C703.527 829.936 700.692 830.866 697.78 830.867H665.381L617.496 688.04L572.631 821.666C571.723 824.362 569.989 826.706 567.673 828.366C565.358 830.027 562.578 830.92 559.726 830.921L527.162 830.867Z" fill="white"/>
<path d="M998.379 830.866V625.333C998.379 621.731 999.814 618.276 1002.37 615.729C1004.92 613.182 1008.39 611.751 1012 611.751H1047.25V665.311L1041.76 658.411C1044.51 650.993 1048.34 644.018 1053.13 637.71C1057.89 631.464 1063.85 626.216 1070.65 622.266C1076.14 619.004 1082.05 616.499 1088.22 614.818C1094.52 612.981 1101 611.824 1107.55 611.368C1114.19 610.89 1120.87 611.055 1127.48 611.86V663.394C1120.58 661.43 1113.37 660.779 1106.23 661.478C1098.63 661.915 1091.18 663.773 1084.26 666.954C1078.02 669.708 1072.42 673.738 1067.83 678.785C1063.24 683.832 1059.77 689.783 1057.63 696.253C1055.23 703.55 1054.06 711.193 1054.17 718.871V817.448C1054.17 819.232 1053.82 820.998 1053.13 822.646C1052.45 824.294 1051.45 825.791 1050.18 827.052C1048.92 828.313 1047.42 829.314 1045.76 829.996C1044.11 830.679 1042.34 831.03 1040.55 831.03L998.379 830.866Z" fill="white"/>
<path d="M1149.34 830.865V611.806H1184.59C1188.16 611.849 1191.58 613.291 1194.09 615.822C1196.61 618.352 1198.03 621.768 1198.04 625.333V684.369H1204.96V817.448C1204.96 819.232 1204.61 820.998 1203.93 822.646C1203.24 824.293 1202.24 825.791 1200.97 827.052C1199.71 828.313 1198.21 829.313 1196.56 829.996C1194.9 830.679 1193.13 831.03 1191.35 831.03L1149.34 830.865ZM1282.01 830.865V701.456C1282.76 689.329 1279.11 677.337 1271.74 667.666C1268.11 663.877 1263.76 660.861 1258.93 658.8C1254.1 656.739 1248.9 655.676 1243.65 655.676C1238.4 655.676 1233.2 656.739 1228.37 658.8C1223.55 660.861 1219.19 663.877 1215.56 667.666C1208.34 676.24 1204.6 687.201 1205.07 698.389L1181.9 681.96C1181.8 668.395 1185.61 655.087 1192.88 643.624C1200.05 632.277 1210.04 622.975 1221.88 616.625C1234.4 609.89 1248.45 606.459 1262.68 606.658C1277.6 606.034 1292.38 609.847 1305.13 617.611C1316.01 624.733 1324.53 634.909 1329.62 646.855C1335.01 659.567 1337.7 673.253 1337.53 687.053V817.448C1337.53 819.232 1337.17 820.998 1336.49 822.646C1335.81 824.293 1334.8 825.791 1333.54 827.052C1332.27 828.313 1330.77 829.313 1329.12 829.996C1327.47 830.679 1325.7 831.03 1323.91 831.03L1282.01 830.865ZM1414.24 830.865V701.456C1414.99 689.329 1411.35 677.337 1403.97 667.666C1400.47 663.643 1396.09 660.467 1391.17 658.38C1386.25 656.293 1380.92 655.348 1375.58 655.618C1368.48 655.472 1361.48 657.374 1355.43 661.094C1349.66 664.75 1345.03 669.949 1342.08 676.1C1338.78 683.039 1337.14 690.653 1337.31 698.334L1314.13 682.891C1313.83 669.228 1317.35 655.751 1324.31 643.977C1331.26 632.203 1341.38 622.597 1353.51 616.242C1365.81 609.743 1379.56 606.428 1393.48 606.603C1418.56 606.603 1437.52 614.014 1450.37 628.837C1463.22 643.661 1469.63 663.029 1469.59 686.943V817.448C1469.55 820.993 1468.12 824.381 1465.61 826.888C1463.09 829.396 1459.7 830.823 1456.14 830.865H1414.24Z" fill="white"/>
<path d="M886.576 608.301C871.427 608.105 856.391 610.911 842.338 616.555C828.286 622.199 815.497 630.57 804.713 641.182C793.93 651.794 785.366 664.435 779.519 678.373C773.672 692.311 770.658 707.268 770.652 722.376C770.652 788.477 809.422 836.397 871.145 836.397C893.44 836.397 906.345 829.003 921.831 818.379V830.92H959.337C962.92 830.906 966.354 829.484 968.893 826.962C971.432 824.44 972.872 821.022 972.901 817.448V611.751C972.901 611.751 908.212 608.301 886.576 608.301ZM924.741 722.431C924.741 754.468 915.9 783.549 874.989 783.549C830.124 783.549 819.526 748.17 819.526 721.007C819.526 689.079 845.5 661.751 889.761 663.175C898.547 663.449 924.741 665.42 924.741 665.42V722.431Z" fill="white"/>
</g>
<defs>
<clipPath id="clip0_9103_36">
<rect width="1631" height="381" fill="white" transform="translate(270 456)"/>
</clipPath>
</defs>
</svg>
