<svg width="642" height="340" viewBox="0 0 642 340" fill="none" xmlns="http://www.w3.org/2000/svg">
<g clip-path="url(#clip0_105_93)">
<path fill-rule="evenodd" clip-rule="evenodd" d="M361.191 175.211L373.639 162.769C384.499 151.945 384.499 134.328 373.639 123.462C371.068 120.874 368.009 118.824 364.639 117.428C361.269 116.033 357.655 115.321 354.008 115.334C350.361 115.328 346.75 116.043 343.381 117.438C340.012 118.833 336.951 120.88 334.376 123.462L321.931 135.907L321.89 135.865L321.867 135.887L309.403 123.42C306.832 120.833 303.773 118.782 300.403 117.387C297.033 115.991 293.419 115.279 289.772 115.292C282.374 115.292 275.357 118.2 270.14 123.42C259.274 134.283 259.274 151.906 270.14 162.728L282.585 175.173L270.14 187.618C267.553 190.189 265.502 193.248 264.107 196.618C262.712 199.988 262 203.602 262.012 207.249C262.012 214.647 264.92 221.664 270.14 226.88C272.711 229.468 275.77 231.518 279.141 232.914C282.511 234.309 286.124 235.021 289.772 235.008C297.169 235.008 304.186 232.101 309.403 226.88L321.867 214.413L334.376 226.925C336.947 229.513 340.007 231.563 343.377 232.959C346.747 234.354 350.36 235.066 354.008 235.053C357.654 235.059 361.266 234.344 364.635 232.949C368.004 231.554 371.064 229.507 373.639 226.925C376.226 224.354 378.277 221.295 379.672 217.925C381.068 214.555 381.78 210.941 381.767 207.294C381.767 199.896 378.859 192.883 373.639 187.662L361.191 175.217V175.211ZM339.593 128.637C341.483 126.742 343.731 125.241 346.205 124.221C348.679 123.201 351.331 122.682 354.008 122.693C359.442 122.693 364.573 124.787 368.422 128.637C372.241 132.462 374.387 137.646 374.387 143.051C374.387 148.457 372.241 153.641 368.422 157.466L355.955 169.93L327.126 141.107L339.596 128.64L339.593 128.637ZM321.886 203.957L293.102 175.173L321.886 146.388L350.671 175.173L321.886 203.957ZM275.347 157.466C267.396 149.553 267.396 136.634 275.347 128.637C277.238 126.742 279.485 125.241 281.959 124.221C284.434 123.201 287.086 122.682 289.762 122.693C295.193 122.693 300.327 124.787 304.18 128.637L316.644 141.101L287.821 169.927L275.354 157.463L275.347 157.466ZM304.18 221.705C302.289 223.6 300.041 225.101 297.566 226.121C295.091 227.142 292.439 227.661 289.762 227.649C287.086 227.658 284.436 227.138 281.962 226.118C279.489 225.098 277.242 223.598 275.351 221.705C273.457 219.814 271.956 217.567 270.936 215.093C269.915 212.619 269.394 209.967 269.404 207.291C269.404 201.856 271.501 196.726 275.347 192.876L287.86 180.364L316.686 209.187L304.18 221.705ZM368.419 221.705C366.529 223.6 364.281 225.101 361.807 226.121C359.333 227.141 356.681 227.661 354.004 227.649C351.328 227.659 348.677 227.139 346.203 226.118C343.729 225.098 341.481 223.598 339.59 221.705L327.078 209.196L355.907 180.374L368.413 192.879C370.308 194.769 371.81 197.016 372.832 199.491C373.853 201.965 374.373 204.617 374.363 207.294C374.373 209.971 373.853 212.623 372.832 215.097C371.81 217.571 370.308 219.819 368.413 221.708L368.419 221.705Z" fill="#FEF8FC"/>
<path d="M27.1419 174.533L44.506 199.593H35.0105L22.3926 181.204L9.73306 199.593H0.497009L17.7778 174.703L1.30725 150.748H10.8091L22.5719 168.029L34.591 150.748H43.7438L27.19 174.527H27.1515L27.1419 174.533ZM89.8472 150.748L108.62 199.634H100.191L95.1858 186.12H76.4927L71.4904 199.634H63.1062L81.8825 150.748H89.8472ZM79.1059 178.892H92.4957L85.7832 160.798L79.0707 178.892H79.1123H79.1059ZM140.059 181.374V199.596H131.762V150.745H150.663C160.757 150.745 167.386 156.007 167.386 166.101C167.386 176.189 160.802 181.409 150.663 181.409H140.063L140.059 181.374ZM150.541 157.893H140.104V174.229H150.541C156.274 174.229 159.22 170.809 159.22 166.104C159.22 161.396 156.315 157.934 150.541 157.934V157.893ZM211.274 200.448C198.054 200.448 188.776 189.8 188.776 175.174C188.776 160.548 198.057 149.938 211.274 149.938C224.487 149.938 233.896 160.545 233.896 175.174C233.896 189.803 224.487 200.448 211.274 200.448ZM211.274 157.384C202.678 157.384 197.074 164.868 197.074 175.218C197.074 185.569 202.633 193.056 211.274 193.056C219.914 193.056 225.515 185.566 225.515 175.218C225.515 164.871 219.866 157.384 211.274 157.384ZM447.382 185.611C447.382 194.763 441.006 199.593 430.829 199.593H412.135V150.748H429.243C439.424 150.748 445.797 155.283 445.797 164.051C445.797 169.313 443.017 173.118 439.427 174.399C444.049 175.897 447.382 180.432 447.382 185.607M429.16 171.279C434.848 171.279 437.842 169.14 437.842 164.522C437.842 159.901 434.806 157.934 429.16 157.934H420.18V171.321H429.16V171.279ZM420.135 192.448H430.659C436.218 192.448 439.254 189.668 439.254 185.262C439.254 180.858 436.218 178.12 430.659 178.12H420.135V192.448ZM493.828 150.748L512.605 199.634H504.179L499.177 186.12H480.484L475.478 199.634H467.094L485.87 150.748H493.828ZM496.483 178.892L489.764 160.798L483.052 178.892H496.483ZM575.137 199.593H568.764L543.784 164.01V199.593H535.829V150.748H543.656L567.224 184.666V150.751H575.179V199.634L575.137 199.593ZM610.419 172.01L630.009 150.754H640.276L618.204 174.149L641 199.641H630.477L610.416 177.271V199.641H602.118V150.754H610.416V172.01H610.419ZM262.325 280.527V262.144H273.854V264.53H265.098V270.128H273.249V272.508H265.098V278.138H273.957V280.524H262.322L262.325 280.527ZM287.843 266.97C287.809 266.572 287.684 266.187 287.479 265.844C287.274 265.501 286.993 265.209 286.658 264.991C285.962 264.522 285.086 264.287 284.032 264.287C283.278 264.287 282.627 264.406 282.078 264.645C281.57 264.845 281.126 265.18 280.794 265.613C280.498 266.015 280.34 266.503 280.346 267.003C280.346 267.44 280.447 267.818 280.65 268.136C280.855 268.454 281.128 268.721 281.47 268.937C281.809 269.144 282.174 269.32 282.565 269.465C282.951 269.602 283.325 269.714 283.686 269.802L285.479 270.269C286.066 270.414 286.669 270.609 287.289 270.852C287.904 271.097 288.474 271.421 288.999 271.822C289.53 272.224 289.955 272.72 290.273 273.311C290.606 273.903 290.772 274.611 290.77 275.435C290.77 276.477 290.501 277.402 289.963 278.211C289.429 279.016 288.655 279.654 287.641 280.123C286.629 280.591 285.404 280.824 283.968 280.821C282.526 280.821 281.399 280.604 280.394 280.168C279.447 279.783 278.628 279.139 278.03 278.311C277.451 277.46 277.124 276.463 277.089 275.435H279.872C279.927 276.099 280.142 276.654 280.515 277.1C280.9 277.536 281.389 277.862 281.982 278.08C282.58 278.291 283.234 278.396 283.945 278.394C284.731 278.394 285.429 278.271 286.04 278.026C286.655 277.774 287.138 277.427 287.49 276.985C287.843 276.537 288.03 275.982 288.019 275.412C288.019 274.868 287.863 274.423 287.551 274.077C287.205 273.702 286.781 273.407 286.309 273.212C285.734 272.971 285.142 272.772 284.538 272.617L282.366 272.024C280.891 271.625 279.723 271.034 278.863 270.253C278.007 269.476 277.58 268.446 277.582 267.163C277.582 266.104 277.87 265.179 278.446 264.389C279.021 263.599 279.798 262.985 280.778 262.548C281.825 262.091 282.957 261.864 284.099 261.882C285.332 261.882 286.443 262.103 287.398 262.535C288.354 262.973 289.108 263.574 289.658 264.338C290.207 265.098 290.495 265.973 290.523 266.964H287.846L287.843 266.97ZM293.431 264.53V262.141H307.66V264.53H301.918V280.527H299.151V264.53H293.431ZM311.746 280.696C311.511 280.701 311.278 280.657 311.06 280.567C310.843 280.478 310.646 280.346 310.481 280.178C310.31 280.013 310.174 279.815 310.083 279.596C309.991 279.376 309.946 279.141 309.95 278.903C309.946 278.668 309.992 278.435 310.083 278.218C310.175 278.001 310.31 277.806 310.481 277.644C310.645 277.475 310.842 277.34 311.059 277.25C311.277 277.159 311.511 277.113 311.746 277.116C312.235 277.116 312.657 277.292 313.011 277.644C313.363 277.992 313.54 278.412 313.54 278.903C313.533 279.216 313.447 279.522 313.29 279.793C313.134 280.064 312.911 280.291 312.643 280.453C312.372 280.614 312.062 280.699 311.746 280.696ZM324.002 280.527V278.519L330.222 272.072C330.886 271.372 331.433 270.759 331.864 270.234C332.255 269.772 332.584 269.262 332.844 268.716C333.058 268.236 333.166 267.726 333.168 267.188C333.179 266.631 333.029 266.083 332.736 265.609C332.448 265.163 332.042 264.805 331.563 264.575C331.038 264.327 330.463 264.201 329.882 264.207C329.224 264.207 328.65 264.342 328.159 264.613C327.676 264.871 327.282 265.268 327.029 265.754C326.752 266.285 326.615 266.878 326.632 267.477H323.986C323.986 266.358 324.244 265.379 324.758 264.54C325.27 263.701 325.976 263.052 326.875 262.593C327.776 262.125 328.796 261.892 329.937 261.895C331.08 261.895 332.108 262.125 332.989 262.586C333.875 263.039 334.565 263.661 335.061 264.453C335.558 265.239 335.807 266.125 335.807 267.111C335.807 267.792 335.679 268.46 335.422 269.113C335.092 269.9 334.648 270.634 334.103 271.291C333.473 272.085 332.599 273.052 331.48 274.192L327.823 278.016V278.154H336.101V280.533H323.996L324.002 280.527ZM346.16 280.834C344.741 280.83 343.528 280.456 342.522 279.713C341.517 278.97 340.748 277.889 340.217 276.469C339.685 275.049 339.418 273.341 339.416 271.345C339.414 269.349 339.681 267.646 340.217 266.237C340.755 264.822 341.526 263.745 342.532 263.006C343.542 262.267 344.751 261.897 346.16 261.895C347.567 261.895 348.774 262.268 349.779 263.015C350.785 263.756 351.554 264.833 352.085 266.247C352.623 267.654 352.892 269.353 352.892 271.345C352.892 273.34 352.63 275.063 352.095 276.482C351.561 277.897 350.791 278.979 349.786 279.726C348.782 280.467 347.574 280.834 346.16 280.834ZM346.16 278.432C347.403 278.432 348.376 277.825 349.078 276.61C349.78 275.395 350.134 273.639 350.138 271.342C350.138 269.815 349.977 268.524 349.654 267.467C349.334 266.41 348.876 265.609 348.281 265.065C347.711 264.521 346.951 264.222 346.164 264.232C344.925 264.232 343.953 264.844 343.246 266.067C342.539 267.289 342.183 269.045 342.177 271.336C342.177 272.868 342.335 274.165 342.65 275.227C342.973 276.279 343.431 277.079 344.024 277.625C344.606 278.159 345.371 278.447 346.16 278.432ZM363.307 262.141V280.527H360.524V264.927H360.418L356.015 267.8V265.145L360.604 262.148H363.304L363.307 262.141ZM374.935 280.78C373.703 280.78 372.602 280.567 371.63 280.142C370.724 279.764 369.934 279.153 369.34 278.371C368.781 277.604 368.468 276.685 368.44 275.736H371.259C371.284 276.255 371.475 276.752 371.803 277.154C372.14 277.547 372.578 277.852 373.116 278.067C373.654 278.283 374.252 278.39 374.909 278.387C375.633 278.387 376.275 278.263 376.834 278.013C377.36 277.787 377.816 277.424 378.154 276.962C378.471 276.501 378.637 275.953 378.628 275.393C378.638 274.802 378.466 274.222 378.136 273.731C377.805 273.241 377.332 272.864 376.78 272.652C376.092 272.366 375.353 272.228 374.608 272.248H373.058V269.984H374.608C375.292 269.984 375.89 269.861 376.405 269.616C376.897 269.392 377.319 269.039 377.625 268.594C377.922 268.132 378.074 267.591 378.061 267.041C378.077 266.52 377.944 266.005 377.676 265.558C377.422 265.128 377.048 264.782 376.6 264.562C376.093 264.313 375.532 264.19 374.967 264.204C374.339 264.204 373.811 264.316 373.289 264.533C372.796 264.732 372.363 265.054 372.03 265.469C371.705 265.879 371.523 266.386 371.512 266.91H368.825C368.855 265.917 369.147 265.044 369.702 264.29C370.285 263.523 371.052 262.914 371.931 262.519C372.851 262.092 373.875 261.88 375.002 261.882C376.126 261.882 377.196 262.112 378.054 262.573C378.913 263.028 379.577 263.637 380.046 264.399C380.518 265.159 380.752 265.989 380.748 266.89C380.78 267.831 380.481 268.753 379.904 269.496C379.326 270.24 378.506 270.757 377.587 270.958V271.102C378.808 271.287 379.754 271.773 380.424 272.559C381.099 273.345 381.434 274.316 381.43 275.473C381.434 276.487 381.152 277.395 380.584 278.195C380.023 278.998 379.254 279.63 378.278 280.091C377.225 280.562 376.08 280.795 374.925 280.773L374.935 280.78Z" fill="#FEF8FC"/>
</g>
<defs>
<clipPath id="clip0_105_93">
<rect width="641" height="340" fill="white" transform="translate(0.186523)"/>
</clipPath>
</defs>
</svg>
