<svg width="597" height="340" viewBox="0 0 597 340" fill="none" xmlns="http://www.w3.org/2000/svg">
<path d="M414.666 140.517C427.166 140.517 437.492 147.582 438.851 160.625H426.894C426.079 154.919 420.644 150.843 414.666 150.843C403.797 150.843 399.449 160.353 399.449 170.136C399.449 179.646 403.525 188.885 414.666 188.885C422.275 188.885 426.623 183.723 427.438 176.386H439.394C438.035 190.516 428.525 199.483 414.666 199.483C397.275 199.483 387.221 186.44 387.221 170.136C387.221 153.56 397.275 140.517 414.666 140.517Z" fill="#FEF8FC"/>
<path d="M169.019 156.277C177.714 156.277 186.138 159.267 186.953 169.321H176.356C176.084 164.973 172.823 163.886 168.747 163.886C166.302 163.886 162.497 164.43 162.497 167.69C162.497 171.766 168.747 172.31 175.269 173.668C181.79 175.027 188.04 177.473 188.04 185.081C188.04 195.95 178.801 199.212 169.562 199.212C160.051 199.212 150.813 195.679 150.269 184.81H160.867C160.867 189.701 164.943 191.602 169.562 191.603C172.823 191.603 176.899 190.244 176.899 186.44C176.899 182.907 172.279 181.82 164.399 180.19C157.877 178.831 151.356 176.386 151.356 169.321C151.356 158.995 160.323 156.277 169.019 156.277Z" fill="#FEF8FC"/>
<path fill-rule="evenodd" clip-rule="evenodd" d="M313.581 156.277C327.439 156.277 334.233 167.962 333.418 180.462H304.342C304.614 187.527 307.875 190.788 314.125 190.788C318.472 190.788 322.004 188.07 322.82 185.353H332.603C329.614 195.135 322.82 199.212 313.581 199.212C300.81 199.211 292.929 190.244 292.929 177.745C292.929 165.517 301.353 156.277 313.581 156.277ZM313.31 164.701C306.245 164.701 304.342 170.136 304.07 173.396H322.276C321.189 167.69 318.744 164.701 313.31 164.701Z" fill="#FEF8FC"/>
<path fill-rule="evenodd" clip-rule="evenodd" d="M378.526 141.875V198.125H367.928V192.961H367.657C365.211 197.309 360.591 199.211 355.428 199.212C343.2 199.212 337.222 188.614 337.222 177.473C337.222 166.332 343.2 156.277 355.156 156.277C359.776 156.277 364.396 158.179 367.113 162.255H367.384V141.875H378.526ZM358.417 164.43C351.08 164.43 348.635 170.679 348.635 177.473C348.635 183.722 351.352 190.515 358.417 190.516C365.754 190.516 367.928 183.994 367.928 177.473C367.928 170.951 365.482 164.701 358.417 164.43Z" fill="#FEF8FC"/>
<path fill-rule="evenodd" clip-rule="evenodd" d="M492.926 156.277C505.969 156.277 514.121 164.702 514.121 177.745C514.121 190.788 505.697 199.211 492.926 199.212C480.155 199.212 472.002 190.788 472.002 177.745C472.002 164.701 480.426 156.277 492.926 156.277ZM493.197 164.701C485.589 164.701 483.415 171.223 483.415 177.745C483.415 183.994 485.589 190.788 493.197 190.788C500.806 190.788 502.98 184.266 502.98 177.745C502.98 171.223 500.806 164.701 493.197 164.701Z" fill="#FEF8FC"/>
<path d="M536.675 156.277C545.642 156.277 553.794 159.267 554.609 169.321H544.011C543.74 164.973 540.479 163.886 536.403 163.886C533.957 163.886 530.153 164.43 530.153 167.69C530.153 171.766 536.403 172.31 542.925 173.668C549.446 175.027 555.696 177.473 555.696 185.081C555.696 195.95 546.457 199.211 537.219 199.212C527.708 199.212 518.741 195.679 518.197 184.81H528.523C528.523 189.701 532.599 191.603 537.219 191.603C540.479 191.602 544.555 190.244 544.555 186.44C544.555 182.907 539.935 181.82 531.783 180.19C525.262 178.831 519.013 176.386 519.013 169.321C519.013 158.995 527.98 156.277 536.675 156.277Z" fill="#FEF8FC"/>
<path d="M577.707 156.277C586.674 156.277 594.826 159.267 595.641 169.321H585.043C584.772 164.973 581.511 163.886 577.435 163.886C574.989 163.886 571.457 164.43 571.457 167.69C571.457 171.766 577.707 172.31 583.956 173.668C590.478 175.027 597 177.473 597 185.081C597 195.95 587.761 199.211 578.251 199.212C569.012 199.212 559.772 195.679 559.229 184.81H569.827C569.827 189.701 573.903 191.603 578.251 191.603C581.511 191.602 585.587 190.244 585.587 186.44C585.587 182.907 580.967 181.82 572.815 180.19C566.566 178.831 560.044 176.386 560.044 169.321C560.044 158.995 569.012 156.277 577.707 156.277Z" fill="#FEF8FC"/>
<path d="M118.205 157.364H126.356V164.973H118.205V185.081C118.205 188.885 119.291 189.972 122.824 189.972C123.911 189.972 124.998 189.972 126.356 189.701V198.396C124.454 198.668 122.28 198.668 119.835 198.668C113.042 198.668 107.063 197.037 107.063 188.885V164.973H100.27V157.364H107.063V145.136H118.205V157.364Z" fill="#FEF8FC"/>
<path d="M75.5423 156.277C76.3573 156.277 77.1724 156.549 77.9875 156.549V167.147C76.9006 166.875 75.2705 166.875 73.9119 166.875C65.7599 166.875 63.0421 172.853 63.0421 179.919V198.396H51.901V157.364H62.4987V164.973H62.7707C64.9446 159.81 70.1076 156.277 75.5423 156.277Z" fill="#FEF8FC"/>
<path d="M468.47 156.277C469.285 156.277 470.1 156.549 470.915 156.549V167.147C469.828 166.875 468.198 166.875 466.839 166.875C458.687 166.875 455.97 172.853 455.97 179.919V198.396H444.829V157.364H455.155V164.973H455.426C457.6 159.81 463.035 156.277 468.47 156.277Z" fill="#FEF8FC"/>
<path fill-rule="evenodd" clip-rule="evenodd" d="M26.3579 142.147C37.2273 142.147 44.2926 145.68 44.2926 156.006C44.2925 161.44 41.5754 165.245 36.6842 167.69C43.4774 169.593 47.0099 174.755 47.0099 181.82C47.0099 193.233 37.2276 198.125 27.1734 198.125H0V142.147H26.3579ZM12.2281 172.853V188.342H25.271C30.1622 188.342 34.5104 186.44 34.5104 180.733C34.5104 175.027 30.706 172.853 25.5431 172.853H12.2281ZM11.956 151.386V164.701H24.4561C28.8038 164.701 32.0645 162.527 32.0645 157.908C32.0644 152.473 27.9883 151.386 23.6406 151.386H11.956Z" fill="#FEF8FC"/>
<path d="M94.5632 198.125H83.4221V157.364H94.5632V198.125Z" fill="#FEF8FC"/>
<path d="M145.378 198.125H134.237V157.364H145.378V198.125Z" fill="#FEF8FC"/>
<path d="M203.8 163.071H204.072C206.79 158.451 211.681 156.277 216.029 156.277C227.985 156.277 230.702 163.071 230.702 173.125V198.125H219.561V175.027C219.561 168.234 217.659 164.973 212.496 164.973C206.518 164.973 203.801 168.234 203.8 176.657V198.125H192.659V141.875H203.8V163.071Z" fill="#FEF8FC"/>
<path fill-rule="evenodd" clip-rule="evenodd" d="M273.093 141.875C283.147 141.875 289.397 148.94 289.397 157.364C289.397 164.158 286.679 169.049 280.701 171.495V171.766C286.679 173.396 288.582 179.103 288.854 184.81C289.125 188.342 289.125 194.864 291.299 198.125H279.071C277.712 194.592 277.712 189.157 277.169 184.538C276.082 178.831 273.908 176.114 267.658 176.114H255.159V198.125H242.931V141.875H273.093ZM255.159 151.386V167.418H268.745C274.18 167.418 277.169 164.973 277.169 159.267C277.169 153.832 274.18 151.386 268.745 151.386H255.159Z" fill="#FEF8FC"/>
<path d="M94.5632 151.115H83.4221V141.875H94.5632V151.115Z" fill="#FEF8FC"/>
<path d="M145.649 151.115H134.508V141.875H145.649V151.115Z" fill="#FEF8FC"/>
</svg>
