<svg width="588" height="340" viewBox="0 0 588 340" fill="none" xmlns="http://www.w3.org/2000/svg">
<g clip-path="url(#clip0_105_90)">
<path d="M240.667 196.639L228.951 163.889H228.775L217.059 196.639H208.758L190.664 143.154H200.456L212.782 179.622H212.958L225.461 143.154H232.365L244.692 179.248H244.868L257.454 143.154H267.07L248.976 196.639H240.667ZM309.572 196.639V143.154H319.997V196.639H309.572ZM492.238 143.154V173.933C492.238 182.716 487.22 189.085 478.727 189.085C470.234 189.085 465.208 182.807 465.208 173.933V143.154H454.783V174.704C454.783 189.566 465.308 198.64 478.727 198.64C492.146 198.64 502.67 189.666 502.67 174.704V143.154H492.238ZM551.955 196.639V143.154H562.38V187.084H587.187V196.639H551.955ZM413.327 143.161L392.21 196.639H382.311L360.919 143.161H371.1C371.955 145.353 385.756 180.485 387.268 184.373C388.773 180.501 402.513 145.353 403.376 143.161H413.327ZM136.278 198.739C133.368 198.739 130.71 198.395 128.297 197.708C125.891 197.021 123.768 196.066 121.942 194.852C120.117 193.637 118.605 192.27 117.421 190.766C116.237 189.261 115.397 187.68 114.924 186.046L123.974 183.266C124.661 185.221 126.013 186.947 128.022 188.428C130.031 189.91 132.52 190.682 135.484 190.727C138.921 190.727 141.647 190.009 143.663 188.581C145.672 187.153 146.68 185.274 146.68 182.945C146.68 180.829 145.832 179.095 144.137 177.744C142.441 176.392 140.165 175.353 137.309 174.605L130.481 172.856C127.884 172.168 125.547 171.16 123.455 169.839C121.362 168.518 119.72 166.853 118.536 164.836C117.345 162.828 116.749 160.445 116.749 157.688C116.749 152.502 118.444 148.469 121.828 145.582C125.211 142.695 130.053 141.259 136.354 141.259C139.898 141.259 143.007 141.802 145.68 142.886C148.353 143.971 150.56 145.452 152.309 147.331C154.058 149.21 155.349 151.341 156.196 153.724L147.306 156.58C146.512 154.465 145.137 152.716 143.182 151.341C141.227 149.966 138.791 149.279 135.881 149.279C132.971 149.279 130.496 149.997 128.778 151.425C127.06 152.853 126.197 154.839 126.197 157.382C126.197 159.444 126.869 161.048 128.22 162.186C129.572 163.324 131.405 164.187 133.735 164.768L140.563 166.433C145.535 167.647 149.399 169.74 152.156 172.703C154.906 175.666 156.28 178.95 156.28 182.548C156.28 185.725 155.509 188.528 153.982 190.964C152.446 193.4 150.186 195.302 147.192 196.677C144.198 198.052 140.563 198.739 136.278 198.739ZM61.3254 124.904C66.3233 131.695 64.8631 141.256 58.0779 146.25L5.27552 185.108C0.277559 178.317 1.73784 168.755 8.52297 163.762L61.3254 124.904ZM51.6097 160.482C56.6077 167.273 55.1474 176.835 48.3623 181.828L3.15613 215.096C-1.84107 208.305 -0.380787 198.744 6.40358 193.75L51.6097 160.482Z" fill="#FEF8FC"/>
</g>
<defs>
<clipPath id="clip0_105_90">
<rect width="587" height="340" fill="white" transform="translate(0.186523)"/>
</clipPath>
</defs>
</svg>
