<svg width="503" height="340" viewBox="0 0 503 340" fill="none" xmlns="http://www.w3.org/2000/svg">
<g clip-path="url(#clip0_105_97)">
<path d="M-0.936035 146.001H13.3202V153.947C17.3934 147.589 22.7784 143.72 30.3155 144.082C37.806 144.442 43.0419 148.393 46.122 155.333C46.871 154.225 47.5176 153.145 48.2853 152.155C53.0628 145.997 60.5478 142.383 68.6998 144.716C74.3083 146.321 78.1263 149.924 80.325 155.301C81.5194 158.224 81.8715 161.271 81.8846 164.389C81.9144 171.144 81.9703 177.899 81.9684 184.654C81.9684 185.568 82.2498 185.814 83.133 185.782C84.9311 185.717 86.7329 185.782 88.5329 185.753C89.1552 185.741 89.4254 185.902 89.4105 186.579C89.3714 188.251 89.3732 189.925 89.4105 191.598C89.4254 192.277 89.1422 192.431 88.5254 192.429C84.3665 192.411 80.2057 192.401 76.0468 192.437C75.2251 192.444 75.0891 192.118 75.0909 191.395C75.1114 182.191 75.0984 172.986 75.1077 163.783C75.1114 160.078 74.0735 156.74 71.4947 154.027C68.6569 151.042 65.1576 149.718 61.0061 150.17C54.9671 150.824 51.2386 154.35 48.9337 159.705C48.0375 161.786 47.676 163.936 47.6872 166.205C47.7319 174.573 47.7039 182.939 47.7039 191.307V192.474H40.955C40.9364 192.081 40.9028 191.693 40.9028 191.303C40.8991 182.471 40.9252 173.639 40.8898 164.806C40.8749 160.997 39.9805 157.425 37.3849 154.486C34.5452 151.272 31.0347 149.681 26.6578 150.183C21.1405 150.815 17.5611 154.014 15.0959 158.724C13.8382 161.128 13.3127 163.669 13.3407 166.412C13.4245 174.716 13.3705 183.023 13.3705 191.328C13.3705 191.691 13.3705 192.057 13.3705 192.534C11.1643 192.534 9.06251 192.547 6.96442 192.51C6.80045 192.506 6.55822 192.195 6.49859 191.984C6.4166 191.697 6.47064 191.37 6.47064 191.059C6.47064 178.755 6.47064 166.453 6.47064 154.149C6.47064 152.771 6.46878 152.778 5.11042 152.767C3.09618 152.75 1.08007 152.72 -0.934172 152.696V146.001H-0.936035Z" fill="#FEF8FC"/>
<path d="M408.467 213.318C410.361 208.455 412.252 203.592 414.147 198.73C414.674 197.378 415.243 196.041 415.723 194.674C415.863 194.275 415.906 193.735 415.749 193.358C414.07 189.308 412.332 185.281 410.629 181.24C408.674 176.603 406.74 171.957 404.795 167.314C402.851 162.675 400.917 158.031 398.935 153.408C398.808 153.112 398.303 152.81 397.964 152.799C396.198 152.737 394.427 152.748 392.659 152.78C392.007 152.791 391.716 152.642 391.735 151.907C391.783 149.991 391.752 148.074 391.752 146.073H411.957C411.957 148.191 411.978 150.289 411.922 152.385C411.916 152.566 411.432 152.875 411.158 152.886C409.858 152.94 408.551 152.911 407.249 152.912C406.915 152.912 406.582 152.912 406.023 152.912C410.538 163.514 414.976 173.935 419.414 184.356C419.515 184.362 419.614 184.369 419.714 184.375C423.767 173.93 427.82 163.486 431.932 152.886C431.496 152.838 431.183 152.776 430.868 152.774C429.566 152.763 428.26 152.799 426.959 152.745C426.689 152.733 426.208 152.426 426.204 152.245C426.15 150.209 426.171 148.169 426.171 146.062H446.414C446.414 148.193 446.434 150.291 446.378 152.387C446.373 152.567 445.885 152.881 445.613 152.888C443.815 152.933 442.013 152.935 440.213 152.901C439.57 152.89 439.203 153.071 438.957 153.71C436.7 159.591 434.416 165.461 432.132 171.33C429.376 178.414 426.605 185.492 423.853 192.575C421.805 197.842 419.77 203.113 417.741 208.386C417.111 210.021 416.523 211.673 415.915 213.316H408.464L408.467 213.318Z" fill="#FEF8FC"/>
<path d="M139.659 177.375C141.53 178.66 143.279 179.859 145.085 181.099C143.924 183.362 142.48 185.299 140.725 187.009C134.589 192.985 127.208 195.415 118.778 194.225C110.99 193.125 104.891 189.088 100.71 182.449C97.1267 176.758 96.1056 170.502 97.5162 163.906C99.0329 156.819 102.948 151.367 109.138 147.647C114.565 144.386 120.472 143.301 126.748 144.436C134.339 145.81 139.942 149.963 143.639 156.651C146.003 160.928 146.797 165.597 146.628 170.456C146.598 171.299 146.288 171.522 145.456 171.522C132.077 171.496 118.7 171.504 105.322 171.504C104.925 171.504 104.528 171.504 104.135 171.504C104.043 175.9 108.044 182.904 114.56 185.823C117.573 187.173 120.703 187.718 123.977 187.496C127.257 187.274 130.273 186.243 133.033 184.457C135.785 182.676 137.9 180.295 139.659 177.377V177.375ZM139.284 164.758C137.943 157.682 131.471 150.304 121.726 150.621C111.966 150.94 105.422 158.493 104.423 164.758H139.284Z" fill="#FEF8FC"/>
<path d="M450.318 169.222C450.344 155.208 461.721 143.924 475.851 144.021C489.892 144.117 501.117 155.377 501.024 169.485C500.933 183.213 489.604 194.727 475.21 194.512C461.488 194.309 450.245 183.055 450.318 169.222ZM475.679 187.543C485.922 187.552 494.158 179.327 494.161 169.08C494.165 158.987 485.843 150.738 475.646 150.733C465.477 150.727 457.169 159.041 457.165 169.223C457.162 179.348 465.433 187.531 475.679 187.541V187.543Z" fill="#FEF8FC"/>
<path d="M310.325 185.721C308.911 187.153 307.731 188.499 306.399 189.668C301.655 193.832 296.166 195.247 289.981 193.908C282.396 192.265 277.397 186.213 276.411 178.885C276.143 176.898 276.059 174.875 276.046 172.867C276.001 166.576 276.031 160.285 276.029 153.994C276.029 152.771 276.023 152.771 274.784 152.769C273.107 152.769 271.432 152.771 269.755 152.767C269.422 152.767 269.086 152.737 268.697 152.718V146.081H282.914C282.914 146.407 282.914 146.765 282.914 147.123C282.914 156.172 282.92 165.222 282.912 174.271C282.908 178.035 283.954 181.436 286.527 184.237C290.66 188.734 296.199 189.858 301.76 186.722C306.127 184.259 308.954 180.578 310.094 175.675C310.28 174.871 310.318 174.017 310.32 173.185C310.334 164.569 310.329 155.955 310.329 147.339C310.329 146.94 310.329 146.543 310.329 146.066H317.169V185.792H324.529C324.529 187.986 324.552 190.082 324.49 192.176C324.484 192.357 323.931 192.666 323.627 192.672C321.393 192.715 319.157 192.696 316.923 192.696C315.06 192.696 313.198 192.668 311.335 192.709C310.584 192.726 310.286 192.508 310.312 191.713C310.366 190.104 310.327 188.491 310.327 186.879C310.327 186.549 310.327 186.22 310.327 185.719L310.325 185.721Z" fill="#FEF8FC"/>
<path d="M356.162 185.812H373.681C373.681 187.996 373.694 190.091 373.658 192.185C373.654 192.355 373.354 192.584 373.146 192.668C372.93 192.754 372.656 192.696 372.408 192.696C360.46 192.696 348.511 192.696 336.563 192.696C335.693 192.696 335.256 192.251 335.255 191.361C335.255 189.543 335.255 187.725 335.255 185.818H349.381C349.407 185.434 349.444 185.137 349.444 184.839C349.448 174.522 349.437 164.204 349.465 153.888C349.467 152.968 349.159 152.743 348.287 152.75C344.285 152.789 340.281 152.745 336.278 152.786C335.451 152.793 335.212 152.545 335.237 151.732C335.293 149.877 335.255 148.02 335.255 146.075H356.13V153.904C356.957 152.566 357.559 151.378 358.357 150.341C361.496 146.252 365.592 143.847 370.846 144.041C376.53 144.252 381.087 146.629 384.07 151.641C385.704 154.387 385.632 157.822 383.862 160.007C381.84 162.504 377.519 162.308 375.691 159.642C374.361 157.702 374.225 155.709 375.33 153.612C375.445 153.393 375.33 152.89 375.141 152.704C374.053 151.633 372.695 151.042 371.227 150.69C366.376 149.525 361.724 151.514 359.122 155.858C357.142 159.17 356.093 162.712 356.141 166.609C356.214 172.589 356.16 178.568 356.16 184.548V185.81L356.162 185.812Z" fill="#FEF8FC"/>
<path d="M176.599 185.829H194.121C194.121 187.983 194.136 190.05 194.097 192.118C194.093 192.312 193.78 192.552 193.557 192.672C193.387 192.763 193.132 192.698 192.914 192.698C180.933 192.698 168.952 192.698 156.971 192.698C155.668 192.698 155.666 192.694 155.664 191.434C155.663 189.61 155.664 187.785 155.664 185.842H169.874C169.874 185.395 169.874 185.064 169.874 184.734C169.874 174.478 169.863 164.221 169.893 153.964C169.895 153.048 169.69 152.733 168.715 152.746C164.713 152.802 160.707 152.748 156.704 152.786C155.883 152.793 155.622 152.543 155.65 151.728C155.705 150.088 155.681 148.443 155.659 146.802C155.651 146.226 155.806 145.976 156.443 145.978C162.993 145.999 169.542 145.991 176.09 145.993C176.211 145.993 176.331 146.019 176.567 146.045V153.923C177.376 152.601 177.968 151.454 178.723 150.427C182.28 145.594 188.084 142.982 194.23 144.384C198.638 145.391 202.132 147.645 204.444 151.572C206.071 154.333 206.196 157.783 204.286 160.005C202.119 162.526 197.932 162.306 196.065 159.546C194.787 157.656 194.675 155.687 195.767 153.686C196.041 153.185 195.905 152.92 195.519 152.592C192.728 150.214 187.704 149.683 184.363 151.376C181.026 153.065 179.168 155.955 177.868 159.282C176.923 161.694 176.541 164.204 176.573 166.818C176.645 172.736 176.595 178.656 176.595 184.574V185.827L176.599 185.829Z" fill="#FEF8FC"/>
<path d="M251.644 156.774C245.862 149.763 233.348 148.618 225.754 155.433C217.4 162.929 217.628 175.829 225.772 183.129C233.479 190.039 247.949 189.616 255.073 177.547C255.578 177.88 256.083 178.207 256.58 178.542C257.732 179.32 258.9 180.079 260.014 180.908C260.201 181.048 260.303 181.593 260.184 181.802C258.067 185.525 255.177 188.525 251.538 190.789C246.539 193.897 241.057 195.055 235.247 194.488C229.463 193.923 224.388 191.626 220.162 187.617C214.611 182.352 211.872 175.824 212.273 168.224C212.731 159.56 216.817 152.812 224.151 148.132C230.076 144.35 236.57 143.239 243.407 144.772C249.8 146.204 255.036 149.567 258.891 154.921C259.91 156.334 260.614 157.913 260.944 159.651C261.507 162.612 259.314 165.586 256.226 165.994C253.267 166.386 250.538 164.163 250.275 161.178C250.129 159.528 250.504 158.051 251.642 156.772L251.644 156.774Z" fill="#FEF8FC"/>
</g>
<defs>
<clipPath id="clip0_105_97">
<rect width="502" height="340" fill="white" transform="translate(0.513672)"/>
</clipPath>
</defs>
</svg>
