<svg width="356" height="340" viewBox="0 0 356 340" fill="none" xmlns="http://www.w3.org/2000/svg">
<g clip-path="url(#clip0_105_86)">
<path d="M304.786 151.875L285.653 167.771H286.881C292.145 167.771 296.976 169.672 300.492 173.125C304.353 176.918 306.397 182.305 306.397 188.702C306.397 203.674 295.32 213.731 278.839 213.731C270.467 213.731 263.397 211.265 258.389 206.603C253.48 202.028 250.882 195.696 250.882 188.289V184.38H266.19V187.881C266.19 194.973 271.397 199.557 278.839 199.557C286.281 199.557 291.089 195.297 291.089 188.706C291.089 182.849 287.284 179.492 280.65 179.492H267.369V165.863L267.739 165.552L282.925 152.836H252.892V138.454H304.786V151.875Z" fill="#FEF8FC"/>
<path d="M189.419 138.458L157.56 169.357L187.853 212.301H169.047L168.74 211.856L146.803 179.83L140.542 185.868V212.297H125.235V138.451H140.542V166.515L168.259 138.749L168.558 138.45H189.419V138.458Z" fill="#FEF8FC"/>
<path d="M57.9281 152.832H36.6165V212.296H21.3101V152.832H0V138.45H57.9281V152.832Z" fill="#FEF8FC"/>
<path fill-rule="evenodd" clip-rule="evenodd" d="M98.4981 138.451L98.7063 139.211L118.564 212.296H102.77L98.5459 196.304H75.584L71.3652 212.296H55.5714L75.4293 139.211L75.6375 138.45H98.4981V138.451ZM79.2552 181.916H94.8809L87.067 152.47L79.2552 181.916Z" fill="#FEF8FC"/>
<path d="M243.237 152.832H210.268V167.876H240.423V182.258H210.268V197.914H243.84V212.296H194.96V138.45H243.237V152.832Z" fill="#FEF8FC"/>
<path d="M354.631 135.101L335.683 135.122L354.648 154.492L348.022 161.25L329.037 141.806L329.011 161.233H320.06V125.967H354.631V135.101Z" fill="#FEF8FC"/>
<path d="M308.488 107.443L308.513 88.0154H317.464V123.282L282.892 123.28V114.147L301.841 114.125L282.875 94.7587L289.502 88L308.488 107.443Z" fill="#FEF8FC"/>
<path d="M354.648 123.264H345.694L345.673 103.936L326.683 123.28L320.056 116.521L339.119 97.156L320.073 97.1319V88.0015H354.648V123.264Z" fill="#FEF8FC"/>
</g>
<defs>
<clipPath id="clip0_105_86">
<rect width="355" height="340" fill="white" transform="translate(0.236816)"/>
</clipPath>
</defs>
</svg>
