<svg width="451" height="340" viewBox="0 0 451 340" fill="none" xmlns="http://www.w3.org/2000/svg">
<g clip-path="url(#clip0_105_88)">
<path d="M115.787 140.006C102.446 140.006 89.1054 140.006 75.7645 140.006C75.4472 140.006 75.1289 140.004 74.8115 139.992C74.2645 139.97 74.0501 139.691 74.1178 139.106C74.1492 138.834 74.3398 138.626 74.5962 138.608C74.9754 138.581 75.3557 138.556 75.7359 138.552C77.6419 138.533 79.5479 138.551 81.4529 138.501C85.4526 138.394 89.4523 138.266 93.451 138.121C95.7992 138.036 98.1464 137.921 100.492 137.781C103.408 137.608 106.321 137.396 109.235 137.201C109.489 137.183 109.742 137.164 109.996 137.153C113.296 137.005 116.585 136.723 119.874 136.421C122.024 136.224 124.179 136.093 126.329 135.901C128.226 135.73 130.118 135.516 132.013 135.32C133.402 135.176 134.792 135.031 136.18 134.882C138.958 134.584 141.738 134.307 144.512 133.977C147.034 133.678 149.549 133.321 152.066 132.988C154.331 132.688 156.599 132.404 158.861 132.078C161.563 131.689 164.263 131.281 166.957 130.845C169.589 130.42 172.216 129.964 174.84 129.491C178.588 128.814 182.34 128.154 186.074 127.405C192.174 126.184 198.247 124.839 204.288 123.345C217.554 120.063 230.616 116.129 243.329 111.079C250.835 108.098 258.165 104.74 265.238 100.825C265.571 100.64 265.9 100.439 266.252 100.296C266.539 100.178 266.854 100.096 267.163 100.068C267.604 100.028 268.051 100.05 268.496 100.049C280.185 100.037 291.874 100.025 303.563 100.015C312.205 100.008 320.845 100.002 329.485 100C330.565 100 331.645 100.02 332.724 100.05C332.905 100.055 333.085 100.148 333.262 100.208C333.393 100.252 333.492 100.629 333.389 100.708C333.088 100.937 332.804 101.202 332.474 101.374C330.217 102.543 327.968 103.729 325.684 104.842C317.104 109.025 308.236 112.497 299.2 115.545C288.902 119.018 278.433 121.88 267.855 124.355C261.364 125.874 254.836 127.22 248.285 128.451C244.293 129.202 240.283 129.863 236.274 130.523C232.516 131.142 228.753 131.737 224.984 132.285C221.718 132.76 218.439 133.159 215.165 133.584C212.583 133.919 210.001 134.252 207.418 134.565C205.842 134.757 204.262 134.908 202.683 135.078C200.79 135.282 198.896 135.491 197.003 135.691C195.613 135.838 194.224 135.984 192.833 136.111C190.873 136.29 188.911 136.45 186.95 136.62C184.609 136.823 182.269 137.027 179.928 137.23C179.675 137.252 179.422 137.282 179.168 137.298C176.571 137.473 173.972 137.643 171.374 137.821C168.587 138.013 165.8 138.214 163.012 138.41C162.886 138.418 162.759 138.429 162.632 138.435C159.08 138.606 155.528 138.786 151.975 138.946C147.47 139.15 142.966 139.36 138.461 139.524C135.478 139.632 132.491 139.663 129.507 139.732C126.142 139.809 122.777 139.898 119.412 139.966C118.206 139.991 116.998 139.97 115.792 139.97C115.792 139.982 115.792 139.994 115.792 140.006H115.787Z" fill="#FEF8FC"/>
<path d="M35.029 182.474C31.9385 182.508 27.6862 182.555 23.433 182.606C23.1167 182.609 22.7993 182.636 22.4848 182.67C22.2113 182.698 22.0236 182.874 21.8997 183.105C21.7796 183.328 21.6824 183.564 21.5852 183.799C19.7869 188.153 17.9867 192.506 16.1961 196.863C15.9302 197.511 15.6795 198.167 15.4746 198.836C15.2888 199.442 15.1125 200.064 15.0448 200.69C14.9476 201.589 15.3174 202.32 16.1246 202.757C16.5115 202.965 16.9365 203.124 17.3625 203.232C18.225 203.451 19.1027 203.595 19.9975 203.597C20.759 203.599 21.5214 203.605 22.2828 203.619C23.3949 203.639 23.5598 203.815 23.5617 204.995C23.5617 205.312 23.5283 205.628 23.4979 205.944C23.4778 206.152 23.1977 206.436 22.988 206.454C22.6745 206.479 22.3571 206.507 22.0436 206.492C15.953 206.182 9.85964 206.183 3.76623 206.384C3.06864 206.407 2.37201 206.473 1.67442 206.495C1.42664 206.502 1.16267 206.479 0.93395 206.394C0.780519 206.337 0.615652 206.168 0.563237 206.012C0.484139 205.778 0.483186 205.512 0.477468 205.261C0.446973 203.847 0.565143 203.592 2.06896 203.611C3.0858 203.623 4.09596 203.553 5.09088 203.299C6.1001 203.041 6.97494 202.563 7.73066 201.849C8.43015 201.188 9.02768 200.44 9.50798 199.614C10.3066 198.24 11.13 196.871 11.8047 195.433C13.5887 191.631 15.3793 187.828 17.0223 183.963C21.3069 173.888 25.5115 163.779 29.7523 153.684C30.2946 152.393 30.8463 151.105 31.422 149.829C32.8886 146.58 34.3429 143.326 35.6561 140.01C35.9134 139.36 36.1831 138.711 36.4957 138.085C36.6624 137.752 36.9102 137.45 37.1647 137.175C37.4429 136.872 38.1281 136.916 38.3692 137.243C38.5932 137.547 38.8095 137.867 38.9639 138.211C39.4595 139.314 39.9379 140.425 40.401 141.542C47.0109 157.476 53.6123 173.413 60.2327 189.343C61.3315 191.988 62.497 194.605 63.6663 197.219C64.16 198.322 64.707 199.405 65.2997 200.456C65.6723 201.116 66.1355 201.736 66.6301 202.312C67.3191 203.115 68.2254 203.556 69.2899 203.635C69.733 203.667 70.1781 203.678 70.6203 203.714C71.03 203.748 71.2816 204.036 71.294 204.49C71.3055 204.936 71.3007 205.381 71.2883 205.827C71.2807 206.137 70.9872 206.45 70.6984 206.473C70.5097 206.488 70.3182 206.512 70.1314 206.497C65.821 206.142 61.503 206.229 57.1869 206.31C54.9665 206.352 52.746 206.44 50.5256 206.505C50.2721 206.513 50.0176 206.512 49.7651 206.502C49.2724 206.484 48.9731 206.165 48.9455 205.641C48.9426 205.577 48.9388 205.513 48.9369 205.449C48.8912 203.684 49.0141 203.602 50.7133 203.615C52.0465 203.624 53.3826 203.648 54.6892 203.306C55.0561 203.209 55.4277 203.117 55.7794 202.978C56.6962 202.612 57.206 201.923 57.2098 200.927C57.2117 200.358 57.1879 199.772 57.0573 199.222C56.8381 198.295 56.5713 197.373 56.2406 196.48C55.6202 194.809 54.9569 193.155 54.2803 191.505C53.315 189.149 52.3229 186.804 51.3394 184.456C51.1669 184.045 50.9792 183.641 50.801 183.232C50.6285 182.835 50.3054 182.671 49.8985 182.65C49.5182 182.631 49.137 182.626 48.7568 182.622C44.5675 182.576 40.3772 182.531 35.0242 182.473L35.029 182.474ZM36.4718 178.388C36.4718 178.353 36.4718 178.317 36.4718 178.281C38.6275 178.281 40.7832 178.299 42.9388 178.275C44.5227 178.258 46.1065 178.189 47.6904 178.133C47.8724 178.126 48.0649 178.079 48.2279 178C48.3165 177.957 48.4252 177.786 48.4023 177.708C48.2603 177.224 48.1097 176.739 47.9153 176.274C46.0065 171.697 44.0891 167.124 42.1736 162.549C40.5039 158.562 38.8333 154.575 37.1608 150.588C36.9645 150.119 36.7654 149.651 36.5452 149.194C36.4995 149.098 36.3603 149.007 36.2546 148.995C36.1602 148.983 36.0077 149.058 35.9601 149.14C35.8019 149.414 35.6675 149.703 35.5455 149.996C34.9347 151.463 34.3314 152.933 33.7253 154.402C30.7425 161.631 27.7596 168.86 24.7768 176.089C24.5824 176.559 24.3898 177.03 24.205 177.503C24.103 177.764 24.2479 178.052 24.4985 178.082C25.0017 178.14 25.5048 178.22 26.009 178.229C29.496 178.292 32.9829 178.337 36.4699 178.388H36.4718Z" fill="#FEF8FC"/>
<path d="M251.119 179.711C251.174 185.308 251.24 191.809 251.303 198.309C251.315 199.458 251.416 200.597 251.587 201.735C251.738 202.749 252.337 203.356 253.268 203.585C254.063 203.781 254.893 203.862 255.713 203.938C256.47 204.009 257.234 204.003 257.994 204.039C258.233 204.049 258.506 204.289 258.515 204.504C258.533 204.946 258.546 205.391 258.539 205.834C258.534 206.152 258.249 206.399 257.91 206.401C257.592 206.403 257.275 206.395 256.959 206.383C250.8 206.159 244.643 206.232 238.486 206.412C238.422 206.414 238.358 206.429 238.296 206.421C237.811 206.364 237.174 206.684 236.873 206.198C236.538 205.654 236.664 204.966 236.826 204.345C236.852 204.242 236.982 204.132 237.088 204.095C237.263 204.034 237.457 204.013 237.644 204.005C238.406 203.973 239.171 203.988 239.928 203.914C240.683 203.841 241.449 203.747 242.177 203.542C242.952 203.325 243.486 202.787 243.639 201.942C243.843 200.811 243.977 199.675 243.987 198.523C244.013 195.847 244.069 193.17 244.08 190.494C244.106 183.993 244.127 177.492 244.12 170.99C244.116 167.421 244.054 163.853 244.016 160.285C244.005 159.2 243.922 158.124 243.709 157.054C243.527 156.137 242.977 155.614 242.137 155.312C241.529 155.094 240.9 155.042 240.265 155.006C239.442 154.96 238.618 154.918 237.796 154.866C237.552 154.85 237.307 154.607 237.277 154.384C237.261 154.258 237.232 154.133 237.23 154.007C237.207 152.586 237.175 152.362 238.798 152.425C241.462 152.529 244.127 152.601 246.793 152.661C249.523 152.723 252.251 152.649 254.98 152.535C257.707 152.421 260.438 152.375 263.167 152.351C265.585 152.33 267.986 152.546 270.353 153.071C270.415 153.085 270.478 153.093 270.54 153.107C275.531 154.278 278.892 158.351 279.101 163.492C279.273 167.703 277.686 171.196 274.734 174.105C273.359 175.459 271.717 176.428 269.965 177.211C268.512 177.859 267.007 178.358 265.466 178.752C265.224 178.814 264.993 178.922 264.76 179.015C264.628 179.068 264.54 179.387 264.627 179.511C265.14 180.237 265.641 180.972 266.175 181.684C269.766 186.469 273.358 191.253 276.963 196.027C278.382 197.906 279.835 199.759 281.276 201.621C281.548 201.973 281.841 202.31 282.116 202.661C282.682 203.381 283.351 203.914 284.284 204.108C284.853 204.227 284.994 204.482 284.983 205.071C284.977 205.384 284.927 205.699 284.858 206.005C284.836 206.101 284.699 206.218 284.597 206.239C284.353 206.289 284.097 206.316 283.848 206.306C281.371 206.205 278.896 206.229 276.423 206.396C276.297 206.404 276.169 206.414 276.043 206.408C275.715 206.394 275.416 206.298 275.204 206.031C274.453 205.085 273.674 204.158 272.963 203.182C271.202 200.763 269.438 198.347 267.738 195.886C264.043 190.539 260.04 185.433 255.882 180.445C255.393 179.859 254.891 179.282 254.447 178.662C254.324 178.489 254.347 178.174 254.379 177.934C254.424 177.589 254.719 177.328 255.008 177.322C255.388 177.314 255.768 177.332 256.148 177.325C257.545 177.295 258.944 177.308 260.335 177.212C261.863 177.107 263.344 176.726 264.748 176.107C268.257 174.561 270.396 171.904 271.158 168.121C271.516 166.342 271.528 164.581 271.111 162.815C270.477 160.115 268.945 158.112 266.522 156.785C265.219 156.073 263.805 155.68 262.357 155.5C258.984 155.083 255.64 155.292 252.36 156.254C251.849 156.404 251.65 156.657 251.601 157.215C251.381 159.692 251.297 162.176 251.271 164.662C251.223 169.378 251.174 174.093 251.117 179.713L251.119 179.711Z" fill="#FEF8FC"/>
<path d="M152.331 152.614C155.822 152.56 159.312 152.448 162.803 152.467C165.979 152.484 169.13 152.813 172.253 153.472C181.84 155.493 187.527 163.743 188.803 170.372C189.434 173.654 189.581 176.932 189.219 180.258C188.844 183.715 187.93 187.002 186.501 190.159C184.767 193.993 182.311 197.298 179.124 200.015C174.849 203.661 169.907 205.781 164.296 206.347C160.3 206.75 156.306 206.658 152.31 206.497C148.438 206.341 144.57 206.241 140.7 206.526C140.006 206.577 139.306 206.563 138.609 206.567C138.367 206.568 138.149 206.327 138.124 206.066C138.111 205.939 138.109 205.811 138.099 205.685C138.051 205.132 138.21 204.689 138.719 204.397C139.105 204.177 139.474 203.927 139.847 203.684C140.219 203.441 140.579 203.178 140.958 202.945C141.436 202.652 141.651 202.217 141.684 201.677C141.744 200.723 141.804 199.77 141.851 198.815C142.236 190.919 142.271 183.017 142.227 175.114C142.203 170.844 142.198 166.574 142.14 162.305C142.12 160.841 141.979 159.379 141.867 157.918C141.833 157.478 141.733 157.038 141.615 156.611C141.451 156.01 141.025 155.6 140.437 155.474C139.57 155.288 138.688 155.176 137.808 155.062C137.306 154.997 136.796 154.996 136.291 154.957C136.059 154.938 135.821 154.688 135.816 154.447C135.806 154.003 135.808 153.558 135.82 153.113C135.827 152.889 136.089 152.659 136.337 152.647C136.653 152.63 136.97 152.618 137.286 152.621C140.334 152.652 143.38 152.694 146.428 152.717C148.396 152.733 150.364 152.72 152.332 152.72C152.332 152.685 152.332 152.65 152.332 152.615L152.331 152.614ZM149.709 202.459C150.376 202.576 151.059 202.733 151.75 202.809C155.357 203.2 158.962 203.347 162.581 202.904C164.609 202.657 166.588 202.234 168.511 201.562C170.504 200.866 172.348 199.885 173.939 198.464C176.549 196.129 178.488 193.348 179.648 190.017C180.618 187.232 181.217 184.369 181.446 181.439C181.674 178.511 181.626 175.58 181.122 172.672C180.73 170.401 180.113 168.198 179.098 166.125C176.979 161.795 173.637 158.846 169.104 157.242C166.81 156.43 164.432 156.02 162.024 155.854C158.214 155.591 154.408 155.74 150.622 156.261C150.372 156.296 150.127 156.37 149.885 156.447C149.622 156.53 149.467 156.735 149.437 157.001C149.392 157.38 149.368 157.762 149.358 158.144C149.26 161.838 149.097 165.532 149.087 169.227C149.063 177.64 149.099 186.053 149.146 194.465C149.158 196.693 149.292 198.922 149.373 201.15C149.386 201.528 149.367 201.915 149.709 202.459Z" fill="#FEF8FC"/>
<path d="M385.169 162.118C385.144 163.381 385.11 164.65 385.094 165.919C385.025 171.594 384.966 177.268 384.892 182.942C384.858 185.556 384.733 188.17 384.77 190.781C384.814 193.968 384.97 197.153 385.112 200.337C385.144 201.033 385.292 201.727 385.44 202.41C385.571 203.016 385.991 203.401 386.57 203.599C387.358 203.868 388.17 203.996 389.001 204.04C389.633 204.074 390.264 204.141 390.895 204.204C391.115 204.226 391.405 204.511 391.401 204.709C391.392 205.153 391.368 205.596 391.33 206.038C391.311 206.265 391.015 206.512 390.806 206.513C390.743 206.513 390.679 206.517 390.616 206.512C386.747 206.175 382.872 206.299 378.998 206.361C377.983 206.377 376.968 206.462 375.954 206.527C374.85 206.598 374.786 206.38 374.805 205.333C374.811 205.02 374.867 204.707 374.905 204.345C375.24 204.27 375.541 204.173 375.848 204.14C376.416 204.078 376.993 204.085 377.558 204.008C378.184 203.922 378.807 203.792 379.423 203.647C380.247 203.452 380.756 202.929 380.873 202.074C380.995 201.191 381.11 200.306 381.189 199.417C381.245 198.783 381.243 198.143 381.254 197.506C381.315 193.809 381.38 190.112 381.429 186.414C381.538 178.253 381.639 170.093 381.743 161.932C381.756 160.913 381.776 159.893 381.79 158.872C381.803 158.013 381.58 157.251 380.987 156.593C380.283 155.809 379.48 155.222 378.415 155.087C377.975 155.032 377.528 155.022 377.084 155.001C376.576 154.977 376.069 154.972 375.561 154.945C375.135 154.921 374.91 154.662 374.893 154.184C374.883 153.866 374.883 153.546 374.895 153.229C374.914 152.76 375.164 152.493 375.587 152.492C376.159 152.492 376.731 152.492 377.303 152.518C380.477 152.656 383.651 152.747 386.824 152.509C387.306 152.473 387.696 152.606 387.986 153.005C388.173 153.262 388.37 153.513 388.555 153.772C391.772 158.285 395.216 162.625 398.656 166.966C402.651 172.005 406.698 177.004 410.698 182.038C412.837 184.73 414.932 187.456 417.035 190.177C418.671 192.295 420.379 194.351 422.186 196.324C422.442 196.603 422.717 196.867 423.007 197.11C423.08 197.172 423.243 197.141 423.362 197.127C423.395 197.123 423.438 197.031 423.442 196.978C423.474 196.47 423.513 195.962 423.524 195.454C423.717 186.658 423.933 177.862 424.079 169.065C424.131 165.943 424.009 162.818 423.96 159.694C423.945 158.72 423.675 157.808 423.233 156.946C422.61 155.732 421.641 154.97 420.287 154.766C419.598 154.662 418.897 154.638 418.201 154.574C417.652 154.523 417.455 154.296 417.432 153.701C417.427 153.574 417.425 153.446 417.426 153.319C417.433 152.485 417.586 152.322 418.428 152.329C420.27 152.347 422.112 152.398 423.954 152.396C426.876 152.394 429.799 152.358 432.721 152.34C433.229 152.337 433.739 152.328 434.242 152.377C434.384 152.392 434.6 152.592 434.619 152.729C434.681 153.166 434.681 153.614 434.675 154.057C434.671 154.391 434.424 154.606 434.047 154.631C433.414 154.673 432.78 154.706 432.145 154.737C430.496 154.818 429.449 155.71 428.835 157.198C428.419 158.209 428.156 159.253 428.118 160.349C428.032 162.834 427.898 165.319 427.869 167.804C427.793 174.371 427.763 180.938 427.71 187.506C427.701 188.59 427.693 189.675 427.638 190.756C427.389 195.598 427.358 200.444 427.366 205.289C427.366 205.798 427.343 206.308 427.321 206.817C427.311 207.06 427.039 207.276 426.792 207.245C425.911 207.131 425.028 207.015 424.148 206.893C423.707 206.831 423.272 206.719 422.83 206.694C422.099 206.653 421.465 206.386 420.92 205.926C420.387 205.476 419.837 205.028 419.388 204.5C417.864 202.706 416.314 200.926 414.891 199.05C409.693 192.202 404.291 185.514 398.96 178.772C394.775 173.477 390.572 168.196 386.372 162.913C386.138 162.618 385.87 162.348 385.593 162.094C385.532 162.039 385.363 162.101 385.17 162.114L385.169 162.118Z" fill="#FEF8FC"/>
<path d="M84.3902 162.08C84.2282 162.821 84.2758 163.525 84.2635 164.224C84.1758 169.195 84.0748 174.165 84.0157 179.136C83.9594 183.853 83.9004 188.571 83.9375 193.288C83.9585 195.899 84.1615 198.509 84.313 201.118C84.3416 201.619 84.4855 202.119 84.6246 202.606C84.7542 203.059 85.0859 203.39 85.5243 203.529C86.1265 203.718 86.7469 203.869 87.3711 203.97C87.9334 204.06 88.51 204.059 89.0799 204.098C90.4036 204.19 90.496 204.283 90.4684 205.551C90.4645 205.74 90.4665 205.947 90.3921 206.111C90.3235 206.262 90.1701 206.396 90.0224 206.484C89.9271 206.542 89.7746 206.515 89.6488 206.506C84.8886 206.176 80.1294 206.24 75.3692 206.504C75.0528 206.521 74.7345 206.525 74.4191 206.501C74.3095 206.493 74.1532 206.41 74.1103 206.318C73.8311 205.713 73.8587 205.089 74.0712 204.473C74.1046 204.375 74.2456 204.262 74.3495 204.249C74.9766 204.167 75.6065 204.091 76.2383 204.053C77.0674 204.003 77.8765 203.863 78.6694 203.617C79.3317 203.41 79.7673 202.97 79.9302 202.305C80.0503 201.814 80.1027 201.303 80.1589 200.798C80.4458 198.195 80.4563 195.581 80.4868 192.967C80.5468 187.804 80.5964 182.641 80.6602 177.478C80.7336 171.614 80.8174 165.75 80.8965 159.886C80.9013 159.568 80.8918 159.248 80.9051 158.93C80.9394 158.07 80.7374 157.31 80.138 156.648C79.388 155.817 78.5503 155.17 77.401 155.075C76.6424 155.013 75.8781 155.01 75.1176 154.968C74.8679 154.953 74.6135 154.919 74.3743 154.85C74.2733 154.821 74.1408 154.684 74.1322 154.586C74.0865 154.082 74.0636 153.574 74.0598 153.067C74.0579 152.743 74.3409 152.492 74.6954 152.5C75.901 152.525 77.1075 152.568 78.313 152.595C80.8527 152.652 83.3924 152.731 85.9293 152.515C86.4058 152.475 86.8022 152.597 87.0919 153.006C87.3492 153.369 87.6265 153.72 87.8867 154.081C91.7606 159.455 95.9013 164.62 100.018 169.805C104.135 174.99 108.291 180.144 112.41 185.327C114.034 187.37 115.59 189.467 117.203 191.519C118.699 193.422 120.266 195.263 121.95 197.001C122.026 197.079 122.19 197.131 122.288 197.105C122.379 197.08 122.482 196.944 122.503 196.84C122.555 196.594 122.579 196.337 122.586 196.084C122.662 193.026 122.731 189.966 122.804 186.907C122.918 182.192 123.073 177.478 123.136 172.761C123.19 168.682 123.137 164.601 123.142 160.522C123.143 159.685 123.041 158.861 122.79 158.071C122.617 157.53 122.382 156.995 122.084 156.515C121.523 155.614 120.716 154.997 119.651 154.828C118.837 154.7 118.012 154.653 117.191 154.568C116.763 154.524 116.517 154.266 116.485 153.822C116.472 153.632 116.469 153.439 116.475 153.249C116.496 152.642 116.712 152.403 117.252 152.397C117.696 152.392 118.141 152.402 118.585 152.407C122.014 152.44 125.444 152.48 128.873 152.503C129.952 152.51 131.031 152.47 132.111 152.459C132.491 152.455 132.873 152.468 133.253 152.484C133.572 152.497 133.806 152.755 133.817 153.117C133.826 153.434 133.821 153.753 133.806 154.072C133.795 154.337 133.588 154.579 133.356 154.601C132.977 154.636 132.596 154.652 132.218 154.69C131.651 154.747 131.083 154.804 130.518 154.881C129.567 155.01 128.893 155.553 128.401 156.353C127.825 157.289 127.447 158.301 127.349 159.397C127.236 160.666 127.114 161.938 127.092 163.211C127.019 167.418 126.987 171.625 126.946 175.833C126.913 179.276 126.914 182.719 126.853 186.16C126.781 190.175 126.637 194.189 126.562 198.203C126.515 200.689 126.54 203.175 126.528 205.661C126.526 206.042 126.505 206.424 126.483 206.806C126.47 207.024 126.168 207.261 125.943 207.244C125.88 207.239 125.817 207.234 125.754 207.226C124.37 207.034 122.987 206.835 121.602 206.657C121.148 206.598 120.748 206.429 120.372 206.181C119.624 205.687 118.967 205.089 118.397 204.396C116.899 202.579 115.338 200.809 113.915 198.935C109.139 192.648 104.188 186.5 99.2892 180.31C94.8645 174.719 90.4274 169.138 85.9941 163.555C85.6377 163.106 85.2851 162.653 84.8981 162.233C84.7981 162.124 84.5713 162.132 84.3892 162.084L84.3902 162.08Z" fill="#FEF8FC"/>
<path d="M362.964 187.784C362.887 187.361 362.788 186.993 362.759 186.619C362.696 185.794 362.674 184.964 362.625 184.138C362.598 183.693 362.569 183.246 362.501 182.806C362.349 181.827 361.804 181.18 360.823 180.962C360.267 180.839 359.706 180.71 359.141 180.659C354.767 180.264 350.389 180.317 346.012 180.599C345.825 180.611 345.633 180.653 345.461 180.726C345.357 180.77 345.237 180.889 345.214 180.993C345.147 181.301 345.097 181.617 345.09 181.932C345.054 183.398 345.014 184.863 345.014 186.328C345.015 190.854 345.033 195.379 345.054 199.904C345.058 200.604 345.115 201.303 345.153 202.004C345.164 202.214 345.434 202.494 345.642 202.526C345.829 202.556 346.017 202.593 346.207 202.61C346.838 202.668 347.47 202.743 348.104 202.768C352.674 202.947 357.244 202.988 361.816 202.866C363.478 202.822 365.097 202.537 366.681 202.041C366.922 201.965 367.173 201.885 367.379 201.745C367.578 201.611 367.791 201.424 367.879 201.211C368.074 200.743 368.219 200.25 368.338 199.757C368.728 198.148 369.096 196.534 369.477 194.923C369.55 194.614 369.629 194.305 369.729 194.005C369.815 193.746 370.016 193.573 370.285 193.559C370.727 193.535 371.171 193.541 371.613 193.557C371.951 193.57 372.177 193.84 372.155 194.198C372.115 194.834 372.068 195.469 372.008 196.104C371.895 197.309 371.784 198.514 371.65 199.717C371.448 201.556 371.338 203.399 371.326 205.249C371.326 205.313 371.32 205.377 371.316 205.441C371.285 205.899 371.065 206.177 370.638 206.215C369.121 206.354 367.605 206.544 366.084 206.588C363.927 206.653 361.767 206.616 359.609 206.604C357.831 206.593 356.054 206.555 354.277 206.528C350.786 206.475 347.295 206.431 343.804 206.363C341.263 206.313 338.727 206.367 336.189 206.484C334.732 206.551 333.271 206.555 331.812 206.58C331.566 206.584 331.315 206.344 331.289 206.118C331.267 205.929 331.238 205.739 331.234 205.55C331.211 204.372 331.29 204.121 332.612 204.089C333.499 204.067 334.4 204.033 335.263 203.853C336.528 203.588 337.282 203.441 337.443 201.442C337.555 200.046 337.707 198.649 337.744 197.25C337.826 194.191 337.882 191.132 337.885 188.074C337.894 180.617 337.87 173.16 337.849 165.703C337.844 163.855 337.83 162.006 337.766 160.16C337.733 159.208 337.591 158.259 337.482 157.311C337.356 156.209 336.659 155.605 335.645 155.389C334.841 155.218 334.014 155.148 333.194 155.076C332.499 155.015 331.798 155.019 331.102 154.983C330.762 154.965 330.496 154.706 330.465 154.395C330.459 154.332 330.453 154.267 330.45 154.204C330.39 152.652 330.477 152.579 332.001 152.601C334.287 152.633 336.572 152.716 338.857 152.715C343.047 152.712 347.238 152.676 351.428 152.632C355.872 152.585 360.315 152.474 364.758 152.47C366.659 152.468 368.56 152.668 370.46 152.778C370.523 152.782 370.585 152.799 370.648 152.807C371.017 152.857 371.242 153.123 371.157 153.452C370.516 155.933 370.263 158.464 370.125 161.014C370.09 161.649 369.984 162.281 369.931 162.916C369.796 164.54 369.788 164.548 368.062 164.455C367.753 164.439 367.51 164.166 367.486 163.817C367.384 162.355 367.286 160.893 367.181 159.432C367.153 159.051 367.113 158.67 367.065 158.291C367.004 157.815 366.794 157.443 366.305 157.296C365.516 157.058 364.734 156.792 363.933 156.6C363.256 156.437 362.561 156.332 361.867 156.257C358.137 155.854 354.4 155.65 350.649 155.902C349.319 155.991 347.988 156.066 346.657 156.15C346.468 156.161 346.279 156.185 346.09 156.211C345.791 156.251 345.54 156.534 345.515 156.873C345.487 157.254 345.463 157.636 345.457 158.018C345.404 160.886 345.359 163.753 345.307 166.62C345.263 168.977 345.203 171.333 345.168 173.69C345.155 174.581 345.19 175.473 345.208 176.365C345.213 176.572 345.496 176.863 345.701 176.881C346.65 176.961 347.598 177.089 348.548 177.103C351.151 177.145 353.754 177.181 356.356 177.133C357.813 177.106 359.268 176.924 360.721 176.779C361.092 176.742 361.461 176.607 361.816 176.476C362.193 176.336 362.46 176.045 362.537 175.649C362.694 174.837 362.833 174.021 362.943 173.202C363.019 172.634 363.018 172.057 363.077 171.486C363.18 170.488 363.348 170.356 364.434 170.377C364.623 170.381 364.829 170.372 364.994 170.444C365.149 170.512 365.363 170.67 365.375 170.804C365.433 171.436 365.457 172.073 365.447 172.707C365.403 175.383 365.307 178.058 365.301 180.733C365.296 182.579 365.41 184.426 365.46 186.273C365.47 186.653 365.456 187.039 365.391 187.411C365.365 187.564 365.196 187.769 365.054 187.808C364.755 187.891 364.43 187.905 364.115 187.898C363.744 187.89 363.372 187.83 362.962 187.788L362.964 187.784Z" fill="#FEF8FC"/>
<path d="M225.698 187.758C225.625 187.389 225.515 187.024 225.489 186.654C225.427 185.765 225.422 184.87 225.361 183.981C225.326 183.475 225.259 182.966 225.151 182.47C224.989 181.722 224.51 181.224 223.778 181.029C223.167 180.866 222.542 180.716 221.915 180.666C219.319 180.46 216.717 180.309 214.111 180.376C212.397 180.421 210.684 180.506 208.971 180.585C208.721 180.596 208.467 180.648 208.228 180.722C208.123 180.754 207.992 180.878 207.973 180.98C207.905 181.352 207.844 181.731 207.841 182.108C207.805 186.698 207.773 191.288 207.757 195.878C207.751 197.408 207.788 198.938 207.817 200.468C207.826 200.977 207.865 201.486 207.899 201.994C207.913 202.204 208.18 202.5 208.381 202.523C209.138 202.609 209.894 202.724 210.654 202.757C215.415 202.955 220.178 203.007 224.941 202.85C226.603 202.795 228.216 202.464 229.786 201.916C230.303 201.736 230.636 201.409 230.772 200.854C231.104 199.493 231.475 198.142 231.81 196.782C232.024 195.917 232.195 195.041 232.4 194.174C232.499 193.752 232.774 193.541 233.225 193.531C233.605 193.522 233.986 193.536 234.365 193.556C234.704 193.574 234.924 193.835 234.902 194.2C234.863 194.837 234.814 195.472 234.753 196.106C234.656 197.121 234.553 198.135 234.441 199.148C234.222 201.113 234.085 203.084 234.081 205.062C234.081 205.189 234.067 205.317 234.056 205.444C234.017 205.888 233.781 206.178 233.363 206.215C231.718 206.358 230.073 206.505 228.426 206.608C227.604 206.66 226.776 206.631 225.949 206.624C222.456 206.595 218.963 206.57 215.47 206.524C212.487 206.485 209.503 206.388 206.518 206.376C204.042 206.365 201.565 206.43 199.09 206.479C197.756 206.505 196.424 206.575 195.091 206.608C194.844 206.615 194.59 206.566 194.35 206.501C194.249 206.473 194.113 206.341 194.104 206.246C194.057 205.743 194.03 205.238 194.027 204.733C194.025 204.436 194.332 204.168 194.668 204.145C195.428 204.093 196.189 204.051 196.949 204.01C197.652 203.972 198.335 203.831 198.991 203.578C199.428 203.409 199.759 203.108 199.901 202.659C200.033 202.237 200.153 201.8 200.192 201.362C200.32 199.902 200.453 198.44 200.502 196.975C200.575 194.746 200.605 192.513 200.61 190.282C200.622 183.142 200.62 176 200.611 168.859C200.609 166.245 200.573 163.632 200.547 161.017C200.534 159.805 200.418 158.603 200.26 157.399C200.101 156.186 199.21 155.5 198.294 155.362C197.416 155.23 196.532 155.143 195.647 155.065C195.015 155.008 194.38 155.003 193.746 154.964C193.513 154.95 193.256 154.698 193.254 154.463C193.251 153.957 193.261 153.45 193.298 152.946C193.305 152.85 193.459 152.697 193.556 152.689C194.123 152.64 194.693 152.6 195.262 152.606C197.358 152.633 199.454 152.717 201.548 152.712C205.867 152.703 210.185 152.658 214.504 152.613C218.949 152.567 223.395 152.466 227.839 152.469C229.677 152.469 231.515 152.673 233.352 152.799C233.817 152.83 233.991 153.099 233.862 153.601C233.278 155.898 233.025 158.237 232.894 160.596C232.837 161.614 232.705 162.627 232.602 163.642C232.539 164.256 232.348 164.446 231.784 164.472C231.657 164.478 231.53 164.482 231.402 164.482C230.415 164.486 230.272 164.361 230.208 163.443C230.111 162.045 230.024 160.644 229.912 159.247C229.877 158.805 229.795 158.364 229.703 157.93C229.649 157.672 229.471 157.451 229.226 157.371C228.382 157.094 227.537 156.813 226.677 156.601C226 156.433 225.303 156.331 224.611 156.257C220.943 155.86 217.269 155.648 213.579 155.889C212.185 155.98 210.789 156.06 209.395 156.147C209.268 156.154 209.142 156.166 209.016 156.179C208.554 156.227 208.293 156.458 208.263 156.878C208.232 157.323 208.218 157.77 208.208 158.216C208.158 160.319 208.104 162.422 208.068 164.525C208.005 168.221 207.953 171.918 207.9 175.614C207.896 175.869 207.91 176.123 207.925 176.377C207.935 176.564 208.23 176.847 208.434 176.877C208.559 176.895 208.685 176.912 208.812 176.922C213.635 177.309 218.455 177.332 223.27 176.796C223.705 176.747 224.137 176.612 224.555 176.473C224.94 176.345 225.203 176.039 225.279 175.648C225.446 174.773 225.585 173.892 225.703 173.009C225.778 172.441 225.78 171.864 225.838 171.294C225.909 170.589 226.126 170.383 226.788 170.375C227.104 170.372 227.42 170.397 227.735 170.42C227.954 170.437 228.068 170.605 228.128 170.782C228.188 170.959 228.22 171.158 228.212 171.344C227.951 176.569 228.007 181.795 228.175 187.021C228.179 187.147 228.195 187.291 228.143 187.395C228.065 187.554 227.954 187.784 227.82 187.813C227.135 187.96 226.441 187.959 225.696 187.758H225.698Z" fill="#FEF8FC"/>
<path d="M306.178 207.644C306.721 208.001 307.232 207.898 307.713 207.931C308.156 207.96 308.601 207.945 309.046 207.946C309.552 207.948 310.058 207.946 310.564 208.041H293.499C293.499 208.02 293.497 208.001 293.497 207.981C293.921 207.97 294.344 207.953 294.768 207.947C295.212 207.941 295.657 207.947 296.101 207.944C296.858 207.937 297.615 207.943 298.389 207.821C298.264 207.444 297.993 207.524 297.791 207.497C295.015 207.122 292.295 206.513 289.673 205.508C289.2 205.326 288.733 205.123 288.281 204.894C287.959 204.732 287.883 204.408 287.946 204.077C288.208 202.693 288.267 201.292 288.341 199.893C288.444 197.92 288.524 195.947 288.619 193.974C288.631 193.723 288.658 193.467 288.724 193.226C288.752 193.125 288.892 192.99 288.989 192.982C289.556 192.939 290.126 192.917 290.695 192.914C291.069 192.913 291.301 193.126 291.332 193.475C291.424 194.49 291.507 195.507 291.591 196.523C291.629 196.967 291.663 197.412 291.692 197.857C291.78 199.22 292.376 200.298 293.515 201.047C294.204 201.501 294.889 201.979 295.631 202.325C299.146 203.967 302.822 204.797 306.722 204.423C309.57 204.15 312.151 203.176 314.461 201.486C316.662 199.877 317.984 197.677 318.661 195.069C319.165 193.125 319.204 191.168 318.748 189.2C318.176 186.736 316.781 184.963 314.464 183.937C313.292 183.418 312.062 183.13 310.796 182.966C307.712 182.567 304.625 182.188 301.545 181.758C299.533 181.477 297.531 181.118 295.644 180.308C295.411 180.207 295.174 180.119 294.938 180.023C291.02 178.435 288.819 175.411 287.842 171.397C286.447 165.666 289.021 158.641 294.737 155.022C297.127 153.509 299.722 152.514 302.485 151.952C306.012 151.234 309.547 151.293 313.093 151.819C315.742 152.212 318.316 152.87 320.796 153.89C321.148 154.035 321.501 154.178 321.847 154.338C322.552 154.662 322.638 154.823 322.559 155.687C322.409 157.337 322.225 158.983 322.108 160.635C322.022 161.842 322.027 163.055 321.978 164.264C321.968 164.515 321.921 164.769 321.853 165.009C321.823 165.111 321.708 165.233 321.608 165.263C320.923 165.462 320.231 165.416 319.544 165.27C319.443 165.248 319.315 165.122 319.287 165.02C319.22 164.78 319.184 164.526 319.176 164.275C319.134 163.129 319.051 161.98 319.087 160.836C319.134 159.351 318.48 158.283 317.352 157.416C316.693 156.911 316.017 156.447 315.264 156.094C311.583 154.371 307.747 153.762 303.763 154.655C299.239 155.668 296.175 158.367 294.89 162.9C294.327 164.885 294.277 166.922 294.715 168.957C295.067 170.593 295.901 171.889 297.303 172.812C298.541 173.627 299.905 174.146 301.333 174.474C302.693 174.787 304.069 175.037 305.448 175.251C307.329 175.54 309.222 175.757 311.107 176.028C312.614 176.244 314.113 176.517 315.622 176.726C317.15 176.936 318.577 177.457 319.975 178.067C323.099 179.43 325.06 181.86 325.942 185.094C326.914 188.659 326.542 192.168 324.986 195.531C324.01 197.64 322.603 199.433 320.938 201.035C317.685 204.163 313.81 206.089 309.428 207.026C308.381 207.249 307.324 207.425 306.178 207.642V207.644Z" fill="#FEF8FC"/>
<path d="M444.052 207.897C443.497 207.679 442.918 207.78 442.36 207.824C438.684 208.112 434.844 204.192 436.048 199.635C437.17 195.385 442.147 193.393 445.923 195.907C449.691 198.415 449.712 204.03 446.064 206.618C445.602 206.946 445.074 207.177 444.587 207.473C444.378 207.6 444.196 207.775 444.001 207.929L444.051 207.897H444.052ZM442.347 206.695C445.014 206.801 447.637 204.341 447.64 201.315C447.642 198.324 445.081 195.937 442.34 195.918C439.689 195.9 436.89 198.095 436.951 201.419C437.011 204.662 439.785 206.835 442.347 206.695Z" fill="#FEF8FC"/>
<path d="M444.424 201.5C444.471 201.629 444.485 201.769 444.559 201.857C445.13 202.537 445.234 203.338 445.198 204.184C445.178 204.658 444.926 204.957 444.297 204.791C444.138 204.749 443.927 204.585 443.894 204.441C443.795 204.011 443.792 203.56 443.712 203.124C443.652 202.798 443.438 202.553 443.149 202.394C442.624 202.107 442.059 202.054 441.494 202.22C441.353 202.261 441.187 202.476 441.17 202.627C441.103 203.193 441.112 203.768 441.048 204.335C441.029 204.49 440.881 204.671 440.742 204.762C440.514 204.91 439.966 204.838 439.841 204.693C439.8 204.646 439.756 204.591 439.741 204.533C439.694 204.352 439.629 204.168 439.628 203.985C439.621 202.141 439.62 200.297 439.631 198.454C439.634 197.937 439.8 197.717 440.279 197.687C441.353 197.617 442.429 197.574 443.498 197.779C445.203 198.107 445.805 199.64 444.787 201.073C444.677 201.227 444.543 201.362 444.425 201.501L444.424 201.5ZM441.118 199.525C441.118 199.96 441.11 200.15 441.12 200.339C441.137 200.697 441.366 200.95 441.681 200.975C442.184 201.013 442.684 201.029 443.17 200.844C443.491 200.722 443.753 200.368 443.784 199.966C443.814 199.55 443.613 199.149 443.313 199.008C442.725 198.731 442.116 198.624 441.48 198.789C441.373 198.816 441.242 198.928 441.211 199.03C441.138 199.267 441.119 199.521 441.118 199.527V199.525Z" fill="#FEF8FC"/>
</g>
<defs>
<clipPath id="clip0_105_88">
<rect width="450" height="340" fill="white" transform="translate(0.236816)"/>
</clipPath>
</defs>
</svg>
