<svg width="554" height="340" viewBox="0 0 554 340" fill="none" xmlns="http://www.w3.org/2000/svg">
<g clip-path="url(#clip0_105_84)">
<path d="M95.2484 115.247C94.0648 114.08 92.154 114.08 90.9704 115.247L74.7041 131.286L58.4375 115.247C57.2539 114.08 55.3431 114.08 54.1595 115.247L0.769315 167.891C-0.414316 169.058 -0.414316 170.942 0.769315 172.109L54.1595 224.753C55.3431 225.92 57.2539 225.92 58.4375 224.753L74.7041 208.714L90.9704 224.753C92.154 225.92 94.0648 225.92 95.2484 224.753L148.639 172.109C149.822 170.942 149.822 169.058 148.639 167.891L95.2484 115.247ZM140.091 172.109L95.2484 216.325C94.0648 217.492 92.154 217.492 90.9704 216.325L58.8856 184.689H58.9363L50.5749 176.444C50.4479 176.319 50.3126 176.194 50.1945 176.069L50.0592 175.935C48.6302 174.368 47.751 172.301 47.751 170.025C47.751 165.148 51.7584 161.197 56.7042 161.197C58.8771 161.197 60.8723 161.964 62.4197 163.239V163.256C62.5378 163.339 62.6648 163.423 62.8001 163.506L64.6432 165.323H64.6515L66.9511 167.599C68.1348 168.766 70.0455 168.766 71.2293 167.599C72.4128 166.432 72.4128 164.548 71.2293 163.381L67.5008 159.705C67.5008 159.705 67.4584 159.671 67.4416 159.646L67.1624 159.38H67.1541C64.457 156.804 60.7962 155.211 56.7551 155.195H56.7042C48.3934 155.195 41.6637 161.839 41.6637 170.025C41.6637 174.201 43.6759 178.203 46.6181 181.012L46.635 181.054L70.4344 204.521L58.446 216.342C57.2622 217.509 55.3516 217.509 54.1681 216.342L9.31682 172.109C8.13319 170.942 8.13319 169.058 9.31682 167.891L54.1595 123.683C55.3431 122.516 57.2539 122.516 58.4375 123.683L90.5222 155.32H90.4716L98.833 163.564C98.96 163.689 99.0953 163.815 99.2137 163.94L99.3487 164.073C100.778 165.64 101.657 167.708 101.657 169.983C101.657 174.86 97.6495 178.811 92.7037 178.811C90.5308 178.811 88.5356 178.045 86.9882 176.769H86.9713C86.8701 176.669 86.7431 176.594 86.6078 176.511L83.8686 173.81C83.8686 173.81 83.8517 173.801 83.8517 173.793L82.7357 172.693C81.5522 171.526 79.6413 171.526 78.4578 172.693C77.2742 173.86 77.2742 175.744 78.4578 176.911L81.9071 180.312C81.9071 180.312 81.9495 180.345 81.9663 180.37L82.2455 180.645H82.2538C84.9509 183.221 88.6116 184.814 92.6528 184.822H92.7037C101.014 184.822 107.744 178.186 107.744 169.992C107.744 165.815 105.732 161.814 102.79 159.005L102.773 158.963L78.9735 135.496L90.9618 123.675C92.1456 122.508 94.0563 122.508 95.24 123.675L140.083 167.891C141.266 169.058 141.266 170.942 140.083 172.109H140.091Z" fill="#FEF8FC"/>
<path d="M201.569 141.958C206.277 141.958 210.908 146.477 213.974 149.465C214.825 150.294 215.557 151.013 216.105 151.432L216.172 151.482H216.787V138.15H163.771V151.482H164.478L164.546 151.424C165.043 151.03 165.708 150.369 166.483 149.616C169.405 146.754 174.29 141.958 179.082 141.958H185.634V189.872C185.634 194.257 184.674 198.526 184.093 201.078C183.992 201.505 183.908 201.882 183.841 202.25V202.777H196.903V202.2C196.835 201.89 196.751 201.514 196.65 201.087C196.078 198.534 195.109 194.266 195.109 189.88V141.966H201.569V141.958Z" fill="#FEF8FC"/>
<path d="M269.314 158.614L269.331 158.697C270.039 160.798 270.755 165.786 268.979 171.176L261.338 193.43L253.692 170.557C251.931 165.393 252.132 160.656 252.538 158.622V158.011H238.313V158.706L238.364 158.773C239.88 160.898 242.162 165.167 243.855 169.937L235.972 193.522L228.241 170.565C226.481 165.401 226.683 160.664 227.087 158.63V158.019H212.862V158.714L212.913 158.781C214.454 160.94 216.753 165.275 218.438 170.113L230.144 202.778H236.511L245.826 175.52L255.586 202.778H262.222L274.105 167.527C275.176 164.405 276.617 161.484 278.376 158.865L278.418 158.798V158.019H269.299V158.63L269.314 158.614Z" fill="#FEF8FC"/>
<path d="M296.547 201.07C295.975 198.517 295.007 194.249 295.007 189.863V158.002H284.369V158.671C284.437 158.931 284.505 159.24 284.588 159.592C285.137 161.977 286.165 166.421 286.165 170.907L286.072 189.872C286.072 194.257 285.112 198.526 284.53 201.078C284.429 201.505 284.343 201.882 284.278 202.25V202.777H296.801V202.2C296.733 201.89 296.65 201.513 296.547 201.078V201.07Z" fill="#FEF8FC"/>
<path d="M290.181 148.369C293.693 148.369 296.439 145.674 296.439 142.234C296.439 138.794 293.635 136.191 290.181 136.191C286.727 136.191 283.923 138.962 283.923 142.234C283.923 145.506 286.727 148.369 290.181 148.369Z" fill="#FEF8FC"/>
<path d="M346.71 201.883C346.131 199.573 344.909 198.778 344.909 189.865V172.95C344.909 161.535 337.278 157.467 330.136 157.467C324.611 157.467 319.787 160.028 315.794 165.067V157.995H305.064V158.664C305.122 158.923 305.2 159.233 305.276 159.585C305.823 161.97 306.851 166.414 306.851 170.9V189.865C306.851 197.799 305.891 198.519 305.309 201.071C305.216 201.498 305.122 201.874 305.057 202.243V202.77H317.58V202.193C317.512 201.883 317.429 201.506 317.326 201.071C316.754 198.519 315.786 197.799 315.786 189.865V168.699C319.449 165.259 323.029 163.594 326.725 163.594C331.189 163.594 335.966 166.314 335.966 173.93V189.865C335.966 198.619 334.996 198.519 334.424 201.071C334.331 201.498 334.247 201.875 334.172 202.235V202.762H346.778V202.176L346.695 201.875H346.71V201.883Z" fill="#FEF8FC"/>
<path d="M373.221 175.645L372.107 175.277C365.598 173.135 361.295 171.72 361.295 167.427C361.295 164.38 363.93 161.091 369.724 161.091C374.627 161.091 379.35 164.113 385.029 170.883L385.104 170.975H385.752V161.3L385.6 161.233C380.59 158.873 374.853 157.467 370.256 157.467C360.242 157.467 353.513 162.69 353.513 170.456C353.513 175.771 355.946 179.671 368.379 183.872C376.118 186.5 379.763 188.224 379.763 192.71C379.763 196.217 377.153 199.757 371.334 199.757C364.799 199.757 359.357 194.108 354.777 188.802L354.699 188.71H353.969V199.104L354.12 199.171C360.123 201.983 365.892 203.465 370.802 203.465C382.965 203.465 387.276 196.033 387.276 189.672C387.276 181.922 381.65 178.449 373.211 175.629V175.645H373.221Z" fill="#FEF8FC"/>
<path d="M413.816 197.178C409.647 197.178 407.533 194.718 407.533 189.864L407.44 161.81H419.981V158.002H407.44V145.356H406.026L405.958 145.515C403.726 150.721 400.34 156.378 392.145 158.906L391.961 158.964V161.81H398.504V190.935C398.504 198.785 402.59 203.481 409.427 203.481C414.937 203.481 419.711 200.233 422.205 194.785L422.601 193.923L421.825 194.467C418.338 196.919 415.063 197.178 413.824 197.178H413.816Z" fill="#FEF8FC"/>
<path d="M467.222 197.907C465.594 198.485 464.314 198.468 463.423 197.84C462.428 197.146 461.924 195.723 461.924 193.605V171.351C461.924 162.664 455.835 157.475 445.627 157.475C440.573 157.475 434.139 158.814 427.974 161.141L427.805 161.208V171.703H428.463L428.538 171.603C430.839 168.581 439.512 161.2 445.181 161.2C449.94 161.2 452.895 165.058 452.895 171.268V176.632C451.859 176.365 450.705 176.147 449.61 175.996C441.777 174.666 434.315 176.197 429.649 180.114C426.568 182.692 424.944 186.098 424.944 189.965C424.944 196.643 429.954 203.397 439.538 203.397C446.78 203.397 451.043 199.631 453.096 197.079C453.897 200.878 456.633 203.046 460.684 203.046C463.937 203.046 466.539 201.355 467.642 198.518L467.675 198.435L467.474 197.832L467.229 197.924V197.907H467.222ZM452.895 179.796V193.338C450.275 196.451 447 198.158 443.657 198.158C438.391 198.158 434.416 194.292 434.416 189.153C434.416 186.383 435.623 183.864 437.812 182.072C440.127 180.173 443.344 179.202 447.143 179.202C448.71 179.202 450.368 179.369 452.104 179.704C452.381 179.771 452.658 179.796 452.895 179.796Z" fill="#FEF8FC"/>
<path d="M511.294 158.897L511.387 158.822V158.002H497.433V158.705L497.458 158.805C497.987 160.018 499.252 164.396 493.314 169.643L483.31 178.414L483.486 178.766L501.247 202.668L501.323 202.769H512.012V202.074L491.858 175.577L511.294 158.905V158.897Z" fill="#FEF8FC"/>
<path d="M483.804 201.071C483.232 198.518 482.262 194.25 482.262 189.864V136.066L473.099 137.355L471.003 137.665L471.197 138.234C472.013 140.226 473.235 145.047 473.235 150.16V189.873C473.235 194.258 472.275 198.526 471.693 201.079C471.593 201.506 471.507 201.882 471.442 202.251V202.778H484.048V202.2C483.98 201.891 483.897 201.514 483.796 201.079H483.804V201.071Z" fill="#FEF8FC"/>
<path d="M554.118 179.009C554.118 166.129 546.379 157.475 534.866 157.475C522.479 157.475 513.82 166.916 513.82 180.432C513.82 187.295 516.017 193.153 520.179 197.38C524.043 201.314 529.324 203.481 535.042 203.481C543.348 203.481 550.617 198.677 554 190.952L554.068 190.793L553.496 190.224L553.31 190.4C548.46 194.97 543.769 197.095 538.529 197.095C529.611 197.095 524.028 190.433 523.565 179.269H554.103V179.009H554.118ZM534.773 161.015C540.718 161.015 544.366 166.154 544.805 175.118L523.665 176.423C524.043 168.924 527.145 161.015 534.773 161.015Z" fill="#FEF8FC"/>
</g>
<defs>
<clipPath id="clip0_105_84">
<rect width="554" height="340" fill="white"/>
</clipPath>
</defs>
</svg>
