<svg width="349" height="340" viewBox="0 0 349 340" fill="none" xmlns="http://www.w3.org/2000/svg">
<g clip-path="url(#clip0_105_99)">
<path d="M0.935547 201.179V138.821H11.7145V192.181H40.3989V201.179H0.935547Z" fill="#FEF8FC"/>
<path d="M72.1163 202.337C54.389 202.337 42.2738 189.687 42.2738 170C42.2738 150.135 54.389 137.663 72.1163 137.663C89.9328 137.663 101.959 150.224 101.959 170C101.959 189.687 89.9328 202.337 72.1163 202.337ZM53.4982 170C53.4982 183.897 60.5357 193.072 72.1163 193.072C83.7861 193.072 90.7345 183.897 90.7345 170C90.7345 155.925 83.7861 146.928 72.1163 146.928C60.5357 146.928 53.4982 155.925 53.4982 170Z" fill="#FEF8FC"/>
<path d="M109.91 170.623V158.865H121.491V170.623H109.91ZM109.91 201.179V189.331H121.491V201.179H109.91Z" fill="#FEF8FC"/>
<path d="M144.148 201.179V147.818H124.282V138.821H174.97V147.818H155.016V201.179H144.148Z" fill="#FEF8FC"/>
<path d="M182.841 201.179V138.821H226.224V147.818H193.619V164.655H223.284V173.385H193.619V192.181H226.224V201.179H182.841Z" fill="#FEF8FC"/>
<path d="M261.569 202.337C244.732 202.337 232.617 189.687 232.617 170C232.617 150.313 244.911 137.663 261.569 137.663C277.337 137.663 286.601 147.462 288.026 160.735H276.802C275.288 152.54 270.032 146.928 261.569 146.928C250.612 146.928 243.931 156.37 243.931 170C243.931 183.54 250.79 193.072 261.569 193.072C270.032 193.072 276 187.46 277.336 178.997H288.561C286.156 194.676 275.644 202.337 261.569 202.337Z" fill="#FEF8FC"/>
<path d="M297.76 201.179V138.821H308.539V164.922H336.689V138.821H347.468V201.179H336.689V173.83H308.539V201.179H297.76Z" fill="#FEF8FC"/>
</g>
<defs>
<clipPath id="clip0_105_99">
<rect width="348" height="340" fill="white" transform="translate(0.467773)"/>
</clipPath>
</defs>
</svg>
