<svg width="571" height="340" viewBox="0 0 571 340" fill="none" xmlns="http://www.w3.org/2000/svg">
<path fill-rule="evenodd" clip-rule="evenodd" d="M68.9477 124.973C80.6043 124.973 90.0541 134.423 90.0541 146.079V193.921C90.054 205.577 80.6042 215.027 68.9477 215.027H21.1064C9.44976 215.027 7.53346e-05 205.577 0 193.921V146.079C0 134.423 9.44971 124.973 21.1064 124.973H68.9477ZM26.4594 138.206C24.2535 138.206 23.4264 140.976 25.0672 142.616L49.9014 167.451C50.6765 168.16 51.1593 168.93 51.177 169.945C51.1593 170.961 50.6766 171.732 49.9014 172.44L25.0672 197.275C23.4264 198.915 24.2535 201.685 26.4594 201.685C30.1076 201.69 33.7371 201.688 37.3728 201.687C39.1929 201.686 41.0148 201.685 42.8412 201.685C45.2305 201.685 46.6522 200.408 47.9288 199.131L70.3259 176.734C72.1129 174.947 73.7129 172.573 73.6912 169.945C73.7129 167.317 72.1129 164.944 70.3259 163.156L47.9288 140.759C46.6522 139.482 45.2304 138.206 42.8412 138.206C41.0148 138.206 39.1929 138.205 37.3728 138.204C33.7371 138.202 30.1076 138.201 26.4594 138.206Z" fill="#FEF8FC"/>
<path fill-rule="evenodd" clip-rule="evenodd" d="M231.378 158.077C236.36 158.077 240.139 159.88 242.802 162.973V160.739C242.802 159.451 243.575 158.678 244.863 158.678H251.477C252.765 158.678 253.538 159.451 253.538 160.739V195.442C253.538 206.781 246.066 215.026 232.409 215.026C226.139 215.026 220.813 212.879 217.12 209.443C216.089 208.498 216.261 207.468 217.291 206.523L221.157 203.258C222.102 202.4 223.047 202.485 224.077 203.258C226.826 205.492 229.832 206.008 232.409 206.008C236.102 206.008 242.802 203.946 242.802 195.442V193.981C240.139 196.988 236.36 198.878 231.378 198.878C220.555 198.878 212.74 190.202 212.74 178.434C212.74 166.666 220.555 158.077 231.378 158.077ZM232.924 168.126C226.997 168.126 223.132 172.508 223.132 178.434C223.132 184.361 226.997 188.742 232.924 188.742C238.851 188.742 242.802 184.361 242.802 178.434C242.802 172.507 238.851 168.126 232.924 168.126Z" fill="#FEF8FC"/>
<path fill-rule="evenodd" clip-rule="evenodd" d="M279.511 157.904C291.278 157.904 298.493 166.666 298.493 178.434V179.292C298.493 180.581 297.72 181.354 296.431 181.354H270.148C271.179 186.68 275.045 189.858 279.94 189.858C283.891 189.858 286.382 188.484 288.014 187.023C288.959 186.165 289.818 185.993 290.848 186.766L294.885 189.772C296.002 190.631 296.259 191.49 295.486 192.435C291.965 196.558 286.468 199.049 279.94 199.049C267.829 199.049 259.842 190.202 259.842 178.434C259.842 166.666 267.572 157.904 279.511 157.904ZM279.511 166.407C274.615 166.407 271.351 169.586 270.32 174.568H288.444C287.499 169.93 284.579 166.408 279.511 166.407Z" fill="#FEF8FC"/>
<path fill-rule="evenodd" clip-rule="evenodd" d="M524.829 157.904C536.596 157.904 543.807 166.666 543.807 178.434V179.292C543.807 180.581 543.036 181.354 541.746 181.354H515.466C516.494 186.68 520.359 189.858 525.257 189.858C529.208 189.858 531.698 188.484 533.331 187.023C534.278 186.165 535.135 185.993 536.168 186.766L540.205 189.772C541.318 190.631 541.575 191.491 540.804 192.435C537.281 196.558 531.783 199.049 525.257 199.049C513.148 199.049 505.155 190.202 505.155 178.434C505.155 166.666 512.885 157.904 524.829 157.904ZM524.829 166.407C519.931 166.408 516.665 169.586 515.637 174.568H533.759C532.817 169.93 529.893 166.407 524.829 166.407Z" fill="#FEF8FC"/>
<path fill-rule="evenodd" clip-rule="evenodd" d="M439.62 158.077C444.601 158.077 448.294 159.88 450.957 162.887V160.739C450.957 159.451 451.73 158.678 453.019 158.678H459.633C460.921 158.678 461.694 159.451 461.694 160.739V196.13C461.694 197.417 460.921 198.19 459.633 198.19H453.019C451.731 198.19 450.957 197.417 450.957 196.13V194.068C448.294 197.074 444.601 198.878 439.62 198.878C428.797 198.878 420.895 190.202 420.895 178.434C420.895 166.495 428.797 158.077 439.62 158.077ZM441.166 168.126C435.239 168.126 431.288 172.508 431.288 178.434C431.288 184.361 435.239 188.742 441.166 188.742C447.092 188.742 450.957 184.361 450.957 178.434C450.957 172.507 447.092 168.126 441.166 168.126Z" fill="#FEF8FC"/>
<path fill-rule="evenodd" clip-rule="evenodd" d="M144.221 142.357C152.81 142.357 160.454 147.941 160.454 158.077C160.454 163.402 158.393 167.01 155.215 169.243C159.51 171.648 162.516 175.857 162.516 182.042C162.516 192.178 154.356 198.191 145.767 198.191H120.257C118.968 198.191 118.196 197.417 118.196 196.129V144.419C118.196 143.13 118.968 142.357 120.257 142.357H144.221ZM129.275 188.055H143.963C148.429 188.055 151.092 184.963 151.092 181.097C151.092 177.232 148.258 174.14 143.963 174.139H129.275V188.055ZM129.275 164.948H142.417C146.454 164.948 149.031 162.543 149.031 158.678C149.031 154.813 146.454 152.493 142.417 152.493H129.275V164.948Z" fill="#FEF8FC"/>
<path d="M354.375 142.357C355.577 142.357 356.436 142.958 356.78 144.075L368.032 177.919L379.198 144.075C379.541 142.958 380.314 142.357 381.517 142.357H386.069C387.271 142.357 388.131 142.958 388.474 144.075L399.383 176.544L410.205 144.075C410.549 142.958 411.408 142.357 412.61 142.357H420.083C421.543 142.357 422.23 143.302 421.8 144.676L404.536 196.473C404.192 197.589 403.333 198.191 402.131 198.191H396.205C395.002 198.191 394.143 197.589 393.799 196.473L383.493 165.292L373.186 196.473C372.842 197.589 371.982 198.191 370.78 198.191H364.853C363.651 198.191 362.792 197.589 362.449 196.473L345.184 144.676C344.755 143.302 345.442 142.357 346.903 142.357H354.375Z" fill="#FEF8FC"/>
<path d="M478.216 142.357C479.505 142.357 480.277 143.13 480.277 144.419L480.192 196.129C480.192 197.417 479.419 198.191 478.13 198.191H471.517C470.228 198.191 469.455 197.417 469.455 196.129V144.419C469.455 143.13 470.228 142.357 471.517 142.357H478.216Z" fill="#FEF8FC"/>
<path d="M496.797 142.357C498.087 142.357 498.858 143.13 498.858 144.419L498.772 196.129C498.772 197.417 498.001 198.191 496.711 198.191H490.098C488.81 198.191 488.037 197.417 488.037 196.129V144.419C488.037 143.13 488.81 142.357 490.098 142.357H496.797Z" fill="#FEF8FC"/>
<path d="M177.591 158.678C178.879 158.678 179.652 159.45 179.652 160.739L179.566 196.128C179.566 197.417 178.793 198.19 177.505 198.19H170.891C169.603 198.19 168.83 197.417 168.83 196.128V160.739C168.83 159.45 169.603 158.678 170.891 158.678H177.591Z" fill="#FEF8FC"/>
<path d="M199.155 146.566C200.444 146.566 201.217 147.339 201.217 148.628V158.678H207.572C208.861 158.678 209.633 159.451 209.633 160.739V164.777C209.633 166.065 208.861 166.838 207.572 166.838H201.217V185.048C201.217 189.687 204.05 189.858 206.541 189.858H207.143C208.431 189.858 209.204 190.632 209.204 191.92V196.129C209.204 197.417 208.431 198.19 207.143 198.19H202.075C194.173 198.19 190.48 194.068 190.48 186.766V166.838H187.387C186.099 166.838 185.326 166.065 185.326 164.777V160.739C185.326 159.451 186.099 158.678 187.387 158.678H190.48V148.628C190.48 147.339 191.253 146.566 192.541 146.566H199.155Z" fill="#FEF8FC"/>
<path d="M315.206 146.566C316.494 146.566 317.267 147.339 317.267 148.628V158.678H323.624C324.912 158.678 325.685 159.451 325.685 160.739V164.777C325.685 166.065 324.911 166.838 323.624 166.838H317.267V185.048C317.268 189.687 320.102 189.858 322.593 189.858H323.194C324.482 189.858 325.255 190.632 325.255 191.92V196.129C325.255 197.417 324.482 198.19 323.194 198.19H318.126C310.224 198.19 306.531 194.068 306.531 186.766V166.838H303.439C302.151 166.838 301.378 166.065 301.377 164.777V160.739C301.377 159.451 302.151 158.678 303.439 158.678H306.531V148.628C306.531 147.339 307.304 146.566 308.592 146.566H315.206Z" fill="#FEF8FC"/>
<path d="M560.524 146.566C561.814 146.566 562.584 147.339 562.584 148.628V158.678H568.939C570.229 158.678 571 159.451 571 160.739V164.777C571 166.065 570.229 166.838 568.939 166.838H562.584V185.048C562.584 189.687 565.416 189.858 567.911 189.858H568.511C569.801 189.858 570.572 190.632 570.572 191.92V196.129C570.572 197.417 569.801 198.19 568.511 198.19H563.441C555.539 198.19 551.846 194.068 551.846 186.766V166.838H548.757C547.467 166.838 546.696 166.065 546.696 164.777V160.739C546.696 159.451 547.466 158.678 548.757 158.678H551.846V148.628C551.846 147.339 552.622 146.566 553.907 146.566H560.524Z" fill="#FEF8FC"/>
<path d="M174.241 141.154C177.076 141.154 180.168 143.13 180.168 146.823C180.168 150.603 177.076 152.836 174.241 152.836C171.321 152.836 168.314 150.603 168.314 146.823C168.314 143.13 171.321 141.154 174.241 141.154Z" fill="#FEF8FC"/>
</svg>
