<svg width="515" height="340" viewBox="0 0 515 340" fill="none" xmlns="http://www.w3.org/2000/svg">
<g clip-path="url(#clip0_105_95)">
<path d="M271.952 157.595C273.749 157.685 275.545 157.727 277.343 157.766C281.029 157.848 284.71 157.986 288.392 158.164C288.566 163.346 288.697 168.527 288.777 173.711C288.815 176.119 288.867 178.525 288.952 180.932C289.593 199.4 289.593 199.4 286.001 203.434C282.573 206.801 277.814 207.042 273.239 207.048C271.507 207.023 269.78 206.948 268.051 206.857C266.425 206.772 264.799 206.733 263.172 206.696C259.835 206.619 256.505 206.483 253.172 206.322C253.172 202.843 253.172 199.364 253.172 195.78C254.596 195.774 256.021 195.767 257.488 195.761C258.39 195.755 259.292 195.749 260.194 195.741C261.626 195.73 263.058 195.719 264.489 195.715C265.644 195.711 266.798 195.703 267.952 195.692C268.393 195.688 268.833 195.686 269.274 195.686C269.891 195.685 270.507 195.679 271.124 195.671C271.306 195.672 271.489 195.673 271.677 195.675C272.499 195.658 272.976 195.6 273.649 195.111C274.194 194.326 274.178 193.53 274.196 192.605C274.203 192.427 274.21 192.248 274.218 192.064C274.234 191.626 274.246 191.187 274.256 190.748C274.118 190.881 273.981 191.014 273.839 191.151C272.214 192.6 270.961 193.009 268.812 193.13C268.378 193.16 268.378 193.16 267.935 193.19C262.994 193.458 257.383 193.707 253.384 190.345C249.635 186.833 249.064 182.174 248.884 177.281C248.871 176.866 248.859 176.45 248.849 176.033C248.83 175.423 248.799 174.815 248.766 174.205C248.54 169.34 249.497 165.245 252.843 161.564C257.874 156.358 265.3 157.256 271.952 157.595ZM263.954 170.623C263.73 171.365 263.717 172.053 263.731 172.824C263.729 173.03 263.728 173.237 263.726 173.449C263.725 173.884 263.728 174.318 263.735 174.752C263.744 175.413 263.735 176.073 263.724 176.734C263.725 177.158 263.727 177.582 263.731 178.005C263.727 178.201 263.724 178.397 263.721 178.598C263.752 179.712 263.949 180.338 264.712 181.168C265.97 182.274 267.228 182.139 268.835 182.108C269.118 182.117 269.401 182.125 269.692 182.134C271.045 182.127 272.214 181.996 273.373 181.263C274.622 179.973 274.472 178.324 274.462 176.633C274.445 175.867 274.418 175.102 274.391 174.337C274.38 173.814 274.37 173.292 274.361 172.77C274.338 171.495 274.302 170.22 274.256 168.946C273.058 168.904 271.861 168.874 270.663 168.854C270.256 168.845 269.849 168.834 269.442 168.819C268.855 168.799 268.269 168.789 267.681 168.782C267.411 168.769 267.411 168.769 267.136 168.756C265.637 168.755 264.751 169.353 263.954 170.623Z" fill="#FEF8FC"/>
<path d="M488.69 149.3C493.354 149.3 498.019 149.3 502.825 149.3C502.825 152.225 502.825 155.151 502.825 158.165C506.462 158.165 510.099 158.165 513.847 158.165C513.847 161.485 513.847 164.806 513.847 168.227C510.21 168.227 506.573 168.227 502.825 168.227C502.849 170.061 502.873 171.895 502.901 173.729C502.911 174.353 502.919 174.977 502.927 175.601C502.937 176.497 502.951 177.393 502.966 178.288C502.97 178.709 502.97 178.709 502.974 179.138C502.981 179.527 502.981 179.527 502.989 179.923C502.993 180.266 502.993 180.266 502.998 180.616C503.014 181.212 503.014 181.212 503.544 181.644C504.038 181.724 504.038 181.724 504.61 181.721C504.831 181.726 505.052 181.73 505.279 181.735C505.517 181.738 505.756 181.741 506.002 181.744C506.368 181.751 506.368 181.751 506.741 181.758C507.522 181.772 508.304 181.783 509.085 181.794C509.614 181.803 510.142 181.813 510.671 181.822C511.969 181.846 513.267 181.865 514.565 181.884C514.565 185.442 514.565 189 514.565 192.666C495.964 193.891 495.964 193.891 491.991 190.969C489.292 188.597 488.587 185.792 488.346 182.322C488.076 177.62 488.316 172.917 488.69 168.227C486.755 168.22 484.82 168.221 482.885 168.234C481.986 168.24 481.088 168.243 480.189 168.238C479.32 168.234 478.452 168.238 477.584 168.247C477.254 168.25 476.924 168.249 476.593 168.245C476.129 168.241 475.664 168.247 475.199 168.255C474.935 168.255 474.671 168.256 474.399 168.256C473.208 168.569 472.426 169.167 471.679 170.144C471.421 170.904 471.421 171.604 471.439 172.402C471.437 172.622 471.434 172.842 471.431 173.068C471.425 173.791 471.432 174.512 471.439 175.234C471.437 175.737 471.435 176.24 471.431 176.742C471.424 178.061 471.429 179.38 471.436 180.699C471.442 182.284 471.434 183.869 471.428 185.453C471.421 187.858 471.432 190.261 471.439 192.666C466.774 192.666 462.11 192.666 457.303 192.666C457.303 181.28 457.303 169.895 457.303 158.165C461.098 158.165 464.894 158.165 468.804 158.165C468.804 159.034 468.804 159.904 468.804 160.8C469.963 160.496 470.504 160.112 471.295 159.226C472.839 157.79 474.4 157.888 476.383 157.954C476.739 157.958 477.095 157.961 477.452 157.963C478.383 157.971 479.313 157.993 480.243 158.017C481.363 158.043 482.484 158.052 483.604 158.065C485.3 158.086 486.994 158.127 488.69 158.165C488.69 155.239 488.69 152.314 488.69 149.3Z" fill="#FEF8FC"/>
<path d="M366.259 145.227C370.924 145.227 375.589 145.227 380.395 145.227C380.474 150.05 380.553 154.873 380.634 159.842C381.267 159.288 381.899 158.735 382.551 158.165C383.274 157.91 383.274 157.91 383.963 157.849C384.225 157.824 384.488 157.799 384.758 157.773C385.038 157.756 385.317 157.74 385.605 157.723C385.9 157.703 386.196 157.683 386.5 157.662C391.481 157.39 397.255 157.087 401.284 160.485C405.019 163.998 405.586 168.663 405.766 173.548C405.779 173.964 405.791 174.38 405.802 174.796C405.821 175.407 405.852 176.015 405.885 176.625C406.111 181.49 405.154 185.585 401.807 189.265C398.58 192.605 394.922 193.333 390.432 193.428C387.314 193.468 384.215 193.306 381.099 193.16C376.202 192.997 371.304 192.834 366.259 192.666C366.259 177.011 366.259 161.356 366.259 145.227ZM380.395 170.623C380.146 171.508 380.17 172.337 380.208 173.25C380.21 173.498 380.213 173.746 380.216 174.001C380.227 174.787 380.251 175.572 380.275 176.358C380.285 176.893 380.293 177.428 380.301 177.963C380.322 179.27 380.354 180.577 380.395 181.884C381.592 181.926 382.79 181.956 383.988 181.976C384.395 181.985 384.802 181.996 385.208 182.011C385.796 182.031 386.382 182.04 386.97 182.048C387.24 182.061 387.24 182.061 387.515 182.074C388.569 182.075 389.173 181.875 389.973 181.173C390.859 180.17 390.943 179.307 390.92 178.006C390.922 177.799 390.923 177.593 390.925 177.38C390.926 176.946 390.923 176.512 390.916 176.078C390.907 175.416 390.916 174.757 390.926 174.095C390.925 173.672 390.923 173.248 390.92 172.825C390.925 172.531 390.925 172.531 390.93 172.231C390.899 171.12 390.702 170.491 389.942 169.661C389.135 168.951 388.55 168.731 387.456 168.723C387.168 168.721 386.879 168.719 386.582 168.717C386.284 168.723 385.987 168.73 385.681 168.737C385.236 168.727 385.236 168.727 384.783 168.717C384.349 168.72 384.349 168.72 383.907 168.723C383.517 168.726 383.517 168.726 383.118 168.729C381.921 169.051 381.125 169.617 380.395 170.623Z" fill="#FEF8FC"/>
<path d="M57.7986 113.057C58.0558 113.056 58.0558 113.056 58.3182 113.054C58.8871 113.051 59.4561 113.051 60.025 113.052C60.4353 113.05 60.8456 113.049 61.2559 113.047C62.3668 113.043 63.4777 113.042 64.5886 113.041C65.2841 113.041 65.9795 113.04 66.675 113.039C69.1054 113.034 71.5358 113.032 73.9662 113.033C76.2248 113.033 78.4834 113.028 80.7421 113.02C82.6865 113.014 84.631 113.011 86.5755 113.012C87.7344 113.012 88.8933 113.01 90.0523 113.005C91.1438 113.001 92.2351 113.001 93.3266 113.004C93.7247 113.005 94.1228 113.004 94.5209 113.001C98.8547 112.971 102.504 113.92 105.765 116.97C108.362 119.646 109.726 123.327 111.312 126.646C112.308 128.733 113.322 130.811 114.338 132.888C114.748 133.729 115.158 134.57 115.569 135.41C116.264 136.835 116.959 138.259 117.655 139.683C121.077 146.683 121.077 146.683 122.701 150.183C122.807 150.409 122.913 150.635 123.022 150.868C124.54 154.176 124.878 157.817 123.632 161.288C122.154 164.593 119.705 167.158 116.328 168.536C114.603 169.13 113.007 169.454 111.178 169.459C111.023 169.459 110.869 169.46 110.71 169.461C110.197 169.463 109.683 169.463 109.17 169.464C108.8 169.465 108.43 169.466 108.06 169.467C107.058 169.47 106.055 169.472 105.053 169.473C104.425 169.474 103.797 169.475 103.169 169.476C101.201 169.479 99.2326 169.481 97.2642 169.482C94.9999 169.483 92.7356 169.488 90.4714 169.495C88.7163 169.5 86.9613 169.502 85.2063 169.502C84.1605 169.503 83.1147 169.504 82.0689 169.508C81.083 169.512 80.0972 169.513 79.1114 169.511C78.7524 169.511 78.3934 169.512 78.0345 169.514C73.3516 169.543 68.8009 168.614 65.0942 165.592C64.8953 165.432 64.6964 165.272 64.4915 165.107C62.4298 163.355 60.8769 161.341 59.7019 158.913C59.5336 158.571 59.3653 158.229 59.1968 157.888C59.1056 157.702 59.0144 157.516 58.9204 157.325C58.3711 156.212 57.8114 155.103 57.2534 153.994C56.9991 153.488 56.7448 152.982 56.4905 152.476C56.3593 152.214 56.2281 151.953 56.0929 151.684C55.2406 149.986 54.3894 148.288 53.5382 146.59C52.7933 145.104 52.0479 143.618 51.3012 142.133C50.5738 140.686 49.8479 139.238 49.1229 137.79C48.8478 137.241 48.5722 136.693 48.2961 136.144C47.9107 135.379 47.5271 134.612 47.1439 133.846C47.0307 133.622 46.9176 133.398 46.801 133.168C45.0239 129.597 44.3061 125.875 45.4394 121.948C46.772 118.292 49.3022 115.777 52.7853 114.125C54.4343 113.381 55.997 113.062 57.7986 113.057ZM51.7202 121.557C50.5216 123.256 50.0024 124.945 50.2396 127.018C50.7752 129.031 51.6226 130.882 52.5558 132.736C52.6888 133.004 52.8218 133.272 52.9588 133.548C53.3198 134.275 53.6824 135 54.046 135.725C54.351 136.334 54.6547 136.943 54.9585 137.553C55.6757 138.991 56.3948 140.429 57.1153 141.865C57.8553 143.341 58.5921 144.819 59.3273 146.297C59.9621 147.573 60.5987 148.848 61.2369 150.122C61.6165 150.88 61.9955 151.639 62.3727 152.398C62.7935 153.245 63.2183 154.09 63.6434 154.935C63.7658 155.182 63.8882 155.43 64.0143 155.685C65.8321 159.274 68.4091 162.065 72.2819 163.435C74.5563 164.105 76.7185 164.258 79.0772 164.247C79.4349 164.248 79.7926 164.249 80.1504 164.251C81.1122 164.254 82.0739 164.253 83.0357 164.251C84.0472 164.249 85.0588 164.25 86.0703 164.252C87.7675 164.253 89.4645 164.251 91.1616 164.248C93.1186 164.244 95.0755 164.245 97.0325 164.249C98.7194 164.252 100.406 164.253 102.093 164.251C103.098 164.25 104.102 164.25 105.107 164.252C106.051 164.254 106.995 164.253 107.939 164.249C108.284 164.248 108.629 164.248 108.974 164.249C111.971 164.262 114.551 163.901 116.824 161.818C118.233 160.334 119.024 158.693 119.137 156.637C118.972 153.666 117.004 150.722 115.708 148.087C115.504 147.671 115.301 147.256 115.098 146.841C114.683 145.993 114.268 145.145 113.852 144.297C113.051 142.661 112.256 141.023 111.461 139.385C111.048 138.533 110.635 137.682 110.221 136.83C110.138 136.659 110.055 136.488 109.97 136.312C108.998 134.311 108.025 132.311 107.052 130.311C106.856 129.91 106.661 129.508 106.465 129.107C105.936 128.017 105.404 126.929 104.871 125.841C104.632 125.351 104.394 124.859 104.158 124.366C104.012 124.066 103.866 123.767 103.72 123.467C103.595 123.209 103.471 122.951 103.342 122.685C102.161 120.584 100.264 119.226 97.9864 118.501C97.2526 118.355 96.5525 118.36 95.8042 118.357C95.6399 118.356 95.4756 118.355 95.3063 118.354C94.7559 118.352 94.2054 118.351 93.655 118.35C93.2602 118.348 92.8654 118.347 92.4707 118.345C91.174 118.34 89.8773 118.338 88.5806 118.335C88.1336 118.334 87.6866 118.333 87.2396 118.332C85.1386 118.328 83.0377 118.324 80.9368 118.322C78.5152 118.32 76.0936 118.314 73.672 118.304C71.7982 118.297 69.9243 118.293 68.0505 118.292C66.9324 118.292 65.8143 118.29 64.6962 118.284C63.6431 118.278 62.5901 118.277 61.537 118.28C61.1521 118.28 60.7673 118.278 60.3824 118.275C56.9737 118.247 54.004 118.788 51.7202 121.557Z" fill="#FEF8FC"/>
<path d="M75.201 177.953C75.6114 177.952 76.0218 177.95 76.4322 177.949C77.5401 177.944 78.648 177.944 79.7559 177.946C80.684 177.947 81.6122 177.945 82.5403 177.944C84.7318 177.94 86.9233 177.941 89.1148 177.943C91.3682 177.946 93.6215 177.943 95.8748 177.936C97.8163 177.931 99.7577 177.93 101.699 177.931C102.856 177.932 104.012 177.931 105.169 177.927C106.257 177.923 107.346 177.924 108.434 177.929C108.831 177.93 109.228 177.929 109.625 177.926C114.053 177.9 117.539 178.928 120.841 182.023C123.253 184.532 124.307 187.317 124.348 190.749C124.355 190.934 124.362 191.12 124.369 191.311C124.404 194.646 122.75 197.54 121.263 200.422C120.898 201.137 120.533 201.853 120.169 202.569C120.075 202.754 119.981 202.938 119.884 203.129C119.16 204.557 118.464 205.998 117.777 207.444C116.333 210.48 114.853 213.498 113.357 216.508C112.947 217.334 112.537 218.161 112.131 218.989C111.728 219.809 111.322 220.628 110.914 221.445C110.763 221.751 110.612 222.057 110.462 222.363C107.823 227.761 104.085 231.484 98.4639 233.589C95.8966 234.377 93.241 234.426 90.5787 234.424C90.2139 234.425 89.849 234.427 89.4842 234.428C88.5025 234.433 87.5209 234.434 86.5392 234.434C85.9235 234.434 85.3079 234.436 84.6922 234.437C82.5378 234.441 80.3834 234.443 78.2289 234.443C76.2311 234.443 74.2334 234.448 72.2357 234.455C70.5113 234.461 68.787 234.464 67.0627 234.464C66.0368 234.464 65.011 234.465 63.9852 234.47C63.0193 234.475 62.0536 234.475 61.0878 234.471C60.7366 234.471 60.3855 234.472 60.0344 234.475C55.747 234.508 51.7729 233.583 48.5777 230.565C45.9748 227.809 44.8169 224.452 44.908 220.697C45.0767 217.275 46.9015 214.335 48.4339 211.358C48.966 210.313 49.4693 209.255 49.9703 208.194C51.5151 204.939 53.1056 201.706 54.6904 198.47C55.7487 196.309 56.8055 194.147 57.8515 191.98C57.9391 191.799 58.0266 191.618 58.1168 191.431C58.519 190.598 58.9204 189.765 59.3206 188.931C61.5881 184.22 63.9134 180.474 69.0019 178.561C71.0566 177.929 73.0757 177.947 75.201 177.953ZM66.557 186.739C65.6577 187.908 65.053 189.212 64.4206 190.539C64.2738 190.84 64.1268 191.142 63.9794 191.443C63.548 192.327 63.1229 193.215 62.6985 194.103C62.4874 194.542 62.2762 194.982 62.0649 195.422C61.7636 196.05 61.4631 196.679 61.164 197.309C60.1425 199.458 59.0992 201.597 58.0548 203.735C57.7425 204.374 57.4305 205.014 57.1185 205.653C56.2215 207.492 55.3239 209.33 54.4224 211.167C54.0726 211.88 53.7238 212.594 53.3751 213.308C53.2148 213.636 53.0539 213.963 52.8926 214.291C50.4843 218.789 50.4843 218.789 50.4944 223.692C51.2909 225.815 52.801 227.334 54.7921 228.364C56.829 229.145 58.8391 229.186 60.9946 229.176C61.3459 229.177 61.6973 229.178 62.0487 229.18C62.9957 229.183 63.9427 229.182 64.8897 229.18C65.8861 229.178 66.8825 229.179 67.8789 229.181C69.5523 229.182 71.2257 229.18 72.8991 229.177C74.8258 229.173 76.7525 229.174 78.6792 229.178C80.3408 229.181 82.0025 229.182 83.6642 229.18C84.6533 229.179 85.6424 229.179 86.6315 229.181C87.5628 229.183 88.4939 229.182 89.4251 229.177C89.7641 229.177 90.103 229.177 90.442 229.178C94.9465 229.198 98.8012 228.25 102.164 225.131C103.554 223.604 104.548 221.965 105.48 220.128C105.603 219.89 105.725 219.652 105.851 219.407C106.244 218.64 106.634 217.872 107.023 217.104C107.152 216.848 107.282 216.592 107.416 216.328C107.81 215.549 108.203 214.769 108.595 213.989C108.768 213.645 108.768 213.645 108.944 213.294C109.656 211.868 110.348 210.434 111.032 208.995C112.088 206.774 113.164 204.565 114.271 202.369C114.396 202.122 114.52 201.875 114.648 201.621C115.156 200.614 115.665 199.607 116.175 198.601C116.555 197.851 116.933 197.1 117.311 196.349C117.426 196.123 117.541 195.898 117.66 195.665C118.78 193.433 119.504 191.229 118.846 188.714C117.99 186.59 116.323 184.842 114.272 183.835C112.433 183.124 110.527 183.218 108.588 183.224C108.19 183.223 107.792 183.221 107.394 183.22C106.319 183.215 105.244 183.215 104.169 183.217C103.269 183.218 102.37 183.216 101.47 183.215C99.3468 183.211 97.2236 183.212 95.1004 183.214C92.9142 183.217 90.7282 183.214 88.542 183.207C86.6609 183.202 84.7797 183.2 82.8985 183.202C81.7768 183.203 80.6552 183.202 79.5335 183.198C78.4784 183.194 77.4234 183.195 76.3683 183.2C75.9826 183.201 75.5968 183.2 75.2111 183.197C71.558 183.175 69.0155 183.938 66.557 186.739Z" fill="#FEF8FC"/>
<path d="M429.3 157.134C430.578 157.179 431.842 157.152 433.12 157.107C438.052 156.957 442.228 157.33 446.045 160.705C448.718 163.248 450.947 165.909 451.128 169.726C451.119 170.894 450.987 171.982 450.85 173.154C450.687 175.165 450.524 177.176 450.356 179.248C442.133 179.248 433.91 179.248 425.438 179.248C425.643 180.987 425.643 180.987 426.677 182.09C427.475 182.588 428.251 182.563 429.17 182.548C429.371 182.551 429.572 182.553 429.78 182.556C430.441 182.563 431.102 182.559 431.763 182.556C432.223 182.559 432.683 182.562 433.143 182.566C434.35 182.574 435.558 182.575 436.766 182.573C438.216 182.573 439.667 182.583 441.117 182.592C443.318 182.603 445.519 182.602 447.72 182.603C447.72 185.923 447.72 189.244 447.72 192.665C444.14 192.846 440.561 192.991 436.977 193.075C435.312 193.115 433.65 193.17 431.987 193.262C419.688 193.924 419.688 193.924 415.422 190.277C412.299 187.324 410.437 183.912 410.223 179.589C410.202 178.594 410.227 177.606 410.272 176.612C410.317 175.609 410.29 174.622 410.244 173.62C410.069 169.086 411.017 165.549 414.091 162.119C418.469 157.537 423.191 156.916 429.3 157.134ZM426.045 168.435C425.209 169.606 425.209 169.606 425.438 172.061C428.996 172.061 432.554 172.061 436.22 172.061C436.449 169.606 436.449 169.606 435.613 168.435C434.388 167.404 432.858 167.497 431.335 167.529C430.829 167.538 430.326 167.53 429.821 167.519C427.791 167.509 427.791 167.509 426.045 168.435Z" fill="#FEF8FC"/>
<path d="M337.777 157.134C339.054 157.179 340.319 157.152 341.596 157.107C346.528 156.957 350.704 157.33 354.522 160.705C357.194 163.248 359.424 165.909 359.604 169.726C359.595 170.894 359.463 171.982 359.326 173.154C359.163 175.165 359 177.176 358.832 179.248C350.609 179.248 342.387 179.248 333.915 179.248C334.12 180.987 334.12 180.987 335.154 182.09C335.952 182.588 336.728 182.563 337.646 182.548C337.848 182.551 338.049 182.553 338.256 182.556C338.917 182.563 339.578 182.559 340.239 182.556C340.699 182.559 341.159 182.562 341.619 182.566C342.827 182.574 344.034 182.575 345.242 182.573C346.693 182.573 348.143 182.583 349.594 182.592C351.795 182.603 353.995 182.602 356.197 182.603C356.197 185.923 356.197 189.244 356.197 192.665C352.616 192.846 349.038 192.991 345.454 193.075C343.789 193.115 342.126 193.17 340.463 193.262C328.164 193.924 328.164 193.924 323.899 190.277C320.776 187.324 318.914 183.912 318.7 179.589C318.678 178.594 318.703 177.606 318.748 176.612C318.793 175.609 318.766 174.622 318.721 173.62C318.546 169.086 319.494 165.549 322.568 162.119C326.946 157.537 331.667 156.916 337.777 157.134ZM334.521 168.435C333.685 169.606 333.685 169.606 333.915 172.061C337.473 172.061 341.03 172.061 344.696 172.061C344.926 169.606 344.926 169.606 344.09 168.435C342.864 167.404 341.334 167.497 339.811 167.529C339.306 167.538 338.803 167.53 338.297 167.519C336.268 167.509 336.268 167.509 334.521 168.435Z" fill="#FEF8FC"/>
<path d="M176.293 157.134C177.571 157.179 178.835 157.152 180.112 157.107C185.044 156.957 189.221 157.33 193.038 160.705C195.71 163.248 197.94 165.909 198.12 169.726C198.111 170.894 197.979 171.982 197.842 173.154C197.679 175.165 197.516 177.176 197.348 179.248C189.126 179.248 180.903 179.248 172.431 179.248C172.636 180.987 172.636 180.987 173.67 182.09C174.468 182.588 175.244 182.563 176.163 182.548C176.364 182.551 176.565 182.553 176.772 182.556C177.434 182.563 178.094 182.559 178.756 182.556C179.216 182.559 179.675 182.562 180.135 182.566C181.343 182.574 182.551 182.575 183.758 182.573C185.209 182.573 186.659 182.583 188.11 182.592C190.311 182.603 192.512 182.602 194.713 182.603C194.713 185.923 194.713 189.244 194.713 192.665C191.132 192.846 187.554 192.991 183.97 193.075C182.305 193.115 180.643 193.17 178.979 193.262C166.68 193.924 166.68 193.924 162.415 190.277C159.292 187.324 157.43 183.912 157.216 179.589C157.195 178.594 157.219 177.606 157.264 176.612C157.31 175.609 157.283 174.622 157.237 173.62C157.062 169.086 158.01 165.549 161.084 162.119C165.462 157.537 170.183 156.916 176.293 157.134ZM173.037 168.435C172.201 169.606 172.201 169.606 172.431 172.061C175.989 172.061 179.547 172.061 183.212 172.061C183.442 169.606 183.442 169.606 182.606 168.435C181.381 167.404 179.85 167.497 178.328 167.529C177.822 167.538 177.319 167.53 176.814 167.519C174.784 167.509 174.784 167.509 173.037 168.435Z" fill="#FEF8FC"/>
<path d="M204.296 158.164C208.091 158.164 211.886 158.164 215.796 158.164C215.796 159.034 215.796 159.904 215.796 160.8C216.946 160.496 217.509 160.111 218.307 159.242C219.773 157.88 221.115 157.769 223.062 157.693C223.225 157.685 223.388 157.678 223.556 157.67C224.423 157.633 225.29 157.608 226.159 157.594C226.862 157.58 227.557 157.544 228.258 157.486C232.2 157.165 235.453 157.65 238.639 160.152C241.731 162.794 243.195 165.527 243.519 169.591C243.676 172.615 243.543 175.632 243.38 178.652C243.289 180.515 243.256 182.38 243.213 184.245C243.142 187.056 243 189.854 242.87 192.665C238.205 192.665 233.54 192.665 228.734 192.665C228.728 191.051 228.722 189.436 228.716 187.772C228.71 186.75 228.703 185.728 228.696 184.706C228.684 183.084 228.674 181.461 228.669 179.838C228.666 178.53 228.657 177.222 228.646 175.914C228.642 175.415 228.641 174.915 228.64 174.416C228.64 173.717 228.633 173.019 228.625 172.32C228.627 172.113 228.628 171.906 228.629 171.692C228.61 170.534 228.61 170.534 228.052 169.537C226.932 168.773 225.429 169.019 224.122 169.021C223.656 169.006 223.656 169.006 223.18 168.991C222.877 168.99 222.574 168.989 222.262 168.988C221.987 168.985 221.712 168.983 221.428 168.98C220.427 169.225 219.803 169.477 219.055 170.192C218.119 171.828 218.413 173.967 218.432 175.796C218.43 176.282 218.427 176.769 218.424 177.255C218.417 178.532 218.422 179.808 218.429 181.085C218.435 182.618 218.427 184.152 218.421 185.686C218.414 188.012 218.424 190.338 218.432 192.665C213.767 192.665 209.102 192.665 204.296 192.665C204.296 181.28 204.296 169.895 204.296 158.164Z" fill="#FEF8FC"/>
<path d="M36.6156 134.048C39.9669 136.853 41.6067 141.3 43.5263 145.137C43.8 145.683 44.0737 146.228 44.3475 146.774C44.9182 147.913 45.4881 149.052 46.0576 150.191C46.7116 151.499 47.3677 152.806 48.0248 154.113C48.6628 155.382 49.2986 156.652 49.9337 157.922C50.2016 158.458 50.4701 158.993 50.7392 159.527C53.4244 164.864 55.4923 169.683 54.5072 175.774C54.4831 175.933 54.4589 176.092 54.434 176.256C53.8532 179.493 52.0081 182.524 50.5689 185.448C50.4544 185.681 50.3399 185.914 50.2219 186.154C49.5025 187.618 48.781 189.081 48.0581 190.543C47.6555 191.357 47.2533 192.172 46.8515 192.986C45.8298 195.058 44.8062 197.128 43.7785 199.196C43.3096 200.14 42.8414 201.084 42.3752 202.029C41.9309 202.93 41.4842 203.829 41.0357 204.727C40.8701 205.06 40.7052 205.393 40.5413 205.727C38.4938 209.891 36.0545 212.881 31.5739 214.477C28.2043 215.45 24.6866 215.174 21.5636 213.585C17.8385 211.398 16.2263 207.881 14.3459 204.166C14.0565 203.598 13.7666 203.03 13.4767 202.462C13.2876 202.092 13.0986 201.721 12.9097 201.351C12.2506 200.058 11.5822 198.77 10.9018 197.487C9.90571 195.607 8.92794 193.718 7.95184 191.827C6.93978 189.867 5.92585 187.908 4.89707 185.957C4.8047 185.781 4.71234 185.606 4.61718 185.424C4.10074 184.443 3.57874 183.465 3.05241 182.489C2.81375 182.043 2.5751 181.597 2.33645 181.15C2.22596 180.948 2.11547 180.745 2.00163 180.537C0.150814 177.06 -0.295815 173.427 0.609714 169.59C1.06372 168.127 1.75511 166.821 2.47789 165.478C2.84949 164.781 3.21054 164.079 3.5709 163.377C5.00319 160.586 6.46408 157.814 7.97594 155.066C8.82792 153.514 9.65298 151.95 10.4675 150.378C11.5155 148.357 12.585 146.35 13.6836 144.356C14.3279 143.186 14.9604 142.012 15.5775 140.827C15.7791 140.444 15.7791 140.444 15.9847 140.053C16.2406 139.567 16.494 139.078 16.7441 138.588C18.4471 135.369 20.9102 133.029 24.3638 131.81C28.5811 130.566 33.1121 131.43 36.6156 134.048ZM23.1658 138.758C21.8768 140.251 21.0226 141.946 20.141 143.699C19.845 144.281 19.5476 144.861 19.25 145.442C19.1389 145.659 19.1389 145.659 19.0256 145.881C18.3426 147.213 17.6293 148.528 16.9065 149.839C15.9349 151.604 14.9885 153.38 14.0614 155.17C13.124 156.979 12.1672 158.775 11.1863 160.56C9.70719 163.254 8.27836 165.973 6.87369 168.706C6.78005 168.887 6.68641 169.068 6.58993 169.254C5.44633 171.492 5.12416 173.572 5.85917 176.028C6.80724 178.465 8.14069 180.762 9.36236 183.069C9.97514 184.229 10.5805 185.393 11.1863 186.556C11.4259 187.015 11.6655 187.474 11.9051 187.934C16.2177 196.199 16.2177 196.199 16.5774 196.889C16.8156 197.346 17.0541 197.802 17.2927 198.258C17.9149 199.448 18.5325 200.64 19.1433 201.836C19.2703 202.083 19.3972 202.331 19.528 202.585C19.769 203.054 20.0087 203.525 20.2467 203.995C21.5668 206.558 22.9264 208.444 25.6815 209.527C27.7652 209.899 29.7395 209.739 31.5992 208.649C33.3667 207.39 34.5318 205.819 35.4701 203.881C35.5628 203.695 35.6556 203.508 35.7512 203.316C36.0456 202.722 36.3367 202.126 36.6278 201.53C36.818 201.146 37.0085 200.762 37.1992 200.377C38.1149 198.527 39.0137 196.668 39.8992 194.803C41.0256 192.432 42.1834 190.078 43.3663 187.734C43.5182 187.433 43.6701 187.132 43.822 186.83C44.4415 185.602 45.0615 184.374 45.6844 183.147C46.0728 182.382 46.4593 181.616 46.8446 180.849C47.0581 180.425 47.2736 180.003 47.4892 179.581C49.2674 176.036 50.1282 172.461 48.9895 168.543C48.6393 167.506 48.1517 166.538 47.6695 165.558C47.5471 165.306 47.4247 165.055 47.2986 164.795C46.9301 164.039 46.5597 163.284 46.1885 162.53C45.9071 161.958 45.6264 161.385 45.3458 160.813C44.0991 158.271 42.8458 155.732 41.5855 153.196C40.9736 151.965 40.3633 150.733 39.7564 149.499C39.16 148.287 38.5598 147.076 37.9569 145.867C37.7306 145.411 37.5057 144.955 37.2821 144.498C35.0671 139.897 35.0671 139.897 30.9712 137.042C28.1644 136.128 25.2801 136.639 23.1658 138.758Z" fill="#FEF8FC"/>
<path d="M291.028 145.227C297.985 145.227 304.943 145.227 312.112 145.227C312.112 160.882 312.112 176.536 312.112 192.666C307.447 192.666 302.782 192.666 297.976 192.666C297.976 180.252 297.976 167.839 297.976 155.05C295.683 155.05 293.39 155.05 291.028 155.05C291.028 151.808 291.028 148.567 291.028 145.227Z" fill="#FEF8FC"/>
</g>
<defs>
<clipPath id="clip0_105_95">
<rect width="514" height="340" fill="white" transform="translate(0.56543)"/>
</clipPath>
</defs>
</svg>
