<svg width="477" height="340" viewBox="0 0 477 340" fill="none" xmlns="http://www.w3.org/2000/svg">
<g clip-path="url(#clip0_2470_6)">
<mask id="mask0_2470_6" style="mask-type:luminance" maskUnits="userSpaceOnUse" x="0" y="133" width="477" height="74">
<path d="M477 133H0V206.872H477V133Z" fill="white"/>
</mask>
<g mask="url(#mask0_2470_6)">
<path d="M79.0615 190.396L65.9415 204.363C65.6601 204.664 65.3121 204.907 64.9345 205.076C64.5495 205.245 64.1422 205.326 63.7202 205.326H1.52589C1.22973 205.326 0.940969 205.238 0.689229 205.076C0.437491 204.914 0.244984 204.686 0.126519 204.414C0.00805386 204.142 -0.0289664 203.848 0.0228622 203.554C0.0746908 203.26 0.207964 202.996 0.407875 202.775L13.5131 188.808C13.7945 188.507 14.1425 188.264 14.52 188.095C14.9051 187.926 15.3123 187.845 15.7343 187.845H77.9287C78.2248 187.845 78.521 187.919 78.7728 188.081C79.0243 188.242 79.2244 188.47 79.3428 188.742C79.4612 189.014 79.4984 189.315 79.4465 189.61C79.3945 189.904 79.2614 190.176 79.0541 190.389L79.0615 190.396ZM65.9415 162.264C65.6601 161.962 65.3121 161.72 64.9345 161.558C64.5495 161.389 64.1422 161.308 63.7202 161.301H1.52589C1.22973 161.301 0.940969 161.389 0.689229 161.551C0.437491 161.713 0.244984 161.94 0.126519 162.212C0.00805386 162.484 -0.0289664 162.778 0.0228622 163.072C0.0746908 163.366 0.207964 163.631 0.407875 163.852L13.5131 177.826C13.7945 178.127 14.1425 178.37 14.52 178.531C14.9051 178.701 15.3123 178.782 15.7343 178.789H77.9287C78.2248 178.789 78.5136 178.701 78.758 178.539C79.0022 178.377 79.2021 178.149 79.3133 177.877C79.4317 177.605 79.4686 177.311 79.4169 177.017C79.365 176.731 79.2318 176.459 79.0319 176.245L65.9341 162.271L65.9415 162.264ZM1.52589 152.23H63.7202C64.1348 152.23 64.5495 152.142 64.9345 151.98C65.3195 151.811 65.6601 151.576 65.9415 151.267L79.0615 137.3C79.2688 137.087 79.4021 136.815 79.4538 136.521C79.5058 136.227 79.4686 135.925 79.3502 135.653C79.2318 135.381 79.0319 135.153 78.7801 134.992C78.5283 134.83 78.2322 134.749 77.9361 134.757H15.7343C15.3197 134.757 14.9051 134.845 14.52 135.006C14.1351 135.176 13.7945 135.411 13.5131 135.719L0.407875 149.686C0.207964 149.9 0.0746908 150.172 0.0228622 150.466C-0.0289664 150.752 0.00805386 151.054 0.126519 151.326C0.244984 151.598 0.437491 151.825 0.689229 151.987C0.940969 152.149 1.22973 152.237 1.52589 152.237V152.23Z" fill="#FEF8FC"/>
<path d="M154.887 164.599H121.613V153.719H163.535V142.84H121.502C120.065 142.833 118.644 143.105 117.311 143.641C115.978 144.178 114.771 144.972 113.75 145.979C112.728 146.979 111.913 148.177 111.358 149.485C110.803 150.801 110.507 152.212 110.507 153.639V164.665C110.507 166.091 110.803 167.503 111.358 168.818C111.913 170.134 112.728 171.332 113.75 172.332C114.771 173.339 115.978 174.133 117.311 174.67C118.644 175.206 120.065 175.486 121.502 175.478H154.82V186.358H111.299V197.237H154.887C156.323 197.245 157.745 196.973 159.077 196.436C160.41 195.899 161.617 195.106 162.639 194.098C163.66 193.099 164.475 191.901 165.03 190.592C165.586 189.276 165.882 187.865 165.882 186.439V175.412C165.882 173.986 165.586 172.575 165.03 171.259C164.475 169.943 163.66 168.745 162.639 167.745C161.617 166.738 160.41 165.944 159.077 165.407C157.745 164.871 156.323 164.591 154.887 164.599Z" fill="#FEF8FC"/>
<path d="M219.348 142.84H185.948C184.512 142.826 183.083 143.098 181.75 143.634C180.418 144.171 179.203 144.965 178.182 145.965C177.16 146.964 176.345 148.163 175.783 149.478C175.227 150.794 174.931 152.206 174.924 153.639V186.439C174.924 187.865 175.22 189.277 175.783 190.6C176.338 191.916 177.152 193.106 178.182 194.114C179.203 195.113 180.418 195.907 181.75 196.444C183.083 196.98 184.512 197.252 185.948 197.238H219.348C220.784 197.245 222.206 196.973 223.538 196.436C224.872 195.9 226.079 195.106 227.101 194.099C228.122 193.099 228.937 191.901 229.492 190.592C230.047 189.277 230.336 187.865 230.343 186.439V153.639C230.336 152.213 230.047 150.802 229.492 149.486C228.937 148.17 228.122 146.979 227.101 145.979C226.079 144.98 224.872 144.186 223.538 143.642C222.206 143.105 220.784 142.833 219.348 142.84ZM219.266 186.358H186.03V153.72H219.251L219.266 186.358Z" fill="#FEF8FC"/>
<path d="M336.334 142.839H303.756C302.319 142.832 300.898 143.104 299.564 143.64C298.233 144.177 297.025 144.971 296.004 145.978C294.982 146.978 294.168 148.176 293.612 149.484C293.057 150.8 292.768 152.212 292.76 153.638V197.236H303.866V179.366H336.296V197.236H347.402V153.638C347.395 152.204 347.1 150.793 346.543 149.47C345.981 148.154 345.166 146.956 344.136 145.948C343.109 144.941 341.887 144.155 340.553 143.618C339.215 143.082 337.784 142.817 336.34 142.839H336.334ZM336.251 168.487H303.822V153.718H336.251V168.487Z" fill="#FEF8FC"/>
<path d="M466.012 142.84H433.435C431.997 142.833 430.577 143.105 429.243 143.641C427.911 144.178 426.704 144.972 425.683 145.979C424.661 146.979 423.846 148.177 423.291 149.485C422.736 150.801 422.441 152.212 422.432 153.639V197.237H433.538V179.367H465.894V197.237H477V153.639C476.994 152.212 476.705 150.801 476.141 149.485C475.586 148.169 474.771 146.979 473.75 145.979C472.728 144.979 471.521 144.185 470.189 143.641C468.855 143.105 467.435 142.833 465.997 142.84H466.012ZM465.902 168.488H433.473V153.719H465.902V168.488Z" fill="#FEF8FC"/>
<path d="M401.486 186.358H397.044L381.161 147.397C380.621 146.052 379.682 144.898 378.474 144.089C377.267 143.281 375.838 142.84 374.38 142.84H364.525C363.569 142.84 362.615 143.016 361.733 143.376C360.844 143.737 360.038 144.266 359.356 144.935C358.675 145.604 358.134 146.398 357.765 147.272C357.396 148.147 357.201 149.088 357.195 150.044V197.237H368.301V153.719H372.744L388.618 192.68C389.173 194.017 390.112 195.172 391.328 195.973C392.542 196.781 393.971 197.208 395.429 197.208H405.283C406.24 197.208 407.194 197.031 408.076 196.671C408.964 196.311 409.771 195.782 410.452 195.113C411.134 194.444 411.674 193.65 412.044 192.775C412.415 191.9 412.607 190.959 412.614 190.004V142.84H401.486V186.358Z" fill="#FEF8FC"/>
<path d="M251.257 142.84H240.148V186.438C240.148 187.865 240.446 189.283 241.007 190.599C241.571 191.915 242.386 193.113 243.407 194.113C244.429 195.113 245.642 195.906 246.983 196.443C248.317 196.98 249.745 197.252 251.181 197.237H284.499V186.358H251.257V142.84Z" fill="#FEF8FC"/>
</g>
</g>
<defs>
<clipPath id="clip0_2470_6">
<rect width="477" height="73.8717" fill="white" transform="translate(0 133)"/>
</clipPath>
</defs>
</svg>
