<svg width="287" height="340" viewBox="0 0 287 340" fill="none" xmlns="http://www.w3.org/2000/svg">
<mask id="mask0_2475_3304" style="mask-type:luminance" maskUnits="userSpaceOnUse" x="2" y="124" width="284" height="92">
<path d="M285.464 124H2V215.758H285.464V124Z" fill="white"/>
</mask>
<g mask="url(#mask0_2475_3304)">
<path d="M124.836 214.433H101.872L116.234 125.609H139.195L124.836 214.433Z" fill="#151515"/>
<path d="M208.076 127.782C203.547 125.984 196.363 124 187.481 124C164.806 124 148.835 136.094 148.739 153.386C148.551 166.144 160.172 173.23 168.864 177.484C177.746 181.83 180.767 184.667 180.767 188.542C180.677 194.492 173.588 197.235 166.977 197.235C157.81 197.235 152.898 195.821 145.432 192.511L142.409 191.091L139.195 211.03C144.58 213.484 154.502 215.662 164.806 215.758C188.899 215.758 204.585 203.85 204.771 185.423C204.863 175.312 198.725 167.564 185.495 161.233C177.464 157.169 172.546 154.428 172.546 150.27C172.64 146.49 176.707 142.618 185.771 142.618C193.237 142.428 198.723 144.223 202.877 146.019L204.955 146.962L208.076 127.782Z" fill="#151515"/>
<path d="M238.596 182.966C240.487 177.863 247.763 158.114 247.763 158.114C247.667 158.303 249.65 152.917 250.784 149.61L252.388 157.264C252.388 157.264 256.737 178.525 257.681 182.966C254.093 182.966 243.131 182.966 238.596 182.966ZM266.94 125.609H249.179C243.7 125.609 239.539 127.214 237.177 132.979L203.067 214.432H227.163C227.163 214.432 231.129 203.469 231.981 201.108C234.625 201.108 258.064 201.108 261.463 201.108C262.122 204.226 264.204 214.432 264.204 214.432H285.465L266.94 125.609Z" fill="#151515"/>
<path d="M82.6927 125.609L60.2046 186.179L57.7473 173.894C53.5897 159.72 40.5508 144.32 26 136.663L46.5981 214.339H70.8804L106.974 125.609H82.6927Z" fill="#151515"/>
<path d="M39.3225 125.609H2.37802L2 127.404C30.819 134.775 49.9055 152.543 57.747 173.898L49.7157 133.076C48.3936 127.403 44.3301 125.796 39.3225 125.609Z" fill="#151515"/>
</g>
</svg>
