<svg width="342" height="340" viewBox="0 0 342 340" fill="none" xmlns="http://www.w3.org/2000/svg">
<path d="M71.4955 166.047C70.5424 165.984 69.6698 165.881 68.7951 165.879C61.7121 165.866 54.6291 165.872 47.5462 165.87C46.875 165.87 46.2039 165.857 45.535 165.839C44.564 165.814 43.9666 165.341 43.96 164.346C43.9377 161.219 43.9354 158.09 43.9554 154.964C43.9623 153.998 44.5103 153.451 45.4769 153.372C46.0697 153.325 46.6671 153.312 47.2642 153.312C58.3743 153.31 69.4818 153.305 80.5919 153.312C83.7686 153.312 84.0974 153.529 84.2764 156.649C84.6904 163.912 84.3972 171.064 81.2876 177.874C77.7975 185.518 72.4931 191.445 65.2245 195.634C49.1258 204.907 26.908 202.037 13.3238 188.551C6.95449 182.228 2.45338 174.909 0.840218 166.06C-1.46847 153.408 0.896266 141.681 8.98147 131.507C15.6617 123.102 24.1786 117.259 34.8523 115.009C45.2398 112.818 55.1863 114.164 64.4817 119.354C67.0658 120.795 69.4081 122.679 71.8176 124.422C72.4552 124.883 72.9251 125.574 73.5268 126.217C73.133 126.774 72.8869 127.232 72.5379 127.589C70.6118 129.563 68.6832 131.532 66.7122 133.463C65.3587 134.79 64.9918 134.786 63.513 133.541C57.0655 128.11 49.6269 126.269 41.2731 126.704C27.7492 127.411 15.5408 139.547 13.5878 152.941C11.3193 168.499 20.89 184.293 37.6265 187.782C47.9064 189.926 57.1616 187.438 65.0657 180.449C68.3856 177.512 71.8712 170.595 71.4955 166.047Z" fill="#151515"/>
<path d="M251.04 194.977C250.346 195.565 249.804 196.023 249.263 196.482C245.243 199.888 240.584 201.271 235.363 200.827C230.764 200.433 226.42 199.253 222.546 196.629C207.488 186.431 205.91 167.284 216.072 154.974C221.298 148.642 227.907 145.079 236.179 144.92C241.195 144.824 245.733 146.291 249.6 149.587C250.044 149.965 250.507 150.318 251.313 150.968C251.405 149.94 251.465 149.254 251.528 148.566C251.665 147.062 251.994 146.713 253.443 146.706C256.122 146.697 258.802 146.72 261.483 146.74C262.917 146.751 263.269 147.097 263.371 148.606C263.415 149.274 263.388 149.947 263.388 150.618C263.388 164.995 263.388 179.371 263.388 193.748C263.388 196.35 263.542 198.96 263.35 201.546C262.917 207.353 260.744 212.545 257.141 217.086C254.078 220.944 249.994 223.465 245.285 224.687C237.019 226.835 229.02 226.386 221.763 221.274C217.979 218.608 215.035 215.191 212.87 211.105C212.04 209.536 212.186 208.986 213.734 208.298C216.253 207.181 218.816 206.161 221.35 205.068C222.477 204.583 223.09 205.019 223.728 205.978C224.755 207.516 225.861 209.025 227.109 210.388C231.889 215.611 241.093 215.75 246.289 211.355C247.452 210.372 248.415 209.053 249.192 207.726C251.294 204.128 251.721 200.147 251.44 196.064C251.421 195.793 251.246 195.536 251.032 194.98L251.04 194.977ZM252.097 172.99C252.307 170.361 251.73 167.628 250.515 165.011C246.121 155.541 235.398 154.473 228.887 159.408C222.069 164.575 219.858 174.744 225.247 182.853C227.068 185.593 229.478 187.68 232.671 188.657C238.388 190.407 243.576 189.683 247.813 185.088C250.896 181.744 252.299 177.782 252.097 172.99Z" fill="#151515"/>
<path d="M304.337 181.35C305.863 186.074 311.624 189.977 318.263 189.371C322.949 188.944 326.808 186.973 329.75 183.258C330.827 181.897 331.048 181.862 332.498 182.823C335.036 184.503 337.545 186.226 340.226 188.041C339.897 188.687 339.718 189.25 339.376 189.68C335.007 195.133 329.646 199.033 322.63 200.387C312.424 202.359 303.744 199.484 296.64 192.037C292.742 187.95 290.471 182.954 289.714 177.32C288.51 168.362 290.465 160.269 296.584 153.457C301.27 148.243 307.148 145.386 314.241 145.069C320.096 144.808 325.516 145.981 330.244 149.575C334.167 152.559 337.113 156.36 339.22 160.81C339.695 161.818 340.141 162.846 340.551 163.883C341.324 165.848 341.21 166.114 339.322 166.914C337.538 167.669 335.746 168.405 333.955 169.14C324.928 172.843 315.896 176.54 306.869 180.243C306.054 180.579 305.252 180.95 304.337 181.35ZM325.853 161.659C325.322 159.798 324.188 158.747 322.817 157.996C318.263 155.498 313.614 155.571 309.234 158.24C304.64 161.038 301.987 165.182 301.956 170.736C301.956 170.91 302.177 171.087 302.418 171.449C310.234 168.293 318.048 165.15 325.853 161.659Z" fill="#151515"/>
<path d="M205.116 173.057C205.589 187.658 193.764 200.891 177.149 200.922C160.511 200.954 148.725 187.579 148.967 172.487C149.217 156.723 162.497 144.835 177.378 144.956C191.451 145.07 205.641 156.533 205.116 173.057ZM161.695 172.92C161.436 176.758 162.63 180.264 165.002 183.416C171.044 191.437 183.048 191.486 189.08 183.496C192.941 178.38 193.618 172.65 191.518 166.796C187.39 155.288 173.786 153.339 166.45 160.733C163.13 164.079 161.463 168.059 161.695 172.92Z" fill="#151515"/>
<path d="M88.3117 172.913C87.7972 156.761 101.764 144.949 116.397 144.956C130.615 144.963 144.539 156.426 144.459 173.036C144.392 186.853 133.823 200.934 116.142 200.895C99.831 200.86 87.8285 187.861 88.3117 172.913ZM131.767 173.001C131.722 172.035 131.731 171.065 131.613 170.109C131.514 169.302 131.299 168.504 131.08 167.717C128.214 157.392 116.203 153.073 107.471 159.224C98.5826 165.484 98.4976 179.791 107.31 186.437C113.393 191.026 122.053 190.315 127.212 184.759C130.281 181.456 131.87 177.551 131.767 173.001Z" fill="#151515"/>
<path d="M271.334 158.342C271.334 145.757 271.332 133.172 271.334 120.587C271.334 117.364 271.363 117.342 274.568 117.335C276.951 117.33 279.339 117.304 281.723 117.351C283.64 117.389 283.89 117.675 283.965 119.577C283.986 120.097 283.971 120.618 283.971 121.141C283.971 145.938 283.971 170.738 283.971 195.535C283.971 198.014 282.748 199.255 280.3 199.258C278.139 199.258 275.976 199.285 273.815 199.247C271.646 199.209 271.359 198.941 271.348 196.769C271.319 190.96 271.336 185.151 271.336 179.342C271.336 172.342 271.334 165.342 271.334 158.342Z" fill="#151515"/>
</svg>
