<svg width="592" height="340" viewBox="0 0 592 340" fill="none" xmlns="http://www.w3.org/2000/svg">
<path d="M136.732 181.582C133.513 181.582 130.523 181.25 127.781 180.596C125.04 179.933 122.648 178.996 120.615 177.756C118.582 176.526 116.991 174.994 115.859 173.17C114.727 171.335 114.157 169.227 114.157 166.826C114.157 166.582 114.157 166.348 114.157 166.104C114.157 165.86 114.185 165.655 114.24 165.469H126.549C126.549 165.587 126.549 165.723 126.549 165.88C126.549 166.026 126.549 166.163 126.549 166.289C126.604 167.734 127.11 168.905 128.076 169.803C129.032 170.7 130.311 171.344 131.893 171.735C133.475 172.125 135.15 172.321 136.897 172.321C138.535 172.321 140.136 172.203 141.69 171.959C143.245 171.716 144.551 171.237 145.591 170.515C146.64 169.793 147.164 168.837 147.164 167.636C147.164 166.133 146.538 165.031 145.296 164.308C144.055 163.586 142.344 163.021 140.164 162.601C137.983 162.181 135.536 161.703 132.823 161.156C130.559 160.736 128.398 160.2 126.328 159.536C124.267 158.872 122.409 158.023 120.771 156.969C119.134 155.915 117.828 154.569 116.871 152.919C115.905 151.27 115.427 149.211 115.427 146.752C115.427 144.175 115.96 141.95 117.037 140.086C118.113 138.222 119.64 136.7 121.618 135.5C123.596 134.299 125.932 133.411 128.618 132.845C131.305 132.279 134.203 131.986 137.312 131.986C140.2 131.986 142.914 132.269 145.463 132.845C148.01 133.411 150.218 134.26 152.076 135.363C153.943 136.476 155.425 137.871 156.528 139.55C157.632 141.228 158.185 143.121 158.185 145.22C158.185 145.581 158.185 145.913 158.185 146.205C158.185 146.508 158.157 146.742 158.101 146.928H145.802V146.293C145.802 145.151 145.417 144.224 144.652 143.502C143.889 142.78 142.84 142.224 141.516 141.834C140.182 141.443 138.673 141.248 136.971 141.248C136.125 141.248 135.16 141.306 134.083 141.423C133.006 141.54 131.977 141.755 130.982 142.058C129.989 142.361 129.198 142.78 128.609 143.316C128.02 143.854 127.717 144.546 127.717 145.385C127.717 146.469 128.25 147.318 129.327 147.952C130.403 148.587 131.829 149.074 133.613 149.436C135.398 149.797 137.33 150.187 139.427 150.607C141.801 151.143 144.183 151.7 146.556 152.275C148.93 152.842 151.11 153.613 153.088 154.569C155.066 155.525 156.621 156.911 157.752 158.707C158.883 160.502 159.444 162.913 159.444 165.909C159.444 168.788 158.893 171.237 157.788 173.247C156.685 175.258 155.12 176.878 153.078 178.108C151.046 179.337 148.636 180.225 145.866 180.762C143.126 181.309 140.071 181.582 136.732 181.582Z" fill="#151515"/>
<path d="M184.829 181.583C179.512 181.583 175.4 180.139 172.483 177.26C169.568 174.381 168.115 169.853 168.115 163.665V133.149H180.506V161.499C180.506 163.246 180.699 164.7 181.103 165.861C181.499 167.032 182.098 167.979 182.888 168.701C183.68 169.423 184.627 169.95 185.731 170.272C186.835 170.594 188.095 170.77 189.503 170.77C191.535 170.77 193.394 170.292 195.059 169.326C196.724 168.369 198.067 167.032 199.088 165.324C200.109 163.617 200.615 161.675 200.615 159.518V133.139H213.089V180.49H202.905L201.976 173.288H201.379C200.017 175.152 198.49 176.694 196.798 177.923C195.095 179.153 193.219 180.071 191.158 180.666C189.088 181.281 186.982 181.583 184.829 181.583Z" fill="#151515"/>
<path d="M224.301 133.15H234.402L235.506 139.991H236.104C237.861 137.113 240.078 135.073 242.765 133.873C245.45 132.672 248.375 132.077 251.549 132.077C255.68 132.077 259.258 132.945 262.284 134.692C265.311 136.43 267.647 139.133 269.286 142.792C270.922 146.452 271.741 151.137 271.741 156.836C271.741 162.417 270.904 167.043 269.24 170.703C267.575 174.363 265.265 177.095 262.322 178.891C259.378 180.687 255.928 181.594 251.973 181.594C249.995 181.594 248.082 181.35 246.241 180.872C244.401 180.394 242.719 179.652 241.191 178.666C239.664 177.681 238.357 176.461 237.29 175.016H236.784V196.984H224.301V133.15ZM247.98 170.869C250.529 170.869 252.617 170.371 254.263 169.386C255.9 168.4 257.115 166.897 257.915 164.887C258.706 162.876 259.101 160.495 259.101 157.733V155.937C259.101 153.059 258.706 150.629 257.915 148.648C257.124 146.667 255.91 145.183 254.263 144.188C252.617 143.202 250.501 142.705 247.897 142.705C245.469 142.705 243.409 143.241 241.742 144.324C240.078 145.408 238.8 146.95 237.925 148.96C237.043 150.97 236.61 153.361 236.61 156.114V157.372C236.61 159.412 236.868 161.286 237.374 162.993C237.879 164.701 238.605 166.145 239.536 167.316C240.464 168.488 241.624 169.376 243.012 169.971C244.401 170.576 246.058 170.869 247.98 170.869Z" fill="#151515"/>
<path d="M304.215 181.585C298.842 181.585 294.271 180.697 290.508 178.931C286.746 177.164 283.876 174.442 281.898 170.782C279.921 167.123 278.926 162.467 278.926 156.827C278.926 151.186 279.911 146.531 281.898 142.871C283.876 139.212 286.718 136.499 290.426 134.723C294.133 132.956 298.613 132.068 303.875 132.068C309.027 132.068 313.395 132.937 316.983 134.683C320.571 136.42 323.293 139.075 325.124 142.647C326.964 146.219 327.884 150.698 327.884 156.104V159.794H291.741C291.852 162.555 292.394 164.849 293.35 166.683C294.307 168.518 295.715 169.855 297.555 170.694C299.395 171.533 301.666 171.953 304.39 171.953C305.742 171.953 307.048 171.787 308.29 171.456C309.532 171.124 310.663 170.616 311.685 169.923C312.705 169.231 313.552 168.381 314.233 167.357C314.914 166.342 315.281 165.171 315.337 163.844H327.812C327.812 166.605 327.23 169.094 326.073 171.319C324.913 173.544 323.313 175.398 321.279 176.901C319.246 178.404 316.781 179.556 313.892 180.365C311.004 181.176 307.785 181.585 304.215 181.585ZM291.916 151.606H314.821C314.821 149.927 314.555 148.453 314.012 147.195C313.469 145.936 312.725 144.882 311.768 144.042C310.802 143.203 309.671 142.588 308.373 142.198C307.075 141.807 305.631 141.612 304.049 141.612C301.621 141.612 299.542 141.983 297.813 142.735C296.084 143.486 294.74 144.608 293.783 146.111C292.817 147.624 292.191 149.449 291.916 151.606Z" fill="#151515"/>
<path d="M337.055 133.148H347.239L348.259 140.887H348.858C349.419 139.267 350.247 137.764 351.314 136.389C352.391 135.012 353.706 133.929 355.261 133.148C356.815 132.368 358.581 131.977 360.568 131.977C361.589 131.977 362.518 132.065 363.365 132.251C364.212 132.426 364.947 132.641 365.572 132.885V144.41H360.652C358.728 144.41 357.072 144.723 355.684 145.357C354.294 145.991 353.135 146.889 352.206 148.06C351.277 149.231 350.596 150.597 350.173 152.159C349.749 153.72 349.538 155.487 349.538 157.468V180.509H337.055V133.148Z" fill="#151515"/>
<path d="M388.398 181.581C385.289 181.581 382.74 181.074 380.763 180.049C378.785 179.034 377.323 177.512 376.393 175.501C375.464 173.491 374.995 170.983 374.995 167.987V143.053H368.123V133.147H375.501L377.875 119.377H387.46V133.147H397.468V143.053H387.46V166.094C387.46 167.889 387.809 169.256 388.518 170.193C389.227 171.12 390.569 171.588 392.548 171.588H397.468V180.137C396.732 180.381 395.832 180.605 394.755 180.81C393.679 181.015 392.574 181.201 391.443 181.347C390.321 181.503 389.309 181.581 388.398 181.581Z" fill="#151515"/>
<path d="M429.124 181.585C423.753 181.585 419.18 180.697 415.419 178.931C411.655 177.164 408.784 174.442 406.805 170.782C404.831 167.123 403.838 162.467 403.838 156.827C403.838 151.186 404.831 146.531 406.805 142.871C408.784 139.212 411.627 136.499 415.335 134.723C419.044 132.956 423.521 132.068 428.783 132.068C433.925 132.068 438.306 132.937 441.891 134.683C445.483 136.42 448.202 139.075 450.044 142.647C451.887 146.219 452.804 150.698 452.804 156.104V159.794H416.661C416.769 162.555 417.314 164.849 418.271 166.683C419.228 168.518 420.634 169.855 422.472 170.694C424.314 171.533 426.585 171.953 429.308 171.953C430.669 171.953 431.967 171.787 433.208 171.456C434.45 171.124 435.583 170.616 436.604 169.923C437.626 169.231 438.471 168.381 439.151 167.357C439.832 166.342 440.201 165.171 440.257 163.844H452.728C452.728 166.605 452.151 169.094 450.989 171.319C449.832 173.544 448.23 175.398 446.2 176.901C444.165 178.404 441.698 179.556 438.819 180.365C435.912 181.176 432.684 181.585 429.124 181.585ZM416.817 151.606H439.732C439.732 149.927 439.464 148.453 438.923 147.195C438.387 145.936 437.634 144.882 436.677 144.042C435.711 143.203 434.578 142.588 433.281 142.198C431.975 141.807 430.541 141.612 428.959 141.612C426.529 141.612 424.45 141.983 422.72 142.735C420.994 143.486 419.648 144.608 418.691 146.111C417.726 147.624 417.101 149.449 416.817 151.606Z" fill="#151515"/>
<path d="M476.055 181.583C474.077 181.583 472.098 181.368 470.108 180.949C468.13 180.529 466.364 179.836 464.81 178.88C463.26 177.923 461.994 176.557 461.041 174.781C460.076 173.014 459.596 170.75 459.596 167.989C459.596 164.446 460.389 161.587 461.97 159.391C463.552 157.205 465.843 155.556 468.843 154.443C471.838 153.331 475.39 152.599 479.495 152.237C483.596 151.877 488.105 151.701 493.027 151.701V148.91C493.027 147.29 492.703 145.953 492.05 144.908C491.397 143.855 490.388 143.035 488.998 142.43C487.609 141.834 485.759 141.532 483.44 141.532C481.409 141.532 479.667 141.756 478.226 142.205C476.78 142.654 475.675 143.24 474.914 143.962C474.149 144.684 473.76 145.523 473.76 146.48V147.563H461.546C461.49 147.202 461.446 146.9 461.418 146.665C461.39 146.421 461.37 146.129 461.37 145.767C461.37 143.006 462.247 140.595 464.001 138.526C465.759 136.457 468.318 134.866 471.682 133.754C475.05 132.641 479.079 132.085 483.772 132.085C488.466 132.085 492.406 132.622 495.61 133.705C498.806 134.788 501.249 136.467 502.951 138.751C504.645 141.034 505.502 143.942 505.502 147.485V168.282C505.502 169.365 505.766 170.185 506.311 170.76C506.839 171.326 507.516 171.619 508.309 171.619H511.865V180.08C511.241 180.383 510.255 180.695 508.894 181.027C507.532 181.359 505.95 181.524 504.136 181.524C502.042 181.524 500.32 181.242 498.958 180.666C497.597 180.1 496.539 179.319 495.774 178.323C495.013 177.328 494.461 176.176 494.12 174.859H493.44C492.254 176.176 490.788 177.367 489.07 178.411C487.34 179.465 485.39 180.256 483.212 180.792C481.037 181.31 478.646 181.583 476.055 181.583ZM479.779 171.863C481.417 171.863 483.015 171.639 484.573 171.19C486.127 170.74 487.525 170.107 488.774 169.296C490.016 168.486 491.037 167.462 491.83 166.232C492.619 165.002 493.015 163.665 493.015 162.231V159.625C488.602 159.625 484.837 159.85 481.73 160.299C478.622 160.747 476.227 161.499 474.561 162.553C472.899 163.607 472.062 165.061 472.062 166.915C472.062 168.115 472.403 169.072 473.084 169.794C473.76 170.516 474.689 171.043 475.879 171.365C477.064 171.697 478.374 171.863 479.779 171.863Z" fill="#151515"/>
<path d="M517.7 180.504V133.153H527.884L528.905 140.268H529.502C530.692 138.404 532.117 136.862 533.791 135.633C535.453 134.403 537.255 133.505 539.178 132.929C541.104 132.363 543.078 132.07 545.125 132.07C548.573 132.07 551.488 132.714 553.859 134.003C556.234 135.291 558.048 137.379 559.289 140.258H559.89C561.132 138.394 562.593 136.852 564.259 135.623C565.921 134.393 567.763 133.495 569.778 132.919C571.78 132.354 573.835 132.061 575.929 132.061C579.269 132.061 582.112 132.665 584.459 133.856C586.802 135.057 588.624 136.979 589.934 139.614C591.227 142.259 591.88 145.616 591.88 149.695V180.485H579.325V151.949C579.325 150.271 579.141 148.826 578.772 147.626C578.408 146.426 577.879 145.469 577.198 144.747C576.522 144.025 575.657 143.518 574.615 143.215C573.566 142.912 572.457 142.766 571.268 142.766C569.401 142.766 567.687 143.234 566.133 144.161C564.58 145.089 563.338 146.416 562.401 148.124C561.472 149.832 560.999 151.774 560.999 153.931V180.485H548.609V151.949C548.609 150.271 548.409 148.826 548.012 147.626C547.616 146.426 547.063 145.469 546.358 144.747C545.645 144.025 544.8 143.518 543.807 143.215C542.814 142.912 541.673 142.766 540.367 142.766C538.501 142.766 536.787 143.234 535.233 144.161C533.679 145.089 532.446 146.416 531.545 148.124C530.644 149.832 530.183 151.774 530.183 153.931V180.485H517.7V180.504Z" fill="#151515"/>
<path d="M75.4687 121.231H95.6726V128.964C95.6726 139.452 87.1201 147.929 76.5384 147.929H75.4687V121.231ZM46.7148 110H75.4687V182.998H72.0471C51.2037 182.998 47.0343 168.59 47.0343 155.769L46.7148 110ZM0 126.529C0 139.56 9.40581 144.328 19.8817 145.918H0V183.21H19.134C38.3763 183.21 40.6192 174.734 40.6192 166.681C40.6192 156.827 33.779 149.943 23.1948 147.292H40.6192V110H21.4854C2.24579 110 0 118.477 0 126.529Z" fill="#151515"/>
<path d="M534.28 230.272C530.98 230.272 528.129 229.755 525.726 228.722C523.359 227.689 521.541 226.139 520.271 224.073C519.006 222.007 518.373 219.441 518.373 216.375V195.33H527.376V216.175C527.376 218.375 527.96 220.108 529.13 221.374C530.295 222.64 532.013 223.274 534.28 223.274C536.551 223.274 538.284 222.64 539.486 221.374C540.687 220.108 541.288 218.375 541.288 216.175V195.33H550.243V216.375C550.243 219.441 549.61 222.007 548.34 224.073C547.075 226.139 545.257 227.689 542.886 228.722C540.519 229.755 537.652 230.272 534.28 230.272Z" fill="#151515"/>
<path d="M558.076 229.672V195.33H567.035V210.577L580.643 195.33H591.748L578.941 209.377L592 229.672H581.391L572.737 215.475L567.035 220.724V229.672H558.076Z" fill="#151515"/>
</svg>
