<svg width="448" height="340" viewBox="0 0 448 340" fill="none" xmlns="http://www.w3.org/2000/svg">
<path d="M11.6759 136.645H21.3906C30.2643 136.645 34.0941 139.462 34.0941 145.191C34.0941 150.168 30.1711 153.549 22.4179 153.549H11.7694V136.645H11.6759ZM0 192.712H23.7256C36.1491 192.712 48.666 188.204 48.666 173.835C48.666 165.288 42.6877 158.809 34.4676 157.869V157.681C41.2866 155.615 45.8637 150.638 45.8637 143.219C45.8637 131.198 35.6821 126.596 25.6874 126.596H0V192.712ZM11.6759 163.598H22.8852C32.4127 163.598 36.8029 166.04 36.8029 172.99C36.8029 181.724 28.3962 182.757 22.4179 182.757H11.6759V163.598Z" fill="#151515"/>
<path d="M56.2324 125H67.3479V192.712H56.2324V125Z" fill="#151515"/>
<path d="M86.0301 170.267C86.0301 163.223 90.9807 156.837 99.1074 156.837C107.327 156.837 112.185 163.317 112.185 170.267C112.185 177.311 107.234 183.697 99.1074 183.697C90.9807 183.791 86.0301 177.311 86.0301 170.267ZM74.9146 170.267C74.9146 184.354 85.6566 193.84 99.2008 193.84C112.652 193.84 123.487 184.354 123.487 170.267C123.487 156.18 112.745 146.694 99.2008 146.694C85.6566 146.788 74.9146 156.18 74.9146 170.267Z" fill="#151515"/>
<path d="M139.646 170.267C139.646 163.223 144.597 156.837 152.723 156.837C160.943 156.837 165.801 163.317 165.801 170.267C165.801 177.311 160.85 183.697 152.723 183.697C144.503 183.791 139.646 177.311 139.646 170.267ZM128.437 170.267C128.437 184.354 139.179 193.84 152.723 193.84C166.174 193.84 177.01 184.354 177.01 170.267C177.01 156.18 166.268 146.694 152.723 146.694C139.272 146.788 128.437 156.18 128.437 170.267Z" fill="#151515"/>
<path d="M194.384 147.915V154.958H194.571C196.532 150.732 200.829 146.788 208.207 146.788C215.12 146.788 219.792 149.512 222.127 155.146C225.396 149.417 230.16 146.788 236.792 146.788C248.655 146.788 252.858 155.334 252.858 166.041V192.806H241.742V167.355C241.742 161.72 240.062 156.931 233.429 156.931C226.422 156.931 223.807 162.753 223.807 168.482V192.806H212.691V166.041C212.691 160.499 210.45 156.837 205.032 156.837C197.653 156.837 194.851 162.284 194.851 168.2V192.712H183.735V147.915H194.384Z" fill="#151515"/>
<path d="M299.001 170.267C299.001 177.31 294.051 183.696 285.924 183.696C277.705 183.696 272.847 177.216 272.847 170.267C272.847 163.223 277.797 156.837 285.924 156.837C294.051 156.837 299.001 163.317 299.001 170.267ZM262.011 192.712H272.567V185.95H272.753C276.022 191.398 281.907 193.839 288.073 193.839C301.804 193.839 310.117 183.603 310.117 170.267C310.117 157.025 301.244 146.694 288.539 146.694C280.132 146.694 275.742 150.639 273.408 153.55H273.127V125H262.011V192.712Z" fill="#151515"/>
<path d="M326.372 165.853C327.212 159.373 331.322 155.241 337.86 155.241C344.867 155.241 349.071 159.373 349.162 165.853H326.372ZM360.373 174.211V171.112C360.373 155.522 351.871 146.694 339.449 146.694C325.998 146.694 315.162 156.18 315.162 170.267C315.162 184.354 325.904 193.84 339.449 193.84C346.547 193.84 353.086 191.304 358.318 184.824L350.283 178.719C347.482 182.194 343.838 184.824 338.326 184.824C332.068 184.824 327.118 180.785 326.372 174.211H360.373Z" fill="#151515"/>
<path d="M367.657 147.915H378.773V155.052H378.959C381.388 149.887 386.338 146.788 392.13 146.788C393.531 146.788 394.839 147.07 396.146 147.445V158.245C394.279 157.776 392.505 157.4 390.73 157.4C380.268 157.4 378.773 166.322 378.773 168.67V192.712H367.657V147.915Z" fill="#151515"/>
<path d="M421.181 156.837C429.306 156.837 434.35 162.284 434.35 169.985C434.35 177.498 429.306 183.133 421.087 183.133C413.52 183.133 408.01 177.216 408.01 170.173C408.01 162.284 413.334 156.837 421.181 156.837ZM434.35 147.915V154.677H434.164C430.895 149.23 425.011 146.788 418.844 146.788C405.113 146.788 396.8 157.119 396.8 170.361C396.8 183.039 405.675 193.369 419.032 193.369C424.636 193.369 430.335 191.21 433.604 186.796H433.79V190.082C433.79 199.004 430.429 205.109 419.687 205.109C413.428 205.109 408.85 202.761 404.367 198.629L397.64 207.832C403.993 213.467 411.465 215.252 419.778 215.252C437.153 215.252 445 205.015 445 188.768V147.915H434.35Z" fill="#151515"/>
</svg>
