<svg width="592" height="340" viewBox="0 0 592 340" fill="none" xmlns="http://www.w3.org/2000/svg">
<g clip-path="url(#clip0_2470_2)">
<mask id="mask0_2470_2" style="mask-type:luminance" maskUnits="userSpaceOnUse" x="0" y="24" width="592" height="92">
<path d="M592 24H0V116H592V24Z" fill="white"/>
</mask>
<g mask="url(#mask0_2470_2)">
<path d="M98.1224 95.4816L81.8393 112.876C81.4901 113.251 81.0582 113.553 80.5895 113.764C80.1117 113.974 79.6062 114.075 79.0826 114.075H1.89377C1.5262 114.075 1.16783 113.965 0.855395 113.764C0.542966 113.562 0.304047 113.279 0.157022 112.94C0.00999557 112.601 -0.0359499 112.235 0.028374 111.869C0.092698 111.503 0.258102 111.173 0.50621 110.898L16.771 93.5041C17.1202 93.1287 17.5521 92.8264 18.0207 92.6159C18.4985 92.4053 19.0039 92.3047 19.5277 92.3047H96.7166C97.0841 92.3047 97.4516 92.3964 97.7641 92.5977C98.0763 92.7991 98.3247 93.083 98.4716 93.4215C98.6186 93.7604 98.6647 94.1357 98.6002 94.5019C98.5358 94.868 98.3705 95.2069 98.1133 95.4724L98.1224 95.4816ZM81.8393 60.4456C81.4901 60.0702 81.0582 59.7682 80.5895 59.5666C80.1117 59.356 79.6062 59.2554 79.0826 59.2462H1.89377C1.5262 59.2462 1.16783 59.356 0.855395 59.5576C0.542966 59.759 0.304047 60.0426 0.157022 60.3814C0.00999557 60.7203 -0.0359499 61.0864 0.028374 61.4526C0.092698 61.8187 0.258102 62.1484 0.50621 62.4231L16.771 79.8266C17.1202 80.2019 17.5521 80.5039 18.0207 80.7053C18.4985 80.9161 19.0039 81.0168 19.5277 81.0257H96.7166C97.0841 81.0257 97.4424 80.9161 97.7458 80.7145C98.0488 80.5131 98.2969 80.2293 98.4349 79.8907C98.5819 79.5519 98.6277 79.1857 98.5636 78.8196C98.4991 78.4626 98.3338 78.1238 98.0858 77.8583L81.8301 60.4548L81.8393 60.4456ZM1.89377 47.9491H79.0826C79.597 47.9491 80.1117 47.8392 80.5895 47.6378C81.0673 47.4272 81.4901 47.1343 81.8393 46.7498L98.1224 29.3554C98.3797 29.0899 98.5452 28.7512 98.6094 28.385C98.6738 28.0188 98.6277 27.6434 98.4808 27.3047C98.3338 26.966 98.0858 26.6822 97.7733 26.4808C97.4608 26.2793 97.0932 26.1786 96.7257 26.1878H19.5277C19.0131 26.1878 18.4985 26.2977 18.0207 26.4991C17.5429 26.7096 17.1202 27.0026 16.771 27.3871L0.50621 44.7815C0.258102 45.047 0.092698 45.3857 0.028374 45.7519C-0.0359499 46.1089 0.00999557 46.4843 0.157022 46.823C0.304047 47.1618 0.542966 47.4456 0.855395 47.647C1.16783 47.8484 1.5262 47.9582 1.89377 47.9582V47.9491Z" fill="#FEF8FC"/>
<path d="M192.227 63.3536H150.931V49.8043H202.96V36.255H150.793C149.011 36.2459 147.246 36.5846 145.592 37.2529C143.938 37.9212 142.44 38.91 141.172 40.1642C139.904 41.4093 138.893 42.9015 138.204 44.5311C137.515 46.1698 137.147 47.9276 137.147 49.7036V63.4361C137.147 65.212 137.515 66.9699 138.204 68.6086C138.893 70.2472 139.904 71.7395 141.172 72.9846C142.44 74.2387 143.938 75.2276 145.592 75.8958C147.246 76.5642 149.011 76.912 150.793 76.9031H192.144V90.4523H138.131V104.002H192.227C194.01 104.011 195.774 103.672 197.428 103.004C199.082 102.335 200.58 101.347 201.848 100.092C203.116 98.8474 204.127 97.3552 204.816 95.7255C205.505 94.0868 205.873 92.3291 205.873 90.553V76.8205C205.873 75.0444 205.505 73.2867 204.816 71.648C204.127 70.0094 203.116 68.5171 201.848 67.272C200.58 66.0176 199.082 65.029 197.428 64.3606C195.774 63.6924 194.01 63.3444 192.227 63.3536Z" fill="#FEF8FC"/>
<path d="M272.23 36.2556H230.778C228.995 36.2372 227.222 36.576 225.568 37.2443C223.913 37.9126 222.406 38.9013 221.138 40.1464C219.87 41.3915 218.859 42.8837 218.161 44.5225C217.472 46.1612 217.104 47.9189 217.095 49.7041V90.5535C217.095 92.3296 217.463 94.0873 218.161 95.7352C218.85 97.3738 219.861 98.8569 221.138 100.111C222.406 101.356 223.913 102.345 225.568 103.013C227.222 103.682 228.995 104.02 230.778 104.002H272.23C274.011 104.011 275.777 103.672 277.43 103.004C279.085 102.336 280.584 101.347 281.851 100.093C283.119 98.8479 284.13 97.3554 284.819 95.726C285.508 94.0873 285.867 92.3296 285.875 90.5535V49.7041C285.867 47.9281 285.508 46.1703 284.819 44.5316C284.13 42.8929 283.119 41.4098 281.851 40.1647C280.584 38.9196 279.085 37.9309 277.43 37.2534C275.777 36.5851 274.011 36.2464 272.23 36.2556ZM272.128 90.4528H230.879V49.8048H272.11L272.128 90.4528Z" fill="#FEF8FC"/>
<path d="M417.42 36.2538H376.989C375.205 36.2446 373.442 36.5834 371.787 37.2517C370.134 37.92 368.635 38.9087 367.367 40.163C366.1 41.408 365.089 42.9003 364.4 44.5299C363.711 46.1686 363.352 47.9264 363.341 49.7024V104H377.125V81.7446H417.373V104H431.157V49.7024C431.149 47.9172 430.782 46.1595 430.091 44.5115C429.394 42.8728 428.383 41.3806 427.104 40.1263C425.829 38.8721 424.312 37.8925 422.657 37.2242C420.996 36.5559 419.22 36.2263 417.428 36.2538H417.42ZM417.318 68.1953H377.07V49.8031H417.318V68.1953Z" fill="#FEF8FC"/>
<path d="M578.362 36.255H537.931C536.147 36.2459 534.384 36.5846 532.728 37.2529C531.076 37.9212 529.577 38.91 528.309 40.1642C527.042 41.4093 526.03 42.9015 525.342 44.5311C524.653 46.1698 524.286 47.9276 524.275 49.7036V104.002H538.059V81.7459H578.216V104.002H591.999V49.7036C591.991 47.9276 591.632 46.1698 590.933 44.5311C590.244 42.8924 589.233 41.4093 587.965 40.1642C586.697 38.9191 585.199 37.9304 583.546 37.2529C581.891 36.5846 580.128 36.2459 578.344 36.255H578.362ZM578.226 68.1967H537.978V49.8043H578.226V68.1967Z" fill="#FEF8FC"/>
<path d="M498.279 90.452H492.765L473.054 41.9309C472.383 40.2556 471.217 38.8182 469.719 37.8112C468.221 36.8041 466.447 36.2549 464.637 36.2549H452.407C451.22 36.2549 450.036 36.4746 448.941 36.9232C447.839 37.3718 446.838 38.0309 445.992 38.864C445.146 39.6971 444.475 40.6858 444.017 41.7753C443.558 42.8647 443.317 44.0366 443.31 45.2267V104.001H457.093V49.8041H462.607L482.308 98.3254C482.997 99.9914 484.163 101.429 485.672 102.427C487.178 103.434 488.951 103.965 490.761 103.965H502.992C504.178 103.965 505.362 103.745 506.457 103.297C507.56 102.848 508.561 102.189 509.407 101.356C510.253 100.523 510.923 99.5338 511.382 98.4442C511.843 97.3549 512.081 96.1831 512.089 94.9929V36.2549H498.279V90.452Z" fill="#FEF8FC"/>
<path d="M311.83 36.2549H298.044V90.5527C298.044 92.3288 298.413 94.0958 299.11 95.7344C299.809 97.3731 300.821 98.8656 302.088 100.11C303.356 101.356 304.862 102.344 306.526 103.013C308.181 103.681 309.955 104.02 311.736 104.001H353.087V90.452H311.83V36.2549Z" fill="#FEF8FC"/>
</g>
</g>
<line y1="155" x2="592" y2="155" stroke="#FEF8FC" stroke-width="2"/>
<path d="M136.732 267.582C133.513 267.582 130.523 267.25 127.781 266.596C125.04 265.933 122.648 264.996 120.615 263.756C118.582 262.526 116.991 260.994 115.859 259.17C114.727 257.335 114.157 255.227 114.157 252.826C114.157 252.582 114.157 252.348 114.157 252.104C114.157 251.86 114.185 251.655 114.24 251.469H126.549C126.549 251.587 126.549 251.723 126.549 251.88C126.549 252.026 126.549 252.163 126.549 252.289C126.604 253.734 127.11 254.905 128.076 255.803C129.032 256.7 130.311 257.344 131.893 257.735C133.475 258.125 135.15 258.321 136.897 258.321C138.535 258.321 140.136 258.203 141.69 257.959C143.245 257.716 144.551 257.237 145.591 256.515C146.64 255.793 147.164 254.837 147.164 253.636C147.164 252.133 146.538 251.031 145.296 250.308C144.055 249.586 142.344 249.021 140.164 248.601C137.983 248.181 135.536 247.703 132.823 247.156C130.559 246.736 128.398 246.2 126.328 245.536C124.267 244.872 122.409 244.023 120.771 242.969C119.134 241.915 117.828 240.569 116.871 238.919C115.905 237.27 115.427 235.211 115.427 232.752C115.427 230.175 115.96 227.95 117.037 226.086C118.113 224.222 119.64 222.7 121.618 221.5C123.596 220.299 125.932 219.411 128.618 218.845C131.305 218.279 134.203 217.986 137.312 217.986C140.2 217.986 142.914 218.269 145.463 218.845C148.01 219.411 150.218 220.26 152.076 221.363C153.943 222.476 155.425 223.871 156.528 225.55C157.632 227.228 158.185 229.121 158.185 231.22C158.185 231.581 158.185 231.913 158.185 232.205C158.185 232.508 158.157 232.742 158.101 232.928H145.802V232.293C145.802 231.151 145.417 230.224 144.652 229.502C143.889 228.78 142.84 228.224 141.516 227.834C140.182 227.443 138.673 227.248 136.971 227.248C136.125 227.248 135.16 227.306 134.083 227.423C133.006 227.54 131.977 227.755 130.982 228.058C129.989 228.361 129.198 228.78 128.609 229.316C128.02 229.854 127.717 230.546 127.717 231.385C127.717 232.469 128.25 233.318 129.327 233.952C130.403 234.587 131.829 235.074 133.613 235.436C135.398 235.797 137.33 236.187 139.427 236.607C141.801 237.143 144.183 237.7 146.556 238.275C148.93 238.842 151.11 239.613 153.088 240.569C155.066 241.525 156.621 242.911 157.752 244.707C158.883 246.502 159.444 248.913 159.444 251.909C159.444 254.788 158.893 257.237 157.788 259.247C156.685 261.258 155.12 262.878 153.078 264.108C151.046 265.337 148.636 266.225 145.866 266.762C143.126 267.309 140.071 267.582 136.732 267.582Z" fill="#FEF8FC"/>
<path d="M184.829 267.583C179.512 267.583 175.4 266.139 172.483 263.26C169.568 260.381 168.115 255.853 168.115 249.665V219.149H180.506V247.499C180.506 249.246 180.699 250.7 181.103 251.861C181.499 253.032 182.098 253.979 182.888 254.701C183.68 255.423 184.627 255.95 185.731 256.272C186.835 256.594 188.095 256.77 189.503 256.77C191.535 256.77 193.394 256.292 195.059 255.326C196.724 254.369 198.067 253.032 199.088 251.324C200.109 249.617 200.615 247.675 200.615 245.518V219.139H213.089V266.49H202.905L201.976 259.288H201.379C200.017 261.152 198.49 262.694 196.798 263.923C195.095 265.153 193.219 266.071 191.158 266.666C189.088 267.281 186.982 267.583 184.829 267.583Z" fill="#FEF8FC"/>
<path d="M224.301 219.15H234.402L235.506 225.991H236.104C237.861 223.113 240.078 221.073 242.765 219.873C245.45 218.672 248.375 218.077 251.549 218.077C255.68 218.077 259.258 218.945 262.284 220.692C265.311 222.43 267.647 225.133 269.286 228.792C270.922 232.452 271.741 237.137 271.741 242.836C271.741 248.417 270.904 253.043 269.24 256.703C267.575 260.363 265.265 263.095 262.322 264.891C259.378 266.687 255.928 267.594 251.973 267.594C249.995 267.594 248.082 267.35 246.241 266.872C244.401 266.394 242.719 265.652 241.191 264.666C239.664 263.681 238.357 262.461 237.29 261.016H236.784V282.984H224.301V219.15ZM247.98 256.869C250.529 256.869 252.617 256.371 254.263 255.386C255.9 254.4 257.115 252.897 257.915 250.887C258.706 248.876 259.101 246.495 259.101 243.733V241.937C259.101 239.059 258.706 236.629 257.915 234.648C257.124 232.667 255.91 231.183 254.263 230.188C252.617 229.202 250.501 228.705 247.897 228.705C245.469 228.705 243.409 229.241 241.742 230.324C240.078 231.408 238.8 232.95 237.925 234.96C237.043 236.97 236.61 239.361 236.61 242.114V243.372C236.61 245.412 236.868 247.286 237.374 248.993C237.879 250.701 238.605 252.145 239.536 253.316C240.464 254.488 241.624 255.376 243.012 255.971C244.401 256.576 246.058 256.869 247.98 256.869Z" fill="#FEF8FC"/>
<path d="M304.215 267.585C298.842 267.585 294.271 266.697 290.508 264.931C286.746 263.164 283.876 260.442 281.898 256.782C279.921 253.123 278.926 248.467 278.926 242.827C278.926 237.186 279.911 232.531 281.898 228.871C283.876 225.212 286.718 222.499 290.426 220.723C294.133 218.956 298.613 218.068 303.875 218.068C309.027 218.068 313.395 218.937 316.983 220.683C320.571 222.42 323.293 225.075 325.124 228.647C326.964 232.219 327.884 236.698 327.884 242.104V245.794H291.741C291.852 248.555 292.394 250.849 293.35 252.683C294.307 254.518 295.715 255.855 297.555 256.694C299.395 257.533 301.666 257.953 304.39 257.953C305.742 257.953 307.048 257.787 308.29 257.456C309.532 257.124 310.663 256.616 311.685 255.923C312.705 255.231 313.552 254.381 314.233 253.357C314.914 252.342 315.281 251.171 315.337 249.844H327.812C327.812 252.605 327.23 255.094 326.073 257.319C324.913 259.544 323.313 261.398 321.279 262.901C319.246 264.404 316.781 265.556 313.892 266.365C311.004 267.176 307.785 267.585 304.215 267.585ZM291.916 237.606H314.821C314.821 235.927 314.555 234.453 314.012 233.195C313.469 231.936 312.725 230.882 311.768 230.042C310.802 229.203 309.671 228.588 308.373 228.198C307.075 227.807 305.631 227.612 304.049 227.612C301.621 227.612 299.542 227.983 297.813 228.735C296.084 229.486 294.74 230.608 293.783 232.111C292.817 233.624 292.191 235.449 291.916 237.606Z" fill="#FEF8FC"/>
<path d="M337.055 219.148H347.239L348.259 226.887H348.858C349.419 225.267 350.247 223.764 351.314 222.389C352.391 221.012 353.706 219.929 355.261 219.148C356.815 218.368 358.581 217.977 360.568 217.977C361.589 217.977 362.518 218.065 363.365 218.251C364.212 218.426 364.947 218.641 365.572 218.885V230.41H360.652C358.728 230.41 357.072 230.723 355.684 231.357C354.294 231.991 353.135 232.889 352.206 234.06C351.277 235.231 350.596 236.597 350.173 238.159C349.749 239.72 349.538 241.487 349.538 243.468V266.509H337.055V219.148Z" fill="#FEF8FC"/>
<path d="M388.398 267.581C385.289 267.581 382.74 267.074 380.763 266.049C378.785 265.034 377.323 263.512 376.393 261.501C375.464 259.491 374.995 256.983 374.995 253.987V229.053H368.123V219.147H375.501L377.875 205.377H387.46V219.147H397.468V229.053H387.46V252.094C387.46 253.889 387.809 255.256 388.518 256.193C389.227 257.12 390.569 257.588 392.548 257.588H397.468V266.137C396.732 266.381 395.832 266.605 394.755 266.81C393.679 267.015 392.574 267.201 391.443 267.347C390.321 267.503 389.309 267.581 388.398 267.581Z" fill="#FEF8FC"/>
<path d="M429.124 267.585C423.753 267.585 419.18 266.697 415.419 264.931C411.655 263.164 408.784 260.442 406.805 256.782C404.831 253.123 403.838 248.467 403.838 242.827C403.838 237.186 404.831 232.531 406.805 228.871C408.784 225.212 411.627 222.499 415.335 220.723C419.044 218.956 423.521 218.068 428.783 218.068C433.925 218.068 438.306 218.937 441.891 220.683C445.483 222.42 448.202 225.075 450.044 228.647C451.887 232.219 452.804 236.698 452.804 242.104V245.794H416.661C416.769 248.555 417.314 250.849 418.271 252.683C419.228 254.518 420.634 255.855 422.472 256.694C424.314 257.533 426.585 257.953 429.308 257.953C430.669 257.953 431.967 257.787 433.208 257.456C434.45 257.124 435.583 256.616 436.604 255.923C437.626 255.231 438.471 254.381 439.151 253.357C439.832 252.342 440.201 251.171 440.257 249.844H452.728C452.728 252.605 452.151 255.094 450.989 257.319C449.832 259.544 448.23 261.398 446.2 262.901C444.165 264.404 441.698 265.556 438.819 266.365C435.912 267.176 432.684 267.585 429.124 267.585ZM416.817 237.606H439.732C439.732 235.927 439.464 234.453 438.923 233.195C438.387 231.936 437.634 230.882 436.677 230.042C435.711 229.203 434.578 228.588 433.281 228.198C431.975 227.807 430.541 227.612 428.959 227.612C426.529 227.612 424.45 227.983 422.72 228.735C420.994 229.486 419.648 230.608 418.691 232.111C417.726 233.624 417.101 235.449 416.817 237.606Z" fill="#FEF8FC"/>
<path d="M476.055 267.583C474.077 267.583 472.098 267.368 470.108 266.949C468.13 266.529 466.364 265.836 464.81 264.88C463.26 263.923 461.994 262.557 461.041 260.781C460.076 259.014 459.596 256.75 459.596 253.989C459.596 250.446 460.389 247.587 461.97 245.391C463.552 243.205 465.843 241.556 468.843 240.443C471.838 239.331 475.39 238.599 479.495 238.237C483.596 237.877 488.105 237.701 493.027 237.701V234.91C493.027 233.29 492.703 231.953 492.05 230.908C491.397 229.855 490.388 229.035 488.998 228.43C487.609 227.834 485.759 227.532 483.44 227.532C481.409 227.532 479.667 227.756 478.226 228.205C476.78 228.654 475.675 229.24 474.914 229.962C474.149 230.684 473.76 231.523 473.76 232.48V233.563H461.546C461.49 233.202 461.446 232.9 461.418 232.665C461.39 232.421 461.37 232.129 461.37 231.767C461.37 229.006 462.247 226.595 464.001 224.526C465.759 222.457 468.318 220.866 471.682 219.754C475.05 218.641 479.079 218.085 483.772 218.085C488.466 218.085 492.406 218.622 495.61 219.705C498.806 220.788 501.249 222.467 502.951 224.751C504.645 227.034 505.502 229.942 505.502 233.485V254.282C505.502 255.365 505.766 256.185 506.311 256.76C506.839 257.326 507.516 257.619 508.309 257.619H511.865V266.08C511.241 266.383 510.255 266.695 508.894 267.027C507.532 267.359 505.95 267.524 504.136 267.524C502.042 267.524 500.32 267.242 498.958 266.666C497.597 266.1 496.539 265.319 495.774 264.323C495.013 263.328 494.461 262.176 494.12 260.859H493.44C492.254 262.176 490.788 263.367 489.07 264.411C487.34 265.465 485.39 266.256 483.212 266.792C481.037 267.31 478.646 267.583 476.055 267.583ZM479.779 257.863C481.417 257.863 483.015 257.639 484.573 257.19C486.127 256.74 487.525 256.107 488.774 255.296C490.016 254.486 491.037 253.462 491.83 252.232C492.619 251.002 493.015 249.665 493.015 248.231V245.625C488.602 245.625 484.837 245.85 481.73 246.299C478.622 246.747 476.227 247.499 474.561 248.553C472.899 249.607 472.062 251.061 472.062 252.915C472.062 254.115 472.403 255.072 473.084 255.794C473.76 256.516 474.689 257.043 475.879 257.365C477.064 257.697 478.374 257.863 479.779 257.863Z" fill="#FEF8FC"/>
<path d="M517.7 266.504V219.153H527.884L528.905 226.268H529.502C530.692 224.404 532.117 222.862 533.791 221.633C535.453 220.403 537.255 219.505 539.178 218.929C541.104 218.363 543.078 218.07 545.125 218.07C548.573 218.07 551.488 218.714 553.859 220.003C556.234 221.291 558.048 223.379 559.289 226.258H559.89C561.132 224.394 562.593 222.852 564.259 221.623C565.921 220.393 567.763 219.495 569.778 218.919C571.78 218.354 573.835 218.061 575.929 218.061C579.269 218.061 582.112 218.665 584.459 219.856C586.802 221.057 588.624 222.979 589.934 225.614C591.227 228.259 591.88 231.616 591.88 235.695V266.485H579.325V237.949C579.325 236.271 579.141 234.826 578.772 233.626C578.408 232.426 577.879 231.469 577.198 230.747C576.522 230.025 575.657 229.518 574.615 229.215C573.566 228.912 572.457 228.766 571.268 228.766C569.401 228.766 567.687 229.234 566.133 230.161C564.58 231.089 563.338 232.416 562.401 234.124C561.472 235.832 560.999 237.774 560.999 239.931V266.485H548.609V237.949C548.609 236.271 548.409 234.826 548.012 233.626C547.616 232.426 547.063 231.469 546.358 230.747C545.645 230.025 544.8 229.518 543.807 229.215C542.814 228.912 541.673 228.766 540.367 228.766C538.501 228.766 536.787 229.234 535.233 230.161C533.679 231.089 532.446 232.416 531.545 234.124C530.644 235.832 530.183 237.774 530.183 239.931V266.485H517.7V266.504Z" fill="#FEF8FC"/>
<path d="M75.4687 207.231H95.6726V214.964C95.6726 225.452 87.1201 233.929 76.5384 233.929H75.4687V207.231ZM46.7148 196H75.4687V268.998H72.0471C51.2037 268.998 47.0343 254.59 47.0343 241.769L46.7148 196ZM0 212.529C0 225.56 9.40581 230.328 19.8817 231.918H0V269.21H19.134C38.3763 269.21 40.6192 260.734 40.6192 252.681C40.6192 242.827 33.779 235.943 23.1948 233.292H40.6192V196H21.4854C2.24579 196 0 204.477 0 212.529Z" fill="#FEF8FC"/>
<path d="M534.28 316.272C530.98 316.272 528.129 315.755 525.726 314.722C523.359 313.689 521.541 312.139 520.271 310.073C519.006 308.007 518.373 305.441 518.373 302.375V281.33H527.376V302.175C527.376 304.375 527.96 306.108 529.13 307.374C530.295 308.64 532.013 309.274 534.28 309.274C536.551 309.274 538.284 308.64 539.486 307.374C540.687 306.108 541.288 304.375 541.288 302.175V281.33H550.243V302.375C550.243 305.441 549.61 308.007 548.34 310.073C547.075 312.139 545.257 313.689 542.886 314.722C540.519 315.755 537.652 316.272 534.28 316.272Z" fill="#FEF8FC"/>
<path d="M558.076 315.672V281.33H567.035V296.577L580.643 281.33H591.748L578.941 295.377L592 315.672H581.391L572.737 301.475L567.035 306.724V315.672H558.076Z" fill="#FEF8FC"/>
<defs>
<clipPath id="clip0_2470_2">
<rect width="592" height="92" fill="white" transform="translate(0 24)"/>
</clipPath>
</defs>
</svg>
