<svg width="269" height="340" viewBox="0 0 269 340" fill="none" xmlns="http://www.w3.org/2000/svg">
<path d="M48.9292 268.568V255.348C48.9292 250.367 45.6045 247.017 40.2505 246.975C37.434 246.931 34.5248 247.769 32.4955 250.721C30.9718 248.386 28.5706 246.975 25.2 246.975C22.8449 246.975 20.5363 247.636 18.7355 250.104V247.504H13.9333V268.57H18.7817V256.892C18.7817 253.233 20.9057 251.295 24.184 251.295C27.3701 251.295 28.9862 253.277 28.9862 256.848V268.57H33.8346V256.892C33.8346 253.233 36.0509 251.295 39.237 251.295C42.5153 251.295 44.0854 253.277 44.0854 256.848V268.57H48.9336L48.9292 268.568ZM120.676 247.502H112.828V241.111H107.98V247.502H103.501V251.69H107.98V261.295C107.98 266.189 109.965 269.097 115.641 269.097C117.72 269.097 120.122 268.48 121.644 267.465L120.259 263.542C118.829 264.336 117.259 264.733 116.013 264.733C113.611 264.733 112.826 263.322 112.826 261.207V251.687H120.674V247.5L120.676 247.502ZM161.629 246.973C158.858 246.973 157.056 248.207 155.81 250.058V247.502H151.053V268.568H155.856V256.757C155.856 253.275 157.427 251.337 160.566 251.337C161.536 251.337 162.552 251.469 163.566 251.866L165.044 247.546C163.981 247.149 162.596 246.973 161.629 246.973ZM99.7143 249.177C97.4057 247.722 94.2195 246.973 90.7127 246.973C85.1255 246.973 81.5261 249.529 81.5261 253.714C81.5261 257.152 84.2041 259.269 89.1426 259.928L91.4053 260.237C94.0371 260.59 95.2838 261.251 95.2838 262.442C95.2838 264.072 93.5292 264.998 90.2509 264.998C86.9262 264.998 84.5253 263.983 82.909 262.795L80.6465 266.365C83.2784 268.215 86.603 269.097 90.2024 269.097C96.5745 269.097 100.266 266.233 100.266 262.222C100.266 258.519 97.3572 256.578 92.5573 255.919L90.2948 255.61C88.2168 255.346 86.5546 254.949 86.5546 253.537C86.5546 251.996 88.1244 251.07 90.7565 251.07C93.5731 251.07 96.2975 252.084 97.6365 252.876L99.7143 249.177ZM228.341 246.973C225.57 246.973 223.77 248.207 222.524 250.058V247.502H217.767V268.568H222.57V256.757C222.57 253.275 224.139 251.337 227.278 251.337C228.248 251.337 229.264 251.469 230.28 251.866L231.758 247.546C230.696 247.149 229.31 246.973 228.341 246.973ZM166.473 258.034C166.473 264.424 171.137 269.097 178.246 269.097C181.571 269.097 183.785 268.392 186.186 266.586L183.878 262.883C182.077 264.116 180.184 264.777 178.105 264.777C174.272 264.733 171.455 262.089 171.455 258.034C171.455 253.979 174.272 251.337 178.105 251.293C180.184 251.293 182.077 251.954 183.878 253.187L186.186 249.485C183.785 247.678 181.569 246.973 178.246 246.973C171.135 246.973 166.473 251.646 166.473 258.034ZM211.442 258.034V247.502H206.642V250.058C205.117 248.163 202.808 246.973 199.669 246.973C193.481 246.973 188.636 251.601 188.636 258.034C188.636 264.466 193.483 269.097 199.669 269.097C202.808 269.097 205.117 267.906 206.642 266.012V268.568H211.442V258.034ZM193.576 258.034C193.576 254.331 196.115 251.293 200.272 251.293C204.242 251.293 206.918 254.201 206.918 258.034C206.918 261.866 204.24 264.777 200.272 264.777C196.115 264.777 193.576 261.736 193.576 258.034ZM135.633 246.973C129.168 246.973 124.646 251.469 124.646 258.034C124.646 264.733 129.356 269.097 135.958 269.097C139.282 269.097 142.329 268.303 145.004 266.145L142.649 262.751C140.802 264.16 138.447 264.954 136.231 264.954C133.138 264.954 130.322 263.586 129.628 259.796H146.018C146.065 259.225 146.111 258.651 146.111 258.034C146.065 251.469 141.818 246.973 135.633 246.973ZM135.542 251.072C138.635 251.072 140.621 252.922 141.129 256.184H129.679C130.187 253.143 132.124 251.072 135.542 251.072ZM255.996 258.034V239.042H251.193V250.058C249.668 248.163 247.36 246.973 244.223 246.973C238.035 246.973 233.19 251.601 233.19 258.034C233.19 264.466 238.037 269.097 244.223 269.097C247.362 269.097 249.671 267.906 251.193 266.012V268.568H255.996V258.034ZM238.127 258.034C238.127 254.331 240.668 251.293 244.824 251.293C248.794 251.293 251.469 254.201 251.469 258.034C251.469 261.866 248.791 264.777 244.824 264.777C240.668 264.777 238.127 261.736 238.127 258.034ZM75.9851 258.034V247.502H71.1829V250.058C69.6592 248.163 67.3505 246.973 64.2106 246.973C58.0231 246.973 53.1771 251.601 53.1771 258.034C53.1771 264.466 58.0255 269.097 64.2106 269.097C67.3505 269.097 69.6592 267.906 71.1829 266.012V268.568H75.9851V258.034ZM58.1178 258.034C58.1178 254.331 60.6576 251.293 64.8108 251.293C68.7819 251.293 71.4576 254.201 71.4576 258.034C71.4576 261.866 68.7796 264.777 64.8108 264.777C60.6552 264.777 58.1178 261.736 58.1178 258.034ZM127.117 213.824C127.765 214.363 128.452 214.884 129.124 215.412C115.95 223.789 100.13 228.673 83.1145 228.673C37.2098 228.673 0 193.152 0 149.336C0 105.521 37.2098 70 83.1145 70C100.13 70 115.95 74.8836 129.124 83.2603C128.452 83.787 127.769 84.3049 127.117 84.8469C107.536 101.109 96.3065 124.614 96.3065 149.336C96.3065 174.058 107.536 197.564 127.117 213.824ZM185.847 70C168.833 70 153.014 74.8836 139.837 83.2579C140.512 83.7847 141.192 84.3049 141.846 84.8469C161.427 101.109 172.657 124.612 172.657 149.336C172.657 174.061 161.427 197.564 141.849 213.826C141.199 214.366 140.512 214.886 139.837 215.415C153.011 223.789 168.833 228.673 185.847 228.673C231.751 228.673 268.963 193.154 268.963 149.339C268.963 105.523 231.751 70 185.847 70ZM134.482 86.9911C133.41 87.7957 132.361 88.6241 131.338 89.477C113.823 104.022 102.736 125.436 102.736 149.336C102.736 173.236 113.823 194.651 131.338 209.196C132.361 210.049 133.41 210.877 134.482 211.681C135.554 210.877 136.6 210.049 137.626 209.196C155.139 194.651 166.227 173.236 166.227 149.336C166.227 125.436 155.139 104.022 137.626 89.477C136.6 88.6241 135.554 87.7957 134.482 86.9911Z" fill="#151515"/>
</svg>
