<svg width="402" height="340" viewBox="0 0 402 340" fill="none" xmlns="http://www.w3.org/2000/svg">
<path fill-rule="evenodd" clip-rule="evenodd" d="M328.736 133.91L328.711 133.898C331.635 130.705 334.877 127.313 338.267 124.05C334.141 122.039 330.33 119.758 326.642 117.553C318.652 112.773 311.247 108.342 302.481 107.749C295.682 107.328 288.876 108.453 282.573 111.04C282.573 111.04 279.167 106.414 268.673 107.913C258.179 109.412 225.859 122.914 198.317 166.945C173.421 206.749 185.119 229.573 203.002 229.326C222.382 229.057 240.813 207.51 247.068 189.746C253.321 171.981 245.943 167.168 240.276 167.624C234.012 168.151 222.944 173.726 216.856 186.045C210.766 198.365 210.766 205.953 210.766 205.953C213.255 203.341 215.962 200.948 218.857 198.798C221.465 196.762 224.337 195.092 227.396 193.832C228.109 190.649 229.174 187.555 230.566 184.604C232.77 180.014 236.259 175.236 240.569 174.159C249.316 171.969 245.123 187.919 238.694 198.318C235.239 203.868 222.979 219.923 212.453 219.923C201.925 219.923 199.911 209.782 202.124 200.261C204.337 190.741 207.416 178.703 222.805 156.781C238.191 134.859 254.83 121.86 264.469 116.415C274.363 110.806 278.392 113.265 278.392 113.265C278.392 113.265 265.758 121.017 258.568 130.386C251.705 139.332 247.594 149.391 250.779 154.322C253.824 159.017 264.517 159.111 276.309 142.108C287.948 125.315 285.022 115.326 285.022 115.326C285.787 115.077 286.569 114.881 287.363 114.74C293.042 113.979 297.587 115.49 304.612 119.097C308.039 120.856 311.402 123.11 314.994 125.517C319.118 128.28 323.542 131.246 328.711 133.898L328.699 133.91H328.736ZM281.039 116.626C281.039 116.626 273.545 119.612 264.832 129.214C256.119 138.817 251.037 149.626 254.796 152.483C256.236 153.572 259.562 153.759 265.605 148.326C271.176 143.487 275.55 137.422 278.38 130.608C282.059 121.642 281.165 117.247 281.05 116.686C281.044 116.652 281.039 116.632 281.039 116.626Z" fill="#151515"/>
<path d="M343.917 139.349L343.91 139.355C364.381 143.407 382.309 130.724 391.84 119.927C395.32 116.064 398.312 111.789 400.752 107.198C396.41 111.718 391.552 115.711 386.278 119.096L386.221 119.084C377.343 124.776 365.06 129.94 353.256 128.804C350.27 131.895 347.072 135.467 343.887 139.343L343.917 139.349Z" fill="#151515"/>
<path fill-rule="evenodd" clip-rule="evenodd" d="M351.123 212.1C349.427 214.817 347.495 220.028 353.103 216.784C359.93 212.837 369.662 198.047 369.662 198.047H374.065C370.053 204.229 365.581 210.1 360.691 215.613C353.771 223.284 345.328 230.251 339.379 229.56C332.436 228.752 334.612 219.63 334.612 219.63C334.612 219.63 324.635 230.169 317.786 229.455C308.499 228.424 311.332 216.948 311.332 216.948C311.332 216.948 300.792 229.83 293.673 229.443C282.455 228.799 285.278 215.11 288.392 205.53C290.068 200.39 291.613 196.349 291.613 196.349C291.613 196.349 290.5 196.642 288.099 196.993C286.847 197.169 284.588 197.298 284.588 197.298C282.011 201.839 279.206 206.243 276.179 210.496C272.443 215.461 256.575 232.523 247.206 229.104C238.564 225.942 241.422 212.709 246.458 202.17C253.799 186.841 274.458 164.813 286.366 167.706C298.721 170.704 286.648 193.235 286.648 193.235C286.648 193.235 286.648 193.316 286.776 193.375C287.555 193.516 288.358 193.472 289.119 193.246C290.662 192.934 292.176 192.483 293.639 191.899C293.639 191.899 306.051 165.903 319.763 148.899C333.476 131.895 360.867 102.643 371.605 109.728C374.228 111.473 373.034 117.468 369.497 124.752C367.904 125.256 366.285 125.678 364.651 126.017C366.61 122.764 368.094 119.246 369.054 115.571C370.668 106.788 350.151 125.302 335.492 145.234C326.674 157.241 318.842 169.941 312.07 183.211C314.72 181.601 317.248 179.8 319.635 177.824C326.176 172.4 332.392 166.597 338.254 160.446C343.878 154.651 349.155 148.527 354.052 142.107C355.62 142.033 357.184 141.873 358.736 141.627C353.375 148.895 347.536 155.797 341.254 162.284C340.735 162.801 340.213 163.324 339.69 163.848C334.285 169.26 328.588 174.967 323.57 179.194C318.673 183.384 313.504 187.249 308.101 190.764C308.101 190.764 295.219 216.62 302.246 218.283C306.343 219.266 314.448 206.795 314.448 206.795C314.448 206.795 324.987 190.67 331.382 183.374C340.024 173.538 347.506 167.87 354.941 167.718C359.299 167.635 361.864 172.284 361.864 172.284L363.912 169.111H376.523C376.523 169.111 352.975 209.067 351.089 212.076L351.123 212.1ZM359.029 176.758C359.182 176.486 359.308 176.2 359.404 175.903C359.344 175.435 359.125 175.002 358.784 174.676C358.444 174.35 358 174.15 357.529 174.111C355.586 174.018 352.916 174.392 345.949 182.11C340.159 188.5 335.179 195.579 331.123 203.189C327.129 210.484 325.513 215.917 327.808 217.323C328.554 217.705 329.416 217.793 330.223 217.569C331.78 217.194 333.535 215.742 336.217 212.639C337.221 211.476 338.314 209.922 339.564 208.146L339.576 208.13C339.884 207.694 340.2 207.244 340.527 206.784C345.14 200.507 356.733 180.74 359.029 176.746V176.758ZM286.588 185.142C287.759 182.098 289.236 176.126 286.156 173.784C282.841 171.289 274.446 177.133 274.364 183.152C274.282 189.171 280.301 192.064 281.741 192.45C282.56 192.672 282.841 192.637 283.239 191.981C284.512 189.79 285.633 187.513 286.588 185.166V185.142ZM280.207 196.326C278.116 195.359 276.168 194.115 274.41 192.626C272.642 191.149 271.161 189.358 270.043 187.344C269.945 187.179 269.849 187.287 269.746 187.402C269.723 187.426 269.702 187.451 269.679 187.473C269.547 187.605 269.023 188.13 264.526 194.71C260.006 201.326 253.12 214.957 259.373 217.288C263.379 218.775 270.043 211.76 273.696 207.111C276.17 203.869 278.41 200.457 280.406 196.9C280.594 196.502 280.406 196.408 280.207 196.326Z" fill="#151515"/>
<path d="M209.207 138.699H197.216L190.437 149.66H202.428L209.207 138.699Z" fill="#151515"/>
<path fill-rule="evenodd" clip-rule="evenodd" d="M181.056 168.691H185.412C185.412 168.691 163.397 200.508 150.95 199.056C144.005 198.248 146.066 189.687 146.066 189.687C146.066 189.687 136.288 201.105 127.33 198.821C119.202 196.737 124.449 183.235 124.449 183.235C124.311 183.291 123.8 183.781 122.989 184.56C118.383 188.987 104.099 202.712 93.5922 198.669C80.7112 193.681 87.3739 177.087 89.8336 172.098C91.9177 167.894 94.2248 163.795 94.2248 163.795C94.2248 163.795 92.2456 164.358 91.0042 164.639C89.7635 164.92 87.9013 165.283 87.9013 165.283C87.9013 165.283 81.7883 175.225 78.0528 180.178C74.3174 185.132 58.4265 202.183 49.0695 198.786C39.7134 195.39 42.0438 182.298 47.2897 171.852C55.8152 154.989 76.0504 134.262 88.2756 137.377C100.502 140.492 90.3954 160.481 90.3954 160.481C90.3954 160.481 92.843 160.798 98.7096 156.793C101.133 155.144 103.774 152.697 106.593 150.087C113.623 143.575 121.751 136.046 130.327 137.342C135.995 138.197 141.277 144.017 134.052 155.06C131.709 158.573 127.857 161.781 124.882 158.643C123.032 156.711 124.648 153.139 126.592 150.703C127.352 149.711 128.344 148.92 129.482 148.402C130.619 147.883 131.867 147.652 133.114 147.729C133.114 147.729 135.105 143.15 130.035 143.244C125.924 143.326 115.525 152.893 109.659 162.566C104.342 171.478 96.2035 186.607 104.342 189.909C111.849 192.943 126.135 175.986 132.751 167.098C139.368 158.21 154.427 138.068 167.074 137.26C171.431 136.979 174.019 140.949 174.019 140.949L175.482 138.606H188.105C188.105 138.606 164.334 178.41 162.472 181.397C161.009 183.738 159.064 189.043 164.451 186.081C169.838 183.118 181.056 168.691 181.056 168.691ZM152.425 176.618C157.53 169.592 171.606 145.117 171.606 145.117C171.546 144.649 171.327 144.216 170.986 143.89C170.645 143.564 170.203 143.365 169.733 143.326C167.789 143.232 164.557 143.888 158.022 151.968C151.488 160.048 146.617 166.477 142.987 173.164C138.981 180.459 137.236 185.612 139.532 187.005C140.278 187.383 141.137 187.47 141.944 187.251C143.443 186.877 145.398 185.378 148.081 182.286C149.345 180.846 150.773 178.902 152.448 176.618H152.425ZM88.1 143.478C84.7859 140.972 76.3903 146.827 76.308 152.846C76.2259 158.865 83.9195 160.739 84.9151 160.786C85.1371 160.845 85.3721 160.828 85.584 160.739C85.796 160.65 85.972 160.494 86.0863 160.294C86.9866 158.53 87.796 156.72 88.5102 154.872C89.6812 151.827 91.1446 145.855 88.065 143.513L88.1 143.478ZM83.0649 164.592C80.7803 163.877 78.5958 162.874 76.5657 161.606C74.5851 160.327 72.9713 158.555 71.8817 156.465C71.7795 156.291 71.6686 156.42 71.5639 156.542C71.5488 156.559 71.5337 156.577 71.5186 156.594C71.4014 156.723 70.7224 157.612 66.214 164.229C61.7053 170.845 55.0189 184.382 61.2835 186.701C65.2885 188.188 72.0221 181.15 75.6642 176.501C78.4083 172.873 80.9458 169.092 83.2636 165.177C83.416 164.779 83.2636 164.686 83.0411 164.615L83.0649 164.592Z" fill="#151515"/>
<path d="M174.17 232.394C164.857 225.949 153.707 222.694 142.389 223.12C139.325 223.202 136.324 224.007 133.63 225.468C130.936 226.929 128.625 229.005 126.884 231.528C122.06 223.108 112.528 217.944 97.7845 218.061C85.3016 218.202 72.8677 221.286 61.1671 224.188C50.542 226.823 40.5218 229.309 31.6213 229.303C13.6577 229.303 0.577217 218.014 1.01045 197.977C1.78365 162.846 31.4572 131.228 53.707 116.965C66.4594 108.768 77.1273 106.355 84.1537 107.14C89.2476 107.702 95.3719 113.592 91.5073 122.27C85.8281 134.976 77.9824 133.91 78.2752 127.844C78.3968 126.261 78.8927 124.73 79.721 123.377C80.5498 122.023 81.6878 120.885 83.0408 120.056C84.4777 119.275 86.0897 118.871 87.7255 118.885C88.896 117.937 89.7042 110.993 80.5699 113.276C71.4363 115.56 60.3114 124.541 49.8191 136.135C39.3268 147.728 23.0026 169.627 18.9624 192.626C17.0772 203.294 18.3298 222.745 43.554 222.534C53.2792 222.454 65.1115 219.504 77.8527 216.327C93.1726 212.507 109.805 208.36 125.666 208.482C135.784 208.439 145.72 211.16 154.403 216.351C161.922 221.036 170.927 227.734 174.124 232.347L174.17 232.394Z" fill="#151515"/>
</svg>
