<svg width="338" height="340" viewBox="0 0 338 340" fill="none" xmlns="http://www.w3.org/2000/svg">
<path fill-rule="evenodd" clip-rule="evenodd" d="M133.877 175.686L148.806 174.455L141.273 154.478L133.877 175.686ZM182.262 142.075C182.75 142.534 183.249 143.14 183.761 143.892C184.272 144.644 184.801 145.429 185.345 146.246L204.809 174.057V144.369C204.809 142.44 205.224 140.959 206.054 139.925C206.075 139.898 206.1 139.875 206.121 139.848L182.137 141.968C182.178 142.004 182.22 142.037 182.262 142.075ZM182.137 141.968C182.109 141.945 182.092 141.93 182.081 141.919C182.104 141.939 182.137 141.968 182.137 141.968ZM122.479 139.188L127.77 138.71C129.445 138.558 130.573 137.368 130.573 135.754V106.913C130.573 105.563 131.106 104.257 132.121 103.08C133.141 101.962 134.408 101.329 135.889 101.195L143.003 100.551C144.428 100.422 145.651 100.841 146.677 101.84C147.706 102.783 148.223 103.955 148.223 105.316V134.157C148.223 135.772 149.355 136.757 151.03 136.605L156.409 136.118C156.676 136.094 156.934 136.01 157.178 135.881C158.781 135.026 159.121 133.938 159.121 133.171V104.33C159.121 102.975 159.653 101.67 160.67 100.497C161.69 99.3782 162.957 98.7458 164.437 98.6118L171.549 97.9684C172.987 97.8381 174.221 98.2564 175.315 99.2484C176.347 100.192 176.865 101.364 176.865 102.725V131.565C176.865 133.18 177.994 134.165 179.669 134.014L184.955 133.536C186.63 133.384 187.759 132.195 187.759 130.58V101.739C187.759 97.4447 186.117 94.0543 182.903 91.6763C179.794 89.2834 175.972 88.2785 171.549 88.6789L164.437 89.3225C160.243 89.7017 156.632 91.2086 153.672 93.8079C150.726 91.7432 147.143 90.8871 143.003 91.2618L135.889 91.9056C131.504 92.302 127.66 93.9946 124.442 96.9658C121.327 99.9168 119.679 103.698 119.679 107.899V136.74C119.678 138.355 120.805 139.34 122.479 139.188ZM265.171 122.258C268.275 124.639 272.093 125.65 276.524 125.249C282.66 124.694 287.307 123.678 290.759 122.146C291.954 121.603 292.641 120.6 292.641 119.391V115.908C292.646 113.629 290.743 113.096 289.398 113.555C286.145 114.632 281.935 115.392 276.524 115.882C275.044 116.015 273.777 115.613 272.755 114.673C271.73 113.728 271.21 112.537 271.21 111.118V94.2645C271.21 92.8524 271.73 91.5604 272.755 90.4368C273.782 89.3127 275.048 88.6796 276.524 88.5463C281.93 88.0572 286.259 88.0569 289.379 88.5412C290.915 88.7874 292.641 87.8649 292.641 85.6046V82.1199C292.641 80.9745 292.028 80.1082 290.838 79.6969C287.409 78.789 282.725 78.6181 276.524 79.1794C272.098 79.5798 268.245 81.3119 265.078 84.3226C261.963 87.2719 260.315 91.0555 260.315 95.2499V112.104C260.315 116.368 261.946 119.78 265.171 122.258ZM333.12 78.0827C330.011 75.6901 326.189 74.6854 321.766 75.0855C316.224 75.5867 312.049 76.3123 309.289 77.2675C307.321 78.0186 307.107 79.4883 307.107 80.0836V83.7271C307.107 84.4338 307.295 85.0166 307.66 85.4585C308.127 86.018 308.824 86.2851 309.628 86.2122C309.76 86.2003 310.083 86.1437 310.213 86.1044C312.351 85.4534 316.238 84.8751 321.766 84.3748C323.19 84.2462 324.414 84.6649 325.441 85.6634C326.473 86.607 326.989 87.7787 326.989 89.1395V91.5493L314.654 92.6655C310.22 93.0666 306.371 94.7931 303.204 97.8035C300.046 100.803 298.443 104.452 298.443 108.654C298.443 112.911 300.076 116.326 303.297 118.808C306.403 121.189 310.223 122.199 314.654 121.799L335.172 119.942C336.768 119.798 337.886 118.583 337.886 116.995V88.1536C337.886 83.9589 336.236 80.4742 333.12 78.0827ZM326.989 111.315L314.654 112.431C313.174 112.565 311.907 112.162 310.887 111.222C309.858 110.278 309.335 109.087 309.335 107.668C309.335 106.306 309.858 105.04 310.887 103.917C311.907 102.798 313.174 102.165 314.654 102.032L326.989 100.915V111.315ZM242.065 144.36L235.383 144.911V178.788L243.052 178.155C244.734 178.016 246.052 177.862 247.007 177.693C247.962 177.523 248.949 177.215 249.971 176.767C250.994 176.32 251.881 175.736 252.632 175.016C256.017 171.876 257.711 166.812 257.711 159.821C257.711 154.896 256.965 151.268 255.478 148.94C253.989 146.611 252.153 145.203 249.971 144.712C247.792 144.223 245.155 144.105 242.065 144.36ZM99.8523 87.6015L108.7 86.8007C110.375 86.6488 111.503 85.4611 111.503 83.8455V79.793C111.503 78.4924 110.634 77.2587 108.7 77.4343L99.8523 78.2346C97.9179 78.4097 97.0519 79.8004 97.0519 81.101V85.1533C97.0519 86.7693 98.1772 87.7531 99.8523 87.6015ZM193.194 90.1843C193.821 89.8399 194.342 89.3708 194.762 88.8385L205.461 99.8538L199.079 102.011C198.877 101.393 198.51 100.836 197.971 100.421C196.391 99.2066 194.019 99.5935 192.659 101.289C191.302 102.984 191.477 105.342 193.052 106.557C194.627 107.771 197.006 107.379 198.361 105.685C198.735 105.221 198.981 104.708 199.123 104.177L205.527 107.157C205.527 107.284 205.508 107.408 205.508 107.535C205.508 121.229 216.621 131.326 230.331 130.085C244.042 128.845 255.157 116.737 255.157 103.042C255.157 89.3478 244.04 79.2521 230.331 80.4925C225.192 80.9577 220.417 82.95 216.458 85.9811L211.049 82.2377C211.449 81.6139 211.707 80.8967 211.744 80.1298C211.851 77.9153 210.146 76.1903 207.931 76.2791C205.724 76.3759 203.844 78.252 203.737 80.4712C203.633 82.6855 205.336 84.4104 207.548 84.3138C208.152 84.2908 208.726 84.1228 209.253 83.8602L210.436 91.2778L195.812 86.319C195.908 85.5052 195.801 84.6756 195.441 83.9222C194.386 81.7242 191.667 80.9647 189.372 82.2233C187.076 83.4818 186.07 86.2886 187.127 88.4861C188.177 90.6841 190.901 91.4466 193.194 90.1843ZM235.84 113.74C237.662 113.575 239.13 114.921 239.13 116.731C239.13 118.548 237.662 120.154 235.84 120.319C234.021 120.483 232.55 119.143 232.55 117.326C232.55 115.516 234.021 113.905 235.84 113.74ZM224.393 114.776C226.214 114.611 227.685 115.956 227.685 117.766C227.685 119.583 226.214 121.189 224.393 121.354C222.571 121.519 221.103 120.179 221.103 118.362C221.103 116.552 222.571 114.94 224.393 114.776ZM249.586 135.997C249.502 135.994 249.465 135.993 249.453 135.992C249.472 135.993 249.532 135.995 249.586 135.997ZM229.156 137.658C228.954 137.722 228.759 137.789 228.573 137.864L229.156 137.812V137.658ZM249.669 135.999C249.644 135.999 249.632 135.998 249.614 135.998C249.644 135.999 249.669 135.999 249.669 135.999ZM313.715 171.206C313.694 171.256 313.671 171.31 313.645 171.371C313.659 171.337 313.685 171.276 313.715 171.206ZM305.669 179.833C302.669 181.443 299.112 182.417 295 182.756C290.069 183.163 286.001 182.568 282.797 180.971C280.525 179.819 278.677 178.184 277.258 176.065C275.838 173.946 275.127 171.832 275.127 169.721C275.127 168.495 275.555 167.41 276.405 166.466C277.258 165.522 278.343 164.996 279.66 164.887C280.729 164.799 281.633 165.065 282.372 165.685C283.108 166.305 283.74 167.263 284.263 168.559C284.897 170.095 285.585 171.367 286.324 172.372C287.063 173.379 288.101 174.172 289.444 174.754C290.785 175.336 292.546 175.536 294.728 175.356C297.727 175.109 300.162 174.21 302.037 172.659C303.912 171.109 304.851 169.29 304.851 167.201C304.851 165.545 304.344 164.242 303.334 163.292C302.323 162.343 301.015 161.662 299.414 161.249C297.811 160.837 295.669 160.434 292.99 160.043C289.398 159.5 286.394 158.765 283.973 157.842C281.554 156.917 279.632 155.544 278.213 153.72C276.791 151.896 276.082 149.544 276.082 146.661C276.082 143.915 276.83 141.413 278.331 139.156C279.832 136.899 282 135.08 284.842 133.699C285.638 133.312 286.477 132.972 287.351 132.669L249.667 135.999C251.047 136.044 252.323 136.166 253.482 136.371C255.938 136.804 258.164 137.812 260.164 139.395C265.367 143.414 267.969 149.964 267.969 159.042C267.969 162.038 267.706 164.795 267.186 167.312C266.663 169.829 265.857 172.126 264.765 174.201C263.675 176.278 262.276 178.169 260.573 179.876C259.23 181.19 257.767 182.275 256.175 183.133C254.583 183.991 252.873 184.642 251.045 185.088C249.216 185.533 247.153 185.851 244.86 186.041L231.667 187.129C229.827 187.281 228.44 187.117 227.509 186.638C226.577 186.159 225.97 185.425 225.685 184.439C225.401 183.453 225.259 182.153 225.259 180.542V143.942C225.259 141.762 225.747 140.145 226.726 139.089C227.199 138.577 227.815 138.17 228.573 137.864L212.745 139.263C212.78 139.298 212.817 139.328 212.852 139.365C213.693 140.26 214.114 141.673 214.114 143.601V182.857C214.114 187.238 212.295 189.578 208.661 189.878C207.75 189.953 206.932 189.889 206.205 189.689C205.478 189.487 204.797 189.13 204.16 188.615C203.524 188.1 202.934 187.485 202.388 186.769C201.844 186.054 201.298 185.322 200.752 184.572L181.767 157.062V186.308C181.767 188.215 181.323 189.693 180.438 190.741C179.551 191.79 178.414 192.372 177.03 192.487C175.596 192.605 174.448 192.206 173.586 191.289C172.722 190.373 172.29 188.974 172.29 187.09V148.583C172.29 146.949 172.473 145.652 172.836 144.69C173.145 143.932 173.605 143.259 174.207 142.668L146.162 145.147C146.536 145.456 146.867 145.806 147.153 146.196C147.732 146.988 148.22 147.85 148.618 148.782C149.016 149.714 149.522 150.96 150.136 152.521L163.189 183.652C164.214 186.019 164.725 187.759 164.725 188.871C164.725 190.028 164.241 191.129 163.275 192.174C162.311 193.218 161.144 193.796 159.78 193.909C158.986 193.975 158.305 193.889 157.736 193.652C157.169 193.415 156.693 193.069 156.305 192.613C155.919 192.157 155.503 191.442 155.062 190.468C154.618 189.495 154.237 188.635 153.918 187.889L151.532 181.822L131.218 183.498L128.832 190.095C127.9 192.669 127.104 194.42 126.446 195.348C125.786 196.275 124.707 196.802 123.207 196.926C121.934 197.03 120.81 196.658 119.833 195.808C118.856 194.958 118.368 193.943 118.368 192.762C118.368 192.081 118.481 191.368 118.708 190.623C118.935 189.878 119.31 188.837 119.833 187.501L132.615 154.034C132.978 153.073 133.416 151.92 133.927 150.572C134.439 149.225 134.984 148.096 135.564 147.186C135.836 146.757 136.151 146.363 136.504 146.001L103.712 148.899C103.99 148.981 104.264 149.068 104.528 149.167C106.096 149.696 107.482 150.523 108.687 151.65C109.891 152.776 110.805 154.125 111.431 155.696C112.055 157.267 112.368 158.961 112.368 160.777C112.368 164.499 111.317 167.559 109.215 169.957C107.113 172.355 103.926 174.195 99.6542 175.478C101.449 176.283 103.165 177.55 104.801 179.275C106.437 181.002 107.897 182.862 109.181 184.855C110.465 186.849 111.465 188.662 112.181 190.294C112.897 191.926 113.254 193.06 113.254 193.694C113.254 194.353 113.044 195.023 112.624 195.705C112.203 196.386 111.629 196.944 110.902 197.379C110.175 197.813 109.335 198.07 108.38 198.149C107.243 198.242 106.289 198.054 105.517 197.584C104.744 197.115 104.079 196.494 103.523 195.723C102.966 194.952 102.21 193.811 101.256 192.301L97.1999 185.894C95.7454 183.54 94.4446 181.764 93.2972 180.565C92.1495 179.366 90.9845 178.577 89.8033 178.197C88.6216 177.818 87.1327 177.703 85.3381 177.851L81.7932 178.143V194.179C81.7932 196.29 81.3271 197.884 80.3959 198.959C79.4638 200.034 78.2484 200.634 76.7486 200.758C75.1347 200.891 73.8854 200.472 72.999 199.501C72.1129 198.53 71.67 197.035 71.67 195.014V156.61C71.67 154.431 72.1582 152.813 73.1354 151.757C73.1907 151.697 73.2551 151.643 73.3141 151.586L53.3082 153.354C53.7884 153.528 54.2519 153.727 54.695 153.959C55.8765 154.565 56.9218 155.37 57.8312 156.372C58.7397 157.376 59.433 158.511 59.9102 159.776C60.3874 161.042 60.6263 162.401 60.6263 163.853C60.6263 168.847 58.126 172.707 53.1274 175.435C59.6941 176.982 62.9781 180.774 62.9781 186.811C62.9781 189.603 62.262 192.176 60.8307 194.529C59.3988 196.883 57.4673 198.694 55.0363 199.961C53.5138 200.722 51.764 201.315 49.787 201.739C47.8098 202.163 45.5033 202.484 42.8674 202.701L27.5966 203.961C25.3921 204.142 23.8184 203.779 22.8758 202.869C22.785 202.781 22.6997 202.686 22.6175 202.586V204.563C22.6175 204.563 22.8064 204.927 23.1739 205.023C35.6979 208.303 255.425 265.844 255.425 265.844L313.634 174.209V171.399C313.318 172.158 312.946 172.899 312.504 173.618C310.948 176.153 308.668 178.224 305.669 179.833ZM53.3082 153.354C53.2868 153.347 53.2756 153.343 53.2589 153.337C53.2866 153.347 53.3082 153.354 53.3082 153.354ZM106.968 94.5223L101.587 95.0096C99.6516 95.1845 98.784 96.58 98.784 97.882V138.631C98.784 140.245 99.9114 141.231 101.587 141.079L106.968 140.592C108.642 140.441 109.769 139.251 109.769 137.637V96.8878C109.769 95.586 108.903 94.347 106.968 94.5223ZM313.155 141.402C312.669 141.402 312.653 141.747 312.653 141.747C312.653 141.79 312.658 141.832 312.658 141.875C312.658 143.078 312.23 144.197 311.378 145.232C310.527 146.267 309.463 146.837 308.192 146.941C307.033 147.037 306.152 146.82 305.55 146.291C304.946 145.762 304.293 144.868 303.589 143.61C302.681 141.801 301.589 140.421 300.318 139.471C299.045 138.52 297 138.161 294.182 138.393C291.568 138.609 289.461 139.357 287.86 140.634C286.257 141.913 285.455 143.358 285.455 144.969C285.455 145.968 285.729 146.808 286.273 147.489C286.819 148.171 287.569 148.733 288.524 149.176C289.479 149.62 290.443 149.949 291.422 150.163C292.397 150.378 294.012 150.676 296.261 151.058C299.077 151.484 301.631 152 303.912 152.606C306.196 153.212 308.141 154.016 309.742 155.019C311.345 156.022 312.593 157.354 313.492 159.017C313.541 159.11 313.585 159.21 313.634 159.305V141.748C313.634 141.747 313.571 141.402 313.155 141.402ZM39.4452 144V115.159C39.4452 110.964 37.7976 107.48 34.6805 105.088C31.5704 102.696 27.7471 101.691 23.3243 102.091C17.7824 102.592 13.6072 103.318 10.8458 104.273C8.87807 105.024 8.66687 106.494 8.66687 107.089V110.733C8.66687 111.439 8.85437 112.022 9.21683 112.464C9.68431 113.024 10.3837 113.29 11.1862 113.218C11.3184 113.206 11.6411 113.149 11.7703 113.11C13.9113 112.459 17.7961 111.881 23.3243 111.38C24.7469 111.252 25.9734 111.67 27.0015 112.669C28.029 113.613 28.548 114.784 28.548 116.145V118.555L16.2125 119.671C11.7807 120.072 7.93011 121.799 4.76536 124.808C1.60317 127.808 0 131.458 0 135.659C0 139.916 1.63431 143.334 4.85761 145.813C7.96264 148.194 11.7826 149.204 16.2125 148.803L36.7321 146.947C38.3299 146.802 39.4452 145.588 39.4452 144ZM28.5476 138.32L16.212 139.436C14.7327 139.57 13.4643 139.168 12.4457 138.227C11.4146 137.283 10.8957 136.092 10.8957 134.673C10.8957 133.312 11.4146 132.045 12.4457 130.922C13.4643 129.804 14.7327 129.171 16.212 129.037L28.5476 127.921V138.32ZM81.7932 170.891L90.86 170.144C93.2914 169.943 95.3367 169.565 96.9954 169.008C98.6541 168.451 99.9211 167.632 100.796 166.549C101.671 165.468 102.108 164.041 102.108 162.27C102.108 160.886 101.755 159.695 101.051 158.697C100.347 157.7 99.3698 156.992 98.12 156.573C96.9383 156.172 94.6093 156.113 91.1323 156.4L81.7928 157.17V170.891H81.7932ZM52.2415 145.544L57.5322 145.065C59.2071 144.914 60.3314 143.725 60.3314 142.11V113.269C60.3314 111.919 60.8635 110.614 61.8814 109.435C62.9019 108.317 64.1681 107.684 65.6477 107.551L72.7634 106.907C74.1879 106.778 75.4094 107.197 76.437 108.195C77.4661 109.139 77.9854 110.31 77.9854 111.671V140.512C77.9854 142.127 79.1124 143.112 80.7876 142.961L86.1713 142.473C87.7658 142.329 88.8813 141.114 88.8813 139.526V110.685C88.8813 106.391 87.2387 103.001 84.0267 100.623C80.9187 98.2299 77.1296 97.2222 72.7634 97.6173L65.6477 98.2611C61.2664 98.6578 57.4204 100.35 54.2022 103.322C51.087 106.273 49.4387 110.054 49.4387 114.255V143.096C49.4392 144.71 50.5663 145.696 52.2415 145.544ZM50.0593 181.646C48.2872 180.658 45.6392 180.308 42.1176 180.599L31.5852 181.467V196.039L42.4584 195.142C49.2982 194.578 52.7185 191.834 52.7185 186.908C52.718 184.389 51.8319 182.635 50.0593 181.646ZM31.5848 174.215L40.8562 173.451C43.3785 173.243 45.3267 172.844 46.7019 172.254C48.0765 171.664 49.1276 170.669 49.8548 169.27C50.4227 168.27 50.7071 167.179 50.7071 165.999C50.7071 163.48 49.8091 161.88 48.0142 161.199C46.2194 160.519 43.481 160.331 39.7997 160.634L31.5852 161.312V174.215H31.5848Z" fill="#151515"/>
</svg>
