<svg width="310" height="340" viewBox="0 0 310 340" fill="none" xmlns="http://www.w3.org/2000/svg">
<mask id="mask0_2475_3389" style="mask-type:luminance" maskUnits="userSpaceOnUse" x="0" y="127" width="310" height="87">
<path d="M310 127H0V213.912H310V127Z" fill="white"/>
</mask>
<g mask="url(#mask0_2475_3389)">
<path d="M90.9168 127H2.06629C1.51828 127 0.992685 127.203 0.605185 127.566C0.217685 127.928 0 128.419 0 128.931V211.977C0 212.489 0.217685 212.981 0.605185 213.343C0.992685 213.705 1.51828 213.908 2.06629 213.908H90.9168C91.4654 213.908 91.9904 213.705 92.3785 213.343C92.7658 212.981 92.9839 212.489 92.9839 211.977V128.931C92.9839 128.419 92.7658 127.928 92.3785 127.566C91.9904 127.203 91.4654 127 90.9168 127ZM61.989 183.008C61.989 183.52 61.7713 184.011 61.3838 184.374C60.9963 184.736 60.4707 184.939 59.9227 184.939H33.0608C32.5128 184.939 31.9872 184.736 31.5997 184.374C31.2122 184.011 30.9945 183.52 30.9945 183.008V157.901C30.9945 157.389 31.2122 156.897 31.5997 156.535C31.9872 156.173 32.5128 155.97 33.0608 155.97H59.9227C60.4707 155.97 60.9963 156.173 61.3838 156.535C61.7713 156.897 61.989 157.389 61.989 157.901V183.008Z" fill="#151515"/>
<path d="M276.926 155.974H250.063C248.923 155.974 247.998 156.838 247.998 157.905V183.012C247.998 184.078 248.923 184.943 250.063 184.943H276.926C278.067 184.943 278.992 184.078 278.992 183.012V157.905C278.992 156.838 278.067 155.974 276.926 155.974Z" fill="#151515"/>
<path d="M245.934 127.001H219.074C217.932 127.001 217.007 127.866 217.007 128.932V154.039C217.007 155.106 217.932 155.97 219.074 155.97H245.934C247.076 155.97 248.003 155.106 248.003 154.039V128.932C248.003 127.866 247.076 127.001 245.934 127.001Z" fill="#151515"/>
<path d="M307.933 127.001H281.071C279.929 127.001 279.004 127.866 279.004 128.932V154.039C279.004 155.106 279.929 155.97 281.071 155.97H307.933C309.073 155.97 309.998 155.106 309.998 154.039V128.932C309.998 127.866 309.073 127.001 307.933 127.001Z" fill="#151515"/>
<path d="M245.934 184.943H219.074C217.932 184.943 217.007 185.808 217.007 186.875V211.982C217.007 213.048 217.932 213.913 219.074 213.913H245.934C247.076 213.913 248.003 213.048 248.003 211.982V186.875C248.003 185.808 247.076 184.943 245.934 184.943Z" fill="#151515"/>
<path d="M307.933 184.943H281.071C279.929 184.943 279.004 185.808 279.004 186.875V211.982C279.004 213.048 279.929 213.913 281.071 213.913H307.933C309.073 213.913 309.998 213.048 309.998 211.982V186.875C309.998 185.808 309.073 184.943 307.933 184.943Z" fill="#151515"/>
<path d="M199.408 127.001H172.547C171.405 127.001 170.479 127.866 170.479 128.932V154.039C170.479 155.106 171.405 155.97 172.547 155.97H199.408C200.55 155.97 201.475 155.106 201.475 154.039V128.932C201.475 127.866 200.55 127.001 199.408 127.001Z" fill="#151515"/>
<path d="M199.408 184.943H172.547C171.405 184.943 170.479 185.808 170.479 186.875V211.982C170.479 213.048 171.405 213.913 172.547 213.913H199.408C200.55 213.913 201.475 213.048 201.475 211.982V186.875C201.475 185.808 200.55 184.943 199.408 184.943Z" fill="#151515"/>
<path d="M170.471 157.879C170.471 157.367 170.252 156.876 169.867 156.514C169.479 156.151 168.953 155.948 168.404 155.948H139.476V128.931C139.476 128.419 139.258 127.928 138.87 127.566C138.484 127.203 137.958 127 137.41 127H110.548C110 127 109.475 127.203 109.087 127.566C108.7 127.928 108.481 128.419 108.481 128.931V211.934C108.481 212.446 108.7 212.937 109.087 213.3C109.475 213.662 110 213.865 110.548 213.865H137.41C137.958 213.865 138.484 213.662 138.87 213.3C139.258 212.937 139.476 212.446 139.476 211.934V184.917H168.404C168.953 184.917 169.479 184.714 169.867 184.352C170.252 183.989 170.471 183.498 170.471 182.986V157.879Z" fill="#151515"/>
</g>
</svg>
