<svg width="501" height="340" viewBox="0 0 501 340" fill="none" xmlns="http://www.w3.org/2000/svg">
<path d="M72.9945 108C81.3205 108 89.3789 109.632 97.0029 112.83C101.049 114.529 104.928 116.694 108.539 119.226L107.77 119.625L97.8721 124.655C90.3152 120.458 81.7219 118.259 72.9945 118.259C72.8608 118.259 72.7271 118.259 72.5932 118.259C65.8722 118.326 59.3186 119.659 53.1326 122.223C46.9464 124.822 41.396 128.519 36.6476 133.249C26.9509 142.942 21.6006 155.8 21.6006 169.457C21.6006 171.689 21.7346 173.921 22.0355 176.153L22.1356 176.852L22.7711 176.519L108.204 133.116L125.893 124.122L145.922 113.929V125.455L125.291 135.947L115.16 141.077L25.1117 186.879L24.7104 187.112L20.096 189.444L15.4147 191.808V191.775L14.9801 191.975L0 199.603V188.078L5.0826 185.513C9.32923 183.348 11.8704 178.884 11.5026 174.121C11.4022 172.555 11.3353 170.99 11.3353 169.424C11.3353 161.13 12.9737 153.069 16.1838 145.474C19.2936 138.146 23.7407 131.584 29.3916 125.921C35.0428 120.291 41.6301 115.828 48.9861 112.73C56.5766 109.632 64.6685 108 72.9945 108Z" fill="#151515"/>
<path d="M145.955 140.878V152.403L140.873 154.968C136.627 157.133 134.085 161.597 134.453 166.36C134.587 167.926 134.62 169.525 134.62 171.09C134.62 179.385 132.982 187.445 129.772 195.04C126.662 202.369 122.215 208.931 116.564 214.593C110.913 220.256 104.292 224.686 96.9693 227.784C89.3789 230.982 81.2869 232.614 72.9609 232.614C64.6349 232.614 56.5766 230.982 48.9528 227.784C44.8735 226.052 40.9946 223.887 37.3834 221.355L47.6151 216.159L48.0165 215.959C55.5734 220.156 64.2003 222.388 72.9609 222.388C73.0949 222.388 73.195 222.388 73.329 222.388C80.0499 222.355 86.6036 221.022 92.7895 218.424C98.9754 215.826 104.526 212.128 109.274 207.398C118.971 197.738 124.321 184.847 124.321 171.19C124.321 168.959 124.188 166.693 123.887 164.462L123.786 163.762L123.151 164.095L37.6508 207.432L19.9623 216.426L0 226.552V215.027L20.5641 204.567L30.6958 199.437L145.955 140.878Z" fill="#151515"/>
<path d="M249.114 150.237H237.812C234.971 140.678 225.607 137.48 217.248 137.48C210.862 137.48 199.66 140.311 199.66 149.538C199.66 156.833 205.478 160.464 213.135 162.163L222.73 164.328C235.404 167.059 250.584 171.823 250.584 188.444C250.584 204.6 235.506 213.128 219.054 213.128C199.526 213.128 187.188 202.535 185.014 186.046H196.45C198.624 197.438 206.615 203.334 219.288 203.334C231.492 203.334 238.582 197.538 238.582 189.444C238.582 180.783 231.16 177.152 220.759 174.887L210.494 172.722C199.192 170.224 187.756 163.961 187.756 150.204C187.756 134.515 204.308 127.687 217.683 127.687C232.563 127.72 245.905 134.315 249.114 150.237Z" fill="#151515"/>
<path d="M276.3 135.115V150.471H287.935V158.766H276.3V195.04C276.3 201.403 276.768 203.001 282.686 203.001H287.935V211.662H280.411C268.643 211.662 265.9 209.031 265.9 196.306V158.766H256.204V150.471H265.9V135.115H276.3Z" fill="#151515"/>
<path d="M323.112 204.067C332.238 204.067 337.256 199.97 339.898 193.941H350.63C347.788 204.534 338.057 213.161 323.112 213.161C303.684 213.161 292.949 199.271 292.949 181.183C292.949 161.83 305.959 149.438 322.744 149.438C341.469 149.438 352.771 165.127 351.4 184.481H304.118C304.619 197.672 313.983 204.067 323.112 204.067ZM340.465 175.62C340.23 166.96 333.743 158.332 322.776 158.332C313.514 158.332 305.189 163.329 304.286 175.62H340.465Z" fill="#151515"/>
<path d="M361.264 211.663V129.187H371.66V211.663H361.264Z" fill="#151515"/>
<path d="M384.439 211.663V129.187H394.835V211.663H384.439Z" fill="#151515"/>
<path d="M445.994 174.021V172.555C445.994 161.397 439.706 157.666 432.05 157.666C423.49 157.666 418.473 162.329 418.007 169.824H407.272C408.308 156.633 419.946 149.238 431.948 149.238C448.835 149.238 456.492 157.299 456.393 174.487L456.292 188.578C456.191 198.804 456.761 205.866 457.898 211.662H447.397C447.065 209.397 446.729 206.898 446.596 203.234C442.817 209.497 436.431 213.127 425.597 213.127C414.06 213.127 404.465 206.765 404.465 195.506C404.43 181.083 420.747 176.853 445.994 174.021ZM415.967 195.306C415.967 201.102 420.415 204.966 427.837 204.966C437.533 204.966 446.795 200.536 446.795 186.079V182.216C427.938 184.148 415.967 186.879 415.967 195.306Z" fill="#151515"/>
<path d="M494.181 160.83C484.586 160.83 479.803 166.193 479.803 179.617V211.695H469.403V150.471H479.568V161.163C482.644 154.235 488.932 150.371 496.924 150.138C497.96 150.138 498.863 150.138 500 150.238V161.263C497.827 161.064 495.885 160.83 494.181 160.83Z" fill="#151515"/>
</svg>
