<svg width="469" height="340" viewBox="0 0 469 340" fill="none" xmlns="http://www.w3.org/2000/svg">
<path d="M146.028 134.879C140.562 134.879 135.292 135.561 133.145 136.146C130.022 137.024 129.241 138.388 128.655 141.215L116.261 198.337C116.065 199.507 115.87 200.482 115.87 201.456C115.87 204.286 117.725 206.135 120.75 206.135C124.069 206.135 125.435 203.991 126.118 200.677L129.631 184.398C132.071 184.69 135.292 184.982 139.879 184.982C160.082 184.982 172.671 174.065 172.671 157.591C172.672 143.164 162.619 134.879 146.028 134.879ZM139.391 175.624C136.268 175.624 133.828 175.527 131.583 175.234L138.122 144.919C140.172 144.626 143.198 144.236 146.321 144.236C157.056 144.236 162.522 149.305 162.522 157.688C162.522 168.411 154.714 175.625 139.389 175.625L139.391 175.624Z" fill="#151515"/>
<path d="M463.999 187.318C462.339 187.318 461.267 188.293 459.217 190.535C455.603 194.239 453.361 196.285 450.53 196.285C447.993 196.285 446.627 194.239 446.627 190.924C446.627 189.073 447.018 186.831 447.504 184.394L451.118 167.432H461.954C465.37 167.432 467.42 165.483 467.42 161.974C467.42 160.024 466.15 158.562 463.223 158.562H453.067L454.825 150.666C455.02 149.497 455.216 148.424 455.216 147.45C455.216 144.72 453.361 142.771 450.335 142.771C447.114 142.771 445.649 144.915 444.968 148.229L442.722 158.562H438.136C434.623 158.562 432.573 160.512 432.573 164.021C432.573 165.97 433.939 167.432 436.866 167.432H440.867L437.256 184.197C436.866 186.049 436.377 189.071 436.377 192.191C436.377 200.086 440.477 205.837 449.26 205.837C454.336 205.837 458.827 203.303 462.243 200.281C465.56 197.356 468 193.75 468 191.41C468 189.17 466.244 187.318 463.999 187.318Z" fill="#151515"/>
<path d="M239.528 140.632C239.528 137.803 237.576 135.953 234.551 135.953C231.33 135.953 229.868 138.098 229.183 141.412L216.984 198.047C216.69 199.217 216.495 200.191 216.495 201.166C216.495 203.996 218.446 205.845 221.376 205.845C224.693 205.845 226.158 203.7 226.842 200.386L239.043 143.751C239.236 142.582 239.528 141.607 239.528 140.632Z" fill="#151515"/>
<path d="M413.739 157.593C398.124 157.593 387.486 173.093 387.486 187.812C387.486 188.087 387.493 188.36 387.502 188.631C385.052 192.345 381.923 196.195 379.777 196.195C378.216 196.195 377.63 194.733 377.63 192.49C377.63 189.761 378.408 185.179 379.288 181.183L387.389 143.751C387.584 142.582 387.779 141.607 387.779 140.632C387.779 137.803 385.924 135.953 382.899 135.953C379.582 135.953 378.216 138.098 377.531 141.412L373.14 161.688C370.798 159.251 367.38 157.593 362.208 157.593C351.837 157.593 341.408 165.568 337.342 177.796C332.866 189.356 328.865 196.195 325.709 196.195C324.538 196.195 323.854 195.22 323.854 193.563C323.854 188.689 326.586 176.798 327.759 171.045C328.149 168.9 328.344 168.024 328.344 166.756C328.344 162.467 321.218 157.398 311.946 157.398C301.226 157.398 291.515 164.179 286.647 174.258C279.415 187.021 272.78 196.197 269.494 196.197C268.03 196.197 267.543 194.344 267.153 192.589L264.712 179.137L279.644 166.953C281.009 165.782 282.768 164.123 282.768 161.981C282.768 159.35 281.009 157.595 278.376 157.595C276.425 157.595 274.763 158.765 273.105 160.13L250.661 178.648L258.177 143.751C258.372 142.582 258.663 141.607 258.663 140.632C258.663 137.803 256.712 135.953 253.686 135.953C250.466 135.953 249.003 138.098 248.319 141.412L236.12 198.047C235.826 199.217 235.631 200.191 235.631 201.166C235.631 203.996 237.585 205.845 240.511 205.845C243.829 205.845 245.293 203.7 245.978 200.386L247.539 193.075L256.712 185.667L258.957 196.974C259.837 201.458 262.178 205.845 268.23 205.845C274.25 205.845 278.983 200.353 283.729 192.934C285.167 200.705 290.703 205.845 298.386 205.845C306.095 205.845 311.365 201.263 314.781 195.122V195.317C314.781 201.654 318.002 205.845 323.663 205.845C328.78 205.845 333.032 202.763 336.829 196.21C338.982 201.92 343.798 205.845 350.498 205.845C358.404 205.845 364.065 201.069 367.676 194.44V195.025C367.676 202.043 371.189 205.847 376.946 205.847C382.032 205.847 386.353 202.901 390.039 198.1C392.846 202.896 397.871 205.847 404.664 205.847C420.279 205.847 430.918 190.349 430.918 175.532C430.918 165.099 424.572 157.593 413.739 157.593ZM316.436 177.381C313.603 189.565 307.557 196.486 300.725 196.486C296.138 196.486 293.599 192.977 293.599 187.715C293.599 177.382 301.115 166.269 311.163 166.269C314.189 166.269 316.53 167.147 318.58 168.414L316.436 177.381ZM370.798 172.217C367.674 186.546 360.55 196.489 352.743 196.489C348.447 196.489 345.911 193.175 345.911 187.718C345.911 177.287 353.135 166.467 362.796 166.467C366.503 166.467 369.334 167.734 371.384 169.391L370.798 172.217ZM405.835 196.487C400.176 196.487 397.832 192.393 397.832 187.227C397.832 177.771 404.37 166.951 412.571 166.951C418.229 166.951 420.573 171.045 420.573 176.211C420.571 185.765 414.033 196.487 405.835 196.487Z" fill="#151515"/>
<path d="M196.979 157.594C181.363 157.594 170.726 173.093 170.726 187.812C170.726 198.339 177.069 205.845 187.903 205.845C203.518 205.845 214.157 190.347 214.157 175.53C214.157 165.1 207.811 157.594 196.979 157.594ZM189.074 196.487C183.413 196.487 181.071 192.393 181.071 187.227C181.071 177.771 187.61 166.951 195.808 166.951C201.469 166.951 203.811 171.046 203.811 176.212C203.811 185.765 197.272 196.487 189.074 196.487Z" fill="#151515"/>
<path d="M47.9576 140.931C57.9032 140.931 65.9659 136.246 65.9659 130.466C65.9659 124.686 57.9032 120 47.9576 120C38.0117 120 29.9492 124.686 29.9492 130.466C29.9492 136.246 38.0117 140.931 47.9576 140.931Z" fill="#151515"/>
<path d="M47.9576 219.755C57.9032 219.755 65.9659 215.07 65.9659 209.29C65.9659 203.51 57.9032 198.824 47.9576 198.824C38.0117 198.824 29.9492 203.51 29.9492 209.29C29.9492 215.07 38.0117 219.755 47.9576 219.755Z" fill="#151515"/>
<path d="M22.8584 155.404C27.831 146.801 27.7997 137.484 22.7878 134.594C17.7761 131.704 9.68201 136.335 4.70908 144.938C-0.263611 153.541 -0.232296 162.858 4.77942 165.748C9.79113 168.638 17.8854 164.007 22.8584 155.404Z" fill="#151515"/>
<path d="M91.2148 194.821C96.1875 186.218 96.1562 176.901 91.1442 174.011C86.1325 171.121 78.0385 175.752 73.0655 184.355C68.0928 192.958 68.1241 202.275 73.1359 205.165C78.1476 208.055 86.2419 203.424 91.2148 194.821Z" fill="#151515"/>
<path d="M22.7878 205.165C27.7997 202.275 27.831 192.958 22.8584 184.355C17.8854 175.752 9.79113 171.121 4.77942 174.011C-0.232296 176.901 -0.263611 186.218 4.70908 194.821C9.68201 203.424 17.7761 208.055 22.7878 205.165Z" fill="#151515"/>
<path d="M91.1442 165.751C96.1562 162.861 96.1875 153.544 91.2148 144.941C86.2419 136.338 78.1476 131.707 73.1359 134.597C68.1241 137.487 68.0928 146.804 73.0655 155.407C78.0385 164.01 86.1325 168.641 91.1442 165.751Z" fill="#151515"/>
</svg>
