<svg width="292" height="340" viewBox="0 0 292 340" fill="none" xmlns="http://www.w3.org/2000/svg">
<g clip-path="url(#clip0_2475_4174)">
<path d="M99.9041 90.4311C101.699 91.6512 103.168 93.281 104.674 94.8203C105.327 95.4806 105.982 96.1391 106.637 96.7977C106.871 97.033 106.871 97.033 107.109 97.2732C108.003 98.1716 108.916 99.0224 109.893 99.8343C111.163 100.937 112.326 102.163 113.515 103.351C114.784 104.618 116.06 105.857 117.435 107.015C118.662 108.089 119.789 109.271 120.94 110.423C122.001 111.48 123.079 112.49 124.225 113.458C125.396 114.485 126.474 115.61 127.573 116.711C128.612 117.745 129.67 118.73 130.789 119.678C131.619 120.401 132.388 121.183 133.164 121.962C134.568 123.37 134.568 123.37 136.059 124.69C137.264 125.691 138.347 126.816 139.455 127.919C140.397 128.852 141.351 129.746 142.371 130.594C143.421 131.508 144.389 132.51 145.37 133.494C146.128 133.159 146.656 132.786 147.241 132.208C147.407 132.046 147.573 131.883 147.745 131.715C147.924 131.537 148.103 131.359 148.29 131.175C148.48 130.987 148.672 130.799 148.868 130.605C149.502 129.983 150.133 129.358 150.763 128.734C151.203 128.3 151.644 127.866 152.084 127.432C153.007 126.522 153.931 125.611 154.852 124.699C156.031 123.534 157.21 122.37 158.391 121.207C159.301 120.31 160.209 119.413 161.12 118.516C161.554 118.086 161.989 117.657 162.424 117.229C163.034 116.627 163.643 116.024 164.252 115.421C164.431 115.246 164.608 115.071 164.791 114.89C165.602 114.087 166.387 113.275 167.139 112.418C168.079 111.345 169.081 110.339 170.098 109.334C170.297 109.136 170.497 108.938 170.702 108.733C171.357 108.084 172.011 107.435 172.668 106.786C172.894 106.563 173.119 106.34 173.351 106.11C174.421 105.051 175.49 103.993 176.563 102.935C177.79 101.722 179.018 100.507 180.241 99.2902C181.31 98.2297 182.381 97.1721 183.452 96.1152C183.905 95.6682 184.356 95.2205 184.806 94.7718C185.438 94.1429 186.074 93.517 186.71 92.8919C186.893 92.7088 187.076 92.5256 187.264 92.337C189.993 89.6737 192.993 88.027 196.858 88C198.595 88.0237 200.147 88.1492 201.751 88.8527C201.993 88.9523 202.234 89.0521 202.484 89.1548C204.39 90.0099 205.812 91.1226 207.289 92.5728C207.464 92.7454 207.64 92.918 207.821 93.0959C208.134 93.4056 208.446 93.7172 208.753 94.0318C209.218 94.4755 209.69 94.8858 210.18 95.299C211.781 96.6688 213.245 98.1808 214.734 99.6665C216.077 101.004 217.418 102.322 218.871 103.544C220.154 104.667 221.331 105.906 222.536 107.11C223.63 108.198 224.736 109.242 225.916 110.239C227.086 111.263 228.162 112.388 229.259 113.487C230.294 114.518 231.35 115.5 232.468 116.446C233.522 117.367 234.492 118.376 235.478 119.368C236.456 120.342 237.461 121.262 238.515 122.157C239.3 122.842 240.03 123.579 240.765 124.318C241.817 125.368 242.878 126.381 244.022 127.335C244.867 128.078 245.65 128.879 246.445 129.672C247.155 130.379 247.875 131.053 248.646 131.696C250.319 133.109 251.735 134.452 251.918 136.688C251.875 137.932 251.56 138.955 250.668 139.877C249.614 140.8 248.821 141.218 247.387 141.26C247.083 141.274 247.083 141.274 246.771 141.288C245.107 141.045 243.677 139.992 242.291 139.106C234.079 133.57 234.079 133.57 224.655 132.75C222.294 133.343 220.324 134.587 218.364 135.975C218.151 136.122 217.936 136.27 217.718 136.423C215.004 138.388 212.687 140.724 210.318 143.076C209.865 143.524 209.412 143.971 208.957 144.419C208.011 145.352 207.067 146.286 206.123 147.222C204.916 148.417 203.709 149.61 202.501 150.802C201.34 151.946 200.182 153.091 199.024 154.236C198.805 154.452 198.585 154.669 198.36 154.891C197.738 155.506 197.115 156.122 196.494 156.739C196.222 157.007 196.222 157.007 195.944 157.282C194.965 158.255 194.036 159.253 193.125 160.29C192.389 161.112 191.598 161.881 190.809 162.654C190.63 162.83 190.451 163.006 190.266 163.188C189.88 163.567 189.494 163.945 189.107 164.324C188.496 164.924 187.884 165.525 187.272 166.126C185.755 167.618 184.235 169.109 182.717 170.6C181.43 171.863 180.144 173.125 178.859 174.389C178.26 174.979 177.66 175.567 177.059 176.156C176.688 176.521 176.317 176.885 175.945 177.25C175.781 177.411 175.615 177.573 175.446 177.739C174.662 178.51 173.909 179.293 173.185 180.119C172.299 181.129 171.359 182.074 170.398 183.014C170.215 183.192 170.034 183.371 169.848 183.555C169.456 183.939 169.066 184.323 168.674 184.706C168.053 185.315 167.434 185.924 166.813 186.534C165.274 188.047 163.735 189.558 162.194 191.07C160.89 192.35 159.586 193.63 158.284 194.911C157.676 195.509 157.066 196.106 156.458 196.703C156.081 197.073 155.706 197.442 155.33 197.812C155.162 197.976 154.996 198.139 154.822 198.308C153.863 199.253 152.953 200.224 152.069 201.238C150.849 202.615 149.517 203.897 148.213 205.197C147.85 205.562 147.486 205.928 147.124 206.296C146.596 206.832 146.064 207.364 145.529 207.895C145.37 208.058 145.212 208.222 145.048 208.39C143.837 209.577 142.561 210.324 140.817 210.401C138.637 210.236 137.249 208.925 135.822 207.448C135.512 207.134 135.201 206.82 134.889 206.507C134.742 206.359 134.594 206.212 134.443 206.059C133.982 205.605 133.503 205.181 133.005 204.766C131.985 203.916 131.061 202.98 130.123 202.044C129.442 201.369 128.756 200.717 128.019 200.101C127.083 199.316 126.224 198.466 125.361 197.605C124.506 196.755 123.661 195.913 122.733 195.141C121.582 194.179 120.541 193.11 119.479 192.054C118.586 191.167 117.676 190.327 116.707 189.521C115.801 188.72 114.96 187.856 114.103 187.004C113.393 186.299 112.681 185.614 111.91 184.972C110.442 183.745 109.116 182.362 107.764 181.014C107.396 180.648 107.026 180.285 106.655 179.922C105.501 178.776 105.07 177.921 105.036 176.307C105.029 176.126 105.023 175.945 105.016 175.759C105.457 172.565 109.749 169.556 111.941 167.408C112.585 166.776 113.228 166.144 113.871 165.512C115.236 164.17 116.601 162.829 117.967 161.489C119.552 159.932 121.138 158.375 122.721 156.817C123.354 156.197 123.984 155.577 124.617 154.958C125.006 154.575 125.396 154.192 125.786 153.809C125.96 153.639 126.133 153.469 126.312 153.294C127.291 152.329 128.219 151.336 129.123 150.304C129.593 149.773 130.086 149.27 130.591 148.773C130.783 148.584 130.974 148.396 131.171 148.201C131.371 148.006 131.572 147.81 131.778 147.608C132.093 147.298 132.093 147.298 132.414 146.982C133.078 146.33 133.742 145.678 134.406 145.027C134.859 144.582 135.311 144.137 135.764 143.692C136.868 142.607 137.972 141.522 139.079 140.439C138.34 139.843 137.607 139.289 136.79 138.803C136.596 138.688 136.4 138.572 136.2 138.452C135.991 138.33 135.784 138.208 135.57 138.083C135.352 137.954 135.133 137.826 134.91 137.694C133.238 136.718 131.548 135.778 129.843 134.859C129.506 134.675 129.506 134.675 129.161 134.489C128.526 134.15 127.89 133.819 127.249 133.494C127.053 133.395 126.857 133.296 126.655 133.194C125.379 132.586 124.322 132.34 122.906 132.378C122.721 132.382 122.537 132.385 122.346 132.389C115.279 132.654 109.573 138.752 104.879 143.353C104.702 143.526 104.525 143.699 104.343 143.877C104.173 144.045 104.002 144.214 103.827 144.388C103.677 144.535 103.528 144.682 103.374 144.834C102.913 145.316 102.475 145.807 102.036 146.309C101.127 147.335 100.171 148.302 99.1899 149.261C99.0106 149.438 98.8315 149.614 98.647 149.795C98.2617 150.174 97.8759 150.553 97.4898 150.931C96.8774 151.531 96.2659 152.132 95.6547 152.733C94.1368 154.226 92.6175 155.717 91.0983 157.208C89.8122 158.47 88.5266 159.733 87.2415 160.997C86.6416 161.586 86.041 162.175 85.4401 162.764C85.0693 163.128 84.6985 163.493 84.3278 163.857C84.1628 164.019 83.9977 164.18 83.8276 164.346C83.0447 165.118 82.2903 165.901 81.5664 166.726C80.6805 167.737 79.7406 168.681 78.7792 169.621C78.5977 169.8 78.416 169.978 78.2291 170.162C77.8381 170.546 77.4471 170.93 77.0556 171.314C76.4348 171.922 75.8149 172.532 75.1951 173.141C73.6562 174.654 72.1159 176.166 70.5759 177.677C69.2718 178.957 67.9685 180.238 66.6657 181.519C66.0574 182.117 65.4484 182.714 64.8394 183.311C64.4633 183.68 64.0874 184.05 63.7116 184.419C63.4605 184.665 63.4605 184.665 63.2044 184.915C62.256 185.85 61.3627 186.814 60.4862 187.814C59.7458 188.637 58.9551 189.409 58.1629 190.183C57.9838 190.359 57.8047 190.535 57.6203 190.717C57.2349 191.096 56.8489 191.474 56.463 191.853C55.8506 192.453 55.2391 193.054 54.6278 193.655C53.11 195.147 51.5907 196.638 50.0715 198.129C48.7854 199.392 47.4998 200.655 46.2147 201.918C45.6148 202.508 45.0142 203.097 44.4133 203.685C44.0425 204.05 43.6717 204.414 43.301 204.779C43.136 204.94 42.9709 205.102 42.8008 205.268C41.8412 206.213 40.9317 207.187 40.0503 208.204C38.9934 209.381 37.9988 210.108 36.3852 210.378C34.5809 210.402 33.4559 209.942 32.1408 208.692C31.7959 208.352 31.4536 208.009 31.1132 207.664C30.6426 207.199 30.16 206.772 29.6522 206.348C28.7474 205.582 27.9096 204.765 27.0723 203.929C26.2608 203.12 25.4526 202.325 24.571 201.589C23.6342 200.804 22.7762 199.954 21.9125 199.093C21.0541 198.238 20.202 197.392 19.2697 196.613C18.1812 195.704 17.1956 194.7 16.1933 193.701C15.4776 192.991 14.7596 192.3 13.984 191.653C13.0519 190.874 12.1996 190.028 11.3412 189.173C10.488 188.322 9.64183 187.481 8.71419 186.708C7.56364 185.748 6.52314 184.68 5.46418 183.624C4.67793 182.844 3.88702 182.088 3.03512 181.376C1.70437 180.262 0.291553 178.985 0.0471917 177.21C0.0417822 176.963 0.0361867 176.717 0.0305907 176.462C0.0205178 176.218 0.010446 175.974 0 175.722C0.309276 173.941 1.62509 172.596 2.90025 171.368C3.045 171.226 3.18957 171.084 3.33861 170.937C3.81185 170.473 4.2877 170.011 4.76356 169.549C5.09633 169.223 5.42893 168.897 5.76134 168.571C6.63376 167.715 7.50842 166.862 8.38346 166.009C9.78266 164.646 11.1787 163.278 12.5744 161.911C13.0593 161.437 13.5451 160.963 14.0312 160.49C14.3323 160.196 14.6335 159.902 14.9346 159.607C15.0676 159.478 15.2004 159.349 15.3373 159.217C16.035 158.533 16.6972 157.833 17.3392 157.098C18.3456 155.953 19.4243 154.888 20.5144 153.821C20.7329 153.606 20.9511 153.391 21.1761 153.17C21.6473 152.706 22.1188 152.243 22.5906 151.78C23.3384 151.047 24.0851 150.313 24.8318 149.578C26.5513 147.887 28.2722 146.197 29.993 144.506C31.5717 142.956 33.15 141.405 34.7273 139.854C35.4679 139.125 36.209 138.397 36.9504 137.67C37.5222 137.109 38.0932 136.547 38.6641 135.985C38.9684 135.687 38.9684 135.687 39.2786 135.384C40.3044 134.373 41.2809 133.341 42.2273 132.258C43.0794 131.312 43.9959 130.429 44.906 129.538C45.122 129.326 45.3378 129.114 45.5604 128.895C46.147 128.318 46.7342 127.742 47.3216 127.165C47.9398 126.559 48.5571 125.951 49.1745 125.344C50.8746 123.672 52.576 122.001 54.2773 120.33C55.8381 118.797 57.3986 117.264 58.9581 115.73C59.5708 115.127 60.184 114.524 60.7977 113.922C61.4825 113.251 62.1665 112.578 62.8503 111.906C63.0507 111.709 63.251 111.513 63.4575 111.311C64.4874 110.296 65.4699 109.26 66.4202 108.173C67.1058 107.404 67.8353 106.681 68.5678 105.956C68.812 105.713 68.812 105.713 69.061 105.465C69.593 104.936 70.1262 104.407 70.6595 103.879C70.8432 103.697 71.0269 103.515 71.2163 103.328C72.1881 102.365 73.1607 101.403 74.1341 100.442C75.1333 99.4544 76.1296 98.464 77.1253 97.4732C77.897 96.7062 78.6711 95.9414 79.4458 95.1771C79.8139 94.8132 80.1812 94.4485 80.5475 94.0829C86.1591 88.4871 92.5386 85.7606 99.9041 90.4311Z" fill="#151515"/>
<path d="M259.108 144.135C259.271 144.124 259.435 144.113 259.603 144.101C261.953 144.05 264.002 145.381 265.67 146.898C266.146 147.36 266.618 147.824 267.089 148.294C267.352 148.551 267.618 148.809 267.881 149.066C268.591 149.759 269.297 150.456 270.001 151.155C270.742 151.888 271.488 152.618 272.231 153.349C273.481 154.575 274.726 155.804 275.97 157.035C277.405 158.455 278.843 159.87 280.285 161.282C281.676 162.647 283.066 164.014 284.454 165.383C285.042 165.963 285.632 166.542 286.222 167.121C286.917 167.802 287.61 168.487 288.299 169.173C288.553 169.423 288.806 169.673 289.061 169.921C291.346 172.155 292.784 173.992 292.847 177.213C292.851 181.161 290.124 183.266 287.453 185.901C287.201 186.151 286.949 186.4 286.697 186.65C285.877 187.462 285.057 188.272 284.235 189.083C283.949 189.364 283.665 189.645 283.382 189.925C282.197 191.093 281.013 192.261 279.829 193.427C278.139 195.092 276.448 196.759 274.764 198.428C273.574 199.607 272.382 200.783 271.187 201.957C270.475 202.657 269.766 203.357 269.058 204.06C268.393 204.722 267.724 205.38 267.054 206.036C266.693 206.39 266.336 206.746 265.98 207.103C264.026 209.003 262.024 210.338 259.201 210.4C255.481 210.339 253.305 208.039 250.815 205.595C250.556 205.342 250.298 205.09 250.038 204.838C249.34 204.157 248.643 203.475 247.946 202.793C247.511 202.365 247.074 201.938 246.637 201.511C245.111 200.018 243.587 198.524 242.065 197.029C240.649 195.64 239.229 194.254 237.81 192.869C236.586 191.676 235.365 190.481 234.147 189.283C233.421 188.57 232.692 187.858 231.964 187.148C231.276 186.48 230.593 185.809 229.911 185.136C229.663 184.891 229.412 184.647 229.16 184.404C227.014 182.326 225.498 180.301 225.4 177.26C225.438 175.203 226.075 173.557 227.5 172.045C227.701 171.83 227.905 171.615 228.112 171.393C229.175 170.297 230.253 169.219 231.34 168.148C231.59 167.9 231.84 167.653 232.091 167.405C232.903 166.603 233.716 165.802 234.528 165.001C234.81 164.723 235.092 164.445 235.374 164.167C236.697 162.863 238.021 161.56 239.343 160.257C240.866 158.76 242.386 157.26 243.904 155.758C245.085 154.593 246.265 153.429 247.448 152.267C248.152 151.575 248.856 150.881 249.556 150.187C250.216 149.534 250.877 148.883 251.54 148.235C251.897 147.884 252.25 147.532 252.604 147.179C254.553 145.28 256.305 144.211 259.108 144.135Z" fill="#151515"/>
<path d="M2 227.401C3.80663 227.401 5.61326 227.401 7.47466 227.401C9.64129 231.549 11.5792 235.757 13.4181 240.053C13.5839 240.434 13.7569 240.813 13.9448 241.185C14.0612 240.915 14.1776 240.647 14.2976 240.37C14.7397 239.35 15.1842 238.333 15.6292 237.313C15.8197 236.877 16.0097 236.439 16.1989 236.003C17.4755 233.054 18.8622 230.219 20.4148 227.401C22.1394 227.401 23.864 227.401 25.6407 227.401C25.9708 229.034 26.2434 230.577 26.3873 232.222C26.4074 232.439 26.4275 232.656 26.4481 232.881C26.5123 233.583 26.5744 234.283 26.6362 234.986C26.6798 235.473 26.7235 235.96 26.7672 236.447C27.7247 247.208 27.7247 247.208 27.6316 251.768C25.8249 251.768 24.0183 251.768 22.1569 251.768C21.877 249.829 21.877 249.829 21.838 248.837C21.8288 248.616 21.8198 248.396 21.8104 248.168C21.8015 247.934 21.7927 247.701 21.7836 247.46C21.7735 247.215 21.7634 246.971 21.753 246.719C21.7101 245.678 21.6691 244.636 21.628 243.597C21.5977 242.832 21.5662 242.07 21.5347 241.308C21.526 241.074 21.5171 240.841 21.5081 240.6C21.4578 239.383 21.3619 238.203 21.1614 237.001C21.074 237.202 20.9864 237.402 20.8962 237.608C19.2602 241.351 17.6195 245.092 15.9357 248.815C14.5396 248.815 13.1435 248.815 11.7052 248.815C11.4531 248.226 11.201 247.639 10.9411 247.033C10.6918 246.455 10.4421 245.875 10.1923 245.297C10.0212 244.899 9.85043 244.501 9.67983 244.104C8.68302 241.778 7.66167 239.487 6.47932 237.247C6.16561 242.086 5.90078 246.92 5.73277 251.768C3.84389 251.768 1.95519 251.768 0.00914063 251.768C-0.0487688 248.268 0.176411 244.826 0.460241 241.339C0.50561 240.768 0.551165 240.195 0.596718 239.624C1.4495 229.036 1.4495 229.036 2 227.401Z" fill="#151515"/>
<path d="M248.796 230.123C251.453 233.047 252.6 236.22 252.487 240.155C252.145 243.898 251.2 247.009 248.276 249.65C247.272 250.435 246.272 250.959 245.072 251.402C244.872 251.48 244.675 251.556 244.47 251.636C241.204 252.712 237.035 252.538 233.915 251.156C230.811 249.603 229.048 247.517 227.836 244.377C226.883 241.328 226.827 237.419 228.082 234.452C228.182 234.212 228.281 233.971 228.383 233.722C229.785 230.68 232.004 228.792 235.182 227.574C235.871 227.343 236.484 227.21 237.211 227.083C237.465 227.039 237.465 227.039 237.726 226.994C241.847 226.4 245.688 227.463 248.796 230.123ZM235.356 233.762C233.511 236.065 233.231 238.493 233.408 241.331C233.823 243.547 234.785 245.167 236.704 246.488C238.158 247.248 239.635 247.448 241.268 247.226C243.085 246.681 244.502 245.84 245.498 244.247C246.849 241.739 246.945 238.848 246.085 236.172C245.38 234.299 244.237 233.271 242.488 232.273C239.912 231.536 237.247 231.798 235.356 233.762Z" fill="#151515"/>
<path d="M222.458 229.522C224.188 231.6 224.61 233.393 224.559 236.05C224.374 237.987 223.628 239.419 222.194 240.727C221.587 241.196 220.955 241.527 220.247 241.821C220.356 241.988 220.464 242.158 220.575 242.33C221.572 243.883 222.549 245.442 223.484 247.031C223.568 247.171 223.651 247.31 223.736 247.454C224.007 247.912 224.276 248.372 224.544 248.829C224.71 249.113 224.874 249.396 225.046 249.686C225.447 250.448 225.731 251.172 225.977 251.994C220.21 252.518 220.21 252.518 218.705 251.406C218.292 250.703 217.972 250.023 217.699 249.254C217.352 248.377 216.837 247.597 216.339 246.799C216.25 246.647 216.161 246.494 216.069 246.338C215.621 245.576 215.154 244.892 214.576 244.223C214.02 243.557 214.02 243.557 214.02 243.061C213.116 243.061 212.211 243.061 211.281 243.061C211.281 246.008 211.281 248.956 211.281 251.994C209.472 251.994 207.663 251.994 205.8 251.994C205.8 243.969 205.8 235.944 205.8 227.676C211.098 226.797 217.967 225.728 222.458 229.522ZM211.281 232.143C211.259 232.602 211.253 233.064 211.255 233.524C211.257 233.803 211.257 234.083 211.259 234.37C211.26 234.664 211.262 234.958 211.264 235.26C211.266 235.556 211.266 235.85 211.268 236.153C211.272 236.883 211.275 237.615 211.281 238.345C214.788 238.515 214.788 238.515 217.897 237.106C218.587 236.15 218.62 235.274 218.504 234.129C217.78 232.92 217.053 232.396 215.702 232.008C213.369 231.589 213.369 231.589 211.281 232.143Z" fill="#151515"/>
<path d="M75.1125 229.563C76.7188 231.258 77.1327 233.343 77.139 235.607C77.0095 237.46 76.3953 238.945 75.1215 240.325C74.3991 240.888 73.6524 241.368 72.8517 241.814C73.4229 242.827 74.0236 243.806 74.6643 244.778C75.8241 246.558 76.865 248.403 77.8956 250.256C78.0007 250.444 78.1057 250.632 78.214 250.823C78.4001 251.25 78.4001 251.25 78.4001 251.995C72.7874 252.52 72.7874 252.52 71.2979 251.39C70.7902 250.536 70.4323 249.691 70.0773 248.768C69.7484 248.201 69.4069 247.641 69.0527 247.091C68.8852 246.826 68.7179 246.563 68.5454 246.291C68.385 246.042 68.2249 245.794 68.0596 245.538C67.9176 245.312 67.7755 245.084 67.6292 244.848C67.4903 244.646 67.3514 244.443 67.2084 244.235C67.0922 244.06 66.9757 243.884 66.8557 243.703C66.0668 243.072 66.0668 243.072 63.7723 243.056C63.7723 246.005 63.7723 248.955 63.7723 251.995C61.9411 251.995 60.1101 251.995 58.2236 251.995C58.2236 243.965 58.2236 235.934 58.2236 227.661C63.607 226.777 70.5353 225.747 75.1125 229.563ZM63.7723 231.882C63.7723 234.013 63.7723 236.144 63.7723 238.337C67.3464 238.51 67.3464 238.51 70.4872 237.066C70.9653 236.081 71.0018 235.191 70.834 234.116C70.6011 233.489 70.4383 233.196 69.8744 232.819C69.702 232.74 69.5297 232.661 69.3523 232.581C69.1813 232.5 69.0103 232.419 68.834 232.337C67.1868 231.685 65.5294 231.866 63.7723 231.882Z" fill="#151515"/>
<path d="M81.8589 227.533C83.7023 227.533 85.546 227.533 87.4453 227.533C87.529 230.32 87.6128 233.106 87.6991 235.978C89.6926 234.039 89.6926 234.039 91.5625 232.022C92.2731 231.216 93.008 230.43 93.7396 229.642C94.3373 229.026 94.3373 229.026 94.7782 228.208C95.2795 227.616 95.5456 227.538 96.3377 227.415C97.2978 227.388 98.2451 227.404 99.205 227.441C99.5383 227.446 99.8718 227.454 100.215 227.461C101.037 227.478 101.859 227.503 102.68 227.533C101.948 228.672 101.134 229.633 100.189 230.607C99.9156 230.892 99.6425 231.177 99.3695 231.463C99.174 231.667 99.174 231.667 98.9745 231.875C98.5317 232.344 98.1051 232.823 97.6815 233.309C96.8731 234.223 95.9997 235.066 95.1194 235.915C94.298 236.73 93.5336 237.588 92.7776 238.46C93.1572 239.368 93.6813 239.839 94.444 240.463C95.8418 241.667 96.9717 242.986 98.11 244.422C98.3138 244.672 98.5178 244.925 98.7278 245.182C99.9064 246.644 101.016 248.14 102.077 249.684C102.189 249.844 102.3 250.006 102.415 250.172C103.188 251.315 103.188 251.315 103.188 251.873C97.1708 252.539 97.1708 252.539 95.4918 251.514C94.543 250.56 93.9545 249.403 93.3503 248.221C92.8382 247.304 92.166 246.55 91.4604 245.773C91.2882 245.574 91.2882 245.574 91.1126 245.37C90.0573 244.177 88.9329 243.259 87.6991 242.186C87.6154 245.383 87.5315 248.58 87.4453 251.873C85.6017 251.873 83.7582 251.873 81.8589 251.873C81.8589 243.84 81.8589 235.808 81.8589 227.533Z" fill="#151515"/>
<path d="M164.963 227.401C166.805 227.401 168.645 227.401 170.542 227.401C173.882 233.968 176.475 240.786 179.073 247.65C179.294 248.235 179.518 248.821 179.742 249.404C179.836 249.649 179.928 249.893 180.024 250.145C180.105 250.353 180.185 250.563 180.268 250.778C180.435 251.276 180.436 251.276 180.436 251.768C178.343 251.768 176.249 251.768 174.095 251.768C173.508 250.143 172.922 248.52 172.318 246.845C167.673 246.723 167.673 246.723 162.932 246.599C162.682 247.493 162.43 248.386 162.173 249.306C161.671 250.524 161.671 250.524 161.158 251.768C159.148 251.768 157.141 251.768 155.071 251.768C156.699 246.5 158.706 241.377 160.825 236.277C160.915 236.06 161.004 235.843 161.096 235.62C162.259 232.808 163.53 230.095 164.963 227.401ZM167.498 233.556C167.064 234.663 166.63 235.77 166.198 236.879C166.051 237.256 165.904 237.634 165.756 238.01C165.543 238.551 165.331 239.093 165.12 239.637C165.055 239.805 164.987 239.972 164.919 240.146C164.645 240.859 164.455 241.402 164.455 242.168C166.547 242.168 168.639 242.168 170.796 242.168C170.281 240.334 169.745 238.637 169.004 236.893C168.916 236.678 168.827 236.465 168.735 236.244C168.352 235.33 167.963 234.433 167.498 233.556Z" fill="#151515"/>
<path d="M39.6445 227.401C41.4441 227.401 43.2437 227.401 45.0979 227.401C46.2808 229.696 47.3545 231.992 48.3203 234.385C48.3866 234.55 48.4529 234.712 48.5212 234.88C49.7414 237.884 50.9052 240.908 52.0541 243.938C52.1331 244.146 52.2123 244.354 52.2939 244.569C53.1975 246.949 54.0417 249.326 54.7653 251.768C52.7203 251.768 50.6752 251.768 48.5683 251.768C48.3228 251.051 48.0774 250.336 47.8246 249.599C47.7469 249.375 47.6692 249.149 47.5893 248.919C47.5289 248.74 47.4684 248.562 47.4063 248.379C47.3439 248.197 47.2816 248.016 47.2175 247.828C47.081 247.338 47.081 247.338 47.081 246.599C43.9725 246.599 40.8639 246.599 37.6614 246.599C37.5796 247.086 37.4977 247.575 37.4135 248.076C37.3239 248.396 37.2263 248.713 37.1181 249.029C37.0685 249.174 37.0188 249.32 36.9675 249.472C36.8738 249.74 36.8738 249.74 36.7783 250.013C36.579 250.594 36.3795 251.172 36.1741 251.768C34.129 251.768 32.084 251.768 29.9771 251.768C32.6474 243.482 35.7218 235.192 39.6445 227.401ZM42.1233 233.802C41.698 234.874 41.2745 235.947 40.8524 237.021C40.7085 237.386 40.5643 237.751 40.4196 238.116C40.2116 238.639 40.0053 239.164 39.7994 239.69C39.7343 239.852 39.6693 240.016 39.6022 240.184C39.3285 240.886 39.1487 241.41 39.1487 242.168C41.1937 242.168 43.2387 242.168 45.3457 242.168C44.9272 240.299 44.4123 238.654 43.7346 236.877C43.5845 236.474 43.5845 236.474 43.4314 236.06C43.2861 235.677 43.2861 235.677 43.1381 235.285C43.0502 235.053 42.9626 234.821 42.8722 234.582C42.6685 234.008 42.6685 234.008 42.1233 233.802Z" fill="#151515"/>
<path d="M106.071 227.401C111.533 227.401 116.995 227.401 122.623 227.401C122.623 228.943 122.623 230.484 122.623 232.073C119.037 232.073 115.45 232.073 111.753 232.073C111.753 233.614 111.753 235.155 111.753 236.744C114.933 236.744 118.112 236.744 121.388 236.744C121.388 238.285 121.388 239.826 121.388 241.413C118.209 241.413 115.029 241.413 111.753 241.413C111.753 243.198 111.753 244.984 111.753 246.822C115.585 246.822 119.417 246.822 123.365 246.822C123.365 248.443 123.365 250.067 123.365 251.739C121.439 251.744 119.511 251.748 117.585 251.752C116.691 251.752 115.796 251.754 114.9 251.757C114.036 251.759 113.171 251.761 112.306 251.761C111.818 251.763 111.331 251.765 110.844 251.766C110.392 251.766 110.392 251.766 109.93 251.766C109.536 251.766 109.536 251.766 109.134 251.768C108.109 251.732 107.09 251.604 106.071 251.493C106.071 243.543 106.071 235.592 106.071 227.401Z" fill="#151515"/>
<path d="M264.666 226.835C264.875 226.837 265.084 226.837 265.3 226.839C267.66 226.879 269.765 227.393 271.894 228.383C271.775 230.079 271.088 231.504 270.386 233.043C270.136 232.967 270.136 232.967 269.881 232.89C269.657 232.825 269.435 232.758 269.208 232.69C268.988 232.625 268.77 232.56 268.545 232.492C266.54 231.942 264.426 231.764 262.405 232.323C261.766 232.778 261.766 232.778 261.54 233.625C261.589 234.548 261.691 234.802 262.365 235.415C263.481 236.172 264.806 236.592 266.065 237.074C271.041 238.98 271.041 238.98 272.396 241.136C273.346 243.302 273.564 245.632 272.727 247.863C272.269 248.845 271.747 249.513 270.889 250.208C270.702 250.38 270.516 250.551 270.322 250.729C267.224 252.79 262.472 252.501 258.932 251.863C257.438 251.56 256.154 251.136 254.8 250.453C255.271 248.89 255.771 247.338 256.309 245.793C256.501 245.861 256.693 245.926 256.89 245.993C257.196 246.09 257.501 246.186 257.816 246.284C257.997 246.349 258.178 246.415 258.364 246.48C259.934 246.984 261.425 247.098 263.064 247.113C263.271 247.116 263.478 247.118 263.69 247.122C264.866 247.113 265.669 247.038 266.615 246.284C267.034 245.608 267.034 245.608 267.118 244.814C266.779 243.914 266.529 243.447 265.698 242.92C265.436 242.811 265.173 242.702 264.903 242.591C264.612 242.469 264.322 242.348 264.024 242.222C263.109 241.875 262.187 241.563 261.257 241.257C258.93 240.467 256.905 239.102 255.771 236.901C255.135 234.931 255.325 232.485 256.227 230.628C257.529 228.565 259.418 227.566 261.784 227.013C262.746 226.84 263.694 226.83 264.666 226.835Z" fill="#151515"/>
<path d="M292.811 228.172C292.309 229.657 291.805 231.141 291.288 232.671C290.265 232.502 289.543 232.361 288.608 232.03C286.868 231.504 284.669 231.217 282.977 232.03C282.439 232.374 282.439 232.374 282.153 232.671C282.025 233.513 282.025 233.513 282.153 234.421C283.274 235.61 284.919 236.071 286.418 236.655C289.443 237.831 291.952 238.872 293.541 241.793C294.196 243.791 294.188 246.171 293.27 248.071C292.048 250.098 290.423 251.107 288.183 251.854C284.094 252.841 279.271 252.278 275.553 250.414C275.673 248.688 276.367 247.236 277.076 245.667C278.495 246.125 278.495 246.125 279.134 246.379C280.622 246.923 282.055 246.997 283.627 247.01C283.836 247.014 284.045 247.018 284.261 247.019C285.459 247.012 286.253 246.925 287.227 246.166C287.697 245.556 287.733 245.202 287.767 244.432C287.342 243.295 286.511 242.971 285.452 242.417C284.617 242.052 283.768 241.732 282.913 241.418C280.844 240.659 278.82 239.874 277.362 238.17C277.152 237.929 277.152 237.929 276.935 237.685C275.749 236.016 275.901 234.119 276.061 232.171C276.461 230.382 277.34 228.998 278.854 227.922C283.174 225.571 288.572 225.786 292.811 228.172Z" fill="#151515"/>
<path d="M201.52 228.881C201.108 230.476 200.656 232.023 200.05 233.556C199.914 233.509 199.778 233.462 199.638 233.412C196.828 232.448 193.895 231.649 190.992 232.792C189.463 233.64 188.597 234.873 188.055 236.509C187.396 239.157 187.53 242.198 188.79 244.629C189.535 245.846 190.595 246.575 191.965 246.989C194.38 247.476 196.991 247.242 199.246 246.296C199.807 246.105 199.807 246.105 200.54 246.351C200.798 246.96 201.006 247.538 201.198 248.165C201.253 248.335 201.309 248.503 201.365 248.678C201.596 249.403 201.765 250.012 201.765 250.78C201.311 250.983 200.857 251.181 200.402 251.38C200.15 251.491 199.898 251.603 199.636 251.718C197.849 252.365 196.007 252.308 194.129 252.317C193.87 252.323 193.611 252.328 193.342 252.334C190.013 252.35 187.195 251.533 184.687 249.274C182.328 246.734 181.555 243.196 181.597 239.83C181.594 239.596 181.592 239.361 181.588 239.118C181.603 235.717 182.729 232.605 185.061 230.119C189.348 226.175 196.671 225.808 201.52 228.881Z" fill="#151515"/>
<path d="M125.094 227.401C131.942 227.401 138.791 227.401 145.847 227.401C145.847 229.027 145.847 230.652 145.847 232.324C143.341 232.324 140.836 232.324 138.255 232.324C138.255 238.741 138.255 245.156 138.255 251.768C136.334 251.768 134.412 251.768 132.433 251.768C132.433 245.351 132.433 238.935 132.433 232.324C130.012 232.324 127.591 232.324 125.094 232.324C125.094 230.699 125.094 229.076 125.094 227.401Z" fill="#151515"/>
</g>
<defs>
<clipPath id="clip0_2475_4174">
<rect width="292" height="340" fill="white"/>
</clipPath>
</defs>
</svg>
