<svg width="598" height="340" viewBox="0 0 598 340" fill="none" xmlns="http://www.w3.org/2000/svg">
<path d="M442.185 192.469C445.556 192.549 448.283 189.901 448.362 186.531C448.441 183.16 445.797 180.432 442.428 180.351C439.054 180.272 436.33 182.92 436.245 186.29V186.37C436.245 189.741 438.896 192.388 442.185 192.469Z" fill="#151515"/>
<path d="M101.53 190.863C98.9625 189.82 96.6359 188.215 94.7907 186.128C90.8596 181.715 88.7735 176.017 88.8538 170.079C88.8538 167.03 89.3352 164.06 90.2179 161.172C91.1 158.523 92.5442 156.036 94.3894 154.029C96.2351 152.024 98.4811 150.419 100.968 149.295C103.696 148.091 106.665 147.53 109.713 147.53C112.2 147.449 114.688 147.851 117.014 148.653C119.1 149.455 121.026 150.499 122.791 151.863C124.476 153.147 125.839 154.832 126.722 156.758C127.765 158.764 128.487 160.85 128.728 163.097H117.817C117.496 161.252 116.533 159.567 115.169 158.363C113.725 157.079 111.96 156.437 110.035 156.437C106.585 156.437 104.098 157.721 102.412 160.048C100.728 162.375 99.9255 165.746 99.9255 169.919C99.9255 174.091 100.728 177.221 102.412 179.789C103.937 182.357 106.585 183.4 110.035 183.4C112.04 183.48 114.046 182.838 115.65 181.634C117.175 180.19 118.218 178.184 118.458 176.097H129.37C129.209 178.264 128.648 180.431 127.685 182.437C125.759 186.45 122.309 189.659 118.057 191.184C115.57 192.067 113.003 192.468 110.436 192.468C107.387 192.548 104.338 192.067 101.53 190.863Z" fill="#151515"/>
<path d="M146.861 154.031C148.225 152.024 149.99 150.259 151.996 148.975C154.162 147.771 156.649 147.129 159.136 147.21C161.142 147.21 163.228 147.611 165.073 148.494C166.758 149.296 168.362 150.42 169.566 151.784C170.85 153.308 171.812 154.994 172.534 156.839C173.337 158.926 173.658 161.093 173.658 163.339V191.265H162.425V164.944C162.506 162.858 161.864 160.851 160.58 159.247C159.216 157.722 157.211 156.92 155.125 157C152.798 156.92 150.552 157.962 149.027 159.728C147.342 161.734 146.46 164.222 146.54 166.87V191.345H135.308V131.562H146.54V154.111H146.861V154.031Z" fill="#151515"/>
<path d="M192.11 190.863C189.463 189.82 187.136 188.215 185.29 186.129C183.365 184.042 181.921 181.555 181.118 178.826C180.156 175.937 179.675 172.968 179.675 169.919C179.594 166.869 180.156 163.9 181.199 161.011C182.242 158.443 183.606 156.036 185.371 153.869C187.216 151.863 189.463 150.258 191.949 149.135C194.597 147.931 197.485 147.369 200.373 147.369C206.391 147.208 212.087 149.857 215.777 154.511C217.623 156.919 218.987 159.727 219.789 162.616C220.752 165.986 221.233 169.518 221.233 173.048H190.666C191.147 176.338 192.19 179.067 193.955 180.993C195.72 182.919 198.127 183.881 201.417 183.881C203.262 183.962 205.107 183.48 206.712 182.437C207.995 181.474 209.038 180.19 209.52 178.666H220.592C220.191 180.591 219.548 182.357 218.586 184.042C217.543 185.727 216.259 187.252 214.654 188.455C212.97 189.82 210.964 190.863 208.878 191.505C206.551 192.307 204.064 192.709 201.577 192.628C198.368 192.628 195.078 191.987 192.11 190.863ZM193.795 158.443C192.27 160.048 191.308 162.375 190.666 165.104H209.359C209.279 162.616 208.316 160.289 206.712 158.443C205.107 156.758 202.861 155.795 200.454 155.875C197.566 156.116 195.319 156.919 193.795 158.443Z" fill="#151515"/>
<path d="M237.92 190.863C235.353 189.82 233.026 188.215 231.181 186.128C227.249 181.715 225.164 176.017 225.244 170.079C225.244 167.03 225.725 164.06 226.688 161.172C227.571 158.523 229.015 156.036 230.86 154.029C232.705 152.024 234.952 150.419 237.439 149.295C240.167 148.091 243.135 147.53 246.184 147.53C248.671 147.449 251.158 147.851 253.485 148.653C255.571 149.455 257.496 150.499 259.261 151.863C260.946 153.147 262.31 154.832 263.192 156.758C264.235 158.764 264.957 160.85 265.198 163.097H254.287C253.966 161.252 253.083 159.567 251.639 158.363C250.195 157.079 248.43 156.437 246.505 156.437C243.055 156.437 240.568 157.721 238.883 160.048C237.198 162.375 236.396 165.746 236.396 169.919C236.396 174.091 237.198 177.221 238.883 179.789C240.407 182.357 243.055 183.4 246.505 183.4C248.511 183.48 250.516 182.838 252.121 181.634C253.645 180.19 254.688 178.184 254.929 176.097H265.599C265.439 178.264 264.877 180.431 263.915 182.437C261.989 186.45 258.539 189.659 254.287 191.184C251.8 192.067 249.233 192.468 246.665 192.468C243.616 192.548 240.648 191.986 237.92 190.863Z" fill="#151515"/>
<path d="M282.928 176.901V191.345H271.857V131.562H282.928V164.704L297.854 148.494H311.33L295.766 164.864L313.256 191.345H299.698L287.824 171.845L282.928 176.901Z" fill="#151515"/>
<path d="M325.452 190.864C322.805 189.74 320.395 188.135 318.472 186.129C316.546 184.043 315.021 181.635 313.977 178.987C311.893 173.21 311.893 166.95 313.977 161.253C315.021 158.604 316.546 156.197 318.472 154.111C320.395 152.024 322.805 150.339 325.452 149.376C331.148 147.049 337.486 147.049 343.18 149.376C345.83 150.5 348.234 152.105 350.16 154.111C352.086 156.197 353.614 158.604 354.654 161.253C356.742 167.03 356.742 173.289 354.654 178.987C353.614 181.635 352.086 184.043 350.16 186.129C348.234 188.215 345.83 189.901 343.18 190.864C337.566 193.191 331.148 193.191 325.452 190.864ZM342.3 180.03C344.144 177.462 345.106 174.172 345.106 169.919C345.106 165.666 344.144 162.296 342.3 159.808C340.453 157.24 337.486 155.716 334.358 155.876C331.227 155.716 328.178 157.24 326.413 159.808C324.567 162.376 323.605 165.827 323.605 169.919C323.605 174.012 324.567 177.543 326.413 180.03C329.946 184.444 336.364 185.086 340.776 181.635C341.339 181.154 341.899 180.592 342.3 180.03Z" fill="#151515"/>
<path d="M389.072 186.21H388.752C387.468 188.056 385.783 189.58 383.939 190.784C382.095 191.908 379.767 192.389 376.797 192.389C372.144 192.389 368.533 190.945 365.888 188.297C363.399 185.408 362.115 181.796 362.115 177.062V148.494H373.188V175.136C373.188 177.704 373.827 179.55 374.871 180.834C376.237 182.278 378.163 183 380.168 182.92C382.575 183 384.821 182.037 386.425 180.192C388.028 178.266 388.911 175.778 388.752 173.21V148.494H399.984V191.346H389.236V186.29L389.072 186.21Z" fill="#151515"/>
<path d="M410.737 148.494V135.013H421.646V148.494H428.788V155.957H421.646V178.667C421.646 180.272 421.968 181.395 422.769 181.957C423.651 182.679 424.774 183 425.897 182.92H428.066C428.468 182.92 428.788 182.92 429.189 182.76V191.346C428.547 191.346 428.066 191.506 427.342 191.506C426.7 191.506 425.897 191.667 425.179 191.667H422.209C420.846 191.667 419.479 191.506 418.198 191.186C416.914 190.945 415.712 190.383 414.589 189.581C413.464 188.778 412.584 187.654 411.939 186.371C411.218 184.766 410.816 183.08 410.816 181.315V155.957H405.038V148.494H410.737Z" fill="#151515"/>
<path d="M464.328 190.703C462.003 189.58 459.916 187.975 458.23 185.968C456.465 183.882 455.263 181.475 454.46 178.827C453.66 175.857 453.176 172.808 453.255 169.759C453.255 166.709 453.66 163.66 454.46 160.691C455.263 158.123 456.545 155.716 458.23 153.549C459.916 151.543 462.003 149.938 464.328 148.814C466.893 147.611 469.702 147.049 472.593 147.049C477.248 147.049 481.179 148.333 484.143 150.66C487.113 152.987 488.96 156.518 489.76 161.012H484.788C484.143 157.802 482.941 155.314 480.775 153.709C478.77 152.104 476.122 151.302 472.833 151.302C470.587 151.222 468.421 151.703 466.416 152.746C464.648 153.709 463.126 155.074 462.083 156.759C460.881 158.524 459.998 160.53 459.594 162.617C458.471 167.351 458.55 172.246 459.758 176.901C460.318 178.987 461.2 180.993 462.402 182.759C463.525 184.444 464.97 185.808 466.735 186.691C468.661 187.654 470.825 188.135 472.994 188.135C476.204 188.215 479.332 187.092 481.739 184.925C483.903 182.839 485.19 180.03 485.671 176.5H490.485C490.001 181.394 488.318 185.247 485.19 188.215C482.22 191.024 478.21 192.469 472.994 192.469C469.945 192.469 467.058 191.827 464.328 190.703Z" fill="#151515"/>
<path d="M505.969 190.703C503.56 189.659 501.393 187.974 499.71 185.968C498.025 183.881 496.661 181.394 495.861 178.826C494.897 175.937 494.413 172.888 494.413 169.758C494.413 166.709 494.897 163.659 495.861 160.69C496.661 158.042 498.025 155.635 499.71 153.548C501.393 151.462 503.56 149.857 505.969 148.814C511.264 146.487 517.201 146.487 522.495 148.814C524.902 149.937 526.987 151.542 528.754 153.548C530.44 155.635 531.803 158.122 532.686 160.69C533.568 163.579 534.049 166.709 533.888 169.758C533.888 172.807 533.489 175.857 532.686 178.826C531.882 181.474 530.519 183.881 528.754 185.968C527.072 188.054 524.981 189.659 522.495 190.703C519.93 191.906 517.122 192.468 514.231 192.468C511.343 192.468 508.535 191.826 505.969 190.703ZM520.411 186.69C522.255 185.727 523.779 184.363 524.902 182.758C526.186 180.993 527.072 178.986 527.549 176.9C528.834 172.246 528.834 167.271 527.549 162.616C526.987 160.53 526.107 158.604 524.902 156.758C523.779 155.073 522.176 153.709 520.411 152.746C518.485 151.783 516.318 151.301 514.152 151.301C511.985 151.221 509.822 151.703 507.896 152.746C506.128 153.709 504.527 155.073 503.401 156.758C502.117 158.524 501.156 160.53 500.596 162.616C499.309 167.271 499.309 172.246 500.596 176.9C501.156 178.986 502.117 180.993 503.401 182.758C504.606 184.363 506.128 185.727 507.896 186.69C511.906 188.616 516.479 188.616 520.411 186.69Z" fill="#151515"/>
<path d="M546.163 148.012V154.512H546.327C547.687 152.426 549.37 150.58 551.46 149.136C553.462 147.691 556.113 147.049 559.241 147.049C561.73 146.969 564.134 147.691 566.3 148.975C568.388 150.42 569.912 152.426 570.633 154.833H570.792C572.079 152.426 574.084 150.42 576.412 148.975C578.815 147.531 581.545 146.808 584.353 146.889C586.036 146.889 587.722 147.21 589.328 147.852C592.536 148.975 594.943 151.463 596.065 154.673C596.707 156.519 597.03 158.444 597.03 160.37V191.346H592.055V161.012C592.055 157.802 591.255 155.475 589.569 153.87C587.801 152.346 585.476 151.543 583.151 151.623C581.624 151.623 580.182 151.864 578.816 152.426C577.452 152.987 576.25 153.79 575.207 154.833C572.882 157.241 571.677 160.451 571.756 163.741V191.346H566.62V161.012C566.62 157.802 565.822 155.475 564.134 153.87C562.53 152.265 560.528 151.623 558.039 151.623C556.511 151.623 555.069 151.945 553.706 152.586C552.26 153.228 550.976 154.111 549.854 155.154C548.731 156.278 547.769 157.642 547.206 159.086C546.564 160.611 546.242 162.296 546.242 163.981V191.265H541.108V147.932L546.163 148.012Z" fill="#151515"/>
<path d="M46.8142 170.08L66.7909 134.531C67.2726 133.809 67.2726 132.846 66.7909 132.124C66.3098 131.482 65.5877 131.08 64.7856 131H23.6277C22.8256 131.08 22.1035 131.482 21.6218 132.124L0.360969 168.796C-0.120323 169.518 -0.120323 170.482 0.360969 171.204L21.5415 207.877C21.9428 208.599 22.7452 209 23.5473 209H64.7053C65.5074 209 66.2295 208.518 66.7112 207.877C67.1922 207.154 67.1922 206.191 66.7112 205.469L46.8142 170.08ZM44.1663 165.266L27.6391 135.735H60.854L44.1663 165.266ZM23.4673 138.142L41.3584 170L23.4673 201.858L5.09456 170L23.4673 138.142ZM27.6391 204.185L44.1663 174.654L60.6939 204.185H27.6391Z" fill="#151515"/>
</svg>
