<svg width="754" height="340" viewBox="0 0 754 340" fill="none" xmlns="http://www.w3.org/2000/svg">
<path d="M20.8501 196.292C20.8501 199.204 21.6955 199.767 23.5742 200.239L26.4854 200.897V202.212H7.13749V200.897L9.57957 200.334C11.4583 199.865 12.3038 198.923 12.3038 196.295V139.349H10.2373C4.41424 139.349 2.06654 148.839 1.40882 158.893H0V137.47H33.154V158.894H31.7449C31.0873 148.84 28.7398 139.35 22.9166 139.35H20.8501V196.292ZM35.2203 200.896L37.287 200.331C39.1656 199.862 40.0113 198.922 40.0113 196.292V143.296C40.0113 140.665 39.1656 139.819 37.287 139.349L35.2203 138.785V137.469H53.5349V138.785L51.3751 139.349C49.5907 139.819 48.5573 140.57 48.5573 143.201V167.914H62.7401V143.201C62.7401 140.57 61.7067 139.819 59.9223 139.349L57.7625 138.785V137.469H76.0768V138.785L74.0104 139.349C72.1325 139.819 71.2872 140.665 71.2872 143.296V196.198C71.2872 198.829 72.1325 199.865 74.0104 200.334L76.0768 200.897V202.212H57.7614V200.897L59.9212 200.429C61.7056 199.959 62.739 198.924 62.739 196.295V170.076H48.5573V196.292C48.5573 198.922 49.5907 199.957 51.3751 200.426L53.5349 200.896V202.209H35.2203V200.896ZM91.4794 200.333H97.9603C106.413 200.333 108.01 190.748 109.136 180.789H110.545V202.21H78.1424V200.896L80.209 200.333C82.0877 199.863 82.9333 198.922 82.9333 196.293V143.389C82.9333 140.759 82.0877 139.819 80.209 139.349L78.1424 138.785V137.469H109.606V158.893H108.198C107.164 148.839 105.192 139.349 97.9603 139.349H91.4794V167.632L94.4849 167.538C98.5237 167.255 100.026 163.78 101.059 155.603H102.468V181.725H101.059C100.215 171.483 98.6172 169.886 94.3907 169.603L91.4794 169.509V200.333ZM130.627 146.115C129.406 140.571 128.655 139.725 126.87 139.255L125.086 138.785V137.469H142.65V138.785L141.24 139.066C138.235 139.724 138.517 142.731 139.362 146.772L146.781 183.605L152.229 154.288L150.257 144.233C149.506 140.663 149.224 139.536 147.346 139.065L146.125 138.784V137.468H163.313V138.784L161.246 139.16C158.146 139.723 158.616 143.106 159.367 146.771L166.506 183.607L173.55 148.745C174.864 141.51 174.208 139.724 171.39 139.161L169.418 138.785V137.469H182.285V138.785L180.501 139.255C178.246 139.819 177.683 141.604 176.368 147.9L164.909 202.588H162.467L153.639 159.928L145.655 202.588H142.555L130.627 146.115ZM222.483 200.333H226.239C234.222 200.333 236.571 190.84 237.51 180.789H238.919V202.21H190.925V200.896L192.897 200.518C196.935 199.768 196.935 198.641 195.902 193.001L194.118 184.544H182.565L181.344 190.936C179.935 198.171 180.686 199.954 183.505 200.518L185.477 200.896V202.21H172.422V200.896L174.019 200.427C176.555 199.675 177.212 198.171 178.527 191.781L189.986 137.092H192.804L204.825 193.565C206.046 199.392 206.609 200.611 209.99 200.611C212.902 200.611 213.935 199.107 213.935 196.291V143.295C213.935 140.664 213.09 139.818 211.211 139.348L209.145 138.784V137.469H227.742V138.878L225.205 139.442C223.327 139.818 222.482 140.664 222.482 143.295L222.483 200.333ZM182.942 182.384H193.649L188.201 155.7L182.942 182.384ZM254.322 200.333H258.079C266.063 200.333 268.41 190.84 269.349 180.789H270.758V202.21H240.985V200.896L243.052 200.333C244.93 199.863 245.776 198.922 245.776 196.293V143.296C245.776 140.665 244.93 139.819 243.052 139.349L240.985 138.785V137.469H259.582V138.878L257.046 139.442C255.168 139.818 254.322 140.664 254.322 143.295V200.333ZM301.384 202.586C295.938 202.586 294.06 198.829 292.276 198.829C291.242 198.829 290.021 199.111 289.082 202.212H287.956V180.787H289.364C290.492 192.908 295.001 200.517 301.293 200.517C305.519 200.517 308.431 196.664 308.431 189.712C308.431 175.053 287.487 168.758 287.487 152.501C287.487 143.763 291.995 137.09 299.978 137.09C305.143 137.09 306.271 140.473 308.431 140.473C309.652 140.473 310.498 139.533 310.967 137.466H312.093V158.89H310.685C309.558 148.085 306.647 139.158 299.883 139.158C295.188 139.158 294.248 143.855 294.248 147.051C294.248 161.052 315.192 165.844 315.192 185.388C315.189 195.352 309.743 202.586 301.384 202.586ZM335.947 196.292C335.947 198.922 336.792 199.862 338.671 200.331L341.113 200.896V202.209H322.235V200.896L324.677 200.331C326.556 199.862 327.402 198.922 327.402 196.292V139.349H325.335C319.512 139.349 317.164 148.839 316.507 158.893H315.098V137.47H348.254V158.894H346.845C346.187 148.84 343.839 139.35 338.015 139.35H335.949V196.292H335.947ZM350.318 200.896L352.385 200.331C354.262 199.862 355.107 198.922 355.107 196.292V143.296C355.107 140.665 354.262 139.819 352.385 139.349L350.318 138.785V137.469H368.256C376.241 137.469 383.659 142.543 383.659 153.161C383.659 161.336 379.808 167.069 372.013 169.136C380.559 170.732 380.559 174.775 381.404 185.579L381.969 193.848C382.249 198.452 382.44 199.487 383.756 199.487C385.162 199.487 385.726 196.294 385.726 193.191V191.594H387.322V193.754C387.322 198.923 386.193 202.586 380.843 202.586C375.583 202.586 373.142 199.58 372.764 188.775L372.297 176.748C372.106 171.016 370.701 170.17 367.975 170.17H363.56V196.293C363.56 198.923 364.405 199.957 366.285 200.427L368.353 200.897V202.21H350.318V200.896ZM363.56 168.29H366.659C371.919 168.29 374.548 166.881 374.548 154.383C374.548 141.886 371.074 139.35 367.317 139.35H363.56V168.29ZM401.223 200.333H407.702C416.155 200.333 417.755 190.748 418.88 180.789H420.286V202.21H387.883V200.896L389.951 200.333C391.828 199.863 392.672 198.922 392.672 196.293V143.389C392.672 140.759 391.828 139.819 389.951 139.349L387.883 138.785V137.469H419.347V158.893H417.938C416.91 148.839 414.936 139.349 407.702 139.349H401.223V167.632L404.228 167.538C408.266 167.255 409.769 163.78 410.801 155.603H412.21V181.725H410.801C409.956 171.483 408.36 169.886 404.131 169.603L401.223 169.509V200.333ZM436.066 200.333H442.549C450.998 200.333 452.598 190.748 453.724 180.789H455.133V202.21H422.731V200.896L424.798 200.333C426.675 199.863 427.523 198.922 427.523 196.293V143.389C427.523 140.759 426.675 139.819 424.798 139.349L422.731 138.785V137.469H454.195V158.893H452.785C451.753 148.839 449.779 139.349 442.549 139.349H436.066V167.632L439.072 167.538C443.11 167.255 444.613 163.78 445.648 155.603H447.058V181.725H445.648C444.803 171.483 443.207 169.886 438.979 169.603L436.066 169.509V200.333ZM478.051 196.292C478.051 199.204 478.899 199.767 480.776 200.239L483.685 200.897V202.212H464.338V200.897L466.779 200.334C468.656 199.865 469.504 198.923 469.504 196.295V139.349H467.437C461.616 139.349 459.268 148.839 458.61 158.893H457.201V137.47H490.354V158.894H488.945C488.287 148.84 485.939 139.35 480.118 139.35H478.051V196.292ZM529.621 187.271C529.621 197.327 524.547 202.586 516.752 202.586C509.712 202.586 505.578 196.855 505.671 190.559C505.765 185.674 509.335 183.232 512.244 183.607C514.311 183.888 516.378 185.392 516.094 188.681C515.814 193.379 510.741 193.191 510.554 196.104C510.367 197.89 512.715 200.52 515.717 200.52C520.981 200.52 520.981 193.848 520.981 188.775V143.201C520.981 140.57 520.132 139.819 518.068 139.349L515.721 138.785V137.469H534.226V138.785L532.159 139.349C530.279 139.819 529.624 140.665 529.624 143.296L529.621 187.271ZM551.506 202.681C540.515 202.681 535.161 187.835 535.161 169.792C535.161 151.846 540.328 137 551.506 137C562.588 137 567.941 151.846 567.941 169.792C567.941 187.835 562.872 202.681 551.506 202.681ZM551.506 139.161C546.807 139.161 544.463 142.919 544.463 169.418C544.463 196.761 546.62 200.614 551.506 200.614C556.389 200.614 558.643 196.761 558.643 169.228C558.643 142.92 556.389 139.161 551.506 139.161ZM605.133 200.896L607.2 200.331C609.077 199.862 609.926 198.922 609.926 196.292V143.296C609.926 140.195 608.516 139.067 605.226 139.067C601.095 139.067 600.063 140.947 600.063 146.303V187.084C600.063 197.232 596.493 202.681 587.76 202.681C578.746 202.681 573.485 197.232 573.485 187.366V143.296C573.485 140.665 572.828 139.819 570.951 139.349L568.883 138.785V137.469H587.573V138.785L585.038 139.349C582.97 139.819 582.125 140.57 582.125 143.201V188.023C582.125 197.138 584.754 199.486 589.546 199.486C595.181 199.486 597.528 196.292 597.528 187.082V149.685C597.528 141.792 597.435 139.912 594.055 139.161L592.272 138.785V137.469H623.078C631.06 137.469 638.481 142.543 638.481 153.161C638.481 161.336 634.63 167.069 626.832 169.136C635.382 170.732 635.382 174.775 636.227 185.579L636.787 193.848C637.071 198.452 637.258 199.487 638.574 199.487C639.984 199.487 640.548 196.294 640.548 193.191V191.594H642.145V193.754C642.145 198.923 641.016 202.586 635.662 202.586C630.402 202.586 627.961 199.58 627.583 188.775L627.116 176.748C626.929 171.016 625.519 170.17 622.797 170.17H618.382V196.293C618.382 198.923 619.227 199.957 621.104 200.427L623.171 200.897V202.21H605.136V200.897L605.133 200.896ZM618.379 168.29H621.478C626.734 168.29 629.366 166.881 629.366 154.383C629.366 141.886 625.89 139.35 622.132 139.35H618.379V168.29ZM643.831 139.161L642.515 138.785V137.469H654.819L671.631 180.128V149.403C671.631 142.45 671.818 140.006 666.838 139.161L665.246 138.785V137.469H679.146V138.785L677.83 139.161C673.792 140.1 674.076 143.389 674.076 149.966V202.211H671.07L650.03 150.437V190.278C650.03 197.889 650.03 200.052 656.041 200.896V202.209H642.515V200.896L644.208 200.613C647.682 199.954 647.588 196.573 647.588 189.714V144.799C645.988 141.51 645.334 139.724 643.831 139.161ZM726.48 200.333H730.237C738.219 200.333 740.571 190.84 741.509 180.789H742.919V202.21H695.016V200.896L696.99 200.518C701.028 199.768 701.121 198.641 699.996 193.001L698.209 184.544H686.66L685.434 190.936C684.025 198.171 684.78 199.954 687.595 200.518L689.569 200.896V202.21H676.514V200.896L678.107 200.427C680.645 199.675 681.299 198.171 682.619 191.781L694.074 137.093H696.893L708.913 193.566C710.139 199.393 710.606 200.612 713.986 200.612C716.898 200.612 717.934 199.108 717.934 196.292V143.295C717.934 140.664 717.089 139.818 715.208 139.348L713.145 138.784V137.469H731.74V138.878L729.202 139.442C727.325 139.818 726.48 140.664 726.48 143.295V200.333ZM687.034 182.384H697.742L692.294 155.699L687.034 182.384ZM754 198.076C754 200.613 752.123 202.493 749.869 202.493C747.614 202.493 745.734 200.613 745.734 198.076C745.734 195.539 747.614 193.66 749.869 193.66C752.123 193.66 754 195.54 754 198.076Z" fill="#151515"/>
</svg>
