<svg width="703" height="340" viewBox="0 0 703 340" fill="none" xmlns="http://www.w3.org/2000/svg">
<path d="M140.022 168.836C141.875 169.379 143.203 169.623 144.439 170.128C154.302 174.191 154.658 187.294 149.043 193.303C145.73 196.842 141.557 198.339 137.009 199.088C135.268 199.369 133.49 199.481 131.73 199.5C124.357 199.537 116.983 199.5 109.59 199.537C108.017 199.537 107.418 199.107 107.418 197.441C107.475 179.264 107.456 161.068 107.418 142.89C107.418 141.318 108.017 140.831 109.496 140.831C117.226 140.868 124.955 140.719 132.685 140.906C137.664 141.019 142.324 142.366 146.198 145.848C152.299 151.333 152.356 162.846 143.428 167.17C142.436 167.657 141.444 168.125 140.022 168.818V168.836ZM119.696 181.454C119.696 183.513 119.696 185.572 119.696 187.65C119.696 188.605 120.052 189.073 121.044 189.054C124.937 189.017 128.83 189.166 132.704 188.961C136.354 188.773 139.236 186.228 139.704 183.251C140.434 178.552 136.578 173.778 131.824 173.629C128.343 173.516 124.88 173.647 121.399 173.61C120.071 173.61 119.64 174.191 119.678 175.426C119.733 177.429 119.678 179.432 119.678 181.435L119.696 181.454ZM119.696 158.016H119.678C119.678 159.851 119.715 161.667 119.678 163.501C119.64 164.793 120.183 165.298 121.455 165.261C124.169 165.205 126.883 165.373 129.597 165.186C131.094 165.092 132.648 164.699 134.014 164.081C136.653 162.902 138.281 159.72 137.926 156.949C137.533 153.786 135.698 151.52 132.423 151.127C128.811 150.696 125.143 150.809 121.512 150.715C120.052 150.678 119.621 151.483 119.696 152.868C119.79 154.572 119.715 156.294 119.715 157.998L119.696 158.016Z" fill="#151515"/>
<path d="M651.151 163.198C653.453 157.788 657.252 154.849 663.184 154.849C669.172 154.849 673.121 157.6 675.423 163.347C675.986 162.711 676.362 162.374 676.641 161.962C681.132 155.597 689.706 153.65 696.22 157.788C700.468 160.483 702.88 164.527 702.936 169.6C703.05 178.941 702.973 188.264 702.993 197.605C702.993 198.859 702.544 199.44 701.233 199.421C698.109 199.383 694.966 199.402 691.838 199.421C690.733 199.421 690.377 199.047 690.398 197.83C690.511 189.387 690.604 180.944 690.491 172.502C690.454 169.6 689.164 166.942 686.299 165.818C683.79 164.845 681.152 165.014 678.98 166.942C676.961 168.72 676.435 171.135 676.435 173.681C676.418 181.356 676.435 189.05 676.435 196.726C676.435 199.402 676.435 199.421 673.797 199.421C671.608 199.421 669.419 199.421 667.246 199.421C664.737 199.421 664.717 199.402 664.717 196.8C664.717 188.825 664.758 180.851 664.681 172.876C664.681 171.491 664.418 170.012 663.819 168.776C662.399 165.8 659.777 164.733 656.37 165.463C653.639 166.043 650.944 169.469 650.924 172.595C650.888 180.514 650.924 188.432 650.924 196.351C650.924 198.398 649.876 199.421 647.78 199.421C645.535 199.421 643.289 199.346 641.044 199.44C639.32 199.514 638.798 198.841 638.814 197.174C638.871 185.587 638.855 174.018 638.855 162.43C638.855 160.708 638.891 159.005 638.855 157.282C638.814 156.047 639.247 155.41 640.574 155.429C643.346 155.466 646.134 155.466 648.905 155.429C650.119 155.429 650.609 155.953 650.588 157.132C650.552 159.042 650.588 160.951 650.588 162.861C650.795 162.973 651.001 163.085 651.207 163.198H651.151Z" fill="#151515"/>
<path d="M373.878 163.667C374.404 162.88 374.663 162.581 374.833 162.225C377.847 156.141 383.087 154.55 389.318 155.074C394.933 155.542 399.967 159.567 401.484 164.977C402.083 167.111 402.455 169.376 402.475 171.585C402.589 180.084 402.532 188.583 402.512 197.101C402.512 199.515 402.512 199.515 400.023 199.534C397.608 199.534 395.176 199.534 392.761 199.534C390.515 199.534 390.309 199.347 390.309 197.119C390.309 189.201 390.329 181.301 390.309 173.382C390.309 172.166 390.236 170.855 389.787 169.751C388.346 166.138 384.62 164.378 380.408 165.22C377.378 165.819 373.971 168.272 374.048 172.802C374.157 180.889 374.141 188.976 374.157 197.063C374.157 199.534 374.157 199.534 371.725 199.534C369.124 199.534 366.522 199.478 363.941 199.553C362.387 199.609 361.881 198.991 361.901 197.475C361.954 189.912 361.938 182.349 361.918 174.805C361.918 164.003 361.901 153.183 361.845 142.382C361.845 141.315 362.201 140.847 363.249 140.847C366.259 140.847 369.273 140.847 372.288 140.847C373.785 140.847 373.785 141.839 373.785 142.906C373.764 148.878 373.748 154.831 373.748 160.802C373.748 161.589 373.821 162.375 373.878 163.685V163.667Z" fill="#151515"/>
<path d="M313.264 155.882C311.561 157.81 309.857 159.738 308.154 161.685C304.935 165.392 301.772 169.117 298.534 172.786C297.561 173.89 297.467 174.864 298.328 176.099C302.989 182.783 307.611 189.484 312.234 196.186C312.852 197.085 313.451 198.021 314.256 199.256C313.395 199.369 312.852 199.5 312.309 199.5C308.94 199.518 305.571 199.462 302.221 199.537C300.874 199.556 300.031 199.032 299.301 197.946C296.101 193.135 292.844 188.342 289.607 183.55C289.195 182.932 288.708 182.371 288.222 181.753C285.976 183.587 284.534 185.46 284.797 188.473C285.077 191.525 284.796 194.614 284.871 197.684C284.909 199.05 284.403 199.593 283.018 199.556C280.248 199.481 277.478 199.5 274.69 199.556C273.379 199.574 272.93 199.013 272.912 197.74C272.837 179.375 272.743 161.03 272.631 142.665C272.631 141.411 273.08 140.812 274.39 140.849C277.16 140.906 279.949 140.943 282.719 140.849C284.478 140.793 284.89 141.579 284.871 143.19C284.815 152.156 284.852 161.142 284.852 170.109C284.852 170.746 284.852 171.363 284.852 172C285.021 172.075 285.171 172.149 285.339 172.225C286.649 170.764 288.016 169.341 289.27 167.844C292.526 163.95 295.745 160.038 299.002 156.144C299.283 155.807 299.769 155.432 300.162 155.432C304.448 155.377 308.734 155.395 313.02 155.395C313.095 155.563 313.151 155.713 313.226 155.882H313.264Z" fill="#151515"/>
<path d="M447.893 183.686C447.893 188.291 447.84 192.897 447.913 197.502C447.933 199.055 447.407 199.598 445.874 199.542C443.272 199.448 440.691 199.467 438.089 199.542C436.794 199.561 436.309 199.093 436.293 197.783C436.293 196.772 435.973 195.779 435.787 194.768C434.905 195.368 433.934 195.854 433.185 196.584C429.629 200.01 425.287 200.534 420.663 200.066C417.911 199.786 415.439 198.849 413.137 197.258C406.833 192.915 406.287 179.231 416.022 175.842C419.372 174.682 422.985 174.195 426.501 173.484C428.281 173.128 430.135 173.034 431.931 172.698C433.594 172.398 435.241 171.893 435.504 169.833C435.767 167.924 434.29 165.116 432.53 164.611C428.731 163.525 423.677 163.263 421.431 167.961C421.225 168.373 420.42 168.748 419.914 168.729C417.389 168.654 414.861 168.429 412.336 168.261C410.2 168.13 409.884 167.624 410.649 165.565C412.223 161.334 415.196 158.377 419.315 156.73C425.773 154.165 432.34 154.127 438.817 156.692C444.769 159.07 447.67 163.731 447.876 170.039C448.026 174.588 447.913 179.137 447.913 183.668L447.893 183.686ZM435.338 179.044C431.369 179.942 427.533 180.766 423.713 181.721C422.852 181.945 421.99 182.526 421.318 183.144C418.98 185.296 419.388 189.34 422.289 190.613C424.033 191.38 426.202 191.886 428.039 191.624C433.841 190.8 437.001 185.24 435.338 179.044Z" fill="#151515"/>
<path d="M611.483 155.062C617.508 154.632 622.808 156.878 627.073 161.577C629.767 164.553 631.058 168.203 631.847 172.079C633.008 177.882 632.332 183.498 630.03 188.87C627 195.965 621.008 199.129 613.785 200.009C608.825 200.608 603.941 199.934 599.43 197.295C593.442 193.775 590.52 188.421 589.566 181.757C588.91 177.245 589.436 172.865 590.747 168.503C593.102 160.715 601.619 154.463 609.517 155.043C610.043 155.081 610.585 155.043 611.463 155.043L611.483 155.062ZM620.093 176.197C620.186 174.269 619.51 171.087 617.564 168.26C614.307 163.561 608.505 163.037 604.989 167.043C600.498 172.153 600.498 181.944 604.54 187.467C607.291 191.21 612.851 191.697 616.237 188.515C619.401 185.557 620 181.719 620.093 176.216V176.197Z" fill="#151515"/>
<path d="M487.71 163.185C487.973 162.736 488.252 162.305 488.515 161.856C491.453 156.914 495.814 154.705 501.523 154.986C506.99 155.248 511.311 157.4 514.006 162.324C515.579 165.188 516.178 168.314 516.199 171.534C516.235 180.145 516.199 188.775 516.251 197.387C516.251 199.015 515.693 199.577 514.062 199.521C511.461 199.408 508.859 199.408 506.278 199.521C504.538 199.596 504.032 198.884 504.048 197.237C504.105 189.206 504.125 181.175 504.089 173.144C504.089 168.97 502.049 166.162 498.566 165.244C492.97 163.765 487.896 167.528 487.88 173.294C487.86 181.381 487.953 189.468 488.066 197.555C488.066 198.94 487.637 199.502 486.25 199.483C483.482 199.446 480.694 199.39 477.923 199.502C476.183 199.577 475.693 198.865 475.693 197.218C475.734 186.36 475.693 175.484 475.693 164.626C475.693 162.155 475.75 159.666 475.693 157.195C475.677 155.884 476.09 155.229 477.51 155.266C480.225 155.341 482.94 155.323 485.651 155.266C486.869 155.248 487.318 155.678 487.261 156.933C487.168 158.973 487.245 161.014 487.245 163.054C487.395 163.092 487.544 163.11 487.71 163.147V163.185Z" fill="#151515"/>
<path d="M177.643 177.784C177.475 173.516 178.167 169.435 180.17 165.616C183.277 159.682 188.255 156.275 194.769 155.32C201.619 154.328 208.113 155.245 213.541 160.018C217.396 163.407 219.455 167.806 220.185 172.786C221.42 181.135 220.129 188.791 213.691 194.913C210.434 198.002 206.466 199.537 202.068 200.005C195.386 200.697 189.229 199.406 184.119 194.763C179.927 190.944 178.13 185.965 177.662 180.423C177.587 179.544 177.662 178.645 177.662 177.765L177.643 177.784ZM189.884 177.653C189.884 178.196 189.846 179.02 189.884 179.843C190.09 183.25 191.044 186.339 193.571 188.791C196.734 191.861 202.779 191.618 205.175 187.93C206.597 185.74 207.439 183.007 207.851 180.405C208.525 176.305 208.319 172.168 206.092 168.386C203.303 163.669 197.071 162.845 193.234 166.739C190.314 169.716 189.753 173.441 189.865 177.672L189.884 177.653Z" fill="#151515"/>
<path d="M565.051 155.066C570.399 154.897 575.117 156.039 578.993 159.428C582.137 162.179 584.063 165.755 584.589 169.986C584.739 171.24 584.403 171.951 582.865 171.914C580.454 171.839 578.038 171.97 575.623 172.101C574.162 172.176 573.414 171.651 572.908 170.229C571.431 166.073 568.736 164.332 564.355 164.688C562.222 164.856 560.406 165.755 559.135 167.608C554.887 173.786 554.846 181.779 559.058 187.302C560.932 189.773 563.497 190.859 566.507 190.446C569.428 190.035 571.803 188.518 572.665 185.542C573.207 183.651 574.162 183.258 575.979 183.389C578.394 183.557 580.826 183.502 583.242 183.389C584.718 183.314 584.888 183.857 584.718 185.149C583.598 193.367 576.464 199.788 567.895 200.106C563.812 200.256 559.791 200.088 555.914 198.403C550.355 195.988 546.706 191.982 544.966 186.197C542.85 179.215 543.02 172.307 546.24 165.699C549.627 158.772 555.672 155.777 563.064 155.084C563.833 155.01 564.601 155.084 565.087 155.084L565.051 155.066Z" fill="#151515"/>
<path d="M349.901 171.791C348.477 171.791 347.052 171.922 345.653 171.735C345.013 171.641 344.135 171.005 343.965 170.443C342.974 167.149 340.558 164.734 337.528 164.415C333.802 164.022 330.621 165.183 328.845 168.59C325.847 174.281 325.831 180.215 328.562 185.981C330.286 189.632 333.543 191.035 337.548 190.493C340.915 190.025 342.824 187.834 343.892 184.82C344.265 183.735 344.864 183.323 345.968 183.342C348.57 183.379 351.171 183.416 353.753 183.342C355.327 183.304 355.683 183.866 355.347 185.363C353.211 194.574 347.166 199.665 337.548 200.133C330.043 200.508 323.472 198.393 318.811 192.177C312.018 183.117 312.86 166.587 322.647 159.099C330.678 152.94 347.052 153.24 352.911 163.386C354.129 165.483 354.671 167.991 355.476 170.312C355.812 171.286 355.306 171.772 354.335 171.791C352.855 171.791 351.378 171.791 349.901 171.791Z" fill="#151515"/>
<path d="M260.469 171.806C259.945 171.806 259.402 171.769 258.878 171.806C256.558 172.012 254.817 171.9 253.919 168.923C253.076 166.097 250.494 164.468 247.349 164.356C244.037 164.244 241.248 165.423 239.601 168.399C236.587 173.884 236.513 179.65 238.871 185.322C241.528 191.724 249.67 192.305 253.301 187.344C253.713 186.782 254.255 186.165 254.33 185.528C254.592 183.581 255.697 183.225 257.419 183.319C259.72 183.45 262.023 183.356 264.325 183.375C266.346 183.394 266.477 183.638 266.046 185.547C263.333 197.303 254.143 201.01 244.168 199.999C233.743 198.95 227.623 192.96 225.695 182.084C224.179 173.528 226.181 165.891 232.676 159.788C235.726 156.924 239.545 155.595 243.588 155.183C250.1 154.49 256.183 155.576 261.236 160.237C264.212 162.989 265.354 166.639 266.346 170.365C266.589 171.319 266.046 171.806 265.073 171.806C263.539 171.806 262.004 171.806 260.469 171.806C260.469 171.806 260.469 171.825 260.469 171.844V171.806Z" fill="#151515"/>
<path d="M64.4645 152.191C56.2857 156.216 48.3125 160.166 40.3021 164.041C39.6657 164.34 38.6364 164.34 37.9999 164.041C30.42 160.334 22.8964 156.553 15.3351 152.809C14.1747 152.229 14.2305 151.667 15.0915 150.806C20.4631 145.508 25.9471 140.323 31.1313 134.837C35.6791 130.045 41.8182 129.596 46.7965 134.313C52.6172 139.836 58.1947 145.602 63.8656 151.292C64.0902 151.517 64.2213 151.854 64.4458 152.21L64.4645 152.191Z" fill="#151515"/>
<path d="M34.3104 208.946C33.3183 208.122 32.7567 207.729 32.2704 207.242C26.4307 201.402 20.5728 195.561 14.7708 189.683C10.9153 185.789 7.09738 181.839 3.29772 177.889C-0.988277 173.452 -1.13799 167.369 3.09218 162.951C7.65857 158.177 6.25499 158.888 11.402 161.397C18.4952 164.879 25.5511 168.473 32.6447 171.974C33.8985 172.591 34.535 173.415 34.4974 174.856C34.3853 179.05 34.2542 183.225 34.2728 187.418C34.3104 193.67 34.4601 199.923 34.5536 206.175C34.5536 206.905 34.4415 207.635 34.329 208.927L34.3104 208.946Z" fill="#151515"/>
<path d="M43.8001 208.093C43.7629 207.569 43.7067 207.064 43.7067 206.54C43.7067 196.15 43.7443 185.761 43.6694 175.371C43.6694 173.649 44.2683 172.769 45.8402 172.001C53.963 168.051 61.9921 163.933 70.0963 159.945C70.6951 159.646 71.7993 159.459 72.174 159.796C75.2243 162.454 77.957 165.355 78.2192 169.773C78.4438 173.63 76.4972 176.4 73.9704 178.928C64.8745 188.026 55.7971 197.142 46.7012 206.24C45.934 207.008 45.1102 207.7 44.3055 208.412C44.1372 208.3 43.9875 208.206 43.8191 208.093H43.8001Z" fill="#151515"/>
<path d="M158.482 170.176C158.482 161.209 158.482 152.224 158.482 143.257C158.482 140.973 158.576 140.898 160.897 140.86C163.311 140.842 165.744 140.823 168.159 140.842C170.76 140.842 170.741 140.86 170.741 143.556C170.741 152.579 170.704 161.621 170.741 170.644C170.797 179.499 170.891 188.335 171.059 197.189C171.097 198.967 170.535 199.623 168.739 199.529C166.156 199.398 163.554 199.511 160.953 199.492C158.482 199.492 158.463 199.492 158.463 197.058C158.463 188.091 158.463 179.106 158.463 170.139L158.482 170.176Z" fill="#151515"/>
<path d="M467.754 177.45C467.754 184.058 467.714 190.666 467.791 197.274C467.807 198.959 467.305 199.596 465.582 199.521C463 199.409 460.399 199.446 457.797 199.521C456.486 199.558 455.851 199.128 455.851 197.705C455.794 186.904 455.661 176.121 455.604 165.319C455.604 162.493 455.794 159.666 455.831 156.839C455.831 155.81 456.13 155.304 457.214 155.304C460.229 155.342 463.243 155.342 466.237 155.304C467.734 155.285 467.771 156.184 467.771 157.289C467.771 164.009 467.771 170.748 467.771 177.469L467.754 177.45Z" fill="#151515"/>
<path d="M531.517 186.613C535.538 186.613 538.367 189.571 538.403 193.783C538.419 197.134 535.069 200.129 531.367 200.073C527.697 200.017 524.327 197.003 524.42 193.633C524.513 190.264 527.005 186.426 531.517 186.613Z" fill="#151515"/>
<path d="M468.381 143.256C468.381 146.831 465.238 149.92 461.701 149.883C458.258 149.827 455.224 146.7 455.224 143.218C455.224 139.624 458.258 136.629 461.924 136.61C465.315 136.61 468.418 139.774 468.402 143.256H468.381Z" fill="#151515"/>
</svg>
