<svg width="547" height="340" viewBox="0 0 547 340" fill="none" xmlns="http://www.w3.org/2000/svg">
<path fill-rule="evenodd" clip-rule="evenodd" d="M188.025 170.249L134.685 117.019V156.003L81.7242 195.034L134.685 195.071V223.48L188.025 170.249Z" fill="#151515"/>
<path fill-rule="evenodd" clip-rule="evenodd" d="M0 170.231L53.3397 223.462V184.89L105.913 145.833L53.3397 145.797V117L0 170.231Z" fill="#151515"/>
<path d="M270.145 201.596H229.219V189.855L252.649 163.765H229.823V152.225H269.743V163.364L245.609 189.956H270.145V201.596Z" fill="#151515"/>
<path d="M325.99 152.226L306.18 172.999L326.392 201.598H310.003L296.929 182.732L291.401 188.552V201.598H278.026V128.945H291.401V170.59L308.495 152.226H325.99Z" fill="#151515"/>
<path d="M384.154 147.409L371.687 151.223C371.219 148.681 369.944 146.373 367.866 144.299C365.788 142.225 362.736 141.188 358.714 141.188C355.431 141.188 352.752 142.091 350.671 143.897C348.593 145.637 347.556 147.744 347.556 150.219C347.556 154.568 350.137 157.244 355.298 158.247L365.251 160.154C371.551 161.358 376.443 163.867 379.931 167.68C383.42 171.493 385.162 175.975 385.162 181.127C385.162 187.014 382.816 192.165 378.122 196.58C373.496 200.929 367.262 203.103 359.419 203.103C354.928 203.103 350.87 202.434 347.252 201.096C343.631 199.758 340.715 197.985 338.505 195.777C336.291 193.503 334.548 191.128 333.274 188.653C332.069 186.11 331.332 183.501 331.063 180.825L343.935 177.414C344.27 181.227 345.744 184.404 348.356 186.947C351.038 189.489 354.76 190.76 359.52 190.76C363.138 190.76 365.956 189.957 367.967 188.351C370.042 186.746 371.083 184.639 371.083 182.03C371.083 179.956 370.311 178.183 368.768 176.711C367.297 175.172 365.184 174.136 362.436 173.6L352.48 171.593C346.715 170.389 342.157 168.014 338.805 164.469C335.453 160.923 333.777 156.508 333.777 151.223C333.777 144.934 336.19 139.649 341.019 135.368C345.911 131.086 351.778 128.945 358.612 128.945C362.705 128.945 366.358 129.514 369.574 130.651C372.79 131.789 375.374 133.327 377.316 135.267C379.261 137.141 380.77 139.081 381.842 141.088C382.914 143.094 383.686 145.202 384.154 147.409Z" fill="#151515"/>
<path d="M407.696 221.063H393.518L405.182 195.375L384.166 152.225H399.148L412.323 181.125L424.489 152.225H438.769L407.696 221.063Z" fill="#151515"/>
<path d="M457.222 173.201V201.6H443.847V152.228H456.82V158.35C458.228 155.941 460.236 154.102 462.851 152.83C465.467 151.56 468.215 150.924 471.099 150.924C476.928 150.924 481.356 152.764 484.373 156.443C487.456 160.056 489 164.738 489 170.492V201.6H475.625V172.8C475.625 169.856 474.853 167.481 473.31 165.675C471.833 163.869 469.556 162.966 466.473 162.966C463.658 162.966 461.412 163.936 459.736 165.876C458.06 167.816 457.222 170.258 457.222 173.201Z" fill="#151515"/>
<path d="M521.771 163.065C518.219 163.065 515.237 164.302 512.827 166.778C510.411 169.253 509.202 172.631 509.202 176.913C509.202 181.194 510.411 184.606 512.827 187.148C515.306 189.623 518.32 190.861 521.872 190.861C525.022 190.861 527.536 190.058 529.418 188.452C531.293 186.78 532.568 184.807 533.238 182.532L545 186.446C543.795 190.995 541.179 194.909 537.16 198.187C533.137 201.464 528.042 203.103 521.872 203.103C514.5 203.103 508.301 200.628 503.269 195.678C498.31 190.661 495.831 184.405 495.831 176.913C495.831 169.353 498.276 163.098 503.168 158.148C508.133 153.197 514.231 150.722 521.47 150.722C527.773 150.722 532.935 152.361 536.957 155.639C540.98 158.85 543.561 162.764 544.699 167.38L532.732 171.394C531.125 165.841 527.473 163.065 521.771 163.065Z" fill="#151515"/>
</svg>
