<svg width="448" height="340" viewBox="0 0 448 340" fill="none" xmlns="http://www.w3.org/2000/svg">
<mask id="mask0_2475_3733" style="mask-type:luminance" maskUnits="userSpaceOnUse" x="0" y="130" width="445" height="80">
<path d="M445 130H0V209.457H445V130Z" fill="white"/>
</mask>
<g mask="url(#mask0_2475_3733)">
<path d="M227.11 160.132C227.967 159.325 228.796 158.486 229.682 157.715C233.418 154.472 237.764 152.681 242.702 152.384C251.308 151.866 258.537 154.814 264.298 161.211C268.091 165.425 270.249 170.463 271.078 176.045C272.109 183.002 271.135 189.675 267.669 195.839C263.48 203.289 257.11 207.721 248.637 209.063C244.145 209.776 239.763 209.371 235.549 207.633C232.461 206.36 229.817 204.425 227.609 201.908C227.467 201.749 227.321 201.592 227.17 201.443C227.108 201.383 227.021 201.348 226.801 201.211C226.739 201.615 226.65 201.941 226.647 202.267C226.634 204.007 226.62 205.747 226.652 207.485C226.663 208.128 226.427 208.329 225.797 208.325C222.291 208.303 218.784 208.287 215.279 208.335C214.416 208.345 214.29 208.007 214.29 207.26C214.308 198.29 214.301 189.32 214.301 180.35C214.301 163.997 214.301 147.643 214.301 131.291C214.301 130.432 214.739 130.001 215.611 130C218.935 130 222.259 130 225.582 130C226.842 130 226.856 130.004 226.858 131.262C226.865 140.506 226.863 149.753 226.863 158.997C226.863 159.35 226.863 159.704 226.863 160.059C226.945 160.085 227.025 160.11 227.108 160.138L227.11 160.132ZM258.784 180.812C258.539 179.194 258.425 177.545 258.026 175.966C254.95 163.808 241.493 160.687 233.015 167.049C225.978 172.327 224.797 182.282 228.384 189.184C230.963 194.151 235.047 197.059 240.682 197.674C245.483 198.198 249.757 197.004 253.328 193.702C257.064 190.25 258.603 185.848 258.787 180.812H258.784Z" fill="#151515"/>
<path d="M402.457 183.966C403.406 191.404 408.434 197.125 415.706 198.026C419.415 198.486 423.004 198.193 426.339 196.352C428.511 195.155 430.119 193.408 431.198 191.161C431.335 190.877 431.74 190.54 432.024 190.536C436.138 190.496 440.254 190.509 444.558 190.509C444.348 191.247 444.206 191.912 443.972 192.542C440.761 201.205 434.416 206.297 425.618 208.507C419.99 209.921 414.341 209.783 408.844 207.969C399.022 204.724 392.624 198.063 390.349 187.923C388.006 177.475 390.265 168.038 397.865 160.261C402.247 155.778 407.756 153.37 413.968 152.571C419.788 151.822 425.402 152.544 430.668 155.172C438.351 159.003 442.898 165.299 444.382 173.685C444.93 176.778 444.792 179.991 444.994 183.149C445.044 183.9 444.595 183.914 444.08 183.914C440.518 183.918 436.956 183.927 433.392 183.925C423.46 183.922 413.532 183.914 403.603 183.911C403.245 183.911 402.886 183.945 402.457 183.967V183.966ZM403.094 174.939H404.521C410.133 174.939 415.745 174.939 421.355 174.939C424.589 174.939 427.821 174.939 431.055 174.939C431.571 174.939 432.082 174.972 431.901 174.177C431.259 171.382 430.08 168.883 427.917 166.929C424.878 164.18 421.254 163.112 417.223 163.27C411.141 163.508 406.777 166.385 404.178 171.886C403.749 172.798 403.495 173.793 403.094 174.939Z" fill="#151515"/>
<path d="M314.02 199.358C313.6 200.046 313.298 200.55 312.989 201.052C310.176 205.611 306.009 208.069 300.796 208.888C296.302 209.595 291.828 209.483 287.536 207.913C281.413 205.676 277.769 201.385 277.196 194.715C276.765 189.71 278.016 185.33 281.883 181.936C284.771 179.4 288.253 177.953 291.948 177.179C295.544 176.424 299.216 176.025 302.853 175.466C305.116 175.118 307.338 174.639 309.404 173.593C313.513 171.513 312.877 167.026 310.137 164.859C308.836 163.83 307.333 163.292 305.716 163.011C302.88 162.521 300.07 162.587 297.317 163.466C294.119 164.487 292.002 166.608 291.144 169.879C290.983 170.483 290.745 170.661 290.161 170.657C286.59 170.639 283.021 170.635 279.452 170.657C278.635 170.663 278.506 170.39 278.667 169.604C279.537 165.313 281.296 161.502 284.489 158.439C287.529 155.521 291.237 153.844 295.296 153.02C301.073 151.85 306.866 151.883 312.519 153.714C319.778 156.063 323.972 161.068 324.921 168.685C325.099 170.132 325.147 171.602 325.154 173.062C325.175 180.631 325.163 188.199 325.163 195.77C325.163 196.728 325.631 197.209 326.565 197.213C327.937 197.217 329.309 197.235 330.684 197.206C331.32 197.193 331.529 197.44 331.524 198.07C331.499 201.215 331.513 204.357 331.515 207.501C331.515 207.91 331.545 208.331 330.94 208.318C327.988 208.261 325.01 208.423 322.085 208.1C317.776 207.626 314.828 204.454 314.24 200.16C314.214 199.966 314.139 199.779 314.024 199.358H314.02ZM312.636 180.759C312.494 180.876 312.37 180.951 312.279 181.055C310.847 182.729 308.99 183.658 306.862 184.031C304.585 184.431 302.29 184.722 300.004 185.077C297.223 185.509 294.476 186.079 292.09 187.681C288.367 190.179 288.496 195.264 292.355 197.534C295.177 199.193 298.263 199.304 301.387 198.726C305.748 197.918 309.207 195.715 311.406 191.787C313.344 188.327 312.851 184.559 312.636 180.761V180.759Z" fill="#151515"/>
<path d="M118.607 180.874C118.548 196.816 106.628 209.485 89.5975 209.39C72.3308 209.292 60.5516 196.493 61.1172 179.768C61.6573 163.81 73.9415 152.176 89.9198 152.293C107.324 152.419 118.688 165.4 118.607 180.876V180.874ZM73.7457 181.704C73.7035 185.438 75.1003 189.555 78.2833 192.921C81.97 196.821 86.5828 198.264 91.8876 197.658C96.5185 197.129 100.3 195.028 102.824 191.152C107.007 184.729 107.161 177.986 103.315 171.381C98.2227 162.633 85.49 161.217 78.4721 168.507C75.1825 171.923 73.7676 176.117 73.7457 181.704Z" fill="#151515"/>
<path d="M166.528 160.335C166.783 160.021 167.043 159.712 167.292 159.393C170.46 155.365 174.685 153.257 179.688 152.566C184.531 151.898 189.234 152.334 193.656 154.548C198.885 157.167 201.822 161.611 203.368 167.094C204.106 169.715 204.475 172.397 204.475 175.124C204.477 185.805 204.463 196.485 204.495 207.163C204.5 208.092 204.255 208.359 203.325 208.343C199.971 208.288 196.616 208.321 193.26 208.319C192.389 208.319 191.953 207.893 191.952 207.042C191.952 196.912 191.986 186.781 191.932 176.65C191.913 173.249 191.069 170.037 188.642 167.492C185.483 164.179 181.511 163.281 177.152 164.118C171.233 165.255 167.153 169.909 166.58 175.98C166.468 177.161 166.404 178.349 166.402 179.534C166.387 188.749 166.378 197.965 166.417 207.18C166.42 208.137 166.126 208.352 165.225 208.339C161.78 208.289 158.333 208.299 154.886 208.333C154.107 208.341 153.825 208.132 153.825 207.31C153.845 189.643 153.843 171.974 153.828 154.308C153.828 153.562 154.048 153.302 154.819 153.312C158.295 153.348 161.773 153.346 165.249 153.312C165.992 153.304 166.276 153.502 166.252 154.282C166.202 155.96 166.234 157.639 166.241 159.317C166.241 159.631 166.287 159.947 166.312 160.261L166.528 160.331V160.335Z" fill="#151515"/>
<path d="M335.671 191.354C339.632 191.354 343.473 191.346 347.314 191.372C347.543 191.372 347.928 191.608 347.979 191.802C349.003 195.899 351.999 197.776 355.792 198.593C359.876 199.474 363.965 199.446 367.9 197.802C370.174 196.851 371.535 194.855 371.473 192.731C371.402 190.308 369.994 188.293 367.495 187.618C365.069 186.962 362.558 186.621 360.082 186.151C356.229 185.418 352.308 184.944 348.542 183.902C343.78 182.585 339.822 179.892 338.088 175.004C335.337 167.246 337.845 159.637 345.532 155.473C349.181 153.497 353.13 152.609 357.262 152.37C361.658 152.118 365.958 152.5 370.099 154.052C376.964 156.621 380.991 161.587 382.365 168.757C382.491 169.416 382.292 169.684 381.566 169.678C378.089 169.647 374.609 169.678 371.134 169.641C370.827 169.638 370.33 169.389 370.25 169.145C369.08 165.624 366.523 163.745 363.028 163.02C359.752 162.34 356.479 162.41 353.297 163.503C351.309 164.186 349.72 165.387 349.277 167.612C348.89 169.568 349.55 171.169 351.153 172.332C353.013 173.685 355.231 174.011 357.425 174.376C361.779 175.097 366.177 175.623 370.472 176.602C375.576 177.769 380.01 180.238 382.251 185.283C385.155 191.821 383.868 200.801 376.462 205.429C372.575 207.857 368.303 208.843 363.83 209.249C359.322 209.66 354.871 209.328 350.519 208.114C344.683 206.486 339.987 203.296 337.369 197.648C336.574 195.928 336.217 194.003 335.681 192.165C335.616 191.945 335.671 191.689 335.671 191.355V191.354Z" fill="#151515"/>
<path d="M55.9865 187.464C55.5234 190.39 54.5276 193.037 53.1272 195.507C48.7102 203.301 41.967 207.749 33.1587 209.035C26.2542 210.044 19.6699 208.984 13.6092 205.405C6.25435 201.062 1.99843 194.546 0.506569 186.197C-0.670336 179.604 0.186344 173.242 3.29811 167.31C7.3362 159.615 13.7611 154.852 22.1996 153.008C30.2007 151.261 37.8427 152.413 44.7821 156.927C50.7385 160.802 54.3263 166.38 55.948 173.268C56.1164 173.982 55.9957 174.264 55.1993 174.258C51.3261 174.231 47.4527 174.236 43.5795 174.258C42.9902 174.262 42.7503 174.041 42.5398 173.497C38.8057 163.833 27.6673 161.339 19.9189 166.377C16.0308 168.905 13.9056 172.614 13.0691 177.071C12.1375 182.047 12.8075 186.805 15.6776 191.066C18.2715 194.916 21.9286 197.122 26.5726 197.653C32.4246 198.32 37.1874 196.404 40.6783 191.619C41.458 190.55 41.9212 189.253 42.5857 188.094C42.7613 187.788 43.1475 187.402 43.4405 187.4C47.4655 187.356 51.4908 187.371 55.516 187.376C55.6313 187.376 55.7485 187.418 55.9829 187.464H55.9865Z" fill="#151515"/>
<path d="M143.029 180.811C143.029 189.508 143.029 198.205 143.029 206.9C143.029 207.844 142.572 208.316 141.659 208.318C138.366 208.318 135.072 208.318 131.779 208.318C130.904 208.318 130.466 207.864 130.466 206.957C130.466 193.286 130.466 179.617 130.466 165.946C130.466 165.008 130.005 164.538 129.084 164.536C127.162 164.536 125.24 164.514 123.32 164.547C122.666 164.558 122.399 164.39 122.406 163.681C122.439 160.507 122.434 157.334 122.41 154.16C122.405 153.525 122.606 153.312 123.248 153.314C129.562 153.333 135.875 153.34 142.188 153.311C143.122 153.307 143.029 153.858 143.029 154.446C143.029 163.234 143.029 172.023 143.029 180.81V180.811Z" fill="#151515"/>
<path d="M136.681 146.48C132.001 146.476 128.638 143.182 128.644 138.607C128.649 133.999 132.068 130.615 136.718 130.615C141.431 130.615 144.829 133.941 144.821 138.55C144.814 143.284 141.532 146.483 136.681 146.478V146.48Z" fill="#151515"/>
</g>
</svg>
