<svg width="681" height="340" viewBox="0 0 681 340" fill="none" xmlns="http://www.w3.org/2000/svg">
<g clip-path="url(#clip0_461_25)">
<path d="M100.697 137.136L56.3439 119.802C54.687 119.292 54.1772 119.292 52.5203 119.802L8.1667 137.136C6.38236 137.9 6 138.538 6 140.322V199.715C6 201.627 6.38236 202.009 8.1667 202.901L52.5203 221C53.4125 221.382 53.9223 221.509 54.5595 221.509C55.0693 221.509 55.7066 221.382 56.4713 221L100.825 202.901C102.609 202.264 102.992 201.627 102.992 199.715V140.322C102.864 138.538 102.482 137.9 100.697 137.136ZM91.6483 199.97L54.4321 214.882L17.2159 199.97L54.4321 186.587L91.6483 199.97ZM17.3433 140.067L54.4321 125.92L91.5209 140.067L54.4321 153.577L17.3433 140.067ZM68.5793 181.107C69.3441 180.852 69.8539 180.087 69.8539 179.323V160.842C69.8539 160.077 69.3441 159.312 68.5793 159.058L63.6087 157.018L96.4915 144.91V195.254L63.6087 183.146L68.5793 181.107ZM63.3538 164.028V176.136L54.4321 179.705L45.6378 176.136V164.028L54.4321 160.459L63.3538 164.028ZM40.4123 159.058C39.6476 159.312 39.1377 160.077 39.1377 160.969V179.323C39.1377 180.087 39.6476 180.852 40.4123 181.107L45.3829 183.146L12.5001 195.254V144.91L45.3829 157.146L40.4123 159.058Z" fill="#151515"/>
<path d="M152.318 150.646H129.887V138.283H190.172V150.646H167.868V202.009H152.446V150.646H152.318Z" fill="#151515"/>
<path d="M195.779 138.41H211.201V162.371H240.515V138.41H255.937V202.137H240.515V174.607H211.201V202.009H195.779V138.41Z" fill="#151515"/>
<path d="M314.691 175.244H279.131V189.774H317.367V202.137H263.582V138.41H317.367V150.773H279.131V162.754H314.691V175.244Z" fill="#151515"/>
<path d="M348.34 138.41H383.644C398.939 138.41 405.566 145.802 405.566 154.852C405.566 162.244 400.978 166.577 396.007 168.489C402.125 170.401 407.86 175.117 407.86 183.274C407.86 195.254 398.684 202.264 383.134 202.264H348.467V138.41H348.34ZM380.331 163.263C387.213 163.263 389.507 160.459 389.507 156.636C389.507 151.793 385.811 149.881 380.458 149.881H363.507V163.263H380.331ZM363.507 190.538H380.968C386.958 190.538 391.419 188.754 391.419 182.509C391.419 177.411 387.978 174.862 381.223 174.862H363.507V190.538Z" fill="#151515"/>
<path d="M414.615 138.41H430.037V189.774H463.685V202.137H414.615V138.41Z" fill="#151515"/>
<path d="M534.037 170.019C534.037 187.735 522.312 203.411 499.115 203.411C477.448 203.411 465.213 188.627 465.213 170.019C465.213 152.43 478.341 137.009 499.88 137.009C522.057 137.009 534.037 152.685 534.037 170.019ZM481.399 169.891C481.399 181.999 487.517 191.431 499.88 191.431C512.753 191.431 517.723 180.597 517.723 170.274C517.723 158.93 512.243 149.117 499.37 149.117C486.88 149.117 481.399 159.185 481.399 169.891Z" fill="#151515"/>
<path d="M603.501 181.872C600.57 193.088 591.648 203.411 571.638 203.411C548.824 203.411 537.863 187.607 537.863 170.274C537.863 152.94 549.971 137.009 572.403 137.009C591.903 137.009 601.717 147.842 603.501 158.548H587.825C586.55 154.852 583.109 148.989 572.148 148.989C560.168 148.989 554.05 158.038 554.05 169.636C554.05 181.362 559.658 191.431 572.276 191.431C581.325 191.431 585.276 187.862 587.825 181.744H603.501V181.872Z" fill="#151515"/>
<path d="M608.725 138.41H624.146V166.322C633.323 157.783 642.117 149.753 654.225 138.41H673.088L643.137 165.813L674.745 202.137H655.5L632.303 174.224L624.146 180.979V202.009H608.725V138.41Z" fill="#151515"/>
</g>
<defs>
<clipPath id="clip0_461_25">
<rect width="669" height="102.09" fill="white" transform="translate(6 119.42)"/>
</clipPath>
</defs>
</svg>
