<svg width="562" height="340" viewBox="0 0 562 340" fill="none" xmlns="http://www.w3.org/2000/svg">
<g clip-path="url(#clip0_821_9017)">
<path d="M10.0396 214.913C7.3863 214.918 4.83929 213.871 2.9572 212.001C1.07512 210.131 0.0116264 207.59 0 204.937C0 203.019 0.517352 201.613 1.02982 200.462L19.0542 163.373C19.722 161.975 20.0721 160.447 20.0791 158.898C20.0791 155.188 18.0244 151.992 15.1887 150.327L4.89044 144.446C3.40351 143.564 2.17111 142.311 1.31386 140.809C0.456609 139.308 0.00388686 137.609 0 135.88C0 130.385 4.50487 125.909 10.0396 125.909H42.2716C45.3611 125.909 47.9332 127.315 49.4804 128.847L72.5269 151.738C74.0692 153.275 75.4846 155.833 75.4846 158.903C75.4846 160.821 74.9722 162.221 74.4597 163.378L51.2862 209.413C50.3833 211.204 47.5525 214.913 42.2716 214.913H10.0396ZM20.3476 181.92C20.3476 187.416 24.8524 191.891 30.392 191.891C33.0444 191.896 35.5907 190.85 37.4727 188.98C39.3546 187.111 40.4187 184.572 40.4316 181.92C40.4199 179.267 39.3565 176.726 37.4744 174.856C35.5923 172.986 33.0453 171.939 30.392 171.944C27.7379 171.937 25.1896 172.984 23.3065 174.854C21.4234 176.725 20.3592 179.266 20.3476 181.92ZM43.521 158.903C43.521 164.398 48.0259 168.874 53.5606 168.874C56.213 168.879 58.7593 167.832 60.6412 165.963C62.5232 164.094 63.5872 161.555 63.6002 158.903C63.5885 156.249 62.525 153.709 60.643 151.839C58.7609 149.969 56.2139 148.921 53.5606 148.926C50.9073 148.921 48.3603 149.969 46.4782 151.839C44.5962 153.709 43.5327 156.249 43.521 158.903Z" fill="white"/>
<path d="M167.486 136.872V150.982C158.785 143.104 150.671 142.281 146.203 142.281C129.153 142.281 117.63 154.863 117.63 172.148C117.63 188.727 129.624 201.544 146.321 201.544C155.728 201.544 163.018 196.723 167.486 192.49V206.718C159.608 211.421 151.377 212.597 145.968 212.597C131.74 212.597 122.804 206.13 118.218 201.779C109.046 193.195 105.636 183.201 105.636 172.148C105.636 157.685 111.633 147.69 118.218 141.458C126.331 133.815 135.738 131.228 146.556 131.228C153.729 131.228 160.666 132.521 167.486 136.872Z" fill="white"/>
<path d="M212.3 194.371L221.942 199.78C219.826 203.543 216.768 206.835 213.594 208.834C209.596 211.421 204.304 212.597 199.013 212.597C192.428 212.597 187.019 210.951 182.316 206.247C177.612 201.544 175.025 194.724 175.025 187.316C175.025 179.673 177.73 172.265 182.904 166.974C187.019 162.858 192.428 160.272 199.483 160.272C207.362 160.272 212.418 163.682 215.357 166.739C221.707 173.324 222.295 182.495 222.295 187.669V189.08H186.784C187.019 192.608 188.548 196.605 191.017 199.075C193.722 201.779 197.014 202.25 199.836 202.25C203.011 202.25 205.363 201.544 207.714 199.78C209.713 198.252 211.242 196.253 212.3 194.371ZM187.607 179.673H210.536C210.066 176.969 208.773 174.617 207.009 172.971C205.48 171.56 203.011 170.149 199.248 170.149C195.25 170.149 192.663 171.795 191.135 173.324C189.488 174.852 188.195 177.204 187.607 179.673Z" fill="white"/>
<path d="M231.751 125.349H243.275V211.068H231.751V125.349Z" fill="white"/>
<path d="M289.918 194.371L299.561 199.78C297.444 203.543 294.387 206.835 291.212 208.834C287.214 211.421 281.923 212.597 276.631 212.597C270.047 212.597 264.638 210.951 259.934 206.247C255.231 201.544 252.644 194.724 252.644 187.316C252.644 179.673 255.348 172.265 260.522 166.974C264.638 162.858 270.047 160.272 277.102 160.272C284.98 160.272 290.036 163.682 292.976 166.739C299.325 173.324 299.913 182.495 299.913 187.669V189.08H264.402C264.638 192.608 266.166 196.605 268.636 199.075C271.34 201.779 274.632 202.25 277.454 202.25C280.629 202.25 282.981 201.544 285.333 199.78C287.332 198.252 288.86 196.253 289.918 194.371ZM265.226 179.673H288.155C287.684 176.969 286.391 174.617 284.627 172.971C283.099 171.56 280.629 170.149 276.867 170.149C272.869 170.149 270.282 171.795 268.753 173.324C267.107 174.852 265.813 177.204 265.226 179.673Z" fill="white"/>
<path d="M320.893 125.349V167.327C325.597 161.212 331.946 160.272 335.591 160.272C348.643 160.272 359.696 170.149 359.696 186.258C359.696 199.898 350.995 212.597 335.709 212.597C332.181 212.597 325.949 211.774 320.893 205.895V211.068H309.37V125.349H320.893ZM334.18 170.619C326.89 170.619 320.188 175.793 320.188 186.611C320.188 196.958 326.89 202.25 334.18 202.25C342.529 202.25 347.938 195.077 347.938 186.493C347.938 177.674 342.529 170.619 334.18 170.619Z" fill="white"/>
<path d="M369.135 211.068V161.565H380.659V166.033C381.952 164.505 383.833 162.858 385.48 161.918C387.714 160.624 389.948 160.272 392.535 160.272C395.357 160.272 398.414 160.742 401.589 162.623L396.885 173.088C394.299 171.442 392.182 171.325 391.006 171.325C388.537 171.325 386.068 171.677 383.834 174.029C380.659 177.439 380.659 182.142 380.659 185.435V211.068H369.135Z" fill="white"/>
<path d="M439.281 167.327V161.565H450.804V211.068H439.281V205.895C434.224 211.774 427.992 212.597 424.465 212.597C409.179 212.597 400.477 199.898 400.477 186.258C400.477 170.149 411.53 160.272 424.582 160.272C428.228 160.272 434.577 161.212 439.281 167.327ZM425.993 170.619C417.645 170.619 412.236 177.674 412.236 186.493C412.236 195.077 417.645 202.25 425.993 202.25C433.284 202.25 439.986 196.958 439.986 186.611C439.986 175.793 433.284 170.619 425.993 170.619Z" fill="white"/>
<path d="M483.525 172.148H474.706V211.068H463.183V172.148H458.362V161.565H463.183V143.457H474.706V161.565H483.525V172.148Z" fill="white"/>
<path d="M488.721 161.565H500.244V211.068H488.721V161.565ZM487.075 141.105C487.075 136.872 490.249 133.697 494.482 133.697C498.715 133.697 501.89 136.872 501.89 141.105C501.89 145.338 498.715 148.513 494.482 148.513C490.249 148.513 487.075 145.338 487.075 141.105Z" fill="white"/>
<path d="M505.615 211.068L527.486 184.259L509.848 161.565H523.488L534.424 176.028L545.477 161.565H559.587L541.361 184.259L562.527 211.068H548.652L534.424 192.608L519.726 211.068H505.615Z" fill="white"/>
</g>
<defs>
<clipPath id="clip0_821_9017">
<rect width="562.009" height="340" fill="white"/>
</clipPath>
</defs>
</svg>
