<svg width="562" height="340" viewBox="0 0 562 340" fill="none" xmlns="http://www.w3.org/2000/svg">
<g clip-path="url(#clip0_821_9373)">
<g clip-path="url(#clip1_821_9373)">
<mask id="mask0_821_9373" style="mask-type:luminance" maskUnits="userSpaceOnUse" x="0" y="118" width="563" height="104">
<path d="M562.527 118H0V221.851H562.527V118Z" fill="white"/>
</mask>
<g mask="url(#mask0_821_9373)">
<path d="M97.9996 191.135H80.0402C84.5976 185.26 87.3427 177.919 87.3427 169.921C87.3427 161.925 84.5885 154.566 80.0225 148.691H97.9909C101.032 155.135 102.749 162.33 102.749 169.921C102.749 177.513 101.041 184.691 97.9996 191.135ZM52.3038 191.135C40.4962 191.135 30.9285 181.637 30.9285 169.913C30.9285 158.189 40.4962 148.691 52.3038 148.691C64.1108 148.691 73.6789 158.198 73.6789 169.913C73.6789 181.628 64.1108 191.135 52.3038 191.135ZM17.2476 169.921C17.2476 189.142 32.9327 204.731 52.2951 204.731C57.4885 204.731 62.4033 203.575 66.8386 201.565V217.887C62.2376 219.259 57.3578 220.009 52.3038 220.009C24.454 220.009 1.87622 197.587 1.87622 169.921C1.87622 142.255 24.454 119.834 52.3124 119.834C57.3665 119.834 62.2376 120.585 66.8472 121.956V138.278C62.4119 136.268 57.4972 135.112 52.3038 135.112C32.9501 135.112 17.2563 150.692 17.2563 169.921H17.2476Z" fill="white"/>
<path d="M153.901 181.434C158.092 181.434 161.499 179.751 163.538 177.56V189.741C160.593 191.087 157.133 191.76 153.674 191.76C141.205 191.76 131.166 181.934 131.166 169.925C131.166 157.917 141.205 148.091 153.674 148.091C157.133 148.091 160.593 148.824 163.538 150.109V162.291C161.499 160.099 158.092 158.417 153.901 158.417C147.156 158.417 142.276 163.3 142.276 169.925C142.276 176.551 147.156 181.434 153.901 181.434ZM191.71 148.091C204.014 148.091 213.817 157.917 213.817 169.925C213.817 181.934 204.006 191.76 191.71 191.76C179.415 191.76 169.603 181.934 169.603 169.925C169.603 157.917 179.467 148.091 191.71 148.091ZM191.71 158.305C185.645 158.305 180.713 163.075 180.713 169.925C180.713 176.775 185.645 181.546 191.71 181.546C197.775 181.546 202.707 176.775 202.707 169.925C202.707 163.075 197.775 158.305 191.71 158.305ZM231.165 148.764L249.307 173.462V148.764H259.964V191.087H250.492L231.722 166V191.087H221.065V148.764H231.156H231.165ZM290.524 181.434C294.716 181.434 298.123 179.751 300.162 177.56V189.741C297.217 191.087 293.757 191.76 290.298 191.76C277.828 191.76 267.79 181.934 267.79 169.925C267.79 157.917 277.828 148.091 290.298 148.091C293.757 148.091 297.217 148.824 300.162 150.109V162.291C298.123 160.099 294.716 158.417 290.524 158.417C283.78 158.417 278.899 163.3 278.899 169.925C278.899 176.551 283.78 181.434 290.524 181.434ZM328.334 148.091C340.638 148.091 350.441 157.917 350.441 169.925C350.441 181.934 340.629 191.76 328.334 191.76C316.038 191.76 306.227 181.934 306.227 169.925C306.227 157.917 316.091 148.091 328.334 148.091ZM328.334 158.305C322.269 158.305 317.336 163.075 317.336 169.925C317.336 176.775 322.269 181.546 328.334 181.546C334.399 181.546 339.331 176.775 339.331 169.925C339.331 163.075 334.399 158.305 328.334 158.305ZM369.264 175.93V191.087H358.266V148.764H372.381C382.535 148.764 389.504 153.707 389.504 162.351C389.504 168.019 386.047 172.177 380.722 174.308L394.334 191.087H380.948L369.271 175.93H369.264ZM369.264 167.734H372.32C376.007 167.734 378.221 165.767 378.221 162.679C378.221 159.591 376.007 157.684 372.32 157.684H369.264V167.734ZM414.732 148.764C426.975 148.764 436.841 157.856 436.841 169.925C436.841 181.995 426.975 191.087 414.732 191.087H399.257V148.764H414.732ZM413.99 157.805H410.368V182.055H413.879C421.077 182.055 425.728 176.439 425.728 169.934C425.728 163.429 421.077 157.813 413.99 157.813V157.805ZM455.777 191.087H444.664V148.764H455.777V191.087ZM490.021 174.084V148.772H501.133V174.032C501.133 185.316 493.366 191.769 483.154 191.769C472.942 191.769 465.175 185.316 465.175 174.032V148.772H476.287V174.084C476.287 179.415 479.009 182.055 483.146 182.055C487.282 182.055 490.004 179.415 490.004 174.084H490.021Z" fill="white"/>
<path d="M521.436 162.799H521.112V191.086H510.87V148.763H527.183L535.262 172.788L544.184 148.763H559.321V191.086H549.083V162.799H548.762L538.451 191.086H531.744L521.436 162.799Z" fill="white"/>
</g>
</g>
</g>
<defs>
<clipPath id="clip0_821_9373">
<rect width="562.009" height="340" fill="white"/>
</clipPath>
<clipPath id="clip1_821_9373">
<rect width="562.527" height="103.851" fill="white" transform="translate(0 118)"/>
</clipPath>
</defs>
</svg>
