<svg width="562" height="340" viewBox="0 0 562 340" fill="none" xmlns="http://www.w3.org/2000/svg">
<g clip-path="url(#clip0_821_8890)">
<path d="M53.897 193.146C53.4139 194.973 51.8432 195.415 50.4536 194.119L22.877 169.012C21.4574 167.716 21.7594 166.095 23.5717 165.387L62.2638 150.3C64.0759 149.593 65.133 150.536 64.6499 152.363L53.897 193.146Z" fill="white"/>
<path d="M31.1226 217.018C29.6428 218.255 28.1627 217.754 27.8305 215.868L20.2793 175.056C19.9471 173.199 20.823 172.728 22.2426 174.024L48.4903 197.922C49.91 199.219 49.8798 201.282 48.3997 202.52L31.1226 217.018Z" fill="white"/>
<path d="M62.7772 142.167C64.0458 143.611 63.5929 145.35 61.8106 146.057L23.3301 161.056C21.5178 161.763 20.6117 160.88 21.2762 159.112L37.0733 117.68C37.7377 115.912 39.3386 115.617 40.607 117.061L62.7772 142.167Z" fill="white"/>
<path d="M22.4839 210.061C22.8161 211.917 22.2422 212.153 21.1851 210.562L6.26403 188.078C5.20687 186.487 5.29749 183.952 6.44526 182.42L13.1204 173.698C14.2682 172.195 15.5066 172.46 15.8691 174.316L22.4839 210.061Z" fill="white"/>
<path d="M17.7724 156.577C17.1079 158.345 16.0507 158.345 15.4164 156.548L10.3119 141.637C9.70777 139.84 10.3723 137.335 11.8221 136.068L30.0052 120.008C31.4549 118.741 32.059 119.153 31.3945 120.921L17.7724 156.577Z" fill="white"/>
<path d="M12.9698 162.324C13.5739 164.121 13.151 166.832 11.973 168.335L6.77787 175.172C5.6301 176.674 4.84478 176.38 5.02601 174.494L7.53298 150.802C7.7444 148.916 8.40892 148.857 9.013 150.654L12.9698 162.324Z" fill="white"/>
<path d="M33.4784 108.987C34.1127 109.723 33.4784 111.344 32.0285 112.641L23.8733 119.86C22.4235 121.127 22.212 120.921 23.3598 119.418L30.2163 110.431C31.364 108.898 32.8441 108.25 33.4784 108.987Z" fill="white"/>
<path d="M85.0682 235.05C84.1017 236.67 82.3801 236.759 81.2928 235.197L59.9078 204.845C58.8205 203.283 59.485 201.84 61.4181 201.663L104.369 197.331C106.302 197.125 107.087 198.303 106.091 199.954L85.0682 235.05Z" fill="white"/>
<path d="M76.1276 235.08C77.2149 236.642 76.6107 237.408 74.7986 236.819L34.5359 223.47C32.6934 222.851 32.3913 221.348 33.8714 220.111L51.1181 205.612C52.5982 204.375 54.6822 204.64 55.7999 206.202L76.1276 235.08Z" fill="white"/>
<path d="M105.275 190.288C106.544 191.732 106 193.058 104.067 193.264L60.4815 197.655C58.5484 197.861 57.3706 196.506 57.8537 194.679L68.7575 153.277C69.2409 151.45 70.6604 151.125 71.9291 152.54L105.275 190.288Z" fill="white"/>
<path d="M136.566 225.768C137.835 227.212 137.321 228.685 135.419 229.098L91.0784 238.203C89.1757 238.586 88.4204 237.585 89.4172 235.934L110.319 201.045C111.285 199.424 113.128 199.247 114.396 200.691L136.566 225.768Z" fill="white"/>
<path d="M65.2536 249.047C63.5318 249.931 60.9646 249.636 59.5147 248.398L38.9151 230.659C37.4654 229.392 37.7675 228.891 39.6098 229.48L74.8284 241.149C76.6707 241.768 76.7615 242.976 75.0701 243.89L65.2536 249.047Z" fill="white"/>
<path d="M113.067 250.726C111.557 251.934 108.929 252.199 107.178 251.345L92.8303 244.214C91.1085 243.359 91.2294 242.327 93.1324 241.945L131.341 234.106C133.244 233.723 133.576 234.371 132.066 235.58L113.067 250.726Z" fill="white"/>
<path d="M73.0765 251.581C71.1436 251.493 70.9623 250.697 72.6537 249.783L80.356 245.746C82.0776 244.862 84.8865 244.833 86.6083 245.687L97.8443 251.257C99.5659 252.111 99.415 252.76 97.4517 252.671L73.0765 251.581Z" fill="white"/>
<path d="M143.725 233.841C144.36 234.577 143.514 235.903 141.792 236.787L131.674 242.062C129.952 242.946 129.801 242.71 131.281 241.502L139.829 234.695C141.309 233.487 143.061 233.104 143.725 233.841Z" fill="white"/>
<path d="M118.111 189.848C116.299 190.555 115.242 189.613 115.725 187.786L126.478 147.002C126.961 145.175 128.532 144.733 129.952 146.03L157.528 171.136C158.948 172.433 158.646 174.054 156.834 174.761L118.111 189.848Z" fill="white"/>
<path d="M160.127 165.093C160.459 166.949 159.583 167.421 158.163 166.124L131.916 142.226C130.496 140.929 130.526 138.867 132.006 137.629L149.253 123.131C150.733 121.893 152.213 122.394 152.545 124.28L160.127 165.093Z" fill="white"/>
<path d="M143.302 222.469C142.637 224.237 141.037 224.532 139.768 223.088L117.598 197.981C116.329 196.538 116.782 194.799 118.564 194.092L157.045 179.093C158.857 178.385 159.763 179.27 159.099 181.038L143.302 222.469Z" fill="white"/>
<path d="M174.11 152.067C175.168 153.659 175.077 156.193 173.929 157.725L167.254 166.418C166.106 167.921 164.868 167.656 164.505 165.799L157.891 130.084C157.558 128.228 158.132 127.992 159.189 129.583L174.11 152.067Z" fill="white"/>
<path d="M170.033 198.538C170.637 200.336 169.973 202.84 168.523 204.107L150.34 220.167C148.89 221.434 148.286 221.022 148.95 219.254L162.573 183.568C163.237 181.8 164.294 181.8 164.929 183.598L170.033 198.538Z" fill="white"/>
<path d="M172.873 189.316C172.661 191.202 171.997 191.261 171.392 189.464L167.405 177.794C166.801 175.997 167.255 173.286 168.402 171.783L173.628 164.946C174.776 163.443 175.561 163.738 175.38 165.624L172.873 189.316Z" fill="white"/>
<path d="M150.159 229.715C149.011 231.247 147.531 231.866 146.866 231.159C146.232 230.422 146.866 228.801 148.316 227.505L156.501 220.285C157.951 219.018 158.163 219.224 157.015 220.727L150.159 229.715Z" fill="white"/>
<path d="M120.468 135.3C121.555 136.862 120.89 138.306 118.957 138.483L76.0065 142.815C74.0737 143.021 73.2882 141.842 74.2849 140.192L95.3072 105.096C96.2738 103.475 97.9956 103.387 99.0829 104.949L120.468 135.3Z" fill="white"/>
<path d="M129.257 134.535C127.777 135.773 125.693 135.508 124.576 133.946L104.248 105.068C103.16 103.506 103.765 102.74 105.577 103.329L145.84 116.678C147.682 117.297 147.984 118.8 146.504 120.037L129.257 134.535Z" fill="white"/>
<path d="M111.618 186.868C111.135 188.695 109.715 189.019 108.446 187.605L75.1309 149.856C73.8623 148.413 74.4061 147.086 76.3389 146.88L119.924 142.49C121.857 142.283 123.035 143.639 122.552 145.466L111.618 186.868Z" fill="white"/>
<path d="M70.0564 139.13C69.0898 140.751 67.2475 140.928 65.9789 139.484L43.8087 114.377C42.5401 112.933 43.0536 111.46 44.9566 111.047L89.2967 101.942C91.1997 101.559 91.9547 102.561 90.958 104.211L70.0564 139.13Z" fill="white"/>
<path d="M105.547 98.9975C103.704 98.3786 103.614 97.1705 105.305 96.257L115.122 91.1296C116.843 90.2456 119.411 90.5402 120.891 91.7779L141.46 109.517C142.91 110.785 142.608 111.286 140.765 110.696L105.547 98.9975Z" fill="white"/>
<path d="M49.0341 106.041C47.1311 106.424 46.7989 105.776 48.3092 104.567L67.2777 89.421C68.7877 88.2128 71.4155 87.9476 73.1675 88.8022L87.5449 95.9333C89.2665 96.7879 89.1456 97.8193 87.2429 98.2024L49.0341 106.041Z" fill="white"/>
<path d="M100.049 94.3705C98.3276 95.2545 95.5187 95.284 93.7971 94.4294L82.5609 88.86C80.8393 88.0055 80.9904 87.3572 82.9537 87.4456L107.329 88.5359C109.262 88.6243 109.443 89.4199 107.751 90.3334L100.049 94.3705Z" fill="white"/>
<path d="M40.5765 105.451C39.0665 106.659 37.3144 107.042 36.6801 106.305C36.0461 105.568 36.8916 104.242 38.6132 103.358L48.7318 98.0837C50.4534 97.1996 50.6045 97.4354 49.1244 98.6435L40.5765 105.451Z" fill="white"/>
<path d="M27.589 225.385C28.3441 224.766 30.0053 225.385 31.3343 226.799L38.7345 234.785C40.0333 236.2 39.8218 236.406 38.2813 235.286L29.0388 228.597C27.4983 227.477 26.8338 226.033 27.589 225.385Z" fill="white"/>
<path d="M155.535 117.857C156.29 117.239 157.65 118.064 158.555 119.744L163.962 129.615C164.868 131.295 164.627 131.442 163.388 129.998L156.411 121.659C155.203 120.215 154.81 118.476 155.535 117.857Z" fill="white"/>
<path d="M151.336 111.55C152.907 112.67 153.541 114.114 152.817 114.762C152.061 115.381 150.4 114.762 149.071 113.347L141.671 105.362C140.372 103.947 140.584 103.741 142.124 104.861L151.336 111.55Z" fill="white"/>
<path d="M23.964 218.49C25.2024 219.963 25.5951 221.672 24.84 222.291C24.0848 222.91 22.7256 222.085 21.8195 220.405L16.4129 210.533C15.5068 208.854 15.7484 208.706 16.9868 210.15L23.964 218.49Z" fill="white"/>
<path d="M275.694 137.315C281.687 140.687 286.431 145.255 289.921 150.976C293.414 156.74 295.181 163.058 295.181 169.932C295.181 176.805 293.414 183.166 289.921 188.972C286.431 194.778 281.645 199.389 275.694 202.804C269.701 206.22 263.149 207.928 255.949 207.928C248.793 207.928 242.196 206.22 236.203 202.804C230.21 199.389 225.468 194.778 221.976 188.972C218.483 183.166 216.716 176.805 216.716 169.932C216.716 163.058 218.483 156.74 221.976 150.976C225.468 145.213 230.253 140.687 236.203 137.315C242.196 133.942 248.749 132.277 255.949 132.277C263.149 132.234 269.701 133.942 275.694 137.315ZM240.169 142.993C235.298 145.768 231.417 149.525 228.572 154.264C225.683 159.002 224.26 164.253 224.26 169.932C224.26 175.61 225.683 180.861 228.572 185.685C231.417 190.509 235.298 194.309 240.169 197.126C245.041 199.944 250.344 201.353 256.078 201.353C261.725 201.353 266.985 199.944 271.814 197.126C276.643 194.309 280.523 190.509 283.369 185.685C286.214 180.861 287.679 175.61 287.679 169.932C287.679 163.015 285.525 156.74 281.256 151.19C279.187 148.5 276.643 146.109 273.798 144.231C268.409 140.645 262.502 138.852 256.078 138.852C250.344 138.852 245.041 140.218 240.169 142.993Z" fill="white"/>
<path d="M374.684 205.748L359.508 183.036C357.222 183.164 355.455 183.25 354.248 183.25H333.595V203.827C333.595 205.748 332.045 207.286 330.105 207.286H329.674C327.732 207.286 326.181 205.748 326.181 203.827V132.873H354.248C363.646 132.873 370.89 135.008 376.021 139.32C381.149 143.631 383.695 149.694 383.695 157.592C383.695 163.782 382.186 168.905 379.168 173.046C376.15 177.145 371.839 180.048 366.277 181.67L380.504 201.863C382.142 204.169 380.46 207.328 377.615 207.328C376.451 207.328 375.329 206.73 374.684 205.748ZM354.248 176.632C361.404 176.632 366.922 175.01 370.802 171.808C374.684 168.564 376.624 163.91 376.624 157.805C376.624 151.828 374.684 147.303 370.802 144.186C366.922 141.07 361.404 139.49 354.248 139.49H333.595V176.632H354.248Z" fill="white"/>
<path d="M467.723 137.74C471.989 141.028 474.102 145.596 474.102 151.402C474.102 155.799 472.851 159.513 470.395 162.459C467.937 165.447 464.444 167.411 460.004 168.308C465.522 169.034 469.833 171.04 472.895 174.37C475.957 177.7 477.507 181.926 477.507 187.05C477.507 193.453 475.093 198.406 470.308 201.949C465.522 205.493 458.841 207.286 450.305 207.286H418.487V132.788H450.003C457.546 132.788 463.453 134.41 467.723 137.74ZM462.073 162.203C465.006 159.897 466.471 156.61 466.471 152.341C466.471 148.243 465.006 145.041 462.073 142.778C459.143 140.515 455.002 139.405 449.701 139.491H425.945V165.661H449.701C455.002 165.661 459.143 164.508 462.073 162.203ZM464.704 196.911C468.239 194.393 470.006 190.849 470.006 186.324C470.006 181.841 468.195 178.383 464.617 175.907C461.039 173.431 456.037 172.193 449.657 172.193H425.901V200.711H449.657C456.168 200.711 461.168 199.43 464.704 196.911Z" fill="white"/>
<path d="M542.093 140.603C538.428 139.578 534.979 139.066 531.79 139.066C526.615 139.066 522.477 140.09 519.372 142.097C516.268 144.103 514.715 146.878 514.715 150.336C514.715 153.41 515.579 155.887 517.303 157.807C519.028 159.729 521.141 161.223 523.641 162.333C526.141 163.443 529.59 164.638 533.944 166.005C539.031 167.499 543.128 168.95 546.275 170.402C549.378 171.853 552.051 173.988 554.251 176.72C556.449 179.495 557.528 183.167 557.528 187.692C557.528 191.662 556.406 195.163 554.122 198.237C551.881 201.311 548.69 203.659 544.593 205.324C540.499 206.989 535.799 207.843 530.495 207.843C525.279 207.843 520.148 206.818 515.19 204.769C511.181 203.104 507.603 201.012 504.497 198.493C503.205 197.426 502.903 195.633 503.679 194.181C504.714 192.346 507.128 191.876 508.767 193.157C511.395 195.206 514.284 196.871 517.476 198.194C521.915 200.03 526.27 200.969 530.583 200.969C536.315 200.969 540.886 199.817 544.25 197.511C547.611 195.206 549.293 192.089 549.293 188.204C549.293 185.088 548.432 182.526 546.706 180.52C544.983 178.513 542.87 177.019 540.368 175.952C537.868 174.884 534.334 173.647 529.848 172.237C524.761 170.658 520.667 169.206 517.605 167.84C514.501 166.474 511.914 164.382 509.757 161.65C507.603 158.918 506.525 155.332 506.525 150.934C506.525 147.177 507.603 143.89 509.757 141.03C511.914 138.212 514.932 135.992 518.812 134.498C522.692 132.961 527.175 132.192 532.262 132.192C536.359 132.192 540.455 132.79 544.593 133.985C547.439 134.839 550.07 135.864 552.484 137.059C554.208 137.913 554.899 139.962 554.035 141.67L553.95 141.884C553.088 143.591 550.975 144.232 549.249 143.335C546.923 142.225 544.549 141.329 542.093 140.603Z" fill="white"/>
</g>
<defs>
<clipPath id="clip0_821_8890">
<rect width="552.527" height="165.515" fill="white" transform="translate(5 87.4375)"/>
</clipPath>
</defs>
</svg>
