<svg width="562" height="340" viewBox="0 0 562 340" fill="none" xmlns="http://www.w3.org/2000/svg">
<g clip-path="url(#clip0_721_189)">
<path d="M77.9928 159.448L4.91334 125.999C0.995583 124.194 1.15229 118.545 5.20065 117.002L79.7947 88.2866C81.0224 87.8158 82.3805 87.8681 83.5559 88.3912L155.12 120.847C159.012 122.625 158.908 128.196 154.937 129.817L81.8582 159.526C80.6044 160.049 79.2202 160.023 77.9928 159.448ZM25.0767 123.723L79.4554 148.621C79.8992 148.83 80.3957 148.83 80.8395 148.621L135.218 126.495C136.629 125.92 136.681 123.906 135.27 123.279L82.015 99.166C81.597 98.983 81.1008 98.9568 80.6567 99.166L25.1551 120.506C23.7447 121.056 23.6664 123.096 25.0767 123.723Z" fill="white"/>
<path d="M13.6378 200.376L2.43304 203.174L2.06738 121.421L13.6378 120.977V200.376Z" fill="white"/>
<path d="M82.2243 179.847L155.304 213.297C159.221 215.101 159.065 220.75 155.016 222.293L80.4221 251.009C79.1947 251.479 77.8364 251.427 76.6612 250.904L5.09669 218.449C1.20506 216.67 1.30953 211.1 5.27953 209.478L78.3589 179.743C79.5863 179.246 80.9969 179.272 82.2243 179.847ZM135.114 215.572L80.7356 190.675C80.2915 190.465 79.7953 190.465 79.3514 190.648L24.9728 212.774C23.5624 213.349 23.5102 215.363 24.9206 215.99L78.176 240.129C78.594 240.312 79.0902 240.339 79.5341 240.155L135.036 218.789C136.446 218.239 136.524 216.199 135.114 215.572Z" fill="white"/>
<path d="M146.583 138.917L157.762 136.119L158.128 217.872L146.583 218.317V138.917Z" fill="white"/>
<path d="M235.485 148.883C242.171 148.883 247.604 154.323 247.604 161.018V164.156C247.604 170.851 242.171 176.291 235.485 176.291H218.247V148.883H235.485ZM235.485 141.037H210.411V184.11H235.485C246.507 184.11 255.439 175.166 255.439 164.13V160.992C255.439 149.981 246.507 141.037 235.485 141.037Z" fill="white"/>
<path d="M219.709 147.522H210.411V206.104H219.709V147.522Z" fill="white"/>
<path d="M296.032 206.994C287.333 206.994 277.018 206.994 275.763 196.716L275.712 196.402C275.24 191.799 275.632 146.215 275.685 141.037L283.521 141.115C283.34 160.939 283.182 191.407 283.494 195.408C283.468 200.717 296.502 199.41 302.354 199.384C303.449 199.384 304.652 199.279 305.513 199.253L305.721 206.68C304.913 206.706 303.972 206.759 302.927 206.811C300.863 206.863 298.512 206.994 296.032 206.994Z" fill="white"/>
<path d="M366.861 140.198H324.863V148.044H366.861V140.198Z" fill="white"/>
<path d="M366.861 166.431H324.863V174.276H366.861V166.431Z" fill="white"/>
<path d="M366.861 197.213H324.863V205.059H366.861V197.213Z" fill="white"/>
<path d="M518.348 202.782L518.114 195.668C519.94 195.799 523.859 196.505 525.557 196.662C533.339 197.394 539.372 198.153 546.032 194.988C548.775 193.68 550.943 191.118 551.988 187.953C553.006 184.919 552.825 181.729 551.492 179.192C549.351 175.112 544.702 174.301 537.282 173.438C529.554 172.549 519.916 171.425 515.709 161.879C513.933 157.825 514.117 153.353 516.205 149.326C518.66 144.644 523.414 141.061 528.663 140.015C534.646 138.839 540.548 139.309 546.269 139.806C548.306 139.963 550.316 140.146 552.353 140.225L552.015 148.07C549.898 147.966 547.757 147.809 545.616 147.626C540.21 147.181 535.115 146.737 530.204 147.73C527.279 148.306 524.512 150.372 523.152 152.961C522.449 154.295 521.846 156.387 522.867 158.741C525.139 163.919 530.153 164.756 538.146 165.671C545.667 166.534 554.209 167.528 558.413 175.583C560.738 180.003 561.076 185.442 559.405 190.49C557.683 195.668 554.025 199.905 549.375 202.128C541.148 206.051 532.137 204.691 524.171 203.671C522.107 203.331 519.993 202.965 518.348 202.782Z" fill="white"/>
<path d="M485.991 141.037V191.459C485.991 195.225 482.933 198.311 479.148 198.311H465.906C462.144 198.311 459.062 195.225 459.062 191.459V141.037H451.227V191.459C451.227 199.567 457.809 206.157 465.906 206.157H479.148C487.244 206.157 493.827 199.567 493.827 191.459V141.037H485.991Z" fill="white"/>
<path d="M422.521 141.037V159.527C422.521 163.188 419.831 166.222 416.384 166.588H416.253C416.069 166.614 415.861 166.614 415.677 166.614H402.435C402.254 166.614 402.043 166.614 401.862 166.588H401.732C398.308 166.222 395.592 163.188 395.592 159.527V141.037H387.756V159.527C387.756 163.947 389.585 167.922 392.486 170.642C394.915 173.048 398.151 174.539 401.732 174.695H401.862C402.043 174.722 402.254 174.722 402.435 174.722H415.677C415.861 174.722 416.069 174.722 416.253 174.695H416.384C419.962 174.539 423.174 173.022 425.63 170.642C428.554 167.922 430.356 163.921 430.356 159.527V141.037H422.521Z" fill="white"/>
<path d="M425.63 170.641C423.174 168.262 419.962 166.745 416.384 166.588H416.253C416.069 166.562 415.861 166.562 415.677 166.562H402.435C402.254 166.562 402.043 166.562 401.862 166.588H401.732C398.151 166.745 394.915 168.235 392.486 170.641C389.585 173.361 387.756 177.363 387.756 181.756V206.157H395.592V181.756C395.592 178.095 398.308 175.061 401.732 174.695H401.862C402.043 174.669 402.254 174.669 402.435 174.669H415.677C415.861 174.669 416.069 174.669 416.253 174.695H416.384C419.831 175.061 422.521 178.095 422.521 181.756V206.157H430.356V181.756C430.356 177.336 428.554 173.361 425.63 170.641Z" fill="white"/>
</g>
<defs>
<clipPath id="clip0_721_189">
<rect width="562.009" height="340" fill="white"/>
</clipPath>
</defs>
</svg>
