<svg width="562" height="340" viewBox="0 0 562 340" fill="none" xmlns="http://www.w3.org/2000/svg">
<g clip-path="url(#clip0_821_9150)">
<path d="M373.597 40.3514C384.083 59.2523 388.716 80.8436 386.905 102.383C385.094 123.922 376.922 144.437 363.428 161.322H305.131L323.077 129.591H299.34L327.319 80.2942H351.192L373.597 40.4057V40.3514ZM258.472 161.322H199.034C185.287 144.511 176.946 123.935 175.107 102.296C173.268 80.6582 178.016 58.9697 188.729 40.0795L227.285 107.05L269.783 33.0371H332.322L258.499 161.268L258.472 161.322Z" fill="white"/>
<path d="M0 256.273C0 222.03 17.0537 205.574 45.0685 205.574C73.0833 205.574 90.1098 222.03 90.1098 256.273C90.1098 290.516 72.9473 306.781 45.0685 306.781C17.1897 306.781 0 290.19 0 256.273ZM10.118 256.273C10.118 284.424 22.9558 297.833 45.0685 297.833C67.1812 297.833 79.9918 284.424 79.9918 256.273C79.9918 228.122 67.154 214.523 45.0685 214.523C22.983 214.523 10.118 227.959 10.118 256.273Z" fill="white"/>
<path d="M163.737 209.629C164.095 208.692 164.729 207.887 165.554 207.319C166.38 206.751 167.358 206.446 168.361 206.446C169.007 206.443 169.648 206.568 170.245 206.814C170.842 207.061 171.385 207.424 171.84 207.882C172.296 208.34 172.656 208.884 172.899 209.483C173.142 210.082 173.264 210.723 173.257 211.369C173.233 212.105 173.086 212.831 172.821 213.518L139.04 302.594C138.727 303.571 138.112 304.423 137.283 305.027C136.455 305.632 135.456 305.957 134.43 305.957C133.405 305.957 132.405 305.632 131.577 305.027C130.748 304.423 130.133 303.571 129.82 302.594L96.039 213.518C95.7749 212.831 95.6277 212.105 95.6038 211.369C95.5966 210.723 95.7181 210.082 95.9612 209.483C96.2043 208.884 96.5643 208.34 97.02 207.882C97.4757 207.424 98.0181 207.061 98.6155 206.814C99.2129 206.568 99.8534 206.443 100.5 206.446C101.502 206.446 102.481 206.751 103.306 207.319C104.132 207.887 104.765 208.692 105.123 209.629L134.417 287.309L163.737 209.629Z" fill="white"/>
<path d="M193.765 259.429V301.016C193.815 301.691 193.725 302.37 193.501 303.009C193.277 303.648 192.924 304.234 192.463 304.731C192.002 305.227 191.444 305.623 190.823 305.894C190.202 306.164 189.532 306.304 188.855 306.304C188.178 306.304 187.508 306.164 186.887 305.894C186.266 305.623 185.708 305.227 185.247 304.731C184.786 304.234 184.433 303.648 184.209 303.009C183.985 302.37 183.895 301.691 183.946 301.016V211.259C183.895 210.584 183.985 209.905 184.209 209.266C184.433 208.627 184.786 208.041 185.247 207.544C185.708 207.048 186.266 206.652 186.887 206.381C187.508 206.11 188.178 205.971 188.855 205.971C189.532 205.971 190.202 206.11 190.823 206.381C191.444 206.652 192.002 207.048 192.463 207.544C192.924 208.041 193.277 208.627 193.501 209.266C193.725 209.905 193.815 210.584 193.765 211.259V250.48H244.028V211.368C243.978 210.693 244.067 210.014 244.291 209.375C244.515 208.736 244.869 208.15 245.329 207.653C245.79 207.157 246.348 206.761 246.969 206.49C247.59 206.219 248.26 206.08 248.937 206.08C249.615 206.08 250.285 206.219 250.906 206.49C251.526 206.761 252.085 207.157 252.545 207.653C253.006 208.15 253.36 208.736 253.584 209.375C253.807 210.014 253.897 210.693 253.847 211.368V301.124C253.897 301.8 253.807 302.478 253.584 303.118C253.36 303.757 253.006 304.343 252.545 304.839C252.085 305.336 251.526 305.732 250.906 306.003C250.285 306.273 249.615 306.413 248.937 306.413C248.26 306.413 247.59 306.273 246.969 306.003C246.348 305.732 245.79 305.336 245.329 304.839C244.869 304.343 244.515 303.757 244.291 303.118C244.067 302.478 243.978 301.8 244.028 301.124V259.429H193.765Z" fill="white"/>
<path d="M300.194 237.208C304.417 237.026 308.623 237.832 312.481 239.56C316.338 241.288 319.739 243.891 322.415 247.162C323.06 247.923 323.416 248.886 323.422 249.882C323.433 250.435 323.332 250.985 323.125 251.498C322.919 252.012 322.611 252.478 322.22 252.869C321.828 253.26 321.362 253.568 320.849 253.775C320.336 253.981 319.786 254.082 319.233 254.071C318.56 254.075 317.897 253.92 317.296 253.617C316.695 253.314 316.175 252.873 315.779 252.33C313.9 250.058 311.506 248.267 308.795 247.108C306.083 245.949 303.135 245.455 300.194 245.667C286.894 245.667 279.822 254.18 279.822 271.941C279.822 289.701 286.894 298.351 300.194 298.351C306.321 298.293 312.237 296.1 316.921 292.149C317.681 291.505 318.644 291.149 319.641 291.143C320.752 291.143 321.817 291.584 322.603 292.37C323.388 293.155 323.83 294.221 323.83 295.332C323.825 296.036 323.652 296.729 323.325 297.354C322.999 297.978 322.528 298.516 321.953 298.922C315.887 304.078 308.154 306.853 300.194 306.728C281.563 306.728 270.438 295.604 270.438 271.941C270.438 248.278 281.563 237.208 300.194 237.208Z" fill="white"/>
<path d="M346.242 206.583V289.186C346.242 294.952 348.118 297.346 352.008 297.346C352.607 297.298 353.208 297.375 353.776 297.572C354.343 297.768 354.864 298.08 355.305 298.487C355.746 298.895 356.098 299.389 356.339 299.939C356.579 300.489 356.703 301.083 356.703 301.684C356.703 302.284 356.579 302.878 356.339 303.428C356.098 303.978 355.746 304.473 355.305 304.88C354.864 305.288 354.343 305.599 353.776 305.796C353.208 305.992 352.607 306.069 352.008 306.022C342.352 306.022 336.994 300.229 336.994 289.131V206.583C337.029 205.37 337.528 204.217 338.388 203.361C339.249 202.506 340.405 202.014 341.618 201.986C342.84 201.986 344.012 202.47 344.878 203.331C345.744 204.192 346.235 205.361 346.242 206.583Z" fill="white"/>
<path d="M424.927 271.858C424.927 295.521 413.368 306.646 394.601 306.646C375.833 306.646 364.301 295.521 364.301 271.858C364.301 248.195 375.997 237.207 394.601 237.207C413.205 237.207 424.927 248.168 424.927 271.858ZM415.544 271.858C415.544 253.662 407.901 245.584 394.601 245.584C381.3 245.584 373.685 253.744 373.685 271.858C373.685 289.973 381.328 298.268 394.601 298.268C407.874 298.268 415.652 290.326 415.652 271.858H415.544Z" fill="white"/>
<path d="M447.177 242.703V280.373C447.177 289.757 450.196 297.835 464.774 297.835C479.353 297.835 482.399 289.675 482.399 280.373V242.703C482.406 242.086 482.535 241.477 482.779 240.91C483.022 240.343 483.375 239.831 483.817 239.401C484.26 238.971 484.783 238.633 485.356 238.406C485.93 238.179 486.542 238.068 487.159 238.079C487.758 238.086 488.349 238.211 488.899 238.448C489.45 238.684 489.948 239.027 490.365 239.457C490.782 239.887 491.11 240.395 491.33 240.952C491.55 241.509 491.658 242.104 491.647 242.703V280.373C491.647 293.973 487.159 306.647 464.774 306.647C442.39 306.647 437.929 294.081 437.929 280.373V242.703C437.918 242.092 438.03 241.486 438.258 240.92C438.487 240.354 438.827 239.84 439.259 239.409C439.69 238.977 440.204 238.637 440.77 238.408C441.336 238.18 441.943 238.068 442.553 238.079C443.777 238.086 444.949 238.575 445.814 239.441C446.68 240.307 447.169 241.479 447.177 242.703Z" fill="white"/>
<path d="M553.279 246.589V206.58C553.279 205.354 553.766 204.177 554.633 203.31C555.5 202.443 556.676 201.956 557.903 201.956C559.129 201.956 560.305 202.443 561.172 203.31C562.039 204.177 562.526 205.354 562.526 206.58V278.303C562.526 297.342 550.695 306.753 534.24 306.753C515.608 306.753 504.62 295.629 504.62 271.966C504.62 248.303 515.037 237.315 533.641 237.315C537.408 237.245 541.139 238.046 544.545 239.655C547.951 241.264 550.94 243.637 553.279 246.589ZM553.279 258.285C553.279 258.285 547.839 245.583 534.24 245.583C520.64 245.583 513.868 254.096 513.868 271.857C513.868 289.618 520.939 298.267 534.24 298.267C545.337 298.267 553.279 291.93 553.279 278.194V258.285Z" fill="white"/>
</g>
<defs>
<clipPath id="clip0_821_9150">
<rect width="562.009" height="340" fill="white"/>
</clipPath>
</defs>
</svg>
