<svg width="562" height="340" viewBox="0 0 562 340" fill="none" xmlns="http://www.w3.org/2000/svg">
<g clip-path="url(#clip0_821_9251)">
<g clip-path="url(#clip1_821_9251)">
<mask id="mask0_821_9251" style="mask-type:luminance" maskUnits="userSpaceOnUse" x="0" y="100" width="140" height="140">
<path d="M139.197 100H0V239.197H139.197V100Z" fill="white"/>
</mask>
<g mask="url(#mask0_821_9251)">
<path d="M19.5154 121.29H119.697C118.293 119.835 116.828 118.44 115.304 117.11H23.9089C22.3847 118.44 20.9178 119.833 19.5154 121.29Z" fill="white"/>
<path d="M88.6999 102.652C82.6344 100.926 76.2295 100 69.609 100C62.9884 100 56.5853 100.926 50.5181 102.652H88.6999Z" fill="white"/>
<path d="M15.6876 125.591C14.3704 127.202 13.1246 128.872 11.9536 130.598H127.259C126.088 128.872 124.843 127.202 123.525 125.591H15.6876Z" fill="white"/>
<path d="M50.5181 236.56H88.6912C82.6257 238.286 76.2226 239.211 69.6038 239.211C62.9849 239.211 56.5818 238.287 50.5181 236.56Z" fill="white"/>
<path d="M108.601 227.235C106.839 228.432 105.019 229.548 103.143 230.583H36.0098C34.1341 229.55 32.3141 228.432 30.5515 227.235H108.601Z" fill="white"/>
<path d="M119.699 217.906C118.297 219.364 116.828 220.756 115.3 222.086H23.9141C22.3864 220.756 20.9178 219.364 19.5154 217.906H119.699Z" fill="white"/>
<path d="M127.256 208.604C126.087 210.33 124.839 212 123.52 213.611H15.6893C14.3704 212 13.1246 210.33 11.9536 208.604H127.256Z" fill="white"/>
<path d="M6.61841 199.274H132.552C131.607 201.275 130.57 203.222 129.446 205.11H9.72425C8.60023 203.221 7.56321 201.275 6.61841 199.274Z" fill="white"/>
<path d="M36.0185 108.611C34.1428 109.647 32.3176 110.764 30.5515 111.963H108.612C106.846 110.764 105.02 109.647 103.145 108.611H36.0185Z" fill="white"/>
<path d="M132.547 139.922C131.602 137.923 130.565 135.976 129.443 134.086H9.72251C8.59849 135.976 7.56147 137.923 6.61841 139.922H132.547Z" fill="white"/>
<path d="M85.3819 158.462C85.3819 155.732 87.6021 153.512 90.3321 153.512C93.0621 153.512 95.2823 155.732 95.2823 158.462C95.2823 161.192 93.0621 163.412 90.3321 163.412C87.6021 163.412 85.3819 161.192 85.3819 158.462ZM41.4042 175.775C39.1545 175.775 37.2301 177.275 36.6559 179.375H46.1544C45.5802 177.275 43.6784 175.775 41.4042 175.775ZM95.3275 175.775C92.5975 175.775 90.3773 177.995 90.3773 180.725C90.3773 183.455 92.5975 185.675 95.3275 185.675C98.0576 185.675 100.278 183.455 100.278 180.725C100.278 177.995 98.0576 175.775 95.3275 175.775ZM71.1629 153.514C68.9131 153.514 66.9887 155.013 66.4145 157.114H75.913C75.3388 155.013 73.437 153.514 71.1629 153.514ZM139.197 169.591C139.197 179.18 137.259 188.313 133.749 196.625H5.44784C1.93832 188.313 0 179.178 0 169.591C0 160.004 1.93832 150.872 5.4461 142.561H133.753C137.259 150.872 139.197 160.007 139.197 169.591ZM81.7819 158.462C81.7819 163.184 85.6098 167.012 90.3321 167.012C92.1817 167.012 93.8834 166.41 95.2823 165.412V166.711H98.8823V145.524H95.2823V151.514C93.8834 150.516 92.1817 149.914 90.3321 149.914C85.6098 149.914 81.7819 153.74 81.7819 158.462ZM62.6127 158.462C62.6127 163.162 66.4371 167.011 71.1612 167.011C74.735 167.011 77.7852 164.836 79.0101 161.711L75.3092 161.161C74.434 162.511 72.9098 163.411 71.1594 163.411C68.9096 163.411 66.9852 161.886 66.411 159.811H79.5843C79.6835 159.36 79.7096 158.911 79.7096 158.46C79.7096 157.985 79.6835 157.535 79.5843 157.11C78.9597 153.035 75.4345 149.91 71.1594 149.91C66.4354 149.91 62.611 153.735 62.611 158.459L62.6127 158.462ZM43.9342 147.867C43.9342 149.162 44.9834 150.213 46.2796 150.213C47.5759 150.213 48.6251 149.164 48.6251 147.867C48.6251 146.571 47.5759 145.522 46.2796 145.522C44.9834 145.522 43.9342 146.571 43.9342 147.867ZM44.3291 153.512V166.71H48.2284V153.512H44.3291ZM25.5932 166.71H29.1932V158.111C29.1932 155.736 31.1176 153.811 33.4926 153.811C35.8677 153.811 37.8164 155.736 37.8164 158.111V166.71H41.4164V158.111C41.4164 153.761 37.8669 150.211 33.4926 150.211C29.1183 150.211 25.5932 153.761 25.5932 158.111V166.71ZM15.27 166.71C19.6198 166.71 23.1694 163.16 23.1694 158.81V150.211H19.5694V158.81C19.5694 161.185 17.645 163.11 15.27 163.11C12.8949 163.11 10.9461 161.185 10.9461 158.81V150.211H7.34615V158.81C7.34615 163.16 10.8957 166.71 15.27 166.71ZM30.4877 180.37C30.4877 176.02 26.9382 172.471 22.5639 172.471C18.1896 172.471 14.6644 176.02 14.6644 180.37V188.969H18.2644V180.37C18.2644 177.995 20.1888 176.071 22.5639 176.071C24.9389 176.071 26.8877 177.995 26.8877 180.37V188.969H30.4877V180.37ZM49.9544 180.723C49.9544 180.248 49.9283 179.798 49.8292 179.373C49.2045 175.298 45.6793 172.173 41.4042 172.173C36.6802 172.173 32.8558 175.997 32.8558 180.721C32.8558 185.446 36.6802 189.27 41.4042 189.27C44.9781 189.27 48.0283 187.095 49.2532 183.97L45.5523 183.42C44.6771 184.77 43.1529 185.67 41.4025 185.67C39.1527 185.67 37.2283 184.146 36.6541 182.07H49.8274C49.9266 181.619 49.9527 181.17 49.9527 180.72L49.9544 180.723ZM60.7231 185.247C60.7231 185.247 60.2985 185.372 59.6478 185.372C58.3237 185.372 57.2484 184.273 57.2484 182.973V175.775H60.2481V172.474H57.2484V167.785H53.6484V172.474H50.6487V175.775H53.6484V182.973C53.6484 186.272 56.3227 188.972 59.6478 188.972C60.0219 188.972 60.3716 188.948 60.7231 188.871V185.247ZM60.7231 162.986C60.7231 162.986 60.2985 163.111 59.6478 163.111C58.3237 163.111 57.2484 162.012 57.2484 160.712V153.514H60.2481V150.213H57.2484V145.524H53.6484V150.213H50.6487V153.514H53.6484V160.712C53.6484 164.011 56.3227 166.711 59.6478 166.711C60.0219 166.711 60.3716 166.687 60.7231 166.61V162.986ZM86.3215 172.474L82.5736 172.471L79.3929 185.372L76.2123 172.471H72.4626L69.282 185.372L66.1013 172.471L62.3517 172.474L66.7312 188.972H71.831L74.3366 179.535L76.8404 188.972H81.9385L86.318 172.474H86.3215ZM103.876 180.723C103.876 176.001 100.048 172.173 95.3258 172.173C90.6035 172.173 86.7756 176.001 86.7756 180.723C86.7756 185.446 90.6035 189.273 95.3258 189.273C100.048 189.273 103.876 185.446 103.876 180.723ZM116.089 172.65C115.563 172.525 114.989 172.474 114.413 172.474C112.529 172.474 110.839 173.396 109.47 174.797V172.474H105.87V188.972H109.47V180.963C109.503 178.266 111.709 176.074 114.413 176.074C115.395 176.074 116.089 176.217 116.089 176.217V172.65ZM131.809 188.972L125.18 180.299L131.162 172.474H127.019L121.671 179.474V167.783H118.071V188.971H121.671V181.123L127.67 188.971L131.809 188.972Z" fill="white"/>
</g>
</g>
<g clip-path="url(#clip2_821_9251)">
<path d="M248.918 114.919C235.079 114.919 223.786 126.213 223.786 140.051V167.41H235.238V140.051C235.238 132.496 241.362 126.372 248.918 126.372C256.474 126.372 262.677 132.496 262.677 140.051V167.41H274.13V140.051C274.13 126.213 262.836 114.919 248.918 114.919Z" fill="white"/>
<path d="M190.938 167.41C204.776 167.41 216.07 156.117 216.07 142.278V114.919H204.617V142.278C204.617 149.833 198.493 155.957 190.938 155.957C183.382 155.957 177.178 149.833 177.178 142.278V114.919H165.726V142.278C165.726 156.117 177.019 167.41 190.938 167.41Z" fill="white"/>
<path d="M445.489 100V119.059C441.039 115.881 435.624 113.969 429.739 113.969C414.716 113.969 402.538 126.147 402.538 141.169C402.538 156.191 414.716 168.369 429.739 168.369C435.624 168.369 441.039 166.454 445.489 163.279V167.415H456.942V100H445.489ZM429.739 156.916C421.054 156.916 413.988 149.851 413.988 141.166C413.988 132.481 421.051 125.415 429.739 125.415C438.427 125.415 445.489 132.481 445.489 141.166C445.489 149.851 438.427 156.916 429.739 156.916Z" fill="white"/>
<path d="M395.98 141.173C395.98 139.662 395.897 138.23 395.582 136.878C393.594 123.914 382.38 113.973 368.78 113.973C353.748 113.973 341.58 126.141 341.58 141.173C341.58 156.204 353.748 168.373 368.78 168.373C380.153 168.373 389.856 161.453 393.753 151.512L381.979 149.762C379.195 154.057 374.344 156.92 368.777 156.92C361.619 156.92 355.495 152.069 353.666 145.467H395.579C395.894 144.036 395.98 142.604 395.98 141.173ZM353.669 136.878C355.498 130.197 361.622 125.425 368.78 125.425C375.938 125.425 382.062 130.197 383.891 136.878H353.669Z" fill="white"/>
<path d="M283.356 125.425H295.763V167.418H283.356V125.425Z" fill="white"/>
<path d="M289.578 114.92C293.698 114.92 297.038 111.58 297.038 107.46C297.038 103.34 293.698 100 289.578 100C285.458 100 282.118 103.34 282.118 107.46C282.118 111.58 285.458 114.92 289.578 114.92Z" fill="white"/>
<path d="M332.153 155.962C327.937 155.962 324.515 152.463 324.515 148.327V125.425H334.055V114.923H324.515V100H313.062V114.92H303.518V125.422H313.062V148.324C313.062 158.822 321.572 167.412 332.15 167.412C333.342 167.412 334.453 167.332 335.57 167.093V155.561C335.57 155.561 334.217 155.959 332.15 155.959L332.153 155.962Z" fill="white"/>
<path d="M561.746 238.237L540.65 210.642L559.679 185.742H546.5L529.483 208.015V170.822H518.031V238.237H529.483V213.267L548.571 238.237H561.746Z" fill="white"/>
<path d="M445.68 196.242C454.365 196.242 461.43 203.308 461.43 211.992C461.43 220.677 454.368 227.743 445.68 227.743C436.992 227.743 429.929 220.677 429.929 211.992C429.929 203.308 436.992 196.242 445.68 196.242ZM445.68 184.789C430.658 184.789 418.48 196.967 418.48 211.989C418.48 227.011 430.658 239.189 445.68 239.189C460.702 239.189 472.88 227.011 472.88 211.989C472.88 196.967 460.702 184.789 445.68 184.789Z" fill="white"/>
<path d="M506.407 185.749C500.411 185.749 495.038 188.685 490.679 193.139V185.749H479.227V238.24H490.679V212.758C490.784 204.178 497.805 197.202 506.407 197.202C509.528 197.202 511.736 197.657 511.736 197.657V186.306C510.066 185.908 508.237 185.749 506.407 185.749Z" fill="white"/>
<path d="M214.168 185.741C200.33 185.741 189.036 197.035 189.036 210.873V238.233H200.489V210.873C200.489 203.318 206.613 197.194 214.168 197.194C221.724 197.194 227.928 203.318 227.928 210.873V238.233H239.38V210.873C239.38 197.035 228.087 185.741 214.168 185.741Z" fill="white"/>
<path d="M301.329 211.994C301.329 210.483 301.247 209.051 300.932 207.699C298.943 194.735 287.729 184.794 274.129 184.794C259.098 184.794 246.929 196.962 246.929 211.994C246.929 227.025 259.098 239.194 274.129 239.194C285.502 239.194 295.205 232.274 299.102 222.333L287.328 220.583C284.545 224.878 279.693 227.741 274.126 227.741C266.968 227.741 260.844 222.89 259.015 216.289H300.928C301.243 214.857 301.329 213.425 301.329 211.994ZM259.018 207.699C260.847 201.018 266.971 196.246 274.129 196.246C281.287 196.246 287.411 201.018 289.24 207.699H259.018Z" fill="white"/>
<path d="M332.144 226.789C327.929 226.789 324.505 223.29 324.505 219.154V196.252H334.046V185.75H324.505V170.83H313.053V185.75H303.509V196.252H313.053V219.154C313.053 229.652 321.563 238.242 332.141 238.242C333.334 238.242 334.444 238.162 335.56 237.924V226.391C335.56 226.391 334.212 226.789 332.144 226.789Z" fill="white"/>
<path d="M405.084 185.741L394.964 226.793L384.848 185.741H372.918L362.801 226.793L352.682 185.741L340.755 185.751L354.689 238.245H370.914L378.883 208.22L386.852 238.245H403.077L417.011 185.751L405.084 185.741Z" fill="white"/>
</g>
</g>
<defs>
<clipPath id="clip0_821_9251">
<rect width="562.009" height="340" fill="white"/>
</clipPath>
<clipPath id="clip1_821_9251">
<rect width="139.197" height="139.197" fill="white" transform="translate(0 100)"/>
</clipPath>
<clipPath id="clip2_821_9251">
<rect width="396.712" height="139.197" fill="white" transform="translate(165.297 100)"/>
</clipPath>
</defs>
</svg>
