<svg width="562" height="340" viewBox="0 0 562 340" fill="none" xmlns="http://www.w3.org/2000/svg">
<g clip-path="url(#clip0_821_9465)">
<g clip-path="url(#clip1_821_9465)">
<path d="M229.543 105.642V156.194H213.059V78.6797H230.025L265.945 127.374V78.6797H282.447V156.216H266.515L229.543 105.642Z" fill="white"/>
<path d="M322.88 98.668C339.614 98.668 351.003 111.218 351.003 129.582V132.832H309.269C310.198 139.924 315.893 145.851 325.421 145.851C330.651 145.851 336.81 143.757 340.411 140.27L346.943 149.803C341.366 154.915 332.535 157.587 323.817 157.587C306.733 157.587 293.837 146.084 293.837 128.071C293.828 111.801 305.796 98.668 322.88 98.668ZM309.05 122.84H336.71C336.359 117.496 332.64 110.404 322.88 110.404C313.698 110.404 309.747 117.264 309.05 122.84Z" fill="white"/>
<path d="M384.616 137.262L371.715 156.208H355.34L375.215 127.388L356.506 100.062H373.007L384.616 117.378L396.119 100.062H412.652L393.815 127.375L413.922 156.194H397.412L384.616 137.262Z" fill="white"/>
<path d="M459.121 149.089C455.284 153.39 448.546 157.574 439.365 157.574C427.046 157.574 421.238 150.832 421.238 139.911V100.048H435.996V134.098C435.996 141.887 440.061 144.441 446.339 144.441C452.033 144.441 456.563 141.304 459.121 138.049V100.061H473.879V156.194H459.121V149.089Z" fill="white"/>
<path d="M490.035 138.527C494.1 142.364 502.467 146.197 509.441 146.197C515.832 146.197 518.855 143.639 518.855 140.157C518.855 136.319 513.743 135.272 507.583 134.111C497.946 132.254 485.501 129.814 485.501 116.331C485.501 106.921 493.754 98.668 508.512 98.668C518.04 98.668 525.596 101.923 531.173 106.338L525.233 116.449C521.864 112.844 515.473 109.939 508.613 109.939C503.269 109.939 499.782 112.379 499.782 115.52C499.782 118.771 504.197 119.704 510.475 120.983C520.112 122.84 533.017 125.512 533.017 139.574C533.017 149.803 524.304 157.587 508.731 157.587C498.971 157.587 489.557 154.332 483.63 148.87L490.035 138.527Z" fill="white"/>
<path d="M276.691 203.759L256.067 258.849H249.255L228.636 203.759V258.849H213.059V183.087H234.891L252.664 227.708L270.436 183.087H292.382V258.871H276.691V203.759Z" fill="white"/>
<path d="M344.148 251.761C340.31 256.058 333.573 260.242 324.391 260.242C312.073 260.242 306.26 253.504 306.26 242.579V202.716H321.023V236.762C321.023 244.55 325.088 247.109 331.365 247.109C337.06 247.109 341.589 243.968 344.148 240.717V202.72H358.906V258.849H344.148V251.761Z" fill="white"/>
<path d="M377.423 244.906V215.617H368.127V202.721H377.423V187.389H392.317V202.721H403.706V215.617H392.317V240.955C392.317 244.459 394.174 247.114 397.429 247.114C399.619 247.114 401.731 246.299 402.541 245.484L405.682 256.641C403.492 258.617 399.523 260.242 393.364 260.242C382.999 260.242 377.423 254.898 377.423 244.906Z" fill="white"/>
<path d="M451.683 251.761C447.85 256.058 441.108 260.242 431.926 260.242C419.608 260.242 413.8 253.504 413.8 242.579V202.716H428.558V236.762C428.558 244.55 432.623 247.109 438.9 247.109C444.595 247.109 449.125 243.968 451.683 240.717V202.72H466.441V258.849H451.683V251.761Z" fill="white"/>
<path d="M514.785 253.041C510.952 257.571 504.329 260.243 497.009 260.243C488.059 260.243 477.484 254.202 477.484 241.651C477.484 228.51 488.059 223.752 497.009 223.752C504.456 223.752 511.07 226.078 514.785 230.612V222.824C514.785 217.129 509.905 213.41 502.471 213.41C496.426 213.41 490.85 215.6 486.083 220.033L480.507 210.159C487.363 204.114 496.194 201.328 505.038 201.328C517.821 201.328 529.57 206.44 529.57 222.592V258.85H514.807L514.785 253.041ZM514.785 238.397C512.345 235.142 507.697 233.517 502.936 233.517C497.123 233.517 492.361 236.539 492.361 241.998C492.361 247.228 497.123 250.251 502.936 250.251C507.697 250.251 512.345 248.625 514.785 245.371V238.397Z" fill="white"/>
<path d="M544.192 181.338H558.964V258.848H544.206L544.192 181.338Z" fill="white"/>
<path d="M174.623 206.326C176.406 204.711 177.847 202.754 178.859 200.572C179.871 198.39 180.435 196.026 180.516 193.622C180.597 191.217 180.195 188.821 179.332 186.576C178.469 184.33 177.165 182.28 175.495 180.548C173.825 178.817 171.824 177.438 169.611 176.494C167.398 175.551 165.018 175.061 162.613 175.055C160.207 175.048 157.825 175.525 155.607 176.458C153.389 177.39 151.381 178.758 149.702 180.481C146.446 183.823 144.618 188.302 144.605 192.968C144.593 197.634 146.398 202.123 149.637 205.482C152.876 208.841 157.295 210.808 161.959 210.965C166.623 211.123 171.165 209.459 174.623 206.326Z" fill="white"/>
<path d="M52.221 252.672C53.8361 254.455 55.7929 255.896 57.9753 256.908C60.1577 257.92 62.5212 258.484 64.9255 258.565C67.3298 258.646 69.726 258.244 71.9717 257.381C74.2175 256.519 76.2671 255.214 77.9989 253.544C79.7306 251.874 81.1093 249.873 82.053 247.66C82.9967 245.447 83.4863 243.068 83.4926 240.662C83.4989 238.256 83.0218 235.874 82.0898 233.656C81.1577 231.438 79.7895 229.43 78.0665 227.751C74.7243 224.495 70.2458 222.667 65.5793 222.654C60.9129 222.642 56.4248 224.447 53.0656 227.686C49.7063 230.925 47.7397 235.344 47.582 240.008C47.4244 244.672 49.0882 249.214 52.221 252.672Z" fill="white"/>
<path d="M6.09775 129.378C4.31479 130.993 2.87446 132.95 1.86225 135.132C0.850043 137.314 0.286584 139.678 0.205319 142.082C0.124054 144.487 0.526639 146.883 1.38918 149.128C2.25172 151.374 3.55663 153.424 5.22647 155.156C6.89631 156.887 8.89704 158.266 11.1099 159.21C13.3228 160.153 15.7027 160.643 18.1084 160.649C20.5141 160.656 22.8965 160.179 25.1143 159.246C27.3321 158.314 29.34 156.946 31.0189 155.223C34.2756 151.881 36.1036 147.403 36.1159 142.736C36.1281 138.07 34.3236 133.582 31.0845 130.222C27.8454 126.863 23.426 124.896 18.7622 124.739C14.0984 124.581 9.55628 126.245 6.09775 129.378Z" fill="white"/>
<path d="M129.227 83.7492C127.614 81.9589 125.658 80.5115 123.474 79.4932C121.29 78.4749 118.923 77.9064 116.515 77.8217C114.107 77.7369 111.706 78.1376 109.456 78.9999C107.206 79.8622 105.153 81.1684 103.418 82.8409C101.683 84.5133 100.303 86.5177 99.3588 88.7347C98.4147 90.9517 97.9265 93.3361 97.9231 95.7457C97.9197 98.1553 98.4012 100.541 99.339 102.761C100.277 104.98 101.652 106.989 103.382 108.666C106.726 111.909 111.2 113.725 115.858 113.731C120.517 113.738 124.995 111.934 128.349 108.701C131.703 105.468 133.669 101.058 133.833 96.4027C133.997 91.7471 132.345 87.2101 129.227 83.7492Z" fill="white"/>
<path d="M167.694 139.14C169.379 137.443 170.69 135.411 171.54 133.175C172.391 130.939 172.762 128.549 172.63 126.161V126.025C171.82 111.271 153.93 104.428 143.482 114.872L126.573 132.087C121.163 137.502 108.652 138.325 102.221 131.895L61.7664 90.9669C60.1733 89.3246 58.2669 88.0186 56.1601 87.1262C54.0532 86.2338 51.7888 85.7732 49.5008 85.7715C34.2782 85.7715 26.6603 104.17 37.4235 114.946L54.4771 131.408C60.68 138.159 60.0054 150.052 54.4771 155.576L13.4923 196.627C10.3364 199.783 8.54078 204.048 8.48964 208.511V208.892C8.32318 224.216 26.8224 232.013 37.6732 221.18L54.7005 204.074C60.6231 198.151 72.9501 198.085 79.1574 204.293L119.433 244.809C121.079 246.456 123.046 247.75 125.211 248.609C127.376 249.469 129.694 249.876 132.022 249.807H132.075C147.052 249.369 154.249 231.233 143.657 220.641L127.366 204.196C121.334 198.164 120.878 186.516 127.326 180.068L167.694 139.14ZM103.842 181.426C100.24 184.9 95.4064 186.801 90.4033 186.71C85.4002 186.62 80.638 184.546 77.1642 180.944C73.6904 177.343 71.7896 172.509 71.88 167.506C71.9703 162.502 74.0445 157.74 77.6461 154.266C81.2477 150.793 86.0817 148.892 91.0848 148.982C96.0878 149.073 100.85 151.147 104.324 154.748C107.798 158.35 109.698 163.184 109.608 168.187C109.518 173.19 107.444 177.952 103.842 181.426Z" fill="white"/>
</g>
</g>
<defs>
<clipPath id="clip0_821_9465">
<rect width="562.009" height="340" fill="white"/>
</clipPath>
<clipPath id="clip1_821_9465">
<rect width="562.258" height="181.357" fill="white" transform="translate(0 79)"/>
</clipPath>
</defs>
</svg>
