<svg width="562" height="340" viewBox="0 0 562 340" fill="none" xmlns="http://www.w3.org/2000/svg">
<g clip-path="url(#clip0_821_9197)">
<path d="M169.473 151.098C160.237 151.098 153.236 154.421 149.545 158.527V126.062H139.116V213.187H148.939L149.332 206.519C153.61 211.19 160.646 213.72 169.578 213.72C178.51 213.72 185.954 211.155 190.463 206.31C196.056 200.343 198.663 192.581 198.663 181.879C198.663 171.819 196.19 164.279 191.101 158.825C186.164 153.552 179.293 151.098 169.473 151.098ZM168.519 160.889C176.008 160.889 180.834 162.766 184.16 166.974C186.906 170.474 188.13 175.233 188.13 182.409C188.13 190.215 186.687 195.434 183.586 198.834L183.573 198.846C180.387 202.429 175.146 204.246 167.989 204.246C156.318 204.246 152.047 197.825 150.534 193.966C149.888 191.94 149.336 190.158 149.336 183.893C149.336 178.375 149.621 176.011 150.252 172.855C152.18 165.138 158.667 160.889 168.519 160.889Z" fill="white"/>
<path d="M236.123 151.101C226.116 151.101 217.945 154.373 212.492 160.569C207.606 166.12 205.021 173.746 205.021 182.624C205.021 202.362 216.649 214.148 236.12 214.148C255.592 214.148 267.006 202.068 267.006 182.624C267.006 163.181 255.754 151.101 236.123 151.101ZM236.123 204.249C222.6 204.249 215.453 196.772 215.453 182.624C215.453 168.476 222.949 161.212 236.015 161.212C250.046 161.212 256.581 168.016 256.581 182.624C256.581 197.232 249.317 204.249 236.123 204.249Z" fill="white"/>
<path d="M329.258 172.009C329.258 188.189 329.328 203.406 329.4 213.191H318.642C318.617 203.488 318.617 187.184 318.617 173.388C318.617 165.151 313.975 161.314 303.996 161.314C292.062 161.314 286.719 168.071 286.719 174.768V213.191H276.186V152.262H286.405V157.959C291.516 152.087 300.898 151.095 306.653 151.095C320.811 151.095 329.264 158.914 329.264 172.009H329.258Z" fill="white"/>
<path d="M396.733 206.07V126.595H386.305V157.95C382.332 153.847 375.54 151.419 367.543 151.419C349.21 151.419 337.824 163.537 337.824 183.047C337.824 202.556 347.625 214.145 365.422 214.145C371.133 214.145 380.832 213.106 386.469 206.713L387.18 213.188H397.177L397.044 211.777C397.044 211.742 396.73 208.413 396.73 206.063L396.733 206.07ZM367.121 204.779C354.498 204.779 348.36 197.635 348.36 182.942C348.36 169.004 354.92 161.635 367.334 161.635C374.005 161.635 378.523 163.112 381.558 166.289C384.824 169.707 386.412 175.259 386.412 183.259C386.412 197.939 380.283 204.779 367.121 204.779Z" fill="white"/>
<path d="M463.762 192.789H453.337L453.217 193.947C452.884 197.14 450.42 204.566 434.769 204.566C422.124 204.566 415.304 198.725 414.483 187.199H463.899L463.956 185.973C464.523 174 461.964 164.947 456.352 159.062C451.314 153.78 443.837 151.101 434.132 151.101C424.943 151.101 417.34 153.885 412.143 159.148C406.73 164.63 403.988 172.494 403.988 182.516C403.988 203.504 414.308 214.148 434.664 214.148C457.785 214.148 462.545 200.26 463.518 194.289L463.762 192.789ZM434.132 160.892C446.58 160.892 452.861 166.438 453.293 177.834H414.448C414.781 170.969 418.021 160.892 434.132 160.892Z" fill="white"/>
<path d="M500.808 182L525.886 152.265H513.602L494.823 174.435L477.267 152.265H464.287L488.657 182.288L462.628 213.191H474.807L494.45 189.844L513.371 213.191H526.136L500.808 182Z" fill="white"/>
<path d="M538.936 129.521V142.433H535.406V129.521H530.256V126.595H544.106V129.521H538.936Z" fill="white"/>
<path d="M559.301 142.433V131.969L555.633 142.433H552.226L548.676 131.969V142.433H545.451V126.595H550.139L553.974 138.063L557.985 126.595H562.531V142.433H559.301Z" fill="white"/>
<path d="M0.00314169 170.104L0 170.174V231.28H78.0954L16.954 170.138L0.00314169 170.104Z" fill="url(#paint0_linear_821_9197)"/>
<path d="M0.00314169 170.104L0 170.174V231.28H78.0954L16.954 170.138L0.00314169 170.104Z" fill="url(#paint1_linear_821_9197)"/>
<path d="M83.3243 170.104L50.1216 203.306L77.9567 231.141L111.159 197.939L83.3243 170.104Z" fill="url(#paint2_linear_821_9197)"/>
<path d="M77.9567 109.072L50.1216 136.907L83.3243 170.11L111.159 142.275L77.9567 109.072Z" fill="url(#paint3_linear_821_9197)"/>
<path d="M0 187.096L78.0954 109H0V170.107V187.096Z" fill="url(#paint4_linear_821_9197)"/>
</g>
<defs>
<linearGradient id="paint0_linear_821_9197" x1="39.0479" y1="170.478" x2="39.0479" y2="229.042" gradientUnits="userSpaceOnUse">
<stop offset="0.65" stop-color="#E6E6E6"/>
<stop offset="0.89" stop-color="white"/>
<stop offset="1" stop-color="#E6E6E6"/>
</linearGradient>
<linearGradient id="paint1_linear_821_9197" x1="-1.57906" y1="190.656" x2="30.1316" y2="222.364" gradientUnits="userSpaceOnUse">
<stop stop-color="#D3D3D3"/>
<stop offset="1" stop-color="#929292" stop-opacity="0"/>
</linearGradient>
<linearGradient id="paint2_linear_821_9197" x1="63.3852" y1="217.872" x2="95.1151" y2="186.145" gradientUnits="userSpaceOnUse">
<stop offset="0.12" stop-color="#DBDBDB"/>
<stop offset="0.5" stop-color="#EFEFEF"/>
</linearGradient>
<linearGradient id="paint3_linear_821_9197" x1="63.7593" y1="122.709" x2="95.0326" y2="153.982" gradientUnits="userSpaceOnUse">
<stop offset="0.12" stop-color="#BDBDBD"/>
<stop offset="0.5" stop-color="#E6E6E6"/>
</linearGradient>
<linearGradient id="paint4_linear_821_9197" x1="39.0479" y1="188.291" x2="39.0479" y2="112.374" gradientUnits="userSpaceOnUse">
<stop offset="0.65" stop-color="#E6E6E6"/>
<stop offset="0.89" stop-color="white"/>
<stop offset="1" stop-color="#E6E6E6"/>
</linearGradient>
<clipPath id="clip0_821_9197">
<rect width="562.009" height="340" fill="white"/>
</clipPath>
</defs>
</svg>
