<svg width="562" height="340" viewBox="0 0 562 340" fill="none" xmlns="http://www.w3.org/2000/svg">
<g clip-path="url(#clip0_1047_685)">
<path d="M174.644 119.801C178.008 119.801 181.214 119.683 184.302 119.893C185.35 120.123 186.282 120.72 186.93 121.576C203.644 140.693 220.336 159.828 237.006 178.98C237.353 179.379 237.812 179.665 238.323 179.8C238.835 179.935 239.375 179.912 239.873 179.734C240.371 179.556 240.805 179.233 241.116 178.805C241.427 178.377 241.602 177.865 241.618 177.336V176.981C241.618 159.35 241.526 141.719 241.553 124.088C241.553 123.299 242.367 121.826 242.867 121.813C247.531 121.642 252.209 121.708 256.848 121.708V206.446C256.848 211.113 256.756 210.942 252.038 211.244C250.412 211.351 248.782 211.077 247.28 210.445C245.777 209.813 244.441 208.84 243.379 207.603C227.453 189.038 211.291 170.67 195.116 152.316C194.965 152.138 194.793 151.979 194.603 151.843C194.281 151.613 193.916 151.451 193.531 151.364C193.145 151.277 192.746 151.267 192.356 151.336C191.967 151.405 191.595 151.55 191.262 151.763C190.929 151.977 190.642 152.255 190.417 152.58C190.119 153.017 189.94 153.524 189.899 154.051C189.906 154.139 189.906 154.227 189.899 154.314C189.821 171.078 189.899 187.828 189.821 204.592C189.821 209.101 189.702 209.207 185.235 209.233H179.322C174.762 209.233 174.696 209.167 174.696 204.671V150.133L174.644 119.801ZM274.626 122.01C275.125 121.873 275.635 121.78 276.15 121.734C287.083 121.958 298.055 121.655 308.921 122.549C329.039 124.18 344.859 140.956 346.292 161.112C347.457 177.766 341.434 191.084 328.224 201.068C321.664 205.929 313.782 208.681 305.623 208.957C296.346 209.43 287.043 209.101 277.74 209.233C274.587 209.233 274.6 207.34 274.613 205.118V148.306L274.626 122.01ZM289.698 165.109V190.09C289.573 191.613 289.752 193.146 290.223 194.599C290.704 195.195 291.302 195.686 291.98 196.041C292.658 196.396 293.402 196.608 294.165 196.664C300.972 195.901 307.069 196.309 313.297 193.902C324.479 189.59 329.183 179.742 330.681 168.343C331.71 160.932 329.893 153.406 325.597 147.283C321.301 141.159 314.844 136.892 307.529 135.342C303.331 134.592 299.074 134.223 294.809 134.238C290.552 134.106 289.632 135.237 289.645 139.497C289.698 148.025 289.715 156.563 289.698 165.109ZM83.8858 121.931H99.1019V176.416C99.1676 184.673 101.73 191.97 109.483 195.993C120.546 201.791 137.444 197.308 138.299 179.769C139.192 161.362 138.64 142.771 138.811 124.272C138.811 123.43 139.797 121.892 140.362 121.866C144.921 121.668 149.494 121.747 154.093 121.747V128.597C153.948 145.361 153.856 162.111 153.646 178.875C153.357 202.685 134.843 213.138 115.212 211.481C106.487 210.745 98.6815 207.773 92.4531 201.121C85.7517 193.955 84.0304 185.185 83.9121 175.956C83.715 160.731 83.8464 145.492 83.8464 130.267L83.8858 121.931ZM55.9108 126.638C53.9135 129.018 51.9688 131.253 50.1423 133.515C48.3158 135.776 46.739 134.606 45.044 133.396C42.8284 131.676 40.2425 130.497 37.4917 129.951C34.7409 129.406 31.9009 129.509 29.1971 130.254C24.0594 131.569 20.5379 135.197 20.1174 139.457C19.6312 144.44 21.9833 148.28 27.397 150.725C33.4676 153.473 39.788 155.708 45.793 158.614C56.594 164.017 60.6149 171.393 59.5505 182.701C58.4468 194.389 51.1672 203.961 40.9706 207.077C26.7925 211.402 14.4409 208.483 4.03404 197.755C2.72004 196.44 1.30092 195.283 0.092041 194.152L9.05352 184.949C12.7064 187.933 16.0046 191.299 19.9334 193.666C24.4273 196.361 29.6702 196.295 34.5714 194.586C40.1296 192.667 43.1124 188.367 43.9271 182.569C44.7418 176.771 41.9167 172.774 36.976 170.394C31.063 167.554 24.9792 165.135 18.9348 162.505C8.71188 158.18 4.1523 151.317 4.4808 140.614C4.59529 135.82 6.20094 131.18 9.07423 127.341C11.9475 123.502 15.9455 120.655 20.5116 119.197C32.7449 115.186 44.0191 117.553 54.3602 124.968C54.9165 125.489 55.4333 126.046 55.9108 126.638ZM505.772 123.036H521.146V183.923C521.146 187.315 521.251 190.708 521.225 194.1C521.225 197.097 522.46 198.412 525.6 198.333C532.065 198.176 538.517 198.333 544.982 198.333C546.125 198.333 547.281 198.478 548.464 198.544C547.694 201.72 546.756 204.855 545.652 207.931C545.331 208.549 544.87 209.083 544.307 209.491C543.743 209.9 543.093 210.171 542.406 210.285C531.237 210.456 520.068 210.285 508.899 210.429C505.811 210.429 505.693 208.641 505.693 206.353V146.544L505.772 123.036ZM383.136 121.787V149.082C383.136 155.208 383.399 161.335 383.412 167.488V206.183C383.412 208.457 382.387 209.338 380.232 209.312C377.486 209.312 374.753 209.167 372.02 209.312C369.09 209.496 368.262 208.181 368.275 205.367C368.354 192.22 368.354 179.072 368.275 165.924C368.275 151.816 368.065 137.709 368.038 123.601C368.038 122.957 368.8 121.787 369.234 121.774C374.017 121.721 378.787 121.787 383.136 121.787ZM471.608 121.721L402.465 208.497H471.608V121.721Z" fill="white"/>
<path opacity="0.4" d="M508.4 234.121L471.608 208.496H403.28L508.4 234.121Z" fill="white"/>
</g>
<defs>
<clipPath id="clip0_1047_685">
<rect width="562.009" height="340" fill="white"/>
</clipPath>
</defs>
</svg>
