<svg width="562" height="340" viewBox="0 0 562 340" fill="none" xmlns="http://www.w3.org/2000/svg">
<g clip-path="url(#clip0_1047_595)">
<path d="M105.915 108.432C95.1077 102.144 83.3175 99 70.5448 99C57.772 99 45.9818 102.144 35.1741 108.432C24.3664 114.72 15.7203 123.366 9.43217 134.174C3.14406 144.982 0 156.772 0 169.545C0 182.317 3.14406 194.108 9.43217 204.915C15.7203 215.723 24.3664 224.369 35.1741 230.657C45.9818 236.945 57.772 240.09 70.5448 240.09C83.3175 240.09 95.1077 236.945 105.915 230.657C116.723 224.369 125.369 215.723 131.657 204.915C137.945 194.108 141.09 182.317 141.09 169.545C141.09 156.772 137.945 144.982 131.657 134.174C125.369 123.366 116.723 114.72 105.915 108.432ZM74.8678 195.09C66.8112 195.09 60.5231 192.732 55.6105 188.213C52.2699 185.069 50.1084 181.335 49.1259 176.815H125.369C124.583 183.3 122.618 189.392 119.867 195.09H75.0643H74.8678ZM49.1259 162.471C50.1084 158.148 52.2699 154.217 55.6105 151.073C60.5231 146.554 66.8112 144.196 74.8678 144.196H119.867C122.815 149.894 124.583 155.986 125.369 162.471H49.1259ZM22.7944 141.445C27.707 132.995 34.3881 126.117 42.8378 121.205C51.2874 116.292 60.5231 113.738 70.7413 113.738C80.9594 113.738 90.1951 116.292 98.6448 121.205C102.968 123.759 106.701 126.707 110.238 130.244H74.6713C66.6147 130.244 59.3441 132.013 53.0559 135.353C46.7678 138.694 41.8552 143.41 38.5147 149.305C36.1566 153.431 34.5846 157.951 33.7986 162.667H16.3098C17.0958 155.2 19.4538 148.126 23.1874 141.641L22.7944 141.445ZM98.4483 217.885C89.9986 222.797 80.7629 225.352 70.5448 225.352C60.3266 225.352 51.0909 222.797 42.6413 217.885C34.1916 212.972 27.5105 206.094 22.5979 197.645C18.8643 191.16 16.5063 184.283 15.7203 176.815H33.2091C33.9951 181.531 35.5671 186.051 37.9252 190.178C41.4622 196.073 46.3748 200.592 52.4664 204.129C58.7546 207.47 66.0252 209.238 74.0818 209.238H109.452C106.112 212.579 102.378 215.527 98.2518 217.885H98.4483Z" fill="white"/>
<path d="M255.258 192.339L241.699 140.658C240.717 137.121 238.948 134.174 236.394 132.209C233.839 130.047 230.695 129.064 226.962 129.064C223.228 129.064 220.281 130.047 217.726 132.209C215.171 134.37 213.403 137.121 212.42 140.658L199.058 192.142L182.551 130.243H163.294L183.337 198.234C185.695 206.683 190.804 210.81 198.469 210.81C206.132 210.81 205.739 209.631 208.294 207.469C210.652 205.308 212.42 202.164 213.403 198.234L226.962 145.964L240.324 198.234C242.485 206.683 247.594 210.81 255.455 210.81C263.315 210.81 268.227 206.683 270.585 198.234L290.432 130.243H271.371L255.062 192.339H255.258Z" fill="white"/>
<path d="M357.438 133.584C350.953 129.851 343.683 128.082 335.626 128.082C327.569 128.082 320.495 129.851 314.011 133.584C307.526 137.318 302.417 142.427 298.683 148.715C294.95 155.003 293.181 162.077 293.181 169.741C293.181 177.404 294.95 184.479 298.683 190.767C302.417 197.055 307.526 202.164 314.011 205.897C320.495 209.631 327.766 211.4 335.626 211.4C343.486 211.4 350.953 209.631 357.438 205.897C363.922 202.164 369.032 197.055 372.765 190.767C376.499 184.479 378.267 177.404 378.267 169.741C378.267 162.077 376.499 155.003 372.765 148.715C369.032 142.427 363.922 137.318 357.438 133.584ZM356.848 182.513C354.883 186.444 351.936 189.391 348.399 191.749C344.862 193.911 340.538 195.09 335.822 195.09C331.106 195.09 326.98 193.911 323.246 191.749C319.709 189.588 316.762 186.444 314.797 182.71C312.832 178.976 311.652 174.653 311.652 169.741C311.652 164.828 312.635 160.702 314.797 156.772C316.762 152.841 319.709 149.894 323.246 147.536C326.783 145.374 331.106 144.195 335.822 144.195C340.538 144.195 344.665 145.374 348.399 147.536C351.936 149.697 354.883 152.841 356.848 156.575C358.813 160.309 359.992 164.632 359.992 169.544C359.992 174.457 359.01 178.583 356.848 182.513Z" fill="white"/>
<path d="M414.62 134.567C410.887 137.318 408.332 141.051 406.564 145.571V130.047H388.485V209.041H406.76V173.867C406.76 164.435 408.922 157.754 413.441 153.627C417.961 149.501 424.249 147.339 432.502 147.339H432.895V129.064H432.306C425.428 129.064 419.533 130.833 414.62 134.567Z" fill="white"/>
<path d="M464.927 190.965C463.159 189 462.372 185.856 462.372 181.729V99.7871H444.098V184.087C444.098 192.93 446.456 199.414 450.975 203.541C455.495 207.668 462.569 209.829 471.805 209.829H473.573V194.305C469.447 194.305 466.499 193.126 464.731 191.161L464.927 190.965Z" fill="white"/>
<path d="M542.151 99.7871V140.07C540.383 137.712 538.221 135.551 535.47 133.586C529.968 129.852 523.484 128.084 516.016 128.084C508.549 128.084 501.082 129.852 495.187 133.389C489.095 136.926 484.379 142.035 481.039 148.323C477.698 154.808 475.93 161.882 475.93 169.742C475.93 177.603 477.502 184.873 480.842 191.161C484.183 197.449 488.899 202.362 494.991 206.096C501.082 209.633 508.156 211.401 516.016 211.401C523.877 211.401 525.449 210.615 529.575 208.847C533.702 207.078 537.239 204.72 539.99 201.576C540.776 200.79 541.365 199.807 541.955 199.021V209.24H560.23V99.7871H541.955H542.151ZM539.597 182.712C537.632 186.642 534.684 189.786 530.951 191.947C527.217 194.109 523.091 195.288 518.178 195.288C513.265 195.288 509.139 194.109 505.602 191.947C502.065 189.786 499.314 186.642 497.349 182.712C495.384 178.782 494.401 174.458 494.401 169.546C494.401 164.633 495.384 160.31 497.349 156.38C499.314 152.45 502.065 149.306 505.602 147.144C509.139 144.983 513.462 143.804 518.178 143.804C522.894 143.804 527.217 144.983 530.951 147.144C534.684 149.306 537.435 152.45 539.597 156.38C541.562 160.31 542.741 164.633 542.741 169.546C542.741 174.458 541.758 178.782 539.597 182.712Z" fill="white"/>
</g>
<defs>
<clipPath id="clip0_1047_595">
<rect width="562" height="141.483" fill="white" transform="translate(0 99)"/>
</clipPath>
</defs>
</svg>
