<svg width="562" height="340" viewBox="0 0 562 340" fill="none" xmlns="http://www.w3.org/2000/svg">
<path d="M63.429 117.032C76.0168 117.03 78.4628 117.041 79.5481 117.11C80.2515 117.156 81.1334 117.231 81.5081 117.278C81.8822 117.325 82.5568 117.434 83.0061 117.521C83.4554 117.609 84.1786 117.778 84.6125 117.896C85.0466 118.015 85.733 118.227 86.137 118.367C86.5409 118.507 87.2087 118.766 87.6204 118.941C88.032 119.118 88.6088 119.381 88.9006 119.527C89.1925 119.673 89.6764 119.934 89.9758 120.105C90.2753 120.278 90.8394 120.626 91.2288 120.882C91.6181 121.137 92.2295 121.569 92.5872 121.842C92.9449 122.115 93.4595 122.531 93.7307 122.768C94.0019 123.004 94.4644 123.433 94.759 123.721C95.0535 124.008 95.5561 124.539 95.8752 124.9C96.1943 125.261 96.6787 125.849 96.9504 126.207C97.2227 126.565 97.6176 127.116 97.8284 127.43C98.0386 127.744 98.402 128.332 98.635 128.736C98.8686 129.141 99.2129 129.789 99.3997 130.179C99.5858 130.568 99.8234 131.095 99.928 131.35C100.032 131.604 100.217 132.082 100.338 132.411C100.459 132.74 100.657 133.353 100.778 133.772C100.899 134.192 101.059 134.804 101.132 135.134C101.206 135.463 101.316 136.04 101.378 136.414C101.44 136.789 101.533 137.449 101.584 137.884C101.667 138.591 101.68 139.756 101.741 159.365L101.865 159.801C101.934 160.04 102.101 160.468 102.236 160.753C102.371 161.037 102.587 161.418 102.716 161.598C102.846 161.777 103.144 162.111 103.379 162.339C103.614 162.567 103.991 162.873 104.216 163.021C104.44 163.167 104.845 163.381 105.115 163.495C105.384 163.609 105.788 163.754 106.013 163.816C106.347 163.909 106.575 163.93 107.266 163.929C108 163.928 108.181 163.91 108.655 163.785C108.954 163.707 109.444 163.52 109.743 163.371C110.043 163.222 110.482 162.946 110.718 162.757C111.095 162.457 111.604 161.844 114.804 157.84C116.815 155.324 124.771 145.364 132.485 135.706C144.314 120.896 146.565 118.104 146.86 117.879C147.052 117.732 147.356 117.544 147.535 117.462C147.715 117.379 148.022 117.267 148.216 117.212C148.557 117.115 149.187 117.11 164.989 117.11C180.47 117.11 181.426 117.117 181.76 117.207C181.954 117.259 182.31 117.398 182.55 117.517C182.79 117.635 183.127 117.849 183.3 117.993C183.473 118.137 183.713 118.377 183.832 118.526C183.952 118.676 184.122 118.922 184.209 119.071C184.297 119.221 184.438 119.527 184.674 120.16L184.689 135.979C184.702 150.591 184.697 151.826 184.613 152.204C184.561 152.436 184.408 152.836 184.258 153.13C184.023 153.591 180.755 157.7 154.488 190.565C132.028 218.667 124.905 227.545 124.659 227.742C124.482 227.885 124.191 228.074 124.011 228.162C123.831 228.25 123.488 228.373 123.248 228.435C122.814 228.546 122.771 228.546 106.476 228.546C90.171 228.546 90.1379 228.546 89.7034 228.435C89.4639 228.373 89.1213 228.252 88.9417 228.166C88.7619 228.081 88.4433 227.877 88.2336 227.715C88.024 227.553 87.7326 227.263 87.5862 227.07C87.4392 226.878 87.2376 226.549 87.1379 226.34C87.0383 226.13 86.913 225.811 86.8596 225.632C86.7677 225.322 86.7615 224.224 86.7327 204.232C86.7103 189.284 86.6843 183.081 86.6418 182.888C86.6092 182.738 86.5445 182.457 86.4993 182.262C86.4535 182.067 86.3391 181.687 86.2444 181.418C86.1497 181.149 85.9277 180.646 85.7502 180.302C85.5727 179.957 85.2679 179.46 85.0735 179.198C84.8796 178.936 84.5436 178.535 84.3264 178.307C84.1091 178.078 83.7597 177.75 83.55 177.579C83.3404 177.408 82.9731 177.139 82.7336 176.982C82.4941 176.826 82.0774 176.592 81.8079 176.462C81.5383 176.332 81.0969 176.151 80.8274 176.061C80.5579 175.97 80.1049 175.84 79.303 175.649L63.9465 175.618C55.513 175.602 48.5491 175.568 48.4543 175.544C48.3797 175.519 48.1343 175.441 47.9094 175.37C47.6851 175.299 47.3179 175.121 47.093 174.975C46.8687 174.828 46.5361 174.552 46.3547 174.36C46.1734 174.169 45.9357 173.865 45.8274 173.686C45.719 173.506 45.561 173.162 45.3225 172.487L45.3079 146.46C45.2937 122.299 45.2996 120.402 45.384 120.023C45.4343 119.799 45.5855 119.394 45.7209 119.125C45.9191 118.732 46.0597 118.543 46.4348 118.17C46.7773 117.829 47.0176 117.645 47.3372 117.479C47.5768 117.354 47.957 117.203 48.1819 117.144C48.5847 117.037 48.7921 117.035 63.429 117.032ZM230.693 140.518C238.312 140.518 245.226 142.259 251.435 145.739C257.643 149.22 262.583 153.97 266.251 159.99C270.014 166.011 271.895 172.925 271.895 180.732C271.895 188.446 270.014 195.36 266.251 201.475C262.583 207.495 257.643 212.245 251.435 215.726C245.226 219.206 238.312 220.946 230.693 220.946C223.073 220.946 216.112 219.206 209.81 215.726C203.601 212.245 198.615 207.495 194.853 201.475C191.184 195.36 189.35 188.446 189.35 180.732C189.35 172.925 191.184 166.011 194.853 159.99C198.615 153.97 203.601 149.22 209.81 145.739C216.112 142.259 223.073 140.518 230.693 140.518ZM343.736 140.518C351.261 140.518 357.846 142.305 363.49 145.88C369.228 149.36 373.273 154.299 375.624 160.695L359.962 168.033C358.833 164.835 356.763 162.294 353.753 160.413C350.837 158.438 347.498 157.45 343.736 157.45C341.008 157.45 338.844 158.015 337.244 159.144C335.739 160.272 334.987 161.824 334.987 163.8C334.987 166.81 337.762 169.115 343.312 170.714L355.588 174.383C361.985 176.264 366.877 179.134 370.263 182.99C373.649 186.753 375.342 191.409 375.342 196.959C375.342 204.108 372.614 209.893 367.158 214.314C361.702 218.736 354.506 220.946 345.57 220.946C337.103 220.946 329.719 218.971 323.416 215.021C317.208 210.976 312.975 205.566 310.717 198.793L326.239 191.456C328.214 195.595 330.895 198.841 334.281 201.192C337.668 203.544 341.431 204.72 345.57 204.72C351.778 204.72 354.882 202.415 354.882 197.806C354.882 194.701 352.342 192.444 347.263 191.033L334.14 187.364C327.837 185.577 322.993 182.708 319.607 178.757C316.22 174.712 314.527 169.962 314.527 164.506C314.527 159.708 315.75 155.522 318.196 151.947C320.641 148.373 324.075 145.597 328.496 143.622C332.917 141.553 337.998 140.518 343.736 140.518ZM416.778 219.256H395.612V198.09H416.778V219.256ZM302.708 219.255H281.543V112.439H302.708V219.255ZM479.596 112.439C482.418 112.439 484.911 112.675 487.074 113.146V131.206C485.287 130.924 483.734 130.783 482.417 130.783C474.422 130.783 470.424 134.217 470.424 141.084V142.213H516V219.255H494.834V160.556H470.424V219.255H449.259V160.556H436.278V142.213H449.259V141.084C449.259 131.959 451.893 124.904 457.16 119.918C462.522 114.932 470.001 112.439 479.596 112.439ZM230.693 159.567C224.955 159.567 220.252 161.59 216.583 165.635C213.009 169.586 211.221 174.618 211.221 180.732C211.221 186.941 213.009 192.021 216.583 195.972C220.252 199.922 224.955 201.897 230.693 201.897C236.431 201.897 241.088 199.922 244.662 195.972C248.237 192.021 250.024 186.941 250.024 180.732C250.024 174.618 248.237 169.586 244.662 165.635C241.088 161.59 236.431 159.567 230.693 159.567Z" fill="white"/>
</svg>
