<svg width="562" height="340" viewBox="0 0 562 340" fill="none" xmlns="http://www.w3.org/2000/svg">
<path d="M0.93042 171.489C0.93042 205.923 28.8436 233.836 63.2771 233.836C97.7107 233.836 125.626 205.923 125.626 171.489C125.626 137.056 97.7107 109.143 63.2771 109.143C28.8436 109.143 0.93042 137.056 0.93042 171.489Z" stroke="#9A9A9A" stroke-width="1.59866"/>
<path fill-rule="evenodd" clip-rule="evenodd" d="M35.4231 156.609L36.9819 151.794C37.2985 150.814 38.0718 150.052 39.0546 149.751L43.8942 148.263C44.5641 148.058 44.5695 147.113 43.9049 146.898L39.0875 145.339C38.1097 145.022 37.3475 144.249 37.0453 143.266L35.5589 138.427C35.3543 137.759 34.4093 137.751 34.1937 138.418L32.6349 143.234C32.3182 144.211 31.545 144.973 30.5619 145.276L25.7225 146.762C25.0527 146.969 25.0455 147.912 25.7117 148.127L30.5293 149.686C31.507 150.003 32.2693 150.778 32.5714 151.761L34.0579 156.598C34.2625 157.268 35.2075 157.276 35.4231 156.609Z" fill="#FAFAFA"/>
<path fill-rule="evenodd" clip-rule="evenodd" d="M111.914 153.812C109.919 151.581 106.806 150.325 103.779 149.81C100.727 149.315 97.5282 149.361 94.5159 149.896C88.421 150.927 82.884 153.451 78.0549 156.564C75.5471 158.092 73.4083 159.86 71.1925 161.66C70.1251 162.571 69.1517 163.541 68.1379 164.496L65.368 167.252C62.3584 170.398 59.3918 173.264 56.5215 175.639C53.6398 178.003 50.9454 179.798 48.2904 181.052C45.6367 182.313 42.7973 183.054 39.0967 183.172C35.4285 183.302 31.0883 182.64 26.446 181.547C21.7787 180.459 16.8775 178.908 11.4006 177.574C13.3117 182.876 16.1894 187.561 19.8842 191.843C23.6222 196.052 28.2899 199.888 34.2862 202.41C40.1957 204.989 47.6223 205.914 54.5665 204.518C61.529 203.178 67.639 199.956 72.5777 196.23C77.5289 192.466 81.5349 188.178 84.912 183.72C85.8443 182.489 86.3375 181.799 87.0122 180.837L88.8766 178.075C90.1727 176.366 91.3522 174.421 92.6347 172.728C95.1495 169.183 97.6286 165.642 100.51 162.379C101.96 160.725 103.488 159.142 105.293 157.621C106.194 156.878 107.167 156.152 108.244 155.497C109.338 154.791 110.492 154.239 111.914 153.812Z" fill="#9A9A9A"/>
<path fill-rule="evenodd" clip-rule="evenodd" d="M111.914 153.81C109.771 148.402 105.787 143.849 100.439 140.49C95.123 137.168 87.7399 135.472 80.4241 136.917C76.81 137.617 73.3085 138.962 70.2355 140.754C67.1767 142.539 64.4356 144.688 62.0628 146.993C60.8782 148.15 59.8029 149.356 58.7347 150.569L55.9658 154.099L51.6895 159.781C46.2378 167.092 40.3671 175.66 30.7331 178.199C21.2752 180.692 17.1731 178.484 11.4006 177.573C12.4561 180.298 13.7635 182.944 15.536 185.272C17.2754 187.647 19.3299 189.878 21.8843 191.79C23.1751 192.709 24.538 193.615 26.0516 194.384C27.5584 195.127 29.1833 195.78 30.9177 196.273C34.3676 197.218 38.2514 197.549 42.0121 197.041C45.7746 196.539 49.3708 195.347 52.5142 193.763C55.6807 192.194 58.4392 190.284 60.9022 188.268C65.7986 184.202 69.6072 179.709 72.8242 175.168C74.4423 172.897 75.9111 170.583 77.2697 168.27L78.8685 165.515C79.3573 164.709 79.8517 163.899 80.3541 163.145C82.3798 160.113 84.3613 157.681 86.7681 155.857C89.1418 153.985 92.4465 152.602 96.863 152.281C101.261 151.956 106.338 152.556 111.914 153.81Z" fill="#FAFAFA"/>
<path fill-rule="evenodd" clip-rule="evenodd" d="M88.1201 198.747C88.1201 202.719 91.3418 205.941 95.314 205.941C99.2862 205.941 102.504 202.719 102.504 198.747C102.504 194.774 99.2862 191.553 95.314 191.553C91.3418 191.553 88.1201 194.774 88.1201 198.747Z" fill="#9A9A9A"/>
<path d="M552.013 153.834V146.57C552.013 146.282 551.78 146.049 551.492 146.049H510.103C509.813 146.049 509.579 146.282 509.579 146.57V153.834H526.401V200.827H535.191V153.834H552.013Z" fill="white"/>
<path d="M466.324 146.049C466.037 146.049 465.803 146.282 465.803 146.57V200.305C465.803 200.593 466.037 200.827 466.324 200.827H501.156C501.443 200.827 501.677 200.593 501.677 200.305V193.119H474.593V175.903H496.969V168.349H474.593V153.757H499.747V146.57C499.747 146.282 499.514 146.049 499.226 146.049H466.324Z" fill="white"/>
<path d="M446.127 200.508L446.317 200.827H453.067C453.357 200.827 453.588 200.593 453.588 200.305V146.57C453.588 146.282 453.357 146.049 453.067 146.049H444.956V183.985C443.548 181.743 441.912 179.275 440.049 176.581C437.678 173.075 435.127 169.518 432.396 165.911C429.716 162.252 426.985 158.722 424.2 155.32C421.466 151.864 418.883 148.841 416.452 146.254L416.259 146.049H409.904C409.616 146.049 409.383 146.282 409.383 146.57V200.305C409.383 200.593 409.616 200.827 409.904 200.827H418.018V160.187C419.126 161.497 420.307 162.948 421.56 164.542C423.253 166.696 424.995 169.005 426.792 171.468L426.795 171.471C428.592 173.881 430.388 176.398 432.185 179.015V179.019L432.188 179.022C434.038 181.64 435.806 184.233 437.501 186.799L437.505 186.804C439.197 189.317 440.76 191.752 442.196 194.109V194.114L442.2 194.118C443.69 196.481 445 198.611 446.127 200.508Z" fill="white"/>
<path d="M398.768 147.14L398.966 146.922C399.273 146.587 399.033 146.049 398.581 146.049H388.958L388.765 146.275C387.487 147.757 385.898 149.498 384.001 151.499C382.151 153.451 380.171 155.507 378.065 157.665C375.959 159.823 373.828 161.981 371.668 164.139C369.941 165.824 368.331 167.377 366.838 168.798V146.049H358.569C358.281 146.049 358.048 146.282 358.048 146.57V200.305C358.048 200.593 358.281 200.827 358.569 200.827H366.838V175.976C368.653 177.164 370.507 178.555 372.401 180.148L372.404 180.151L372.407 180.153C374.703 182.041 376.951 184.108 379.145 186.355L379.151 186.361L379.158 186.366C381.402 188.56 383.521 190.883 385.51 193.333L385.513 193.335L385.516 193.338C387.505 195.737 389.264 198.133 390.792 200.526L390.985 200.827H400.362C400.763 200.827 401.016 200.393 400.814 200.045L400.703 199.85C399.295 197.4 397.53 194.829 395.405 192.135C393.337 189.446 391.111 186.808 388.734 184.224C386.356 181.639 383.925 179.208 381.44 176.931C379.192 174.869 377.042 173.099 374.993 171.622C376.736 169.922 378.583 168.095 380.537 166.144C382.697 163.981 384.86 161.793 387.022 159.579C389.236 157.314 391.348 155.126 393.356 153.014L393.359 153.011L393.362 153.008C395.37 150.847 397.17 148.891 398.768 147.14Z" fill="white"/>
<path fill-rule="evenodd" clip-rule="evenodd" d="M308.161 145.638C307.873 145.638 307.64 145.872 307.64 146.159V200.338C307.64 200.626 307.873 200.859 308.161 200.859H315.608V180.94H326.487C327.712 182.405 328.906 183.938 330.068 185.539L330.074 185.545L330.077 185.551C331.981 188.048 333.74 190.652 335.356 193.365L335.359 193.368C336.821 195.768 338.1 198.142 339.189 200.483L339.366 200.859H348.178C348.557 200.859 348.806 200.47 348.651 200.127C347.638 197.906 346.539 195.731 345.32 193.613C343.66 190.652 341.844 187.72 339.865 184.818C338.734 183.16 337.579 181.549 336.398 179.986C339.688 178.981 342.286 177.163 344.168 174.526L344.171 174.523C346.429 171.331 347.546 167.577 347.546 163.289C347.546 160.342 347.035 157.645 345.999 155.209C344.957 152.737 343.391 150.688 341.304 149.071C339.233 147.445 336.682 146.41 333.673 145.946C332.972 145.817 332.249 145.74 331.501 145.713C330.775 145.663 330.137 145.638 329.597 145.638C327.311 145.638 325.025 145.637 322.743 145.637C317.88 145.637 313.021 145.636 308.161 145.638ZM339.429 163.289C339.429 164.712 339.192 166.112 338.715 167.493C338.251 168.819 337.506 169.981 336.48 170.985C335.508 171.936 334.223 172.61 332.597 172.987C332.082 173.105 331.526 173.188 330.93 173.235C330.345 173.284 329.824 173.308 329.373 173.308H315.608V153.269H329.373C329.824 153.269 330.342 153.293 330.926 153.342L330.942 153.343L330.955 153.344C331.536 153.367 332.072 153.448 332.571 153.583L332.587 153.588L332.603 153.591C334.223 153.944 335.504 154.615 336.474 155.587L336.477 155.589L336.48 155.592C337.506 156.595 338.248 157.769 338.715 159.12V159.124C339.192 160.478 339.429 161.865 339.429 163.289Z" fill="white"/>
<path fill-rule="evenodd" clip-rule="evenodd" d="M288.089 193.595L288.09 193.599C288.864 195.817 289.689 198.085 290.565 200.405L290.725 200.827H299.54C299.902 200.827 300.154 200.467 300.03 200.127C298.105 194.836 296.161 189.552 294.178 184.283C292.376 179.443 290.6 174.86 288.849 170.534C287.149 166.208 285.449 162.087 283.749 158.171C282.043 154.191 280.248 150.25 278.378 146.345C278.291 146.164 278.108 146.049 277.908 146.049H270.876C270.676 146.049 270.493 146.164 270.406 146.345C268.536 150.25 266.741 154.191 265.036 158.171C263.336 162.086 261.61 166.206 259.86 170.531L259.857 170.537C258.158 174.862 256.408 179.444 254.606 184.282C252.623 189.552 250.679 194.836 248.754 200.127C248.63 200.467 248.881 200.827 249.244 200.827H257.683L257.848 200.826L258.042 200.619C260.078 198.433 262.353 196.288 264.869 194.184L264.872 194.182L264.874 194.18C267.4 192.023 270.033 190.023 272.775 188.179L272.781 188.175L272.787 188.171C275.487 186.263 278.205 184.551 280.939 183.034L280.942 183.033L280.945 183.031C281.93 182.47 282.9 181.948 283.855 181.464L285.699 186.734L285.7 186.738C286.522 189.049 287.318 191.335 288.089 193.595ZM278.605 167.611L278.607 167.615L278.608 167.62C279.351 169.5 280.094 171.411 280.836 173.354C280.781 173.378 280.724 173.404 280.666 173.43C278.053 174.62 275.245 176.158 272.241 178.042C269.366 179.846 266.514 181.805 263.684 183.92L264.882 180.498C266.467 176.051 268.052 171.757 269.637 167.615C271.095 163.881 272.612 160.289 274.19 156.839C275.722 160.287 277.194 163.878 278.605 167.611Z" fill="white"/>
<path d="M250.903 153.834V146.57C250.903 146.282 250.67 146.049 250.382 146.049H208.993C208.705 146.049 208.471 146.282 208.471 146.57V153.834H225.293V200.305C225.293 200.593 225.527 200.827 225.815 200.827H233.56C233.848 200.827 234.082 200.593 234.082 200.305V153.834H250.903Z" fill="white"/>
<path d="M170.494 200.158C167.306 198.799 164.653 196.858 162.551 194.336L162.548 194.332C160.467 191.777 159.114 188.763 158.486 185.31C158.455 185.137 158.494 184.959 158.596 184.816C158.697 184.673 158.853 184.577 159.026 184.55L166.037 183.445C166.368 183.392 166.685 183.601 166.769 183.926C167.621 187.236 169.375 189.806 172.034 191.668C174.732 193.514 177.914 194.448 181.607 194.448C184.002 194.448 186.143 194.078 188.038 193.349C189.955 192.597 191.443 191.541 192.529 190.194C193.598 188.87 194.137 187.303 194.137 185.46C194.137 184.316 193.935 183.38 193.559 182.627L193.549 182.607C193.182 181.805 192.671 181.136 192.012 180.59L191.993 180.574C191.331 179.983 190.572 179.484 189.71 179.077C188.829 178.661 187.911 178.318 186.954 178.048L186.946 178.046L172.961 173.892C171.405 173.425 169.899 172.842 168.446 172.141L168.442 172.139L168.437 172.137C166.961 171.399 165.639 170.487 164.474 169.401L164.471 169.398C163.289 168.27 162.35 166.928 161.657 165.381L161.655 165.377C160.951 163.779 160.609 161.92 160.609 159.819C160.609 156.45 161.48 153.541 163.25 151.127C165.028 148.712 167.425 146.876 170.419 145.616C173.408 144.358 176.761 143.748 180.468 143.774C184.226 143.8 187.605 144.474 190.595 145.811C193.607 147.121 196.105 149.013 198.079 151.485C200.082 153.963 201.418 156.92 202.096 160.339C202.131 160.512 202.094 160.69 201.995 160.835C201.895 160.98 201.742 161.078 201.569 161.108L194.368 162.366C194.197 162.396 194.022 162.356 193.88 162.256C193.739 162.156 193.643 162.004 193.613 161.833C193.25 159.7 192.442 157.89 191.201 156.385L191.194 156.377C189.966 154.836 188.426 153.655 186.563 152.833L186.557 152.83C184.691 151.982 182.634 151.542 180.38 151.517C178.219 151.492 176.288 151.836 174.576 152.535C172.859 153.237 171.519 154.204 170.531 155.428L170.527 155.432C169.558 156.609 169.076 157.961 169.076 159.514C169.076 161.056 169.515 162.245 170.347 163.145C171.245 164.089 172.349 164.852 173.669 165.429C175.069 166.003 176.428 166.477 177.746 166.85L188.185 169.86C189.401 170.196 190.791 170.66 192.351 171.248C193.984 171.854 195.558 172.707 197.074 173.805C198.634 174.908 199.915 176.382 200.922 178.209C201.956 180.061 202.452 182.363 202.452 185.079C202.452 187.809 201.9 190.263 200.78 192.425C199.692 194.573 198.166 196.377 196.207 197.833L196.202 197.836C194.255 199.257 192.001 200.33 189.447 201.059C186.893 201.815 184.164 202.19 181.264 202.19C177.303 202.19 173.71 201.517 170.494 200.158Z" fill="white"/>
</svg>
