<svg width="562" height="340" viewBox="0 0 562 340" fill="none" xmlns="http://www.w3.org/2000/svg">
<path d="M339.523 165.652C346.571 165.652 352.676 163.061 357.368 158.98C362.06 154.891 365.354 149.312 366.83 143.307L366.993 142.632H357.617L357.496 143.008C356.289 146.714 354.16 150.192 351.157 152.733C348.154 155.274 344.286 156.893 339.523 156.9C334.135 156.9 329.046 154.508 325.283 150.362C321.528 146.217 319.108 140.318 319.108 133.312C319.108 126.306 321.528 120.407 325.283 116.262C329.046 112.116 334.135 109.724 339.523 109.724C344.151 109.724 347.927 111.343 350.866 113.898C353.805 116.453 355.892 119.953 357.056 123.701L357.176 124.084H366.546L366.39 123.41C364.956 117.312 361.684 111.712 357.049 107.623C352.413 103.534 346.401 100.965 339.523 100.965C331.566 100.965 324.155 104.45 318.746 110.235C313.33 116.02 309.908 124.106 309.908 133.312C309.908 142.519 313.33 150.611 318.746 156.389C324.155 162.174 331.573 165.659 339.523 165.659" fill="white"/>
<path d="M415.412 176.475C416.995 174.452 418.507 171.641 420.04 167.78L439.362 119.291H430.34L430.205 119.646L417.854 152.142L405.105 119.298H393.442C390.532 119.298 387.962 120.384 385.925 121.761C384.207 122.918 382.873 124.281 381.993 125.431V124.849H381.957L380.282 119.298H373.688V164.699H382.355V140.181C382.355 136.284 383.526 133.246 385.478 131.174C387.43 129.101 390.17 127.965 393.435 127.965H399.234L413.474 163.095L411.791 167.382C410.975 169.491 410.052 170.825 409.023 171.634C407.994 172.436 406.844 172.756 405.431 172.763C404.438 172.763 403.635 172.6 402.713 172.266L401.982 171.996V180.046L402.358 180.167C403.415 180.521 404.821 180.99 406.674 180.99C407.951 180.99 409.193 180.82 410.379 180.387C412.168 179.741 413.836 178.506 415.412 176.483" fill="white"/>
<path d="M453.111 141.944C453.111 137.302 454.609 133.455 456.959 130.764C459.308 128.074 462.503 126.548 465.952 126.548C469.352 126.548 472.525 128.074 474.868 130.764C477.21 133.455 478.708 137.309 478.708 141.944C478.708 146.58 477.203 150.505 474.868 153.202C472.525 155.9 469.352 157.426 465.952 157.433C462.503 157.433 459.315 155.907 456.959 153.202C454.609 150.505 453.111 146.629 453.104 141.944M453.104 159.768C453.417 160.116 453.793 160.499 454.254 160.911C455.44 161.962 457.101 163.14 459.152 164.07C461.204 164.993 463.653 165.66 466.385 165.66C472.092 165.66 477.352 163.19 481.171 158.988C484.99 154.785 487.368 148.858 487.368 141.951C487.368 135.045 484.99 129.139 481.171 124.958C477.352 120.777 472.092 118.328 466.385 118.328C462.652 118.328 459.472 119.556 457.065 121.004C455.859 121.728 454.843 122.509 454.041 123.219C453.452 123.744 452.984 124.227 452.636 124.639L451.025 119.294H444.43V180.552H453.097V159.775L453.104 159.768Z" fill="white"/>
<path d="M496.335 150.307C496.335 155.127 497.783 158.974 500.225 161.615C502.667 164.255 506.089 165.661 509.922 165.654C512.108 165.654 513.606 165.192 514.678 164.83L515.054 164.703V156.504L514.28 156.859C513.386 157.263 512.513 157.427 511.427 157.427C510.447 157.427 509.56 157.278 508.786 156.994C507.622 156.554 506.706 155.808 506.053 154.68C505.4 153.551 505.017 152.025 505.017 150.044V127.337H515.061V119.287H505.017V107.66H497.492V114.815C497.492 115.625 497.379 116.32 497.166 116.909C496.847 117.79 496.328 118.421 495.59 118.868C494.852 119.309 493.879 119.557 492.666 119.557H488.769V127.344H496.342V150.314L496.335 150.307Z" fill="white"/>
<path d="M549.322 153.202C546.916 155.9 543.637 157.433 540.052 157.433C536.467 157.433 533.159 155.9 530.739 153.202C528.311 150.505 526.771 146.629 526.771 141.951C526.771 137.316 528.311 133.469 530.739 130.779C533.166 128.088 536.467 126.555 540.052 126.555C543.637 126.555 546.916 128.088 549.322 130.779C551.722 133.469 553.248 137.316 553.248 141.951C553.248 146.636 551.729 150.505 549.322 153.202ZM555.512 125.114C551.523 120.884 546.022 118.321 540.052 118.328C534.04 118.328 528.538 120.884 524.556 125.121C520.574 129.352 518.097 135.258 518.097 141.959C518.097 148.659 520.567 154.629 524.556 158.874C528.538 163.119 534.032 165.674 540.052 165.674C546.022 165.674 551.523 163.119 555.512 158.874C559.509 154.629 562 148.702 562 141.959C562 135.215 559.501 129.352 555.505 125.121" fill="white"/>
<path d="M329.186 214.738L338.882 188.417L348.578 214.738H329.179H329.186ZM334.808 175.363L311.142 238.12H320.597L325.97 223.32H351.808L357.182 238.12H366.984L343.318 175.363H334.808Z" fill="white"/>
<path d="M399.827 218.812C399.827 222.581 398.677 225.576 396.739 227.642C394.801 229.708 392.054 230.858 388.746 230.858C385.623 230.858 382.94 229.708 381.023 227.642C379.107 225.576 377.936 222.574 377.936 218.812V192.718H369.269V219.074C369.269 225.087 371.178 230.098 374.436 233.605C377.687 237.111 382.273 239.092 387.518 239.085C390.89 239.085 393.765 238.055 396.001 236.707C397.974 235.514 399.451 234.08 400.388 232.824L401.9 238.112H408.586V192.711H399.827V218.805V218.812Z" fill="white"/>
<path d="M431.043 181.098H423.519V188.253C423.519 189.062 423.405 189.758 423.192 190.347C422.873 191.227 422.355 191.859 421.616 192.306C420.878 192.746 419.906 192.995 418.685 192.995H414.788V200.781H422.362V223.752C422.362 228.571 423.81 232.419 426.252 235.059C428.694 237.7 432.115 239.105 435.948 239.098C438.134 239.098 439.632 238.637 440.704 238.275L441.08 238.147V229.941L440.306 230.296C439.412 230.701 438.539 230.864 437.453 230.864C436.473 230.864 435.586 230.715 434.812 230.431C433.648 229.991 432.732 229.246 432.079 228.124C431.426 226.996 431.043 225.47 431.043 223.489V200.781H441.087V192.732H431.043V181.105V181.098Z" fill="white"/>
<path d="M475.366 226.631C472.96 229.329 469.681 230.862 466.096 230.862C462.511 230.862 459.21 229.329 456.783 226.631C454.355 223.934 452.815 220.058 452.815 215.38C452.815 210.745 454.355 206.898 456.783 204.208C459.21 201.517 462.511 199.984 466.096 199.984C469.681 199.984 472.96 201.517 475.366 204.208C477.766 206.898 479.292 210.745 479.292 215.38C479.292 220.065 477.773 223.934 475.366 226.631ZM466.096 191.75C460.084 191.75 454.582 194.305 450.6 198.543C446.618 202.774 444.141 208.68 444.141 215.38C444.141 222.124 446.618 228.051 450.6 232.296C454.582 236.541 460.084 239.096 466.096 239.096C472.066 239.096 477.567 236.541 481.556 232.296C485.552 228.051 488.044 222.124 488.044 215.38C488.044 208.68 485.545 202.774 481.556 198.543C477.567 194.313 472.066 191.75 466.096 191.757" fill="white"/>
<path d="M519.051 214.55C515.388 212.577 510.973 211.54 507.537 210.234C505.82 209.588 504.35 208.864 503.349 207.984C502.845 207.544 502.462 207.068 502.207 206.536C501.944 206.004 501.802 205.414 501.802 204.719C501.802 203.285 502.384 202.036 503.548 201.091C504.712 200.154 506.501 199.537 508.922 199.537C511.385 199.537 513.202 200.169 514.465 201.276C515.729 202.383 516.496 203.995 516.751 206.103L516.808 206.586H525.361L525.326 206.011C525.099 202.085 523.381 198.508 520.52 195.924C517.66 193.34 513.67 191.75 508.922 191.75C504.102 191.75 500.155 193.219 497.408 195.619C494.661 198.018 493.135 201.347 493.135 204.981C493.135 206.976 493.525 208.68 494.228 210.128C495.449 212.669 497.586 214.387 500.027 215.671C503.69 217.595 508.098 218.603 511.534 219.93C513.252 220.591 514.721 221.329 515.715 222.245C516.212 222.706 516.602 223.203 516.865 223.757C517.127 224.317 517.276 224.942 517.276 225.68C517.276 227.249 516.652 228.612 515.388 229.627C514.125 230.642 512.187 231.302 509.539 231.302C506.821 231.302 504.705 230.564 503.229 229.336C501.752 228.108 500.872 226.39 500.659 224.31L500.609 223.82H491.957L491.999 224.402C492.276 228.335 494.1 232.019 497.145 234.709C500.191 237.4 504.443 239.096 509.539 239.096C514.707 239.096 518.81 237.634 521.628 235.171C524.446 232.715 525.951 229.265 525.943 225.425C525.943 223.409 525.553 221.684 524.85 220.214C523.629 217.638 521.5 215.877 519.058 214.557" fill="white"/>
<path d="M234.087 201.838H103.577V237.792H270.04V147.543C270.04 105.989 219.798 85.1768 190.411 114.557L134.405 170.563L159.831 195.989L215.724 140.104C222.495 133.332 234.08 138.131 234.08 147.706V201.838H234.087Z" fill="white"/>
<path d="M35.9723 137.082H166.483V101.129H0.0119629V191.377C0.0119629 232.931 50.2542 253.744 79.6414 224.364L133.702 170.302L108.276 144.876L54.3286 198.824C47.5568 205.595 35.9723 200.797 35.9723 191.221V137.082Z" fill="white"/>
</svg>
