<svg width="562" height="340" viewBox="0 0 562 340" fill="none" xmlns="http://www.w3.org/2000/svg">
<path fill-rule="evenodd" clip-rule="evenodd" d="M549.299 97.8047H534.992V138.593C527.426 131.911 517.433 127.909 506.426 127.909C482.626 127.909 463.388 146.627 463.388 170.713C463.388 194.799 482.626 213.517 506.426 213.517C530.226 213.517 549.299 194.799 549.299 170.713C549.299 170.219 549.295 169.724 549.275 169.235H549.299V97.8047ZM506.426 199.683C490.124 199.683 477.574 187.153 477.574 170.713C477.574 154.273 490.124 141.742 506.426 141.742C521.622 141.742 533.643 152.853 534.992 167.878V169.235H535.084C535.109 169.724 535.118 170.214 535.118 170.713C535.118 187.153 522.568 199.683 506.426 199.683Z" fill="white"/>
<path fill-rule="evenodd" clip-rule="evenodd" d="M169.479 127.908C145.679 127.908 126.606 146.626 126.606 170.712V242.196H140.913V202.832C148.479 209.514 158.472 213.516 169.479 213.516C193.279 213.516 212.517 194.798 212.517 170.712C212.517 146.626 193.279 127.908 169.479 127.908ZM169.479 199.683C153.342 199.683 140.787 187.152 140.787 170.712C140.787 154.272 153.342 141.742 169.479 141.742C185.616 141.742 198.331 154.272 198.331 170.712C198.331 187.152 185.781 199.683 169.479 199.683Z" fill="white"/>
<path fill-rule="evenodd" clip-rule="evenodd" d="M272.803 127.908C249.003 127.908 229.93 146.626 229.93 170.712V242.196H244.237V202.832C251.803 209.514 261.796 213.516 272.803 213.516C296.603 213.516 315.841 194.798 315.841 170.712C315.841 146.626 296.603 127.908 272.803 127.908ZM272.803 199.683C256.666 199.683 244.111 187.152 244.111 170.712C244.111 154.272 256.661 141.742 272.803 141.742C288.945 141.742 301.655 154.272 301.655 170.712C301.655 187.152 289.105 199.683 272.803 199.683Z" fill="white"/>
<path d="M445.969 99.3398H431.788V213.564H445.969V99.3398Z" fill="white"/>
<path fill-rule="evenodd" clip-rule="evenodd" d="M371.338 128.02C347.538 128.02 328.465 146.737 328.465 170.823C328.465 194.91 347.538 213.627 371.338 213.627C395.138 213.627 414.376 194.91 414.376 170.823C414.376 146.737 395.138 128.02 371.338 128.02ZM371.338 199.794C355.201 199.794 342.646 187.264 342.646 170.823C342.646 154.383 355.196 141.853 371.338 141.853C387.48 141.853 400.195 154.383 400.195 170.823C400.195 187.264 387.645 199.794 371.338 199.794Z" fill="white"/>
<path fill-rule="evenodd" clip-rule="evenodd" d="M57.4423 108.062C89.386 108.062 109.192 137.847 109.192 162.016C109.192 175.122 109.143 213.614 109.143 213.614H94.7634V198.414C94.7634 198.414 82.611 213.725 57.0298 213.706C34.5158 213.711 13.1035 193.278 13.1035 169.536C13.1035 145.793 32.9628 128.088 52.1912 128.088C71.4195 128.088 88.7648 141.966 89.0318 161.221C90.1965 180.123 74.1082 193.404 60.0873 193.404V183.723C60.0873 183.723 60.228 180.171 64.8434 177.967C81.3152 170.713 76.1514 141.743 51.0458 142.78C39.8932 143.545 26.7653 153.749 28.1581 172.302C29.7791 189.198 46.5663 199.683 59.4709 199.165C81.0143 199.175 94.8847 179.929 94.5935 160.945C94.3363 144.078 78.84 124.852 57.5831 122.768C57.5831 119.071 57.4375 108.062 57.4375 108.062H57.4423Z" fill="white"/>
</svg>
