<svg width="562" height="340" viewBox="0 0 562 340" fill="none" xmlns="http://www.w3.org/2000/svg">
<path d="M97.338 159.734C95.9526 164.705 94.8526 169.749 94.0334 174.844L94.015 174.927H93.7112C93.4074 172.073 92.6756 169.248 92.2062 166.817L80.6401 121.796H56.9189L45.3529 166.781C44.8834 169.202 44.1516 172.037 43.8479 174.89H43.5441C43.5441 174.89 43.5257 174.853 43.5257 174.807C42.7295 169.717 41.6341 164.691 40.2487 159.716L29.7459 121.824H12.9514L17.8761 139.667H0V152.435H21.4016L24.904 165.119H0V177.905H28.448L34.0722 198.354H54.1344L67.721 144.735C68.1536 142.861 68.4712 140.965 68.6553 139.074H68.959C69.1615 140.993 69.4653 142.88 69.8933 144.735L83.4799 198.354H103.542L124.677 121.833L107.901 121.814L97.3426 159.734H97.338Z" fill="white"/>
<path d="M165.841 198.344H182.249V137.011H209.459V121.823H165.841V198.344Z" fill="white"/>
<path d="M262.71 181.949C259.736 183.887 255.543 184.858 250.858 184.858C244.714 184.858 239.357 183.188 236.236 179.851C233.327 176.712 231.758 172.639 231.578 167.613H283.343L283.425 158.514C283.462 153.488 282.758 148.48 281.354 143.643C279.932 139.017 277.815 134.949 274.98 131.423C272.145 127.902 268.55 125.132 264.146 123.074C259.741 121.017 254.213 120 248.258 120C242.698 120 237.359 120.934 232.968 122.854C228.693 124.672 224.886 127.433 221.83 130.917C218.793 134.374 216.473 138.548 214.867 143.44C213.26 148.31 212.446 153.787 212.446 159.835C212.446 165.882 213.279 171.52 214.931 176.445C216.602 181.37 218.968 185.572 222.042 189.028C225.162 192.512 229.006 195.255 233.323 197.073C237.764 198.965 243.177 199.927 248.842 199.927C255.953 199.927 262.585 198.661 268.007 196.185C273.42 193.7 277.704 190.239 280.811 185.839L270.713 174.539C268.458 177.43 265.77 179.934 262.714 181.949H262.71ZM231.546 151.918C231.546 146.644 233.014 143.809 235.941 140.518C238.878 137.213 243.536 135.308 248.511 135.308C253.486 135.308 258.144 137.199 261.08 140.518C264.017 143.836 265.476 146.644 265.476 151.918V152.305H231.555V151.918H231.546Z" fill="white"/>
<path d="M152.213 121.823H134.333V198.344H152.213V121.823Z" fill="white"/>
<path d="M356.863 121.805H336.911L321.304 147.045H320.719L304.96 121.805H283.54L308.969 159.366L282.823 198.344H302.774L318.966 171.852H319.555L335.746 198.344H357.143L330.983 159.679L356.863 121.805Z" fill="white"/>
<path d="M429.163 124.208C425.2 122.008 420.193 120.912 414.154 120.912H386.498V198.505H398.202V171.226H414.118C420.124 171.226 425.127 170.126 429.099 167.917C433.08 165.708 436.062 162.698 438.041 158.901C440.02 155.104 441.014 150.81 441.014 146.042C441.014 141.274 440.034 137.016 438.06 133.219C436.094 129.413 433.126 126.403 429.163 124.212V124.208ZM427.575 153.871C426.466 156.172 424.722 157.981 422.347 159.311C419.972 160.641 416.879 161.299 413.064 161.299H398.211V130.955H412.907C416.796 130.955 419.935 131.599 422.319 132.892C424.703 134.176 426.457 135.967 427.566 138.231C428.675 140.505 429.237 143.11 429.237 146.037C429.237 148.964 428.684 151.569 427.575 153.871Z" fill="white"/>
<path d="M491.09 143.34C488.807 141.899 486.358 140.909 483.744 140.366C481.13 139.823 478.663 139.552 476.343 139.552C472.832 139.552 469.481 140.049 466.301 141.048C463.116 142.046 460.313 143.634 457.869 145.816C455.43 147.997 453.584 150.86 452.318 154.404L462.968 156.825C463.802 154.781 465.307 152.917 467.502 151.237C469.684 149.558 472.684 148.715 476.5 148.715C480.315 148.715 482.92 149.622 484.775 151.44C486.63 153.258 487.564 155.826 487.564 159.126V159.393C487.564 160.76 487.067 161.74 486.087 162.348C485.106 162.955 483.528 163.393 481.355 163.66C479.183 163.927 476.357 164.258 472.868 164.658C470.116 164.99 467.41 165.464 464.759 166.099C462.108 166.734 459.705 167.668 457.556 168.906C455.411 170.144 453.704 171.824 452.438 173.942C451.172 176.059 450.546 178.765 450.546 182.051C450.546 185.867 451.407 189.088 453.142 191.712C454.877 194.335 457.225 196.346 460.207 197.718C463.189 199.09 466.517 199.78 470.204 199.78C473.416 199.78 476.164 199.31 478.46 198.376C480.762 197.442 482.644 196.268 484.103 194.855C485.571 193.442 486.662 192.002 487.398 190.533H487.859V198.487H498.923V159.84C498.923 155.591 498.191 152.144 496.723 149.475C495.264 146.824 493.386 144.78 491.099 143.34H491.09ZM487.587 177.508C487.587 179.81 486.998 181.959 485.824 183.966C484.651 185.972 482.943 187.597 480.706 188.835C478.47 190.073 475.791 190.69 472.652 190.69C469.513 190.69 466.807 189.977 464.736 188.554C462.665 187.123 461.625 185.015 461.625 182.208C461.625 180.192 462.168 178.567 463.24 177.338C464.312 176.109 465.753 175.175 467.562 174.512C469.371 173.849 471.368 173.385 473.568 173.108C474.502 172.98 475.667 172.823 477.052 172.63C478.437 172.437 479.869 172.225 481.337 171.985C482.805 171.746 484.108 171.452 485.263 171.116C486.409 170.775 487.191 170.402 487.592 169.997V177.508H487.583H487.587Z" fill="white"/>
<path d="M549.496 140.307L534.754 185.466H534.146L519.404 140.307H507.286L528.577 199.26L527.173 203.121C526.212 205.699 525.112 207.554 523.864 208.69C522.617 209.827 521.176 210.435 519.561 210.508C517.945 210.582 516.105 210.343 514.029 209.795L511.304 219.078C511.981 219.382 513.021 219.667 514.415 219.93C515.801 220.197 517.343 220.325 519.041 220.325C522.171 220.325 524.923 219.792 527.298 218.738C529.673 217.674 531.721 216.087 533.433 213.988C535.15 211.88 536.563 209.312 537.681 206.283L561.66 140.32H549.496V140.311V140.307Z" fill="white"/>
</svg>
