<svg width="562" height="340" viewBox="0 0 562 340" fill="none" xmlns="http://www.w3.org/2000/svg">
<path d="M469.973 228.471C456.795 228.471 447.419 218.472 447.419 203.5C447.419 191.466 453.56 183.22 462.063 176.778L505.989 159.744V211.154L496.331 218.215C490.19 222.621 479.941 228.497 469.973 228.497M506.299 212.932L511.565 239.088L546.705 232.62L546.424 231.434L529.445 233.78C525.925 224.683 523.585 216.153 523.585 206.155V141.808C523.585 115.369 520.657 98.0258 482.304 98.0258L432.237 122.404V142.092H448.062L455.383 112.431C465.351 109.493 469.152 108.617 475.881 108.617C505.759 108.617 506.041 125.058 506.041 143.277V158.249L443.95 179.406C431.057 189.688 428.436 199.377 428.436 208.5C428.436 229.347 442.486 242 465.325 242L506.325 212.906L506.299 212.932ZM369.813 104.185C397.636 104.185 402.901 127.686 402.901 155.595H332.026C334.081 122.996 346.668 104.185 369.813 104.185ZM424.583 212.88C413.151 220.508 399.407 227.286 386.511 227.286C355.171 227.286 331.744 204.067 331.744 164.717C331.744 162.063 331.744 159.434 332.026 157.09H423.4V150.931C423.4 120.961 411.968 98.0515 375.363 98.0515C342.559 105.679 314.737 129.181 314.737 175.025C314.737 220.869 346.668 242 379.164 242C397.917 234.063 408.732 226.719 425.43 213.808L424.557 212.932L424.583 212.88ZM279.03 232.259L323.832 105.37L342.867 103.901V102.432H297.757V103.901L320.594 105.37L277.849 228.471L233.33 105.37L250.901 103.901V102.432H194.669V103.901L212.522 105.37L264.645 241.974L279.004 232.285L279.03 232.259ZM145.783 228.445C132.605 228.445 123.228 218.447 123.228 203.475C123.228 191.44 129.368 183.194 137.871 176.752L181.799 159.718V211.128L172.14 218.189C166 222.595 155.75 228.471 145.783 228.471M182.107 212.906L187.373 239.062L222.515 232.594L222.232 231.409L205.252 233.754C201.733 224.657 199.395 216.128 199.395 206.129V141.782C199.395 115.343 196.467 98 158.113 98L108.046 122.378V142.066H123.871L131.192 112.405C141.159 109.467 144.961 108.591 151.691 108.591C181.567 108.591 181.85 125.032 181.85 143.251V158.223L119.76 179.38C106.865 189.662 104.244 199.352 104.244 208.474C104.244 229.321 118.296 241.974 141.133 241.974L182.132 212.88L182.107 212.906ZM55.0247 242C83.7192 234.656 100.699 221.153 101.008 201.465C101.29 186.493 95.1505 177.37 75.8326 165.929L53.5863 152.709C40.408 144.772 29.8756 138.613 29.8756 124.517C29.8242 111.838 39.4832 103.025 54.1258 103.025C65.5571 103.025 73.752 105.087 84.0017 114.776L95.9983 143.87H97.4625V108.901C88.9595 103.618 75.2162 98.0258 57.645 98.0258C30.3894 106.839 15.1817 116.528 15.1817 134.747C15.1817 152.966 28.36 160.002 39.2006 166.779L59.9829 179.406C77.5538 190.281 85.7486 196.156 85.7486 213.19C85.7486 225.224 77.5538 236.099 58.5184 236.099C45.9309 236.099 36.5547 229.631 28.9508 222.595L15.4643 193.785H14V228.445C24.5324 235.197 41.23 241.948 54.9991 241.948" fill="white"/>
</svg>
