<svg width="562" height="340" viewBox="0 0 562 340" fill="none" xmlns="http://www.w3.org/2000/svg">
<path d="M215.322 211.915V186.643H234.032L250.983 211.915H272.833L253.118 182.754C258.894 180.163 263.352 176.426 266.491 171.544C269.63 166.662 271.2 160.852 271.2 154.112C271.2 147.373 269.651 141.541 266.554 136.616C263.456 131.691 259.041 127.889 253.306 125.211C247.572 122.532 240.812 121.193 233.027 121.193H194.979V211.915H215.322ZM232.83 170.574H216.111V138.419H232.83C238.993 138.419 243.68 139.802 246.888 142.57C250.097 145.337 251.701 149.313 251.701 154.496C251.701 159.591 250.097 163.545 246.888 166.357C243.68 169.168 238.993 170.574 232.83 170.574ZM319.051 213.064C326.196 213.064 332.584 211.519 338.216 208.428C343.848 205.337 348.26 201.049 351.455 195.564C354.649 190.079 356.246 183.855 356.246 176.89C356.246 169.925 354.649 163.7 351.455 158.215C348.26 152.73 343.848 148.442 338.216 145.351C332.584 142.261 326.196 140.715 319.051 140.715C311.906 140.715 305.497 142.261 299.823 145.351C294.149 148.442 289.715 152.73 286.521 158.215C283.327 163.7 281.73 169.925 281.73 176.89C281.73 183.855 283.327 190.079 286.521 195.564C289.715 201.049 294.149 205.337 299.823 208.428C305.497 211.519 311.906 213.064 319.051 213.064ZM319.051 196.986C314.036 196.986 309.898 195.217 306.639 191.68C303.379 188.142 301.749 183.404 301.749 177.464C301.749 171.524 303.379 166.786 306.639 163.248C309.898 159.71 314.036 157.941 319.051 157.941C324.066 157.941 328.182 159.71 331.4 163.248C334.618 166.786 336.227 171.524 336.227 177.464C336.227 183.404 334.618 188.142 331.4 191.68C328.182 195.217 324.066 196.986 319.051 196.986ZM388.039 211.915V177.228C388.039 170.969 389.501 166.253 392.426 163.08C395.352 159.906 399.28 158.32 404.212 158.32C408.642 158.32 412.026 159.689 414.367 162.427C416.707 165.166 417.877 169.317 417.877 174.881V211.915H437.435V171.751C437.435 161.493 434.865 153.756 429.725 148.539C424.585 143.323 417.835 140.715 409.477 140.715C404.88 140.715 400.659 141.519 396.814 143.128C392.97 144.736 389.751 147.018 387.161 149.974V141.759H368.48V211.915H388.039ZM465.24 132.677C468.855 132.677 471.798 131.555 474.069 129.311C476.339 127.067 477.474 124.229 477.474 120.797C477.474 117.629 476.339 114.989 474.069 112.877C471.798 110.765 468.855 109.709 465.24 109.709C461.624 109.709 458.681 110.809 456.412 113.009C454.141 115.209 453.006 117.937 453.006 121.193C453.006 124.449 454.141 127.177 456.412 129.377C458.681 131.577 461.624 132.677 465.24 132.677ZM475.249 211.915V141.864H455.23V211.915H475.249ZM512.603 211.915V177.228C512.603 170.969 514.065 166.253 516.991 163.08C519.916 159.906 523.845 158.32 528.776 158.32C533.206 158.32 536.591 159.689 538.931 162.427C541.271 165.166 542.442 169.317 542.442 174.881V211.915H562V171.751C562 161.493 559.43 153.756 554.29 148.539C549.149 143.323 542.4 140.715 534.042 140.715C529.445 140.715 525.224 141.519 521.379 143.128C517.534 144.736 514.317 147.018 511.725 149.974V141.759H493.045V211.915H512.603Z" fill="white"/>
<path fill-rule="evenodd" clip-rule="evenodd" d="M0 94.6045V203.712C0.00127678 205.75 0.461559 207.762 1.34684 209.599C2.23213 211.435 3.51979 213.05 5.11473 214.324L56.6883 255.613C58.5025 257.062 60.7574 257.852 63.0816 257.852C65.4059 257.852 67.6608 257.062 69.4752 255.613L121.048 214.324C122.643 213.05 123.931 211.435 124.816 209.599C125.702 207.762 126.162 205.75 126.163 203.712V94.6045C126.163 90.9963 124.726 87.536 122.168 84.9847C119.611 82.4333 116.141 81 112.524 81H13.6393C10.0219 81 6.55269 82.4333 3.99485 84.9847C1.43699 87.536 0 90.9963 0 94.6045Z" fill="#5C5C5C"/>
<path d="M99.8582 144.039V120.259C99.8582 117.106 98.6178 114.081 96.4105 111.852C94.2026 109.622 91.2085 108.369 88.0866 108.369H38.0566C34.9346 108.369 31.9404 109.622 29.7327 111.852C27.5251 114.081 26.2849 117.106 26.2849 120.259V189.258C26.286 191.039 26.6832 192.797 27.4473 194.403C28.2114 196.008 29.3228 197.419 30.6993 198.532L48.916 213.306C49.1322 213.483 49.3938 213.595 49.6704 213.627C49.9469 213.661 50.227 213.614 50.4782 213.492C50.7294 213.371 50.9413 213.18 51.0893 212.942C51.2374 212.704 51.3154 212.428 51.3145 212.147V163.36C51.3145 162.966 51.4695 162.588 51.7455 162.309C52.0214 162.031 52.3957 161.874 52.786 161.874H66.0292C68.3707 161.874 70.6164 162.814 72.272 164.486C73.9276 166.158 74.8578 168.426 74.8578 170.791V212.147C74.8583 212.427 74.9363 212.701 75.0843 212.938C75.2317 213.174 75.4427 213.364 75.6927 213.486C75.9422 213.607 76.2209 213.654 76.4962 213.622C76.772 213.591 77.0329 213.481 77.2491 213.306L95.466 198.532C96.8423 197.419 97.9537 196.008 98.7175 194.403C99.482 192.797 99.8788 191.039 99.88 189.258V167.819C99.88 164.666 98.6401 161.642 96.4323 159.412C94.2244 157.182 91.2303 155.929 88.1084 155.929C91.2269 155.923 94.2152 154.668 96.4179 152.439C98.6206 150.209 99.8582 147.189 99.8582 144.039ZM66.0143 149.984H52.7712C52.381 149.984 52.0067 149.828 51.7307 149.549C51.4548 149.27 51.2998 148.892 51.2998 148.498V121.745C51.2998 121.351 51.4548 120.973 51.7307 120.694C52.0067 120.416 52.381 120.259 52.7712 120.259H73.3719C73.7619 120.259 74.1363 120.416 74.4122 120.694C74.688 120.973 74.8434 121.351 74.8434 121.745V141.067C74.8434 143.432 73.9133 145.7 72.2571 147.372C70.6015 149.044 68.3558 149.984 66.0143 149.984Z" fill="white"/>
</svg>
