<svg width="562" height="340" viewBox="0 0 562 340" fill="none" xmlns="http://www.w3.org/2000/svg">
<mask id="mask0_1047_649" style="mask-type:luminance" maskUnits="userSpaceOnUse" x="1" y="111" width="561" height="119">
<path d="M562 111.574H1V229.04H562V111.574Z" fill="white"/>
</mask>
<g mask="url(#mask0_1047_649)">
<mask id="mask1_1047_649" style="mask-type:luminance" maskUnits="userSpaceOnUse" x="1" y="111" width="561" height="119">
<path d="M562 111.574H1V229.04H562V111.574Z" fill="white"/>
</mask>
<g mask="url(#mask1_1047_649)">
<path d="M561.404 144.943H421.3V230.228H561.404V144.943Z" fill="url(#paint0_linear_1047_649)"/>
<path d="M561.404 144.943H421.3V230.228H561.404V144.943Z" fill="url(#paint1_linear_1047_649)"/>
<path d="M561.404 144.943H421.3V230.228H561.404V144.943Z" fill="url(#paint2_radial_1047_649)"/>
<path d="M40.0327 142.746C27.0619 142.335 14.297 145.973 3.61042 153.126L11.5017 167.398C19.0481 161.87 28.276 158.944 37.7259 159.082C52.1126 159.082 59.2151 165.806 59.2151 177.306V178.544H36.8758C10.6519 178.544 1 189.514 1 203.55C1 217.586 13.4442 228.674 33.1731 228.674C46.103 228.674 55.5121 224.604 60.3078 217.35V227.553H79.3684V178.132C79.3684 153.952 64.9815 142.746 40.0931 142.746H40.0327ZM59.1541 201.368C57.3668 205.484 54.2986 208.954 50.3799 211.291C46.4612 213.629 41.8879 214.716 37.3009 214.402C26.9206 214.402 20.7893 209.86 20.7893 202.607C20.7893 196.709 24.4924 191.46 38.2721 191.46H59.1541V201.191V201.368Z" fill="white"/>
<path d="M113.489 111.574H93.2747V228.169H113.489V111.574Z" fill="white"/>
<path d="M192.588 228.952H217.173L177.716 180.297L213.774 145.089H189.493L147.607 182.773V111.574H127.393V228.952H147.607V206.836L162.661 192.977L192.588 228.952Z" fill="white"/>
<path d="M246.081 144.396H225.867V228.319H246.081V144.396Z" fill="white"/>
<path d="M370.749 143.628C364.616 143.412 358.513 144.558 352.908 146.98C347.299 149.403 342.336 153.036 338.392 157.605C335.236 152.986 330.88 149.26 325.763 146.805C320.646 144.35 314.949 143.254 309.255 143.628C303.933 143.423 298.632 144.376 293.737 146.417C288.845 148.457 284.481 151.535 280.968 155.423V144.749H261.724V228.612H281.94V186.032C281.94 169.401 290.984 160.908 304.401 160.908C316.539 160.908 323.825 168.162 323.825 183.083V228.612H344.038V186.032C344.038 169.401 353.266 160.908 366.499 160.908C378.64 160.908 385.923 168.162 385.923 183.083V228.612H406.139V180.547C406.139 155.246 391.569 143.805 370.749 143.805" fill="white"/>
<path d="M439.258 208.137V163.939C439.258 152.782 430.207 143.736 419.042 143.736V228.339C430.207 228.339 439.258 219.294 439.258 208.137Z" fill="#151515"/>
<path d="M478.805 143.736C475.827 143.736 476.097 146.795 477.182 147.89C478.369 148.949 482.316 153.048 482.316 153.048V164.606C482.316 164.606 459.261 206.868 456.321 212.392C452.541 219.494 458.487 228.339 465.255 228.339C469.943 228.339 511.05 228.339 518.054 228.339C526.176 228.339 532.133 220.02 528.343 212.392C527.005 209.706 501.809 164.606 501.809 164.606V153.054L507.001 147.89C508.591 146.343 507.857 143.736 505.585 143.736C503.31 143.736 482.217 143.736 478.805 143.736Z" fill="#151515"/>
</g>
</g>
<defs>
<linearGradient id="paint0_linear_1047_649" x1="425.759" y1="215.691" x2="543.299" y2="213.017" gradientUnits="userSpaceOnUse">
<stop stop-color="#FEF8FC"/>
<stop offset="0.507006" stop-color="#FEF8FC"/>
<stop offset="1" stop-color="#FEF8FC" stop-opacity="0"/>
</linearGradient>
<linearGradient id="paint1_linear_1047_649" x1="441.786" y1="210.351" x2="508.572" y2="202.332" gradientUnits="userSpaceOnUse">
<stop stop-color="#FEF8FC"/>
<stop offset="1" stop-color="#FEF8FC" stop-opacity="0"/>
</linearGradient>
<radialGradient id="paint2_radial_1047_649" cx="0" cy="0" r="1" gradientTransform="matrix(65.5455 13.3484 -21.9514 107.529 451.041 186.324)" gradientUnits="userSpaceOnUse">
<stop stop-color="#FEF8FC"/>
<stop offset="1" stop-color="#FEF8FC" stop-opacity="0"/>
</radialGradient>
</defs>
</svg>
