<svg width="562" height="340" viewBox="0 0 562 340" fill="none" xmlns="http://www.w3.org/2000/svg">
<g clip-path="url(#clip0_1047_631)">
<path fill-rule="evenodd" clip-rule="evenodd" d="M42.203 214.692V166.544H52.6396C71.961 166.544 85.6951 173.373 85.6951 196.186C85.6951 215.507 77.4312 224.663 59.0411 224.663C50.1566 224.663 42.203 224.314 42.203 214.653V214.692ZM42.203 161.889V121.772C42.203 115.681 43.2118 115.37 51.1654 115.37C73.4741 115.37 83.406 120.22 83.406 136.903C83.406 152.034 74.9482 161.578 57.7223 161.889H42.203ZM15.7431 128.639V209.028C15.7431 223.305 14.3076 224.663 1 224.819V229.319H58.8861C82.2811 229.319 108.586 225.167 108.586 197.272C108.586 177.02 90.0018 168.368 73.6291 165.031V164.682C87.9067 162.005 101.835 153.392 101.835 136.593C101.835 112.034 71.7282 108.387 52.1353 108.387H1V112.887C14.3076 113.042 15.7431 114.4 15.7431 128.678V128.639ZM131.903 169.144C131.903 167.204 130.041 165.225 121.273 164.76V160.841C131.205 159.056 140.982 155.953 150.759 152.538V217.059C150.759 222.103 151.768 223.073 160.187 223.073V226.991H121.777V223.073C130.856 223.073 131.903 222.103 131.903 217.059V169.105V169.144ZM153.242 120.647C153.242 127.669 147.306 132.907 141.176 132.907C135.046 132.907 129.11 127.669 129.11 120.647C129.11 113.624 135.046 108.387 141.176 108.387C147.306 108.387 153.242 113.624 153.242 120.647ZM214.969 161.423C215.318 161.85 215.629 162.393 215.9 162.936L244.921 228.892H249.344L273.282 170.385L297.724 228.892H302.652L325.271 172.83C327.907 166.156 330.664 159.677 338.385 158.358V154.44H313.631V158.358L314.019 158.436C318.792 159.212 322.982 159.91 322.982 162.936C322.982 164.255 322.012 166.661 320.692 169.92L307.579 205.652L292.332 168.135C292.099 167.514 291.749 166.661 291.4 165.807C290.741 164.255 290.042 162.626 290.042 162.121C290.042 160.026 294.155 158.862 300.363 158.397V154.478H257.414V158.397C266.919 159.212 269.868 162.315 269.868 165.07C269.868 166.7 268.937 168.95 267.734 171.743C267.501 172.248 267.307 172.791 267.074 173.334L254.271 205.032L238.868 169.299C238.519 168.407 238.17 167.592 237.821 166.816C237.045 165.07 236.424 163.596 236.424 162.471C236.424 160.376 240.692 158.397 247.559 158.397V154.478H207.908L192.699 154.556V126.971L166.705 156.341V160.259H175.279V214.11C175.279 222.917 182.612 229.28 193.63 229.28C200.459 229.28 211.05 224.547 214.969 218.844V212.985C211.4 216.399 207.015 220.473 201.894 220.473C193.475 220.473 192.699 214.77 192.699 210.851V160.259H210.624C210.624 160.259 214.27 160.531 215.046 161.423H214.969ZM345.214 164.76C353.982 165.264 355.844 167.204 355.844 169.144V217.098C355.844 222.141 354.835 223.111 345.717 223.111V227.03H384.127V223.111C375.709 223.111 374.697 222.141 374.697 217.098V152.577C364.92 155.991 355.143 159.095 345.214 160.88V164.798V164.76ZM365.271 132.907C371.399 132.907 377.337 127.669 377.337 120.647C377.337 113.624 371.399 108.387 365.271 108.387C359.142 108.387 353.204 113.624 353.204 120.647C353.204 127.669 359.142 132.907 365.271 132.907ZM451.905 158.591C442.517 155.177 433.982 152.577 425.408 152.577C412.333 152.577 395.571 159.25 395.571 174.187C395.571 185.904 406.318 191.918 417.029 196.806C427.775 201.85 438.483 205.924 438.483 213.722C438.483 220.24 434.449 225.439 427.425 225.439C411.169 225.439 403.098 212.287 400.111 198.436L396.077 199.096L397.588 223.654C404.301 226.564 416.367 229.358 423.585 229.358C439.686 229.358 455.089 224.314 455.089 206.273C455.089 193.741 443.837 188.232 433.476 183.188C420.751 177.02 411.169 172.791 411.169 167.243C411.169 161.074 416.873 156.496 422.729 156.496C436.466 156.496 443.681 169.183 447.871 180.395L451.905 180.085V158.63V158.591ZM534.738 201.035L537.066 203.48C530.393 219.425 519.105 229.319 500.598 229.319C476.777 229.319 463.819 214.692 463.819 192.228C463.819 169.765 480.152 152.538 502.926 152.538C520.888 152.538 536.719 165.691 536.719 183.926H482.439C481.625 199.522 491.596 214.653 508.9 214.653C520.385 214.653 527.873 209.765 534.699 200.997L534.738 201.035ZM482.555 180.473H512.856C515.923 180.473 516.893 180.007 516.893 176.709C516.893 167.01 509.444 159.522 500.715 159.522C487.095 159.522 483.217 170.928 482.555 180.434V180.473ZM546.571 163.557C553.828 163.557 559.685 157.582 559.685 150.133C559.685 142.684 553.828 136.709 546.571 136.709C539.317 136.709 533.46 142.684 533.46 150.133C533.46 157.582 539.317 163.557 546.571 163.557ZM546.571 160.143C541.139 160.143 536.755 155.681 536.755 150.172C536.755 144.663 541.139 140.201 546.571 140.201C552.003 140.201 556.387 144.624 556.387 150.172C556.387 155.72 552.041 160.143 546.571 160.143ZM544.476 156.108V151.956H546.341L549.094 156.108H552.781L549.639 151.491C551.228 151.025 552.197 149.629 552.197 147.766C552.197 145.4 550.375 143.809 547.735 143.809H541.412V156.108H544.515H544.476ZM544.476 146.408H546.96C548.202 146.408 548.821 146.951 548.821 147.96C548.821 148.969 548.163 149.473 546.882 149.473H544.437V146.408H544.476Z" fill="white"/>
</g>
<defs>
<clipPath id="clip0_1047_631">
<rect width="561" height="123.225" fill="white" transform="translate(1 108.387)"/>
</clipPath>
</defs>
</svg>
