<svg width="562" height="340" viewBox="0 0 562 340" fill="none" xmlns="http://www.w3.org/2000/svg">
<g clip-path="url(#clip0_1055_357)">
<path fill-rule="evenodd" clip-rule="evenodd" d="M177.074 213.699V87H217.799C226.728 87 234.33 88.3877 240.605 91.163C247 93.8176 251.947 97.7996 255.447 103.109C258.946 108.418 260.696 114.994 260.696 122.838C260.696 132.37 258.222 139.791 253.275 145.1C248.327 150.289 241.57 153.788 233.003 155.598L268.841 213.699H245.673L213.817 158.856H196.26V213.699H177.074ZM196.26 142.567H217.437C223.47 142.567 228.237 141.782 231.735 140.214C235.235 138.645 237.648 136.413 238.975 133.517C240.424 130.5 241.147 126.94 241.147 122.838C241.147 118.735 240.424 115.236 238.975 112.34C237.648 109.323 235.235 107.031 231.735 105.462C228.237 103.893 223.47 103.109 217.437 103.109H196.26V142.567ZM454.196 87V213.699H473.382V87H454.196ZM503.378 212.249C509.17 214.662 515.566 215.869 522.566 215.869C529.321 215.869 535.295 214.722 540.483 212.43C545.79 210.137 549.953 206.94 552.972 202.837C556.109 198.614 557.676 193.727 557.676 188.176C557.556 182.022 556.047 177.195 553.154 173.696C550.255 170.197 546.394 167.482 541.57 165.551C536.741 163.62 531.251 161.992 525.101 160.664C521.718 159.82 518.462 158.915 515.324 157.949C512.308 156.863 509.834 155.536 507.903 153.968C505.973 152.278 505.007 150.227 505.007 147.814C505.007 144.314 506.395 141.72 509.17 140.03C511.946 138.221 515.566 137.315 520.031 137.315C524.856 137.315 528.78 138.462 531.798 140.754C534.93 143.047 536.741 146.305 537.225 150.528H555.688C554.965 141.116 551.343 133.997 544.828 129.171C538.313 124.223 530.164 121.75 520.391 121.75C513.876 121.75 508.024 122.836 502.835 125.008C497.647 127.18 493.544 130.317 490.528 134.42C487.632 138.402 486.184 143.168 486.184 148.719C486.184 154.39 487.692 158.915 490.709 162.293C493.725 165.672 497.647 168.327 502.473 170.257C507.421 172.188 512.67 173.817 518.22 175.144C521.838 175.868 525.158 176.713 528.176 177.678C531.314 178.643 533.848 179.971 535.779 181.66C537.829 183.35 538.854 185.702 538.854 188.719C538.854 192.218 537.345 195.054 534.327 197.226C531.314 199.277 527.39 200.303 522.566 200.303C517.134 200.303 512.61 198.916 508.989 196.14C505.37 193.365 503.137 189.805 502.293 185.461H482.926C483.529 191.615 485.641 196.984 489.261 201.57C492.881 206.155 497.586 209.715 503.378 212.249ZM371.682 253.519L391.592 209.717L354.126 123.924H375.302L401.728 189.445L429.24 123.924H449.33L391.954 253.519H371.682ZM285.328 212.792C290.155 214.843 295.464 215.869 301.256 215.869C308.376 215.869 314.711 214.18 320.261 210.801C325.812 207.422 330.035 203.319 332.931 198.493C334.258 201.992 336.069 204.888 338.361 207.181C340.654 209.353 343.55 210.982 347.049 212.068C350.669 213.154 354.892 213.697 359.719 213.697V197.226C356.099 196.984 353.565 196.08 352.117 194.511C350.79 192.821 350.066 190.227 349.945 186.728V159.216C349.945 151.977 348.497 145.521 345.601 139.849C342.826 134.178 338.542 129.774 332.75 126.637C327.079 123.379 319.899 121.75 311.211 121.75C304.575 121.75 298.3 122.956 292.387 125.37C286.475 127.783 281.588 131.282 277.726 135.868C273.986 140.453 271.814 146.003 271.211 152.519H290.577C291.543 147.451 293.896 143.771 297.636 141.479C301.498 139.065 305.962 137.859 311.031 137.859C314.892 137.859 318.27 138.643 321.166 140.212C324.062 141.66 326.355 144.012 328.044 147.27C329.734 150.408 330.578 154.571 330.578 159.759H307.773C300.774 159.759 294.318 160.785 288.405 162.836C282.614 164.767 277.968 167.844 274.469 172.067C271.09 176.17 269.4 181.66 269.4 188.538C269.4 194.33 270.849 199.277 273.744 203.38C276.641 207.482 280.502 210.62 285.328 212.792ZM318.813 196.502C315.073 198.916 310.729 200.122 305.782 200.122C301.196 200.122 297.275 199.096 294.017 197.045C290.759 194.873 289.13 191.495 289.13 186.909C289.13 183.41 290.035 180.695 291.845 178.764C293.775 176.713 296.249 175.265 299.266 174.42C302.403 173.576 305.721 173.153 309.22 173.153H330.578V173.515C330.578 178.221 329.553 182.625 327.501 186.728C325.45 190.71 322.554 193.968 318.813 196.502ZM36.3319 90.7787C61.1061 90.7787 134.713 92.5938 134.713 120.037H134.708C134.708 128.667 128.03 136.763 115.949 143.537C116.1 144.775 116.202 146.025 116.238 147.293C116.238 183.745 78.5598 213.778 13.9799 213.778C6.25667 213.772 0 207.516 0 199.792C0 192.07 6.25667 185.807 13.9799 185.807C70.4764 185.807 94.8536 169.14 100.347 150.485C79.2571 158.003 49.5064 162.691 13.9858 162.691C6.26266 162.685 0.00601023 156.428 0.00601023 148.706C0.00601023 140.982 6.26266 134.72 13.9858 134.72C30.5741 134.72 73.4815 134.69 99.3736 129.406C89.7691 103.803 51.5679 93.3571 37.0171 91.4939C36.8668 91.4758 36.6685 91.4533 36.4702 91.4308C36.2718 91.4082 36.0735 91.3857 35.9232 91.3677C35.773 91.3496 35.6648 91.2234 35.6648 91.0732C35.6648 90.9109 35.797 90.7787 35.9593 90.7787H36.3319ZM52.3971 92.8762C77.466 97.3599 99.6801 109.284 110.054 126.546L110.047 126.552C116.274 124.304 120.097 121.443 120.097 117.801C120.097 108.731 96.7712 97.1796 52.4273 92.6719C52.2951 92.6599 52.265 92.8522 52.3971 92.8762Z" fill="white"/>
</g>
<defs>
<clipPath id="clip0_1055_357">
<rect width="562" height="166.519" fill="white" transform="translate(0 87)"/>
</clipPath>
</defs>
</svg>
