<svg width="562" height="340" viewBox="0 0 562 340" fill="none" xmlns="http://www.w3.org/2000/svg">
<path fill-rule="evenodd" clip-rule="evenodd" d="M437.041 125.989L437.011 125.973C440.582 122.073 444.542 117.931 448.683 113.945C443.642 111.489 438.988 108.704 434.484 106.009C424.724 100.172 415.68 94.7601 404.974 94.0361C396.67 93.5219 388.357 94.896 380.659 98.0551C380.659 98.0551 376.498 92.4054 363.682 94.2362C350.865 96.0669 311.39 112.558 277.751 166.337C247.344 214.952 261.631 242.829 283.472 242.527C307.143 242.199 329.654 215.882 337.294 194.184C344.931 172.487 335.92 166.609 328.998 167.166C321.347 167.81 307.83 174.618 300.394 189.665C292.955 204.711 292.955 213.98 292.955 213.98C295.996 210.79 299.302 207.867 302.837 205.241C306.023 202.754 309.53 200.714 313.266 199.176C314.137 195.288 315.439 191.509 317.139 187.905C319.831 182.299 324.092 176.463 329.356 175.147C340.039 172.473 334.918 191.953 327.066 204.654C322.847 211.433 307.872 231.042 295.016 231.042C282.157 231.042 279.697 218.656 282.4 207.028C285.103 195.4 288.864 180.697 307.659 153.922C326.452 127.147 346.774 111.271 358.547 104.62C370.632 97.769 375.552 100.773 375.552 100.773C375.552 100.773 360.121 110.241 351.34 121.683C342.957 132.611 337.936 144.897 341.826 150.918C345.545 156.654 358.605 156.768 373.008 136.001C387.224 115.49 383.649 103.29 383.649 103.29C384.585 102.986 385.54 102.747 386.509 102.575C393.445 101.645 398.996 103.49 407.577 107.895C411.763 110.045 415.87 112.797 420.257 115.737C425.294 119.112 430.697 122.734 437.011 125.973L436.997 125.989H437.041ZM378.785 104.878C378.785 104.878 369.632 108.525 358.99 120.253C348.349 131.981 342.142 145.183 346.732 148.673C348.491 150.003 352.554 150.232 359.934 143.595C366.739 137.685 372.081 130.278 375.538 121.955C380.031 111.005 378.939 105.637 378.799 104.951C378.791 104.909 378.785 104.885 378.785 104.878Z" fill="white"/>
<path d="M455.583 132.631L455.575 132.639C480.577 137.588 502.475 122.098 514.116 108.91C518.366 104.191 522.021 98.97 525 93.3633C519.698 98.8834 513.764 103.761 507.322 107.895L507.252 107.881C496.41 114.832 481.407 121.139 466.99 119.752C463.343 123.528 459.437 127.89 455.547 132.625L455.583 132.631Z" fill="white"/>
<path fill-rule="evenodd" clip-rule="evenodd" d="M464.384 221.487C462.313 224.805 459.953 231.169 466.803 227.208C475.14 222.388 487.027 204.323 487.027 204.323H492.405C487.505 211.873 482.043 219.044 476.07 225.778C467.618 235.146 457.306 243.656 450.04 242.812C441.56 241.825 444.218 230.683 444.218 230.683C444.218 230.683 432.033 243.556 423.667 242.684C412.324 241.425 415.784 227.408 415.784 227.408C415.784 227.408 402.912 243.141 394.216 242.669C380.514 241.883 383.963 225.163 387.766 213.463C389.813 207.184 391.7 202.249 391.7 202.249C391.7 202.249 390.341 202.607 387.409 203.036C385.878 203.25 383.12 203.408 383.12 203.408C379.973 208.954 376.547 214.333 372.849 219.527C368.287 225.592 348.905 246.431 337.462 242.255C326.907 238.393 330.398 222.231 336.549 209.358C345.515 190.636 370.747 163.732 385.292 167.265C400.382 170.926 385.636 198.445 385.636 198.445C385.636 198.445 385.636 198.545 385.792 198.617C386.744 198.788 387.724 198.735 388.654 198.459C390.539 198.078 392.387 197.527 394.174 196.814C394.174 196.814 409.334 165.062 426.082 144.294C442.831 123.527 476.285 87.7983 489.401 96.4516C492.604 98.5826 491.146 105.906 486.826 114.802C484.88 115.417 482.903 115.933 480.907 116.347C483.3 112.374 485.112 108.077 486.285 103.589C488.256 92.8615 463.198 115.474 445.293 139.818C434.523 154.483 424.957 169.995 416.686 186.202C419.922 184.235 423.011 182.036 425.926 179.622C433.915 172.998 441.507 165.91 448.667 158.397C455.536 151.32 461.98 143.84 467.961 135.999C469.877 135.909 471.787 135.713 473.683 135.412C467.135 144.29 460.003 152.719 452.33 160.643C451.696 161.275 451.06 161.912 450.42 162.553C443.819 169.163 436.861 176.133 430.731 181.296C424.75 186.413 418.437 191.134 411.839 195.427C411.839 195.427 396.104 227.008 404.688 229.038C409.691 230.24 419.59 215.008 419.59 215.008C419.59 215.008 432.463 195.312 440.273 186.402C450.828 174.388 459.967 167.465 469.048 167.279C474.37 167.179 477.503 172.857 477.503 172.857L480.005 168.981H495.407C495.407 168.981 466.646 217.782 464.343 221.458L464.384 221.487ZM474.04 178.321C474.227 177.989 474.381 177.639 474.498 177.277C474.426 176.705 474.158 176.176 473.742 175.778C473.325 175.379 472.784 175.136 472.209 175.088C469.835 174.974 466.574 175.432 458.065 184.857C450.993 192.662 444.911 201.309 439.957 210.603C435.079 219.513 433.105 226.149 435.908 227.866C436.819 228.333 437.871 228.44 438.857 228.166C440.759 227.708 442.903 225.935 446.179 222.145C447.404 220.724 448.739 218.827 450.267 216.658L450.28 216.637C450.657 216.105 451.043 215.556 451.442 214.993C457.077 207.327 471.237 183.184 474.04 178.307V178.321ZM385.563 188.561C386.993 184.843 388.796 177.549 385.035 174.688C380.986 171.642 370.733 178.778 370.632 186.13C370.532 193.482 377.884 197.015 379.643 197.486C380.643 197.758 380.986 197.715 381.472 196.914C383.027 194.238 384.396 191.457 385.563 188.59V188.561ZM377.77 202.221C375.215 201.04 372.836 199.52 370.688 197.702C368.53 195.897 366.72 193.71 365.355 191.251C365.235 191.049 365.118 191.181 364.992 191.321C364.964 191.351 364.939 191.381 364.911 191.408C364.749 191.569 364.11 192.21 358.617 200.247C353.097 208.328 344.686 224.977 352.323 227.823C357.215 229.639 365.355 221.072 369.817 215.394C372.838 211.433 375.575 207.266 378.012 202.922C378.241 202.435 378.012 202.321 377.77 202.221Z" fill="white"/>
<path d="M291.051 131.838H276.405L268.126 145.225H282.772L291.051 131.838Z" fill="white"/>
<path fill-rule="evenodd" clip-rule="evenodd" d="M256.669 168.468H261.989C261.989 168.468 235.1 207.329 219.897 205.556C211.415 204.569 213.932 194.113 213.932 194.113C213.932 194.113 201.99 208.059 191.049 205.27C181.122 202.723 187.53 186.232 187.53 186.232C187.361 186.301 186.737 186.9 185.747 187.851C180.121 193.258 162.675 210.022 149.842 205.083C134.11 198.991 142.247 178.723 145.251 172.63C147.797 167.496 150.615 162.49 150.615 162.49C150.615 162.49 148.197 163.176 146.681 163.52C145.166 163.863 142.891 164.306 142.891 164.306C142.891 164.306 135.425 176.449 130.863 182.499C126.3 188.55 106.891 209.375 95.463 205.227C84.0357 201.078 86.8819 185.088 93.2892 172.33C103.702 151.734 128.417 126.418 143.348 130.223C158.281 134.027 145.938 158.442 145.938 158.442C145.938 158.442 148.927 158.828 156.092 153.937C159.052 151.923 162.278 148.934 165.721 145.746C174.307 137.793 184.235 128.597 194.71 130.18C201.632 131.224 208.083 138.332 199.258 151.82C196.397 156.111 191.692 160.03 188.059 156.196C185.799 153.836 187.773 149.474 190.147 146.499C191.075 145.287 192.287 144.321 193.677 143.688C195.066 143.054 196.59 142.772 198.113 142.866C198.113 142.866 200.545 137.274 194.352 137.388C189.332 137.488 176.631 149.174 169.466 160.988C162.972 171.873 153.031 190.351 162.972 194.385C172.14 198.089 189.589 177.379 197.67 166.523C205.751 155.667 224.145 131.066 239.592 130.079C244.912 129.736 248.073 134.585 248.073 134.585L249.861 131.724H265.278C265.278 131.724 236.244 180.34 233.97 183.987C232.183 186.847 229.808 193.327 236.388 189.708C242.967 186.089 256.669 168.468 256.669 168.468ZM221.699 178.151C227.934 169.57 245.127 139.677 245.127 139.677C245.053 139.105 244.786 138.576 244.369 138.178C243.953 137.78 243.413 137.536 242.838 137.488C240.464 137.374 236.516 138.175 228.536 148.044C220.555 157.913 214.605 165.765 210.171 173.932C205.279 182.842 203.148 189.136 205.952 190.838C206.863 191.299 207.912 191.405 208.898 191.138C210.728 190.681 213.117 188.85 216.393 185.074C217.937 183.315 219.682 180.94 221.727 178.151H221.699ZM143.134 137.674C139.086 134.614 128.832 141.765 128.732 149.117C128.631 156.468 138.028 158.757 139.244 158.814C139.515 158.885 139.802 158.865 140.061 158.757C140.32 158.648 140.535 158.457 140.675 158.213C141.774 156.058 142.763 153.848 143.635 151.591C145.065 147.872 146.853 140.578 143.091 137.717L143.134 137.674ZM136.984 163.462C134.194 162.59 131.526 161.364 129.046 159.815C126.627 158.253 124.656 156.09 123.325 153.536C123.201 153.324 123.065 153.482 122.937 153.63C122.919 153.652 122.9 153.673 122.882 153.694C122.739 153.851 121.909 154.938 116.403 163.019C110.896 171.1 102.729 187.634 110.381 190.466C115.273 192.283 123.497 183.686 127.945 178.008C131.297 173.577 134.396 168.959 137.227 164.178C137.413 163.691 137.227 163.577 136.955 163.491L136.984 163.462Z" fill="white"/>
<path d="M248.258 246.275C236.883 238.403 223.264 234.428 209.441 234.947C205.699 235.048 202.034 236.03 198.743 237.815C195.453 239.6 192.63 242.135 190.504 245.217C184.612 234.933 172.969 228.626 154.962 228.768C139.716 228.941 124.529 232.708 110.239 236.252C97.2614 239.47 85.023 242.506 74.1522 242.499C52.2118 242.499 36.2356 228.711 36.7647 204.239C37.7091 161.33 73.9517 122.713 101.127 105.292C116.703 95.2802 129.732 92.3338 138.314 93.292C144.536 93.9786 152.016 101.173 147.296 111.771C140.359 127.29 130.776 125.988 131.134 118.579C131.283 116.647 131.888 114.777 132.9 113.123C133.912 111.47 135.302 110.08 136.955 109.068C138.71 108.113 140.679 107.621 142.676 107.638C144.106 106.479 145.093 97.9977 133.937 100.787C122.781 103.576 109.194 114.546 96.3785 128.706C83.5634 142.866 63.6254 169.612 58.6908 197.703C56.3883 210.732 57.9182 234.49 88.7264 234.232C100.605 234.134 115.056 230.531 130.618 226.651C149.329 221.985 169.644 216.92 189.016 217.068C201.374 217.017 213.509 220.34 224.115 226.68C233.298 232.402 244.297 240.582 248.202 246.217L248.258 246.275Z" fill="white"/>
</svg>
