<svg width="2174" height="1294" viewBox="0 0 2174 1294" fill="none" xmlns="http://www.w3.org/2000/svg">
<path d="M964.218 289.26C945.223 289.26 928.966 300.923 922.168 317.477L536.313 390.413C528.219 377.877 514.157 369.562 498.129 369.562C473.022 369.562 452.68 389.913 452.68 415.011C452.68 440.108 471.344 458.671 494.958 460.298L541.289 581.268L364.758 694.415C356.926 688.007 346.916 684.151 336.007 684.151C310.901 684.151 290.559 704.502 290.559 729.599C290.559 754.697 310.91 775.048 336.007 775.048C343.441 775.048 350.442 773.225 356.629 770.064L664.488 957.664C664.471 958.207 664.403 958.741 664.403 959.292C664.403 984.398 684.754 1004.74 709.852 1004.74C734.949 1004.74 755.3 984.389 755.3 959.292C755.3 936.432 738.408 917.573 716.438 914.369L595.713 599.153L944.528 375.622C950.495 378.496 957.157 380.157 964.226 380.157C989.332 380.157 1009.67 359.806 1009.67 334.709C1009.67 309.611 989.324 289.26 964.218 289.26ZM665.836 906.46L384.126 734.787L557.529 623.649L665.836 906.452V906.46ZM579.499 556.798L535.237 441.219C536.593 439.303 537.788 437.277 538.839 435.167L865.692 373.385L579.507 556.806L579.499 556.798Z" fill="white"/>
<path d="M943.732 868.293C952.497 862.961 962.626 860.291 974.119 860.291C987.265 860.291 998.284 863.724 1007.18 870.598C1016.06 877.472 1021.81 887.126 1024.41 899.569H1014.81C1012.2 889.856 1007.29 882.363 1000.06 877.091C992.834 871.819 984.011 869.183 973.585 869.183C964.109 869.183 955.811 871.488 948.699 876.116C941.588 880.735 936.087 887.16 932.171 895.399C928.264 903.638 926.306 913.029 926.306 923.565C926.306 934.101 928.264 943.501 932.171 951.731C936.079 959.97 941.588 966.394 948.699 971.014C955.811 975.633 964.1 977.947 973.585 977.947C984.248 977.947 993.105 975.337 1000.15 970.124C1007.2 964.911 1012.02 957.334 1014.63 947.374H1024.23C1021.5 959.936 1015.79 969.649 1007.08 976.515C998.378 983.389 987.384 986.822 974.119 986.822C962.626 986.822 952.497 984.186 943.732 978.914C934.96 973.641 928.213 966.208 923.475 956.613C918.737 947.018 916.363 935.999 916.363 923.556C916.363 911.114 918.737 900.281 923.475 890.678C928.213 881.083 934.968 873.616 943.732 868.284V868.293Z" fill="white"/>
<path d="M1086.99 934.931C1086.99 949.383 1089.88 960.173 1095.69 967.276C1101.5 974.387 1110.5 977.939 1122.7 977.939C1134.91 977.939 1144.12 974.387 1149.98 967.276C1155.84 960.165 1158.78 949.383 1158.78 934.931V861.359H1168.37V934.397C1168.37 969.344 1153.15 986.822 1122.7 986.822C1092.26 986.822 1077.39 969.344 1077.39 934.397V861.359H1086.99V934.931Z" fill="white"/>
<path d="M1241.79 969.683C1248.43 975.193 1257.02 977.947 1267.57 977.947C1278.12 977.947 1285.9 975.667 1292.01 971.107C1298.11 966.547 1301.16 960.3 1301.16 952.358C1301.16 946.671 1299.53 942.17 1296.28 938.847C1293.02 935.533 1288.84 933.075 1283.74 931.473C1278.65 929.871 1272.14 928.422 1264.2 927.117C1255.9 925.701 1248.97 923.947 1243.4 921.878C1237.84 919.81 1233.22 916.606 1229.55 912.283C1225.87 907.961 1224.04 902.061 1224.04 894.602C1224.04 887.737 1225.76 881.685 1229.19 876.481C1232.62 871.268 1237.51 867.242 1243.85 864.394C1250.19 861.554 1257.5 860.13 1265.79 860.13C1278.11 860.13 1288.15 863.36 1295.91 869.818C1303.67 876.277 1308.03 884.838 1308.97 895.501L1299.56 895.679C1298.49 887.5 1294.94 880.99 1288.9 876.133C1282.85 871.276 1275.16 868.844 1265.79 868.844C1255.96 868.844 1248.13 871.064 1242.33 875.506C1236.52 879.947 1233.62 886.135 1233.62 894.077C1233.62 899.646 1235.16 904.028 1238.24 907.232C1241.32 910.427 1245.2 912.741 1249.89 914.165C1254.57 915.589 1260.99 917.005 1269.17 918.429C1277.46 919.734 1284.55 921.48 1290.41 923.667C1296.28 925.862 1301.13 929.202 1304.98 933.711C1308.84 938.212 1310.75 944.196 1310.75 951.655C1310.75 958.529 1308.95 964.632 1305.34 969.955C1301.73 975.286 1296.66 979.431 1290.15 982.397C1283.63 985.356 1276.05 986.839 1267.4 986.839C1258.75 986.839 1250.48 985.211 1243.68 981.957C1236.87 978.702 1231.54 974.074 1227.68 968.09C1223.82 962.106 1221.73 955.206 1221.38 947.383H1230.97C1231.56 956.74 1235.17 964.174 1241.81 969.683H1241.79Z" fill="white"/>
<path d="M1444.95 861.368V870.251H1402.3V985.762H1392.7V870.251H1350.05V861.368H1444.95Z" fill="white"/>
<path d="M1568.02 978.736C1559.2 984.126 1549.16 986.822 1537.9 986.822C1526.64 986.822 1516.61 984.126 1507.78 978.736C1498.96 973.345 1492.09 965.818 1487.17 956.164C1482.25 946.51 1479.8 935.635 1479.8 923.556C1479.8 911.478 1482.25 900.603 1487.17 890.949C1492.09 881.286 1498.96 873.768 1507.78 868.377C1516.61 862.987 1526.65 860.291 1537.9 860.291C1549.15 860.291 1559.2 862.987 1568.02 868.377C1576.85 873.768 1583.72 881.295 1588.64 890.949C1593.55 900.603 1596.01 911.478 1596.01 923.556C1596.01 935.635 1593.55 946.51 1588.64 956.164C1583.72 965.818 1576.85 973.345 1568.02 978.736ZM1512.94 971.014C1520.23 975.633 1528.55 977.947 1537.9 977.947C1547.25 977.947 1555.62 975.642 1562.96 971.014C1570.31 966.394 1576.03 959.97 1580.11 951.731C1584.2 943.501 1586.24 934.109 1586.24 923.565C1586.24 913.021 1584.2 903.638 1580.11 895.399C1576.03 887.169 1570.3 880.744 1562.96 876.116C1555.62 871.497 1547.27 869.183 1537.9 869.183C1528.53 869.183 1520.22 871.488 1512.94 876.116C1505.65 880.735 1499.96 887.16 1495.88 895.399C1491.79 903.638 1489.75 913.029 1489.75 923.565C1489.75 934.101 1491.79 943.501 1495.88 951.731C1499.96 959.97 1505.65 966.394 1512.94 971.014Z" fill="white"/>
<path d="M1683.13 861.368C1696.16 861.368 1707.36 863.919 1716.72 869.013C1726.08 874.107 1733.25 881.329 1738.23 890.695C1743.2 900.053 1745.69 911.012 1745.69 923.574C1745.69 936.135 1743.21 947.095 1738.23 956.452C1733.25 965.81 1726.09 973.04 1716.72 978.134C1707.36 983.228 1696.17 985.779 1683.13 985.779H1649.72V861.385H1683.13V861.368ZM1722.04 962.572C1731.28 953.036 1735.9 940.026 1735.9 923.565C1735.9 907.105 1731.31 893.95 1722.13 884.474C1712.95 874.997 1699.95 870.251 1683.12 870.251H1659.31V976.88H1683.12C1699.83 976.88 1712.8 972.108 1722.04 962.58V962.572Z" fill="white"/>
<path d="M1789.78 861.19L1831.01 929.431L1872.6 861.19H1883.44L1835.81 939.915V985.762H1826.22V939.915L1778.59 861.19H1789.79H1789.78Z" fill="white"/>
<path d="M1094.17 582.836V556.671H922.789V588.329H1047.74L917.305 745.788V771.963H1099.67V740.296H963.313L1094.17 582.836Z" fill="white"/>
<path d="M1276.32 568.063C1260.14 558.773 1241.64 554.136 1220.81 554.136C1199.99 554.136 1181.48 558.781 1165.3 568.063C1149.12 577.352 1136.53 590.295 1127.53 606.9C1118.52 623.504 1114.02 642.643 1114.02 664.308C1114.02 685.973 1118.52 705.112 1127.53 721.725C1136.53 738.329 1149.12 751.272 1165.3 760.562C1181.48 769.852 1200 774.497 1220.81 774.497C1241.63 774.497 1260.14 769.852 1276.32 760.562C1292.5 751.272 1305.1 738.329 1314.11 721.725C1323.11 705.12 1327.62 685.981 1327.62 664.308C1327.62 642.635 1323.12 623.504 1314.11 606.9C1305.1 590.295 1292.5 577.352 1276.32 568.063ZM1283.29 705.264C1277.38 717.36 1269.01 726.794 1258.18 733.54C1247.34 740.296 1234.89 743.669 1220.82 743.669C1206.75 743.669 1194.29 740.296 1183.46 733.54C1172.63 726.785 1164.25 717.36 1158.35 705.264C1152.44 693.161 1149.48 679.514 1149.48 664.317C1149.48 649.119 1152.44 635.473 1158.35 623.369C1164.25 611.265 1172.63 601.84 1183.46 595.084C1194.29 588.329 1206.75 584.955 1220.82 584.955C1234.89 584.955 1247.34 588.337 1258.18 595.084C1269.01 601.84 1277.38 611.265 1283.29 623.369C1289.2 635.473 1292.16 649.119 1292.16 664.317C1292.16 679.514 1289.2 693.161 1283.29 705.264Z" fill="white"/>
<path d="M1537 589.592C1529.96 578.615 1520.25 569.961 1507.87 563.63C1495.48 557.298 1480.57 554.128 1463.12 554.128C1443.42 554.128 1425.69 558.773 1409.93 568.054C1394.17 577.344 1381.85 590.287 1372.99 606.892C1364.12 623.496 1359.69 642.635 1359.69 664.3C1359.69 687.092 1364.12 706.799 1372.99 723.403C1381.85 740.008 1394.09 752.671 1409.71 761.393C1425.33 770.115 1443.13 774.48 1463.11 774.48C1494.35 774.48 1518.97 762.097 1536.99 737.33L1541.63 771.946H1571.61V476.462H1536.99V589.592H1537ZM1528.56 705.892C1522.65 717.852 1514.27 727.141 1503.44 733.753C1492.61 740.364 1480.29 743.67 1466.5 743.67C1445.12 743.67 1427.88 736.287 1414.79 721.505C1401.7 706.731 1395.16 687.66 1395.16 664.3C1395.16 640.94 1401.7 621.877 1414.79 607.103C1427.88 592.33 1445.12 584.939 1466.5 584.939C1480.29 584.939 1492.6 588.321 1503.44 595.068C1514.27 601.823 1522.65 611.316 1528.56 623.564C1534.46 635.803 1537.42 649.662 1537.42 665.147C1537.42 680.633 1534.46 693.924 1528.56 705.883V705.892Z" fill="white"/>
<path d="M1653.51 556.671H1618.89V771.963H1653.51V556.671Z" fill="white"/>
<path d="M1636.2 473.504C1629.73 473.504 1624.38 475.614 1620.16 479.836C1615.95 484.057 1613.83 489.405 1613.83 495.881C1613.83 502.356 1615.94 507.705 1620.16 511.926C1624.38 516.147 1629.73 518.257 1636.2 518.257C1642.67 518.257 1648.02 516.147 1652.25 511.926C1656.47 507.705 1658.58 502.356 1658.58 495.881C1658.58 489.405 1656.47 484.057 1652.25 479.836C1648.02 475.614 1642.68 473.504 1636.2 473.504Z" fill="white"/>
<path d="M1854.65 574.191C1839.6 560.824 1818.27 554.136 1790.7 554.136C1764.8 554.136 1743.77 560.044 1727.59 571.868C1711.41 583.692 1702.05 600.153 1699.51 621.258H1734.13C1736.38 610.282 1742.36 601.492 1752.07 594.872C1761.78 588.253 1774.09 584.947 1789 584.947C1805.89 584.947 1819.04 588.888 1828.47 596.771C1837.89 604.654 1842.61 615.63 1842.61 629.7V644.474H1779.29C1751.15 644.474 1729.69 650.246 1714.91 661.782C1700.14 673.318 1692.75 689.923 1692.75 711.596C1692.75 731.015 1700 746.348 1714.49 757.604C1728.99 768.869 1748.19 774.497 1772.11 774.497C1803.63 774.497 1827.7 762.537 1844.29 738.618V771.784H1877.12V771.742C1877.12 771.742 1877.19 771.742 1877.22 771.751V631.811C1877.22 606.764 1869.7 587.558 1854.64 574.191H1854.65ZM1842.61 684.159C1842.61 702.45 1836.56 717.156 1824.46 728.268C1812.36 739.389 1795.75 744.941 1774.65 744.941C1760.29 744.941 1748.9 741.703 1740.45 735.236C1732.01 728.76 1727.79 720.182 1727.79 709.485C1727.79 685.566 1743.83 673.606 1775.92 673.606H1842.61V684.168V684.159Z" fill="white"/>
</svg>
