<svg width="562" height="340" viewBox="0 0 562 340" fill="none" xmlns="http://www.w3.org/2000/svg">
<path d="M103.995 108C112.321 108 120.379 109.632 128.003 112.83C132.049 114.529 135.928 116.694 139.539 119.226L138.77 119.625L128.872 124.655C121.315 120.458 112.722 118.259 103.995 118.259C103.861 118.259 103.727 118.259 103.593 118.259C96.8722 118.326 90.3186 119.659 84.1326 122.223C77.9464 124.822 72.396 128.519 67.6476 133.249C57.9509 142.942 52.6006 155.8 52.6006 169.457C52.6006 171.689 52.7346 173.921 53.0355 176.153L53.1356 176.852L53.7711 176.519L139.204 133.116L156.893 124.122L176.922 113.929V125.455L156.291 135.947L146.16 141.077L56.1117 186.879L55.7104 187.112L51.096 189.444L46.4147 191.808V191.775L45.9801 191.975L31 199.603V188.078L36.0826 185.513C40.3292 183.348 42.8704 178.884 42.5026 174.121C42.4022 172.555 42.3353 170.99 42.3353 169.424C42.3353 161.13 43.9737 153.069 47.1838 145.474C50.2936 138.146 54.7407 131.584 60.3916 125.921C66.0428 120.291 72.6301 115.828 79.9861 112.73C87.5766 109.632 95.6685 108 103.995 108Z" fill="white"/>
<path d="M176.955 140.877V152.402L171.873 154.967C167.627 157.132 165.085 161.596 165.453 166.359C165.587 167.925 165.62 169.524 165.62 171.089C165.62 179.384 163.982 187.444 160.772 195.039C157.662 202.368 153.215 208.93 147.564 214.593C141.913 220.255 135.292 224.685 127.969 227.783C120.379 230.981 112.287 232.613 103.961 232.613C95.6349 232.613 87.5766 230.981 79.9528 227.783C75.8735 226.051 71.9946 223.886 68.3834 221.354L78.6151 216.158L79.0165 215.958C86.5734 220.155 95.2003 222.387 103.961 222.387C104.095 222.387 104.195 222.387 104.329 222.387C111.05 222.354 117.604 221.021 123.79 218.423C129.975 215.825 135.526 212.128 140.274 207.397C149.971 197.738 155.321 184.846 155.321 171.189C155.321 168.958 155.188 166.692 154.887 164.461L154.786 163.761L154.151 164.094L68.6508 207.431L50.9623 216.425L31 226.551V215.026L51.5641 204.566L61.6958 199.436L176.955 140.877Z" fill="white"/>
<path d="M280.114 150.238H268.812C265.971 140.679 256.607 137.481 248.248 137.481C241.862 137.481 230.66 140.312 230.66 149.539C230.66 156.834 236.478 160.465 244.136 162.164L253.731 164.329C266.405 167.06 281.584 171.824 281.584 188.445C281.584 204.601 266.506 213.128 250.054 213.128C230.526 213.128 218.188 202.536 216.014 186.047H227.45C229.624 197.439 237.615 203.335 250.288 203.335C262.492 203.335 269.582 197.539 269.582 189.445C269.582 180.784 262.16 177.153 251.759 174.888L241.494 172.723C230.192 170.225 218.756 163.962 218.756 150.205C218.756 134.516 235.308 127.688 248.683 127.688C263.563 127.721 276.905 134.316 280.114 150.238Z" fill="white"/>
<path d="M307.3 135.115V150.471H318.935V158.766H307.3V195.04C307.3 201.403 307.768 203.001 313.686 203.001H318.935V211.662H311.411C299.643 211.662 296.9 209.031 296.9 196.306V158.766H287.204V150.471H296.9V135.115H307.3Z" fill="white"/>
<path d="M354.112 204.068C363.238 204.068 368.256 199.971 370.898 193.942H381.63C378.788 204.535 369.057 213.162 354.112 213.162C334.684 213.162 323.949 199.271 323.949 181.184C323.949 161.831 336.959 149.439 353.744 149.439C372.469 149.439 383.771 165.128 382.4 184.482H335.118C335.619 197.673 344.983 204.068 354.112 204.068ZM371.465 175.621C371.23 166.961 364.743 158.333 353.776 158.333C344.514 158.333 336.189 163.33 335.286 175.621H371.465Z" fill="white"/>
<path d="M392.264 211.662V129.186H402.66V211.662H392.264Z" fill="white"/>
<path d="M415.439 211.662V129.186H425.835V211.662H415.439Z" fill="white"/>
<path d="M476.994 174.021V172.555C476.994 161.397 470.706 157.666 463.05 157.666C454.49 157.666 449.473 162.329 449.007 169.824H438.272C439.308 156.633 450.946 149.238 462.948 149.238C479.835 149.238 487.492 157.299 487.393 174.487L487.292 188.578C487.191 198.804 487.761 205.866 488.898 211.662H478.397C478.065 209.397 477.729 206.898 477.596 203.234C473.817 209.497 467.431 213.127 456.597 213.127C445.06 213.127 435.465 206.765 435.465 195.506C435.43 181.083 451.747 176.853 476.994 174.021ZM446.967 195.306C446.967 201.102 451.415 204.966 458.837 204.966C468.533 204.966 477.795 200.536 477.795 186.079V182.216C458.938 184.148 446.967 186.879 446.967 195.306Z" fill="white"/>
<path d="M525.181 160.829C515.586 160.829 510.803 166.192 510.803 179.616V211.694H500.403V150.47H510.568V161.162C513.644 154.234 519.932 150.37 527.924 150.137C528.96 150.137 529.863 150.137 531 150.237V161.263C528.827 161.063 526.885 160.829 525.181 160.829Z" fill="white"/>
</svg>
