<svg width="562" height="340" viewBox="0 0 562 340" fill="none" xmlns="http://www.w3.org/2000/svg">
<mask id="mask0_1084_261" style="mask-type:luminance" maskUnits="userSpaceOnUse" x="67" y="110" width="428" height="121">
<path d="M495 110H67V230.143H495V110Z" fill="white"/>
</mask>
<g mask="url(#mask0_1084_261)">
<path d="M192.523 110H69.8521C69.0955 110 68.3698 110.281 67.8348 110.782C67.2998 111.283 66.9993 111.962 66.9993 112.67V227.468C66.9993 228.176 67.2998 228.856 67.8348 229.357C68.3698 229.857 69.0955 230.138 69.8521 230.138H192.523C193.281 230.138 194.005 229.857 194.541 229.357C195.076 228.856 195.377 228.176 195.377 227.468V112.67C195.377 111.962 195.076 111.283 194.541 110.782C194.005 110.281 193.281 110 192.523 110ZM152.584 187.423C152.584 188.131 152.284 188.81 151.749 189.31C151.214 189.811 150.488 190.092 149.731 190.092H112.644C111.888 190.092 111.162 189.811 110.627 189.31C110.092 188.81 109.792 188.131 109.792 187.423V152.716C109.792 152.008 110.092 151.329 110.627 150.828C111.162 150.327 111.888 150.046 112.644 150.046H149.731C150.488 150.046 151.214 150.327 151.749 150.828C152.284 151.329 152.584 152.008 152.584 152.716V187.423Z" fill="white"/>
<path d="M449.336 150.053H412.248C410.675 150.053 409.397 151.248 409.397 152.722V187.429C409.397 188.903 410.675 190.099 412.248 190.099H449.336C450.912 190.099 452.19 188.903 452.19 187.429V152.722C452.19 151.248 450.912 150.053 449.336 150.053Z" fill="white"/>
<path d="M406.548 110.002H369.463C367.887 110.002 366.61 111.197 366.61 112.672V147.378C366.61 148.853 367.887 150.048 369.463 150.048H406.548C408.125 150.048 409.404 148.853 409.404 147.378V112.672C409.404 111.197 408.125 110.002 406.548 110.002Z" fill="white"/>
<path d="M492.147 110.002H455.059C453.483 110.002 452.206 111.197 452.206 112.672V147.378C452.206 148.853 453.483 150.048 455.059 150.048H492.147C493.721 150.048 494.998 148.853 494.998 147.378V112.672C494.998 111.197 493.721 110.002 492.147 110.002Z" fill="white"/>
<path d="M406.548 190.098H369.463C367.887 190.098 366.61 191.293 366.61 192.767V227.474C366.61 228.949 367.887 230.144 369.463 230.144H406.548C408.125 230.144 409.404 228.949 409.404 227.474V192.767C409.404 191.293 408.125 190.098 406.548 190.098Z" fill="white"/>
<path d="M492.147 190.098H455.059C453.483 190.098 452.206 191.293 452.206 192.767V227.474C452.206 228.949 453.483 230.144 455.059 230.144H492.147C493.721 230.144 494.998 228.949 494.998 227.474V192.767C494.998 191.293 493.721 190.098 492.147 190.098Z" fill="white"/>
<path d="M342.312 110.002H305.226C303.65 110.002 302.37 111.197 302.37 112.672V147.378C302.37 148.853 303.65 150.048 305.226 150.048H342.312C343.888 150.048 345.165 148.853 345.165 147.378V112.672C345.165 111.197 343.888 110.002 342.312 110.002Z" fill="white"/>
<path d="M342.312 190.098H305.226C303.65 190.098 302.37 191.293 302.37 192.767V227.474C302.37 228.949 303.65 230.144 305.226 230.144H342.312C343.888 230.144 345.165 228.949 345.165 227.474V192.767C345.165 191.293 343.888 190.098 342.312 190.098Z" fill="white"/>
<path d="M302.359 152.686C302.359 151.978 302.058 151.299 301.526 150.798C300.991 150.297 300.264 150.016 299.506 150.016H259.567V112.67C259.567 111.962 259.266 111.283 258.731 110.782C258.197 110.281 257.471 110 256.715 110H219.628C218.871 110 218.146 110.281 217.61 110.782C217.075 111.283 216.774 111.962 216.774 112.67V227.409C216.774 228.117 217.075 228.795 217.61 229.296C218.146 229.797 218.871 230.078 219.628 230.078H256.715C257.471 230.078 258.197 229.797 258.731 229.296C259.266 228.795 259.567 228.117 259.567 227.409V190.062H299.506C300.264 190.062 300.991 189.781 301.526 189.28C302.058 188.779 302.359 188.101 302.359 187.392V152.686Z" fill="white"/>
</g>
</svg>
