<svg width="562" height="340" viewBox="0 0 562 340" fill="none" xmlns="http://www.w3.org/2000/svg">
<path d="M226.03 131.525C226.03 129.793 227.453 128.369 229.185 128.369H241.32C243.052 128.369 244.476 129.793 244.48 131.525V141.412C244.48 143.143 245.908 144.571 247.64 144.571H257.202C258.037 144.578 258.836 144.912 259.426 145.503C260.016 146.093 260.351 146.892 260.358 147.727V192.279C260.353 193.112 260.02 193.91 259.431 194.5C258.842 195.089 258.044 195.422 257.21 195.426H247.64C246.803 195.431 246.002 195.765 245.41 196.356C244.819 196.948 244.484 197.749 244.48 198.586V208.473C244.477 209.309 244.143 210.109 243.552 210.701C242.961 211.292 242.16 211.625 241.324 211.628H229.185C228.349 211.625 227.549 211.292 226.958 210.701C226.367 210.109 226.033 209.309 226.03 208.473V196.325C226.03 194.594 227.453 193.17 229.185 193.17H238.76C239.596 193.165 240.397 192.832 240.988 192.241C241.58 191.65 241.914 190.85 241.92 190.014V149.962C241.915 149.128 241.582 148.329 240.992 147.739C240.402 147.149 239.603 146.815 238.768 146.811H229.181C228.347 146.807 227.548 146.473 226.958 145.883C226.368 145.293 226.034 144.494 226.03 143.66V131.525ZM137.996 131.525C137.992 130.689 137.659 129.888 137.068 129.297C136.477 128.706 135.676 128.372 134.84 128.369H122.688C121.853 128.376 121.055 128.71 120.464 129.301C119.874 129.891 119.539 130.69 119.533 131.525V141.412C119.528 142.248 119.194 143.049 118.603 143.641C118.011 144.233 117.21 144.567 116.373 144.571H106.811C105.976 144.578 105.177 144.912 104.587 145.503C103.996 146.093 103.662 146.892 103.655 147.727V192.279C103.66 193.112 103.993 193.91 104.582 194.5C105.171 195.089 105.969 195.422 106.802 195.426H116.373C118.105 195.426 119.533 196.854 119.533 198.586V208.469C119.538 209.304 119.872 210.104 120.463 210.695C121.053 211.287 121.853 211.622 122.688 211.628H134.84C135.676 211.625 136.477 211.292 137.068 210.701C137.659 210.109 137.992 209.309 137.996 208.473V196.325C137.992 195.489 137.659 194.689 137.068 194.098C136.477 193.507 135.676 193.173 134.84 193.17H125.269C124.433 193.165 123.633 192.832 123.041 192.241C122.45 191.65 122.115 190.85 122.11 190.014V149.971C122.11 148.239 123.538 146.811 125.269 146.811H134.844C135.679 146.807 136.478 146.473 137.068 145.883C137.658 145.293 137.991 144.494 137.996 143.66V131.525ZM170.766 150.212C170.772 149.515 171.051 148.848 171.544 148.355C172.037 147.862 172.704 147.582 173.402 147.577H200.061C200.573 147.581 201.073 147.733 201.5 148.015C201.927 148.297 202.263 148.698 202.467 149.167L206.789 159.15C206.991 159.621 207.326 160.023 207.754 160.306C208.181 160.589 208.682 160.742 209.195 160.745H218.141C219.581 160.745 220.768 161.931 220.768 163.371V192.841C220.764 193.539 220.486 194.207 219.992 194.701C219.499 195.194 218.83 195.473 218.133 195.476H206.822C206.124 195.473 205.456 195.194 204.962 194.701C204.469 194.207 204.19 193.539 204.187 192.841V165.478C204.182 164.782 203.904 164.115 203.413 163.622C202.922 163.129 202.256 162.849 201.56 162.843H189.974C189.278 162.849 188.613 163.129 188.121 163.622C187.63 164.115 187.352 164.782 187.347 165.478V192.841C187.344 193.539 187.066 194.207 186.572 194.701C186.079 195.194 185.41 195.473 184.712 195.476H173.402C172.704 195.473 172.035 195.194 171.542 194.701C171.048 194.207 170.77 193.539 170.766 192.841V150.212ZM143.924 150.212C143.929 149.515 144.208 148.848 144.701 148.355C145.194 147.862 145.862 147.582 146.559 147.577H157.874C158.571 147.583 159.237 147.862 159.73 148.355C160.222 148.848 160.5 149.515 160.505 150.212V192.841C160.501 193.538 160.223 194.206 159.731 194.699C159.238 195.193 158.571 195.472 157.874 195.476H146.559C145.861 195.473 145.193 195.194 144.699 194.701C144.206 194.207 143.927 193.539 143.924 192.841V150.212Z" fill="white"/>
<path d="M33.387 170.191V170.47C35.635 171.248 37.5957 172.664 39.0444 174.55C40.5597 176.589 41.3424 179.087 41.255 181.631C41.3018 183.499 40.9426 185.356 40.2024 187.072C39.4621 188.788 38.3583 190.324 36.9671 191.572C34.14 194.149 30.4257 195.534 26.6013 195.435H0V147.519H25.7396C29.7943 147.519 33.1788 148.689 35.8931 151.029C37.2191 152.148 38.275 153.552 38.9815 155.136C39.688 156.721 40.0269 158.445 39.9728 160.179C39.9852 162.32 39.3559 164.415 38.166 166.195C36.9805 167.948 35.3218 169.333 33.387 170.191ZM23.3834 158.035H11.7978V166.548H23.3834C24.5906 166.602 25.7646 166.128 26.6013 165.258C27.4089 164.467 27.871 163.385 27.8877 162.252C27.8877 161.153 27.4547 160.1 26.6846 159.317C26.2554 158.884 25.7395 158.546 25.1706 158.325C24.6017 158.105 23.9926 158.004 23.3834 158.035ZM11.7978 184.994H24.3825C25.0233 185.013 25.6607 184.895 26.2527 184.649C26.8447 184.402 27.3778 184.034 27.8169 183.567C28.6745 182.713 29.1657 181.556 29.174 180.344C29.1705 179.798 29.0471 179.259 28.8127 178.766C28.5782 178.272 28.2383 177.836 27.8169 177.489C26.8877 176.621 25.6529 176.157 24.3825 176.198H11.7978V184.994ZM84.1959 195.435H46.8541V147.519H84.1959V158.947H58.6478V165.82H80.5866V176.552H58.6478V183.991H84.1959V195.435ZM314.266 175.424H326.343C325.856 181.245 323.133 186.65 318.746 190.506C314.312 194.461 308.7 196.438 301.906 196.438C294.48 196.438 288.477 194.057 283.902 189.295C279.326 184.528 277.037 178.621 277.033 171.561C277.033 164.475 279.322 158.522 283.897 153.701C288.473 148.881 294.471 146.454 301.906 146.412C308.534 146.412 314.062 148.365 318.487 152.269C322.842 155.984 325.602 161.23 326.197 166.923H313.983C313.355 164.329 311.851 162.03 309.724 160.416C307.442 158.715 304.637 157.863 301.794 158.01C297.839 158.056 294.717 159.367 292.427 161.944C290.166 164.583 288.97 167.97 289.072 171.444C288.981 174.952 290.205 178.367 292.502 181.019C294.763 183.575 297.897 184.857 301.911 184.857C304.807 184.95 307.65 184.069 309.987 182.355C312.187 180.621 313.703 178.164 314.266 175.42V175.424ZM342.033 195.36H330.24V147.486H354.968C360.113 147.486 364.209 148.652 367.257 150.983C370.304 153.314 371.852 156.603 371.898 160.849C371.898 165.374 370.329 168.759 367.186 170.999V171.282C371.282 172.281 373.33 175.353 373.33 180.494V195.36H361.537V182.572C361.537 180.807 360.633 179.928 358.827 179.932H342.029V195.364L342.033 195.36ZM342.033 158.922V169.496H353.968C355.584 169.579 357.174 169.071 358.439 168.064C359.605 167.073 360.242 165.591 360.159 164.063C360.196 163.341 360.059 162.62 359.76 161.962C359.461 161.303 359.008 160.726 358.439 160.279C357.165 159.33 355.602 158.851 354.014 158.922H342.033ZM406.492 147.49H419.573L400.848 177.926V195.369H389.058V177.992L370.266 147.486H383.63L395.053 166.773L406.492 147.49ZM446.982 147.49C449.211 147.435 451.428 147.837 453.497 148.671C455.565 149.505 457.441 150.754 459.008 152.34C462.251 155.529 463.871 159.542 463.866 164.371C463.866 169.325 462.222 173.405 458.938 176.598C457.373 178.158 455.509 179.385 453.458 180.207C451.407 181.028 449.211 181.426 447.002 181.377H434.043V195.385H422.258V147.49H446.982ZM434.043 170.203H445.912C447.464 170.245 448.971 169.683 450.12 168.634C451.282 167.552 451.91 166.011 451.836 164.425C451.855 163.676 451.703 162.931 451.39 162.25C451.076 161.569 450.611 160.968 450.029 160.495C448.904 159.455 447.419 158.893 445.887 158.926H434.043V170.208V170.203ZM465.057 147.49H507.869V158.913H492.358V195.356H480.568V158.922H465.057V147.49ZM550.926 189.291C546.26 194.049 540.14 196.43 532.56 196.438C524.983 196.447 518.863 194.066 514.205 189.295C509.534 184.482 507.199 178.571 507.199 171.561C507.199 164.554 509.534 158.601 514.205 153.701C518.868 148.843 524.987 146.412 532.56 146.412C540.136 146.412 546.256 148.843 550.926 153.697C555.593 158.56 557.929 164.513 557.929 171.565C557.929 178.613 555.593 184.52 550.926 189.291ZM532.56 184.861C536.614 184.861 539.853 183.55 542.28 180.927C544.69 178.357 545.998 174.946 545.923 171.423C545.97 169.678 545.672 167.941 545.047 166.311C544.422 164.68 543.482 163.19 542.28 161.923C539.899 159.296 536.66 157.985 532.56 157.989C528.463 157.989 525.199 159.305 522.768 161.923C520.383 164.502 519.101 167.912 519.196 171.423C519.119 174.933 520.398 178.337 522.768 180.927C525.199 183.55 528.463 184.861 532.56 184.861Z" fill="white"/>
</svg>
