<svg width="562" height="340" viewBox="0 0 562 340" fill="none" xmlns="http://www.w3.org/2000/svg">
<path d="M150.558 164.787C149.298 164.704 148.144 164.568 146.987 164.566C137.619 164.548 128.251 164.557 118.884 164.554C117.996 164.554 117.108 164.536 116.224 164.512C114.939 164.48 114.149 163.853 114.141 162.538C114.111 158.402 114.108 154.264 114.135 150.129C114.144 148.852 114.868 148.128 116.147 148.024C116.931 147.962 117.721 147.944 118.511 147.944C133.205 147.941 147.895 147.935 162.589 147.944C166.791 147.944 167.226 148.231 167.462 152.357C168.01 161.964 167.622 171.423 163.509 180.43C158.893 190.54 151.878 198.379 142.265 203.918C120.973 216.182 91.588 212.387 73.6218 194.551C65.1979 186.188 59.2448 176.508 57.1113 164.805C54.0578 148.071 57.1854 132.561 67.8787 119.106C76.7138 107.989 87.9781 100.262 102.095 97.2851C115.833 94.3883 128.988 96.1679 141.282 103.032C144.7 104.938 147.798 107.43 150.985 109.736C151.828 110.345 152.449 111.258 153.245 112.109C152.724 112.845 152.399 113.451 151.937 113.924C149.39 116.534 146.839 119.139 144.232 121.693C142.442 123.448 141.957 123.442 140.001 121.796C131.474 114.613 121.636 112.177 110.587 112.754C92.7005 113.688 76.554 129.739 73.971 147.454C70.9707 168.03 83.6287 188.92 105.764 193.534C119.36 196.369 131.601 193.079 142.055 183.835C146.445 179.951 151.055 170.803 150.558 164.787Z" fill="white"/>
<path d="M388.021 203.05C387.103 203.828 386.387 204.434 385.67 205.04C380.354 209.544 374.192 211.374 367.286 210.786C361.204 210.266 355.458 208.705 350.335 205.235C330.419 191.747 328.333 166.423 341.773 150.142C348.684 141.767 357.426 137.056 368.366 136.846C375 136.719 381.002 138.658 386.116 143.018C386.703 143.517 387.315 143.984 388.382 144.844C388.503 143.485 388.583 142.577 388.666 141.667C388.847 139.678 389.283 139.216 391.198 139.208C394.742 139.196 398.286 139.225 401.833 139.252C403.729 139.267 404.194 139.725 404.33 141.72C404.387 142.604 404.352 143.494 404.352 144.381C404.352 163.396 404.352 182.409 404.352 201.424C404.352 204.865 404.556 208.318 404.302 211.738C403.729 219.417 400.854 226.284 396.09 232.291C392.039 237.392 386.637 240.727 380.409 242.344C369.477 245.184 358.897 244.59 349.299 237.83C344.294 234.303 340.4 229.784 337.537 224.38C336.44 222.305 336.633 221.578 338.681 220.668C342.013 219.19 345.402 217.842 348.753 216.396C350.244 215.755 351.054 216.331 351.898 217.599C353.256 219.633 354.72 221.628 356.37 223.431C362.692 230.339 374.865 230.523 381.737 224.711C383.275 223.411 384.548 221.667 385.576 219.911C388.357 215.152 388.922 209.887 388.55 204.487C388.525 204.129 388.294 203.789 388.01 203.053L388.021 203.05ZM389.418 173.97C389.696 170.493 388.933 166.878 387.326 163.417C381.514 150.892 367.333 149.48 358.721 156.006C349.704 162.84 346.78 176.29 353.907 187.014C356.315 190.638 359.504 193.399 363.726 194.691C371.288 197.005 378.149 196.048 383.752 189.97C387.831 185.548 389.685 180.307 389.418 173.97Z" fill="white"/>
<path d="M458.511 185.028C460.528 191.277 468.148 196.438 476.928 195.637C483.126 195.072 488.23 192.465 492.121 187.553C493.545 185.752 493.838 185.705 495.756 186.976C499.112 189.199 502.43 191.478 505.977 193.878C505.541 194.733 505.304 195.477 504.852 196.045C499.074 203.258 491.983 208.416 482.704 210.207C469.206 212.814 457.726 209.013 448.331 199.164C443.175 193.757 440.171 187.151 439.171 179.699C437.578 167.851 440.163 157.148 448.257 148.138C454.454 141.242 462.229 137.464 471.609 137.044C479.353 136.698 486.521 138.25 492.774 143.003C497.963 146.95 501.86 151.978 504.646 157.863C505.274 159.196 505.864 160.556 506.407 161.928C507.429 164.526 507.278 164.878 504.781 165.936C502.422 166.935 500.052 167.907 497.682 168.88C485.744 173.778 473.797 178.667 461.859 183.565C460.782 184.008 459.721 184.499 458.511 185.028ZM486.967 158.986C486.265 156.524 484.765 155.135 482.952 154.142C476.928 150.837 470.78 150.934 464.987 154.464C458.911 158.165 455.402 163.645 455.361 170.99C455.361 171.221 455.653 171.455 455.973 171.933C466.31 167.759 476.644 163.603 486.967 158.986Z" fill="white"/>
<path d="M327.283 174.059C327.908 193.37 312.269 210.872 290.294 210.914C268.289 210.955 252.701 193.267 253.021 173.305C253.352 152.457 270.915 136.734 290.597 136.894C309.21 137.045 327.977 152.206 327.283 174.059ZM269.854 173.879C269.513 178.954 271.092 183.592 274.228 187.76C282.22 198.369 298.096 198.434 306.074 187.866C311.18 181.1 312.076 173.521 309.298 165.779C303.839 150.559 285.846 147.982 276.143 157.76C271.753 162.185 269.549 167.449 269.854 173.879Z" fill="white"/>
<path d="M172.799 173.87C172.119 152.508 190.591 136.885 209.945 136.895C228.749 136.903 247.165 152.064 247.058 174.033C246.97 192.307 232.992 210.929 209.608 210.879C188.035 210.832 172.16 193.64 172.799 173.87ZM230.272 173.986C230.213 172.709 230.225 171.426 230.068 170.161C229.938 169.094 229.654 168.039 229.364 166.998C225.574 153.341 209.688 147.63 198.139 155.765C186.384 164.045 186.271 182.966 197.926 191.757C205.971 197.825 217.425 196.886 224.248 189.537C228.308 185.168 230.409 180.004 230.272 173.986Z" fill="white"/>
<path d="M414.861 154.597C414.861 137.952 414.858 121.307 414.861 104.662C414.861 100.399 414.899 100.37 419.138 100.361C422.29 100.355 425.448 100.32 428.601 100.382C431.136 100.432 431.467 100.81 431.566 103.326C431.594 104.015 431.575 104.703 431.575 105.395C431.575 138.192 431.575 170.991 431.575 203.787C431.575 207.066 429.957 208.708 426.719 208.711C423.861 208.711 421.001 208.747 418.143 208.697C415.274 208.646 414.894 208.292 414.88 205.419C414.841 197.736 414.863 190.054 414.863 182.371C414.863 173.113 414.861 163.855 414.861 154.597Z" fill="white"/>
</svg>
