<svg width="562" height="340" viewBox="0 0 562 340" fill="none" xmlns="http://www.w3.org/2000/svg">
<mask id="mask0_1084_233" style="mask-type:luminance" maskUnits="userSpaceOnUse" x="81" y="105" width="399" height="130">
<path d="M480 105.375H81.4644V234.381H480V105.375Z" fill="white"/>
</mask>
<g mask="url(#mask0_1084_233)">
<path d="M254.164 232.52H221.879L242.071 107.639H274.352L254.164 232.52Z" fill="white"/>
<path d="M371.196 110.692C364.828 108.165 354.728 105.375 342.239 105.375C310.36 105.375 287.906 122.379 287.771 146.69C287.506 164.627 303.845 174.589 316.065 180.57C328.554 186.681 332.801 190.67 332.801 196.117C332.675 204.484 322.707 208.34 313.413 208.34C300.524 208.34 293.618 206.352 283.121 201.697L278.871 199.702L274.353 227.735C281.924 231.185 295.874 234.247 310.36 234.381C344.234 234.381 366.287 217.64 366.549 191.733C366.678 177.517 358.049 166.624 339.448 157.723C328.157 152.009 321.242 148.156 321.242 142.309C321.374 136.994 327.092 131.551 339.836 131.551C350.333 131.284 358.045 133.807 363.887 136.332L366.807 137.658L371.196 110.692Z" fill="white"/>
<path d="M414.105 188.279C416.764 181.105 426.993 153.338 426.993 153.338C426.858 153.605 429.646 146.031 431.24 141.382L433.496 152.143C433.496 152.143 439.611 182.035 440.937 188.279C435.893 188.279 420.481 188.279 414.105 188.279ZM453.955 107.639H428.984C421.281 107.639 415.431 109.895 412.11 118L364.154 232.518H398.031C398.031 232.518 403.607 217.105 404.804 213.785C408.522 213.785 441.476 213.785 446.255 213.785C447.182 218.17 450.108 232.518 450.108 232.518H480L453.955 107.639Z" fill="white"/>
<path d="M194.913 107.639L163.296 192.796L159.841 175.525C153.995 155.597 135.663 133.945 115.206 123.179L144.166 232.388H178.305L229.05 107.639H194.913Z" fill="white"/>
<path d="M133.938 107.639H81.9958L81.4644 110.162C121.982 120.525 148.817 145.505 159.842 175.53L148.55 118.136C146.691 110.16 140.978 107.902 133.938 107.639Z" fill="white"/>
</g>
</svg>
